<?xml version="1.0" encoding="UTF-8" standalone="no"?>
<svg
   xmlns:dc="http://purl.org/dc/elements/1.1/"
   xmlns:cc="http://creativecommons.org/ns#"
   xmlns:rdf="http://www.w3.org/1999/02/22-rdf-syntax-ns#"
   xmlns:svg="http://www.w3.org/2000/svg"
   xmlns="http://www.w3.org/2000/svg"
   xmlns:sodipodi="http://sodipodi.sourceforge.net/DTD/sodipodi-0.dtd"
   xmlns:inkscape="http://www.inkscape.org/namespaces/inkscape"
   version="1.1"
   id="svg2"
   xml:space="preserve"
   width="6666.6665"
   height="4800"
   viewBox="0 0 6666.6665 4800"
   sodipodi:docname="vectorstock_33336533.eps"><metadata
     id="metadata8"><rdf:RDF><cc:Work
         rdf:about=""><dc:format>image/svg+xml</dc:format><dc:type
           rdf:resource="http://purl.org/dc/dcmitype/StillImage" /></cc:Work></rdf:RDF></metadata><defs
     id="defs6" /><sodipodi:namedview
     pagecolor="#ffffff"
     bordercolor="#666666"
     borderopacity="1"
     objecttolerance="10"
     gridtolerance="10"
     guidetolerance="10"
     inkscape:pageopacity="0"
     inkscape:pageshadow="2"
     inkscape:window-width="640"
     inkscape:window-height="480"
     id="namedview4" /><g
     id="g10"
     inkscape:groupmode="layer"
     inkscape:label="ink_ext_XXXXXX"
     transform="matrix(1.3333333,0,0,-1.3333333,0,4800)"><g
       id="g12"
       transform="scale(0.1)"><path
         d="M 0,0 H 50000 V 36000 H 0 V 0"
         style="fill:none;fill-opacity:1;fill-rule:evenodd;stroke:none"
         id="path14" /><path
         d="m 130.383,10703.9 c 0,0 19275.117,185.9 19343.717,383.6 68.8,198.4 -205.3,747.4 -197.7,470.1 7.7,-276.5 3888,-4418.7 4335.2,-4228.3 450,191.3 529.7,1271.6 493.7,1739 -36.2,470.2 -149.4,823.5 -263.9,703.8 -114.4,-119.3 12928.6,859 13331,110.8 399.9,-743.6 726.5,-2218.6 -842.3,-2383.3 C 34784.9,7337.3 23536.8,7025 24061.2,7406 c 529.5,384.6 13159.1,216.2 12569.2,661.1 -590.3,445.3 686.7,1070 98.3,1603 -589.6,534 -12696.6,183.2 -13191.4,493.2 -494.6,309.8 -3899.3,3247.5 -3899.3,3247.5 0,0 465.3,-595.2 177.6,-1125 -285,-524.8 -909.8,-696 -622.1,-412.7 289.5,285.1 868.7,1103.1 783.3,1547.2 -85.8,446.2 -1447.1,1883.6 -1044.2,1031 399.8,-846 4375.9,-3775.5 5063.5,-3924.4 690.3,-149.5 13424.2,-264.7 13869.8,373.7 450.8,645.7 816.2,823.7 -797.4,1177.9 -1599.8,351.2 -12603.6,-216.2 -12603.6,-216.2 0,0 379.1,-1082.6 -122.5,-1130.6 -499.1,-47.7 13706.6,192 12654.7,472.1 -1046.6,278.7 -12110.5,19 -10863,41.1 1261.2,22.4 -1823.8,695.5 -1978.1,854.8 -154.4,159.4 -4883.6,3732 -4883.6,3732 0,0 438.6,-775.8 136,-828 -301.5,-51.9 -111.4,1333 9.8,1085.5 120.9,-247.1 4158.4,-3227.2 5130.6,-3285.1 979.6,-58.4 9793.3,-100.8 10273.1,81.7 482.6,183.5 1111.3,545.1 1576,427.1 465.6,-118.4 9334,-3726.9 9258,-3941.7 -75.6,-214.1 478.9,175.7 113,472.7 -366.3,297.2 -8775.2,3353.9 -8470.6,3361.5 305.3,7.7 9199.2,-3051.1 9152.3,-2748.2 -47.1,303.9 -254.4,1088.6 -670.8,1389.2 -416.7,300.6 -8736.5,1919 -8391.1,1884.6 346.4,-34.3 8272.8,-1090.4 8272.8,-1090.4 0,0 -9646.5,1270.9 -9082.4,1286.8 566.8,15.9 9281.6,470.8 9313.4,699.1 32,229 380.3,377.1 -23.4,501.8 -403.1,124.4 -10236.3,-1140.3 -9583.2,-1078.1 656.8,62.7 9527.5,1351.6 9465.4,1579.5 -62.4,228.5 -5575.7,6070.8 -6408,6069.5 -827.1,-1.3 -3463.8,-505.1 -5394.7,-1369.7 -1883.5,-843.2 -3098.7,-1997.4 -3117.4,-2403.7 -18.5,-404.1 4374.3,-4470.6 4298.3,-4342.9 -76.1,128 -10456.6,134.7 -10457.5,10 -1,-124.6 73.6,-619.1 -198.7,-378.5 -272.5,240.8 -5196.6,3883.9 -5196.6,3883.9 0,0 132.7,-672.5 160.1,-248.1 27.6,426.9 -197.3,203.7 27.6,426.9 225.9,224.2 3636,251.2 3675.4,426.9 39.5,176.2 -293.9,4413.6 -50.2,4611.8 245,199.1 5199.6,581.2 5688.2,-234.1 485.8,-810.5 -5969.7,-647.4 -5361,-110.6 615.7,543 4977.2,132.8 5144,3 166.7,-129.7 68.1,-1893 68.1,-1893 0,0 582.9,1226.1 1584.8,494 1001.3,-731.3 78,-3664.1 -533.2,-4266.4 -603.6,-594.7 -1220.2,-490.6 -1216.1,-359.8 4.1,131.1 -196.3,3339.3 192.3,3677.5 391.3,340.6 1184.6,1075.7 1449.2,215 262.6,-853.5 -395.9,-2501.7 -908.1,-2789.5 -508.4,-285.6 -609.6,-1098.2 -873.1,-1629.4 -261.2,-526.6 -4275.8,-677.9 -4747.1,-272.5 -472.1,405.7 -324,6765.3 -119.9,6278.1 203.4,-485 -77.4,-5309 634.9,-5537.6 714.4,-229.2 3282.9,-846.8 3668,-142.4 389.6,712.8 445.3,1198.5 389.6,712.8 -55.2,-482.8 745,-951.5 1738.6,-915.9 1002,35.9 1430.9,226.4 1412.7,709.3 -18.3,485.8 -1095.1,1912.2 -700.7,1258 392.5,-651 3425.9,-3222.9 3499.4,-3394.6 73.5,-171.3 1009.8,-794.6 1009.8,-794.6 0,0 1277.2,905.2 3626.2,1641.1 2414.9,756.6 6026.7,953.7 6026.7,953.7 0,0 -8444.5,-1997.9 -8509.4,-2261.3 -64.7,-262.4 1516.3,-1003.6 1650.3,-1432.1 133.4,-426.7 -916.5,-1443.6 -172.7,-1302.8 1061.5,35 12138.5,-22 12138.5,-22"
         style="fill:none;stroke:#2e2929;stroke-width:119.701;stroke-linecap:round;stroke-linejoin:round;stroke-miterlimit:10;stroke-dasharray:none;stroke-opacity:1"
         id="path16" /></g></g></svg>
