<?xml version="1.0" encoding="UTF-8" standalone="no"?>
<svg
   xmlns:dc="http://purl.org/dc/elements/1.1/"
   xmlns:cc="http://creativecommons.org/ns#"
   xmlns:rdf="http://www.w3.org/1999/02/22-rdf-syntax-ns#"
   xmlns:svg="http://www.w3.org/2000/svg"
   xmlns="http://www.w3.org/2000/svg"
   xmlns:sodipodi="http://sodipodi.sourceforge.net/DTD/sodipodi-0.dtd"
   xmlns:inkscape="http://www.inkscape.org/namespaces/inkscape"
   version="1.1"
   id="svg2"
   xml:space="preserve"
   width="1663.9867"
   height="1351.6133"
   viewBox="0 0 1663.9867 1351.6133"
   sodipodi:docname="vectorstock_21607502.eps"><metadata
     id="metadata8"><rdf:RDF><cc:Work
         rdf:about=""><dc:format>image/svg+xml</dc:format><dc:type
           rdf:resource="http://purl.org/dc/dcmitype/StillImage" /></cc:Work></rdf:RDF></metadata><defs
     id="defs6" /><sodipodi:namedview
     pagecolor="#ffffff"
     bordercolor="#666666"
     borderopacity="1"
     objecttolerance="10"
     gridtolerance="10"
     guidetolerance="10"
     inkscape:pageopacity="0"
     inkscape:pageshadow="2"
     inkscape:window-width="640"
     inkscape:window-height="480"
     id="namedview4" /><g
     id="g10"
     inkscape:groupmode="layer"
     inkscape:label="ink_ext_XXXXXX"
     transform="matrix(1.3333333,0,0,-1.3333333,0,1351.6133)"><g
       id="g12"
       transform="scale(0.1)"><path
         d="M 454.918,10112.1 C 452.488,8943.42 439.008,538.609 478.891,86 1131.48,115.5 1810.47,53.9023 1915.99,179.82 c 80.11,95.621 -126.71,174.231 -159.35,232.91 -131.79,236.922 141.41,475.719 239.03,723.24 51.63,130.89 238.64,265.33 263.93,387.14 23.6,113.72 62.32,603.69 -177.08,709.94 -175.6,-148.96 -339.62,-823.14 -515.88,-974.51 -124.81,-107.18 -202.25,-55.35 -239.04,-104.19 -94.56,-125.54 18.17,-188.049 56,-310.92 115.62,-375.528 -117.29,-694.25 482.26,-620.258 16.01,109.641 -323.74,-24.961 -311.48,171.168 31.86,509.75 -125.48,467.941 -36.77,649.68 83.06,170.18 98.06,67.42 490.32,619.05 416.01,585.01 408.36,273.02 40.3,1022.23 -3.05,6.2 -191.75,354.83 -159.11,530.77 77.11,8.13 496.25,121.09 448.82,214.98 -67.95,134.51 -183.06,-141.63 -627.33,-116.27 -389.08,22.2 -754.508,-403.85 -805.899,-211.41 -32.945,123.37 -98.285,809.89 -30.645,1090.97 110.2,457.96 343.224,600.65 61.289,1189.04 -119.726,249.87 -316.437,1156.8 -116.453,1317.75 288.458,232.16 421.428,18.36 438.648,-300.01 18.28,-337.85 11.04,-163.53 37.48,-385.31 64.87,-543.87 -255.49,-555.8 397.41,-347 103.02,32.95 241.43,113.69 441.14,158.94 110.02,24.93 203.93,-13.78 321.36,-11.8 233.17,3.92 450.33,24.32 529.84,-132.96 11.13,-22.01 -12.24,-45.64 -34.59,-35.21 -69.9,32.63 -140.3,63.94 -218.38,67.9 58.42,-40.46 141.24,-65.93 201.7,-98.35 56.28,-30.18 36.23,-115.78 -27.61,-117.71 -106.54,-3.21 -242.98,5.02 -306.25,32.23 40.27,-15.93 121.5,-42.76 151.3,-74.54 24.56,-26.21 -46.14,-50.03 -79.3,-36.24 -167.27,69.59 -341.12,14.96 -451.32,130.88 -40.79,42.9 -187.66,-31.95 -267.56,-98.07 -355.49,-294.19 -943.86,-585.34 -1029.676,-444.37 -162.082,266.29 -225.125,586.87 -251.289,864.2 -61.289,649.68 -65,676.83 98.062,1005.16 53.977,108.67 -20.359,529.09 -25.574,733.19 -10.555,413.13 215.578,1084.08 989.597,743.88 547.11,-240.47 438.9,-495.58 356.34,-728.08 -32.95,-92.79 -111.48,-89.94 -140.03,-217.98 -11.7,-52.42 1.34,-110.28 20.23,-175.5 -9.62,-48.33 -97.21,-40.88 -123.99,-60.35 -14.89,-10.82 28.8,-62.78 18.51,-81.9 -35,-65 -92.32,-2.2 -100.7,-25.26 -9.4,-25.89 55.7,-84.74 -24.3,-69.74 -52.16,9.78 37.83,-135.84 -115,-160 -207.74,-32.84 -613.58,421.4 -408.45,800.88 96.8,179.08 108.33,-14.06 182.95,-43.25 185.89,-72.72 220.24,74.1 474.91,242.79 284.18,188.25 322.85,-397.87 410.64,-322.93 64.89,55.38 128.82,566.75 -89.54,664.38 -86.45,38.66 -392.33,368.56 -628.81,416.01 C 1169.48,8674.7 720.84,8466.3 654.82,8170.48 618.93,8009.68 335.781,8276.17 150.836,8055.65 -270.41,7553.4 524.707,7179.2 242.773,6719.52 c 0,0 166.872,-93.71 318.711,159.35 147.094,245.17 55.161,1041.94 154.805,600.69 103.305,-457.44 649.421,-460.93 979.071,-974.56 146.36,-228.05 153.21,-260.47 263.54,-536.28 84.34,-210.86 40.28,-73.75 200.54,-67.42 -17.81,-5.46 -124.95,166.66 -100.88,177.97 737.43,346.69 1100.02,520.78 1100.02,520.78 0,0 132.62,-151 194.18,-217.11 384.62,-413.04 62.36,-399.37 -312.63,-548.7 13.27,13.77 251.62,175.98 431.49,139.06 301.72,-61.92 469.28,-118.04 626.31,-249.92 -122.9,-22.44 -1038.99,-248.06 -1342.26,-465.63 554.88,113.84 1188.83,318.66 1342.27,318.71 98.37,-145.33 23.88,-112.31 -815.17,-294.2 -39.87,-8.64 -88.61,-20.04 -128.71,0 -73.54,36.78 -62.62,-92.55 -85.8,-98.06 -18.01,-4.28 -57.4,15.91 -68.09,0 -27.56,-40.99 -64.56,23.5 -85.14,18.39 -34.08,-8.47 21.93,-61.64 -42.9,-55.16 -61.3,6.13 -114.16,19.34 -140.97,12.26 -84.3,-22.26 -441.29,337.1 -588.39,183.87 88.92,-310.49 710.98,-1290.18 986.12,-1547.6 -251.29,-202.27 -407.85,-122 -501.91,-183.88 462.3,-983.31 114.19,-890.21 259.39,-1542.85 101.27,-455.18 18.84,-1294.32 779.83,-1695.609 98.96,-52.191 379.89,2.871 385.27,-143.012 C 4059.43,15.4023 3557.77,38 3460.66,55.1992 3298.82,83.9023 3001.53,29.6016 2859.87,124.699 c -230.68,154.711 70.5,134.211 -263.54,692.531 -109.55,183.12 -350.38,553.27 -263.56,815.19 48.23,145.51 568.28,392.75 845.81,680.32 161.4,167.25 240.08,284.21 98.07,570 -330.43,664.97 -257.41,606.76 -343.22,735.47 -46.37,-394.26 54.33,-184.98 183.43,-887.38 70.53,-383.7 -587.96,-350.66 -287.64,-1202.61 C 2958.7,1160.94 2974.49,675.961 3288.91,443.383 3983.88,-70.6992 10211.7,33.6992 12454.9,33.6992"
         style="fill:none;stroke:#100f0d;stroke-width:50;stroke-linecap:round;stroke-linejoin:round;stroke-miterlimit:10;stroke-dasharray:none;stroke-opacity:1"
         id="path14" /></g></g></svg>
