<?xml version="1.0" encoding="UTF-8" standalone="no"?>
<svg
   xmlns:dc="http://purl.org/dc/elements/1.1/"
   xmlns:cc="http://creativecommons.org/ns#"
   xmlns:rdf="http://www.w3.org/1999/02/22-rdf-syntax-ns#"
   xmlns:svg="http://www.w3.org/2000/svg"
   xmlns="http://www.w3.org/2000/svg"
   xmlns:sodipodi="http://sodipodi.sourceforge.net/DTD/sodipodi-0.dtd"
   xmlns:inkscape="http://www.inkscape.org/namespaces/inkscape"
   version="1.1"
   id="svg2"
   xml:space="preserve"
   width="4162.96"
   height="5002.6665"
   viewBox="0 0 4162.96 5002.6665"
   sodipodi:docname="vectorstock_33390362.eps"><metadata
     id="metadata8"><rdf:RDF><cc:Work
         rdf:about=""><dc:format>image/svg+xml</dc:format><dc:type
           rdf:resource="http://purl.org/dc/dcmitype/StillImage" /></cc:Work></rdf:RDF></metadata><defs
     id="defs6" /><sodipodi:namedview
     pagecolor="#ffffff"
     bordercolor="#666666"
     borderopacity="1"
     objecttolerance="10"
     gridtolerance="10"
     guidetolerance="10"
     inkscape:pageopacity="0"
     inkscape:pageshadow="2"
     inkscape:window-width="640"
     inkscape:window-height="480"
     id="namedview4" /><g
     id="g10"
     inkscape:groupmode="layer"
     inkscape:label="ink_ext_XXXXXX"
     transform="matrix(1.3333333,0,0,-1.3333333,0,5002.6667)"><g
       id="g12"
       transform="scale(0.1)"><path
         d="M 29580.9,11683.5 C 29312.9,9643.3 28267.2,7828.7 26634.4,6575 25274.9,5530 23643.4,4978.5 21956.7,4978.5 c -338,0 -677.3,22.2 -1017.4,67.3 -2040.9,267.3 -3855.5,1313.7 -5109.2,2945.9 -1253.8,1632.1 -1797.2,3654.8 -1529.2,5695.7 267.3,2040.2 1313.7,3854.8 2945.8,5108.6 3369.4,2588.3 8216.1,1952.6 10804.3,-1416.7 1253.8,-1632.2 1797.2,-3654.9 1529.9,-5695.8 z m -284.8,6651.9 c -1513,1970.2 -3702.7,3232.7 -6165.1,3555.2 -410.7,53.9 -820.8,80.8 -1228.1,80.8 -2035.5,0 -4003.7,-665.3 -5645.3,-1926.4 -1969.5,-1513 -3232,-3702 -3555.2,-6165 -322.5,-2462.4 332.7,-4903.3 1845.6,-6873.4 1513,-1969.5 3702.7,-3232 6165.1,-3555.2 410.7,-53.2 820.8,-80.2 1228.1,-80.2 2035.5,0 4004.4,665.3 5645.3,1925.8 1969.5,1513 3232.6,3702.6 3555.2,6165.7 323.2,2462.4 -332.7,4903.2 -1845.6,6872.7"
         style="fill:#231f20;fill-opacity:1;fill-rule:nonzero;stroke:none"
         id="path14" /><path
         d="m 12843.2,28280.5 c 0,-408.7 -332,-740.6 -740.7,-740.6 -408.1,0 -740,331.9 -740,740.6 0,408.1 331.9,740.7 740,740.7 408.7,0 740.7,-332.6 740.7,-740.7"
         style="fill:#231f20;fill-opacity:1;fill-rule:nonzero;stroke:none"
         id="path16" /><path
         d="m 19274.2,36848.7 v -1990 c 0,-152.7 -123.8,-276.4 -276.4,-276.4 H 8681.95 c -98.3,0 -192.56,-39.1 -262.59,-108.5 l -5628.4,-5629 c -72.04,-72.1 -111.77,-170.4 -109.07,-272 L 2774.13,24992 V 11874.1 H 253.172 C 113.93,11874.1 0,11988 0,12127.3 v 24421.9 c 0,533.9 436.875,970.8 970.828,970.8 H 18602.8 c 370.8,0 671.4,-300.6 671.4,-671.3"
         style="fill:#231f20;fill-opacity:1;fill-rule:nonzero;stroke:none"
         id="path18" /><path
         d="m 20386.5,28280.5 c 0,-408.7 -331.9,-740.6 -740.7,-740.6 -408,0 -740.6,331.9 -740.6,740.6 0,408.1 332.6,740.7 740.6,740.7 408.8,0 740.7,-332.6 740.7,-740.7"
         style="fill:#231f20;fill-opacity:1;fill-rule:nonzero;stroke:none"
         id="path20" /><path
         d="M 8302.2,33305.6 8267.19,29510 c -6.07,-615.4 -433.63,-1113 -954.12,-1113 h -8.08 l -3875.71,36.4 4872.92,4872.2"
         style="fill:#231f20;fill-opacity:1;fill-rule:nonzero;stroke:none"
         id="path22" /><path
         d="m 16545.1,28280.5 c 0,-408.7 -332.6,-740.6 -740.6,-740.6 -408.7,0 -740.7,331.9 -740.7,740.6 0,408.1 332,740.7 740.7,740.7 408,0 740.6,-332.6 740.6,-740.7"
         style="fill:#231f20;fill-opacity:1;fill-rule:nonzero;stroke:none"
         id="path24" /><path
         d="M 16181.5,4432.4 14539.9,3171.3 c -102.3,-78.1 -229.5,-111.8 -358.8,-95 -130,16.9 -244.5,82.2 -322.6,184.5 l -3107.4,4045.4 c -85.5,111.1 -115.1,249.2 -92.9,377.7 31,47.2 51.2,102.4 57.9,161 30.3,53.8 72,103 124.6,142.7 l 1638.2,1258.5 c 347.4,-955.5 843,-1862.5 1480,-2692 645,-839 1397.1,-1547.3 2222.6,-2121.7"
         style="fill:#231f20;fill-opacity:1;fill-rule:nonzero;stroke:none"
         id="path26" /><path
         d="m 25961,14594.4 -2413.9,-2286 2154.7,-2275.2 c 212.8,-224.9 325.2,-519.8 317.1,-830.9 -8.7,-311.1 -137.3,-599.3 -362.2,-812 l -104.4,-99 c -216.8,-205.4 -498.9,-317.8 -797.9,-317.8 -10.8,0 -21.5,0 -33,0.6 -311.1,8.1 -599.2,136.7 -812,361.6 l -2154.7,2275.9 -2137.1,-2024 c -224.9,-212.8 -519.8,-326.6 -830.9,-316.5 -311.1,8.1 -599.3,136.7 -812.1,361.6 l -99,104.3 c -212.7,224.9 -325.2,519.8 -317.1,830.9 8.7,311.1 137.4,599.3 362.3,812.1 l 2136.4,2024 -2154.6,2275.2 c -440.4,465.3 -420.2,1202.6 45.1,1642.9 l 104.3,99 c 465.3,441 1202.6,420.9 1643,-44.4 l 2154.7,-2275.9 2413.8,2286 c 466,440.3 1202.6,420.8 1643.7,-45.1 l 98.9,-104.4 c 440.4,-465.3 420.2,-1202.6 -45.1,-1642.9 z m 1500.9,2332.4 c -1368.9,1782.3 -3438,2718.2 -5528.8,2718.2 -1480.6,0 -2972.1,-468.6 -4233.9,-1438.2 -1474.6,-1132.6 -2419.9,-2772.1 -2661.6,-4616.4 -241.8,-1843.6 249.1,-3671.7 1381.6,-5146.3 1133.2,-1474.6 2772.1,-2419.9 4616.4,-2661.6 1843.6,-242.5 3671.7,248.4 5146.3,1381.6 1475.3,1132.6 2420.6,2772.1 2662.4,4616.4 241.7,1843.6 -249.2,3671.7 -1382.4,5146.3"
         style="fill:#231f20;fill-opacity:1;fill-rule:nonzero;stroke:none"
         id="path28" /><path
         d="m 22766.7,12592.5 c -148.8,-140.7 -155.5,-376.4 -14.1,-525.2 l 2409.9,-2545.2 c 76,-80.8 116.4,-187.1 113.7,-299.6 -3.3,-112.4 -49.1,-216.8 -129.9,-292.9 l -104.4,-99 c -80.8,-76.7 -188.5,-117.1 -300.3,-113.8 -112.4,2.7 -216.1,49.2 -292.9,130 L 22038.9,11392 c -73.4,76.7 -171.7,115.8 -270,115.8 -91.6,0 -183.2,-33.7 -255.2,-101.7 L 19107.2,9126.9 c -80.8,-76.1 -185.2,-117.2 -300.3,-113.1 -112.5,2.7 -216.2,49.1 -292.9,129.9 l -99,104.4 c -76.1,80.8 -116.5,187.2 -113.8,299.6 3.3,112.5 49.1,216.8 129.9,292.9 l 2407.2,2279.3 c 71.4,67.3 113.1,160.9 115.8,259.2 2.7,99 -34.3,193.9 -101.7,266 l -2409.8,2545.2 c -159.6,167.6 -152.2,433.6 16.1,592.5 l 104.4,99 c 167.7,158.9 433.7,151.5 592.5,-16.2 l 2409.9,-2545.2 c 68,-71.4 161.6,-113.1 259.9,-115.8 100.4,-2.7 193.9,33.7 265.3,101.7 l 2683.9,2541.1 c 167.7,158.9 433.7,151.5 592.6,-16.1 l 98.9,-104.4 c 159.6,-168.3 152.2,-434.3 -16.1,-593.2 l -2683.3,-2541.2"
         style="fill:#231f20;fill-opacity:1;fill-rule:nonzero;stroke:none"
         id="path30" /><path
         d="m 19645.8,26797.2 c -818.1,0 -1483.3,665.2 -1483.3,1483.3 0,818.1 665.2,1483.4 1483.3,1483.4 818.1,0 1483.4,-665.3 1483.4,-1483.4 0,-818.1 -665.3,-1483.3 -1483.4,-1483.3 z m -3841.3,0 c -818.1,0 -1484.1,665.2 -1484.1,1483.3 0,818.1 666,1483.4 1484.1,1483.4 818.1,0 1483.3,-665.3 1483.3,-1483.4 0,-818.1 -665.2,-1483.3 -1483.3,-1483.3 z m -3702,0 c -817.4,0 -1483.4,665.2 -1483.4,1483.3 0,818.1 666,1483.4 1483.4,1483.4 818.1,0 1484,-665.3 1484,-1483.4 0,-818.1 -665.9,-1483.3 -1484,-1483.3 z m 10059.9,7042.4 h -2515.2 c -0.7,0 -0.7,0 -1.4,0 -0.6,0 -0.6,0 -1.3,0 H 9050.26 l -40.39,-4336.3 c -9.43,-1022.8 -769.61,-1849 -1696.8,-1849 h -14.82 l -3850.12,35.7 69.36,-2683.2 V 8318.9 c 0,-33 28.95,-61.3 61.27,-61.3 h 6519.84 c 74.8,119.2 171.1,228.3 289.6,319.2 l 1666.9,1280.5 c 109,83.7 159.8,224 126.3,357.2 -305.8,1212.7 -382.7,2484.5 -215.6,3762.4 348.8,2659 1712.3,5023.8 3839.4,6657.3 1953.4,1500.4 4335.4,2219.4 6770.6,2057 201.5,-13.4 372.7,144.6 372.7,346.5 v 10015.7 c 0,432.4 -353.7,786.2 -786.1,786.2"
         style="fill:#231f20;fill-opacity:1;fill-rule:nonzero;stroke:none"
         id="path32" /><path
         d="M 12527.4,3773.9 11819.7,3209 8321.73,459.801 C 7559.51,-139.5 6530.66,-155 6074.81,425.398 5618.96,1005.1 5877.53,2001.7 6639.05,2600.3 L 10133,5346.1 10889.1,5907 12527.4,3773.9"
         style="fill:#231f20;fill-opacity:1;fill-rule:nonzero;stroke:none"
         id="path34" /></g></g></svg>
