<?xml version="1.0" encoding="UTF-8" standalone="no"?>
<svg
   xmlns:dc="http://purl.org/dc/elements/1.1/"
   xmlns:cc="http://creativecommons.org/ns#"
   xmlns:rdf="http://www.w3.org/1999/02/22-rdf-syntax-ns#"
   xmlns:svg="http://www.w3.org/2000/svg"
   xmlns="http://www.w3.org/2000/svg"
   xmlns:sodipodi="http://sodipodi.sourceforge.net/DTD/sodipodi-0.dtd"
   xmlns:inkscape="http://www.inkscape.org/namespaces/inkscape"
   version="1.1"
   id="svg2"
   xml:space="preserve"
   width="2800"
   height="2800"
   viewBox="0 0 2800 2800"
   sodipodi:docname="vectorstock_38022544.eps"><metadata
     id="metadata8"><rdf:RDF><cc:Work
         rdf:about=""><dc:format>image/svg+xml</dc:format><dc:type
           rdf:resource="http://purl.org/dc/dcmitype/StillImage" /></cc:Work></rdf:RDF></metadata><defs
     id="defs6" /><sodipodi:namedview
     pagecolor="#ffffff"
     bordercolor="#666666"
     borderopacity="1"
     objecttolerance="10"
     gridtolerance="10"
     guidetolerance="10"
     inkscape:pageopacity="0"
     inkscape:pageshadow="2"
     inkscape:window-width="640"
     inkscape:window-height="480"
     id="namedview4" /><g
     id="g10"
     inkscape:groupmode="layer"
     inkscape:label="ink_ext_XXXXXX"
     transform="matrix(1.3333333,0,0,-1.3333333,0,2800)"><g
       id="g12"
       transform="scale(0.1)"><path
         d="M 0,0 H 21000 V 21000 H 0 V 0"
         style="fill:none;fill-opacity:1;fill-rule:evenodd;stroke:none"
         id="path14" /><path
         d="m 10339.9,4064.3 c 347.7,-85.2 896.4,-59.5 1133.5,335 111.7,185.8 333.4,499 384.1,397.7 71.2,-142.5 -134.2,-571.2 61.6,-580 195.7,-9 275.9,578.4 373.7,471.5 97.8,-106.8 115.7,-560.5 338.1,-498.2 222.5,62.2 169.1,613.9 329.3,480.4 160.1,-133.4 44.5,-533.9 338.1,-471.6 293.7,62.3 204.7,711.9 356,631.9 151.2,-80.2 311.5,-480.6 498.3,-347.1 186.8,133.5 -44.5,622.9 71.3,587.3 115.5,-35.6 338.1,-364.8 453.7,-213.5 115.7,151.1 -195.7,551.7 -35.6,569.5 160.3,17.7 649.7,-302.6 694.2,-98 44.5,204.8 -409.4,507.3 -169.2,578.4 240.3,71.2 471.6,-329.2 605.1,-26.6 133.5,302.4 -355.9,560.5 -231.3,649.5 124.5,89 685.2,26.8 658.5,195.8 -26.8,169.1 -551.7,275.9 -427.2,436.1 124.6,160.1 685.2,195.7 578.4,400.4 -106.8,204.6 -462.6,115.6 -444.9,311.4 17.8,195.8 489.5,275.9 364.9,471.6 -124.6,195.9 -507.2,106.8 -516.1,258.1 -9,151.3 382.6,391.6 240.3,542.9 -142.5,151.3 -480.6,-115.8 -507.2,71.1 -26.8,187 373.6,560.6 142.3,667.4 -231.3,106.8 -569.5,-266.9 -605.1,-115.6 -35.6,151.2 240.2,578.3 62.2,631.8 -177.9,53.4 -471.6,-373.7 -524.9,-97.9 -53.5,275.9 160.1,489.4 -9,542.8 -169,53.4 -435.9,-400.4 -551.7,-213.6 -115.6,186.8 89,489.4 -169,516.1 -258.1,26.8 -329.3,-462.7 -480.6,-329.3 -151.2,133.5 26.7,489.6 -258,462.8 -284.8,-26.7 -302.5,-587.3 -453.8,-462.8 -151.3,124.7 -195.8,534 -409.4,409.4 -213.5,-124.6 -97.8,-516.1 -311.4,-489.4 -213.5,26.7 -276,400.5 -445,249.2 -169.1,-151.2 106.8,-516.1 -124.6,-551.8 -231.3,-35.5 -489.4,311.5 -614,178 -124.5,-133.5 169.1,-489.4 8.9,-560.6 -160.1,-71.1 -507.2,160.2 -605,-8.8 -98,-169.1 204.6,-462.9 44.5,-542.9 -160.3,-80.1 -453.89,178 -507.37,0 -53.3,-178 276,-427.1 115.74,-533.9 -160.09,-106.8 -533.92,-26.7 -569.44,-195.8 -35.69,-169.1 364.83,-444.9 258.04,-525 -106.77,-80 -507.29,-302.6 -409.36,-453.9 97.83,-151.2 507.19,26.8 311.43,-240.3 -195.8,-266.8 -427.16,-240.1 -293.62,-382.6 133.51,-142.3 551.68,-106.7 444.89,-213.5 -106.78,-106.8 -409.36,-186.9 -258.05,-347.1 151.27,-160.1 676.37,-17.8 578.4,-169.1 -97.83,-151.1 -338.11,-418.2 -231.33,-516 106.78,-97.9 676.27,186.8 622.97,-26.7 -53.5,-213.6 -347.15,-551.7 -53.5,-587.4 293.7,-35.5 516.1,213.6 525.1,89 8.8,-124.5 -320.4,-569.4 -62.3,-640.7 258.1,-71.2 711.8,258.1 720.8,169.1 8.9,-89 -258.1,-533.9 -44.6,-427.1 213.6,106.7 596.2,1299.1 694.2,1308.1 97.8,8.9 943.1,-311.4 1833.1,195.8 889.8,507.2 925.4,1717.3 765.3,2295.7 -160.3,578.5 -1014.6,1148.1 -1762,1094.6 -747.5,-53.3 -1397.1,-320.3 -1655.1,-881 -258.1,-560.5 -293.6,-845.3 -71.3,-1512.7 222.6,-667.4 649.7,-1165.7 898.8,-1014.4 249.3,151.3 623,1032.1 685.2,987.6 62.3,-44.5 115.7,-1005.4 400.4,-934.3 284.8,71.2 -124.5,1147.9 -71.1,1076.8 53.3,-71.2 320.4,186.9 320.4,186.9 0,0 1014.4,-827.6 961,-507.2 -53.4,320.3 -978.9,667.4 -916.5,694 62.3,26.7 8.8,302.5 213.5,329.3 204.7,26.7 1130.2,186.8 872.1,258.1 -258.1,71.1 -996.7,-160.3 -1032.3,-62.3 -35.5,97.8 -151.3,275.8 -160.1,373.6 -9,98 649.5,836.5 284.7,694.2 -364.9,-142.4 -498.3,-605.1 -667.5,-605.1 -169,0 -391.4,-89.1 -409.2,0 -17.9,89 -97.9,1005.5 -187,667.4 -88.8,-338.1 18,-881 -26.6,-890 -44.5,-8.8 -213.5,-213.5 -302.5,-195.6 -89,17.8 -765.3,542.7 -720.8,338.1 44.4,-204.8 533.9,-507.2 533.9,-533.9 0,-26.7 8.9,-258.1 17.8,-320.4 8.8,-62.2 -596.2,-320.3 -462.8,-480.5 133.5,-160.1 640.7,258 747.5,222.5 106.8,-35.7 391.5,-195.8 391.5,-240.3 0,-44.5 -854.2,-1379.2 -880.9,-1441.5 -26.6,-62.3 -232.6,-319.4 -641.4,-524 -408.8,-204.3 -1869,87.6 -2336.18,584.1 0,0 -713.66,641 -860.97,1165.2 -147.47,524 -114.7,933.5 -212.93,966.3 -98.2,32.6 -474.91,-57.4 -524.02,81.8 -49.27,139.3 -8.28,499.5 -139.33,565.1 -131,65.4 -548.66,171.9 -466.77,57.3 81.93,-114.7 155.64,-139.2 106.53,-245.7 -49.08,-106.4 -237.53,-450.3 -425.79,-384.9 -188.45,65.6 -466.76,245.7 -466.76,376.7 0,131 352.07,605.9 352.07,524.2 0,-81.9 171.94,-180.3 -49.12,-90.2 -221.22,90.2 -368.53,385 -368.53,385 0,0 -769.76,-155.7 -810.7,-57.4 -40.94,98.3 -180.12,524.1 -98.2,597.7 81.74,73.8 605.9,303.2 605.9,262.2 0,-41 73.76,-540.5 -8.13,-245.7 -81.92,294.8 24.49,679.7 24.49,679.7 0,0 -745.13,114.7 -663.24,393 81.92,278.5 65.46,507.7 245.59,483.2 180.23,-24.6 761.54,-73.7 696.11,-221.2 -65.57,-147.3 -442.28,-417.6 -163.77,-131 278.47,286.7 663.31,360.4 589.6,425.8 -73.76,65.6 -163.81,819 -147.47,843.5 16.46,24.6 466.88,57.4 515.99,49.1 49.13,-8.1 393.06,-425.8 335.77,-581.3 -57.41,-155.7 -499.54,-180.3 -335.77,-90.2 163.67,90.2 745.13,24.6 786.07,41.1 40.95,16.3 221.07,507.6 384.88,483.1 163.78,-24.7 524.17,-212.9 524.17,-286.7 0,-73.7 -114.7,-605.9 -237.53,-548.6 -122.86,57.2 -270.18,286.6 -122.86,180.1 147.46,-106.4 409.51,-466.8 507.71,-450.3 98.38,16.3 704.29,262 728.92,114.5 24.48,-147.3 139.18,-655 16.35,-728.8 -122.87,-73.7 -679.7,-147.3 -646.89,-49.1 32.66,98.3 73.6,294.8 122.72,139.2 49.23,-155.5 -49.12,-581.3 -32.66,-638.7 16.31,-57.3 564.96,-81.9 548.65,-286.5 -16.45,-204.8 -262.15,-704.3 -327.58,-704.3 -65.58,0 -507.71,188.3 -515.89,311.1 -8.28,122.9 245.56,352.1 171.95,122.9 -73.71,-229.3 -417.64,-401.2 -450.42,-491.4 -32.8,-90.1 81.89,-565 49.12,-638.8 -32.66,-73.6 -311.16,-122.8 -327.47,-90 -16.46,32.8 -327.59,1195.7 -278.47,1261.1 49.12,65.6 524.02,245.7 409.47,769.8 -114.69,524.1 -442.28,769.7 -884.41,687.9 -442.29,-81.9 -696.12,-368.5 -679.66,-761.5 16.31,-393.2 221.07,-647.1 540.37,-712.5 319.41,-65.6 532.3,-8.3 483.22,-139.3 -49.12,-131 -499.57,-343.9 -933.53,-106.4 -433.99,237.4 -638.75,933.5 -360.39,1441.2 278.47,507.7 630.58,769.8 1351.18,589.7 720.64,-180.2 966.33,-687.9 859.93,-1179.3 -106.53,-491.4 -556.94,-999.1 -565.12,-794.3 -8.17,204.7 229.36,499.5 769.72,515.9 540.52,16.4 827.16,-229.3 1187.41,344 360.36,573.1 556.97,1080.9 196.58,1695.1 0,0 -256.75,127.1 -256.75,257.1 0,130.1 32.51,292.7 0,314.3 -32.55,21.8 -130.11,54.3 -130.11,54.3 0,0 -140.89,-422.7 -249.24,-357.6 -108.35,64.9 -390.14,151.7 -379.36,270.8 10.94,119.3 314.3,292.7 238.46,346.8 -75.84,54.3 -54.12,151.8 -151.68,108.5 -97.56,-43.5 -227.64,-336 -325.2,-238.4 -97.45,97.5 -357.63,346.8 -325.08,422.6 32.51,75.9 401.03,249.3 346.8,303.5 -54.26,54.1 10.79,173.4 -75.84,151.7 -86.77,-21.7 -444.37,-303.5 -487.7,-195.1 -43.44,108.5 -119.28,531.1 -119.28,563.7 0,32.5 325.19,54.1 357.74,129.9 32.5,76 10.79,173.5 10.79,173.5 0,0 -444.38,-65.1 -444.38,0 0,64.9 -65.05,487.6 -21.72,509.3 43.44,21.8 476.88,-32.5 476.88,32.6 0,65 43.44,184.1 -10.78,205.9 -54.24,21.7 -466.1,43.5 -466.1,108.3 0,65.1 119.29,498.7 151.79,509.5 32.55,10.8 346.81,-97.6 368.53,-65.1 21.62,32.5 86.67,108.4 64.95,151.9 -21.62,43.2 -390.14,119.1 -346.85,238.3 43.49,119.3 271.01,444.3 314.3,455.3 43.44,10.8 270.97,-227.7 346.81,-162.6 75.99,65 205.95,75.8 141.04,140.8 -65.05,65.1 -303.51,249.3 -271,325.1 32.55,75.9 433.47,303.5 487.7,303.5 54.12,0 151.68,-314.2 205.95,-303.5 54.12,11 173.41,32.5 173.41,86.8 0,54.1 -54.27,422.7 -54.27,422.7 0,0 520.25,184.2 541.97,140.9 21.58,-43.4 0,-444.4 54.12,-444.4 54.23,0 238.49,-86.7 238.49,0 0,86.7 54.2,444.4 54.2,444.4 l 574.3,-32.6 c 0,0 -97.4,-390.1 -75.8,-422.6 21.7,-32.5 140.9,-108.4 173.4,-54.3 32.5,54.3 140.9,433.6 238.5,411.9 97.5,-21.8 444.3,-195 455.2,-227.6 10.9,-32.5 -281.8,-422.7 -238.5,-433.5 43.4,-10.8 130.1,-119.2 216.8,-43.4 86.7,75.9 314.3,357.7 390.2,314.4 75.8,-43.4 325.1,-357.7 314.3,-401.1 -10.8,-43.4 -271,-205.9 -271,-249.3 0,-43.3 0,-205.9 86.7,-184.2 86.7,21.8 401,216.7 433.5,162.6 32.5,-54.2 140.9,-336 140.9,-411.8 0,-75.8 -292.6,-130.1 -303.5,-184.3 -10.8,-54.2 0,-216.8 32.5,-227.6 32.6,-10.8 379.4,119.2 411.9,43.3 32.5,-75.8 97.5,-411.8 54.2,-466.1 -43.3,-54.1 -379.3,-97.5 -379.3,-97.5 0,0 -65.1,-227.5 10.8,-238.3 75.8,-10.9 368.5,0 368.5,-32.6 0,-32.5 -86.7,-422.6 -86.7,-422.6 0,0 -379.4,108.3 -390.2,75.8 -10.8,-32.5 -65,-173.4 -65,-173.4 0,0 422.6,-32.5 379.3,-151.7 -43.3,-119.3 -216.7,-401.1 -336,-401.1 -119.2,0 -238.3,119.2 -238.3,119.2 l -260.2,-195 c 0,0 346.8,-86.7 281.8,-303.5 -65.1,-216.7 -346.8,-433.6 -422.7,-422.6 -75.8,10.8 -184.2,270.9 -260,238.4 -76,-32.5 -216.9,-43.5 -206,-119.3 10.8,-75.8 260.1,-227.5 184.3,-336 -75.9,-108.4 -487.7,-227.5 -487.7,-227.5 l -151.9,303.5 c 0,0 -249.2,0 -227.5,-86.8 21.7,-86.6 206,-303.5 43.3,-336 -162.6,-32.5 -509.39,-43.3 -520.17,0 -10.82,43.4 54.27,292.7 0,314.3 -54.12,21.7 -162.62,-32.4 -162.62,-32.4 0,0 43.44,-227.6 -75.84,-249.4 -119.18,-21.6 -54.12,1040.5 32.5,1040.5 86.78,0 1138.03,141 1083.73,227.6 -54.1,86.8 -379.2,877.8 -270.8,747.8 108.4,-130 151.7,-726 433.5,-563.6 281.7,162.6 704.4,574.5 596,682.8 -108.3,108.4 -899.6,173.5 -769.5,227.7 130.1,54.1 769.5,-32.6 802.1,97.4 32.5,130.1 130,737.1 -43.4,758.7 -173.4,21.7 -856.2,-357.6 -769.4,-205.9 86.6,151.8 650.3,476.9 541.7,563.6 -108.3,86.7 -509.2,411.9 -574.3,401 -65,-10.8 -390.1,-802 -390.1,-606.9 0,195 86.6,737 0,758.7 -86.8,21.6 -791.21,-76 -791.21,-76 0,0 325.09,-780.2 173.41,-682.7 -151.79,97.4 -303.48,628.6 -487.71,531 -184.33,-97.5 -444.37,-520.2 -444.37,-552.7 0,-32.5 639.39,-325.1 476.92,-346.8 -162.62,-21.6 -509.42,130.1 -574.48,0 -65.05,-129.9 -108.35,-661.1 -97.56,-693.6 10.93,-32.5 628.56,130.1 596.05,86.7 -32.5,-43.4 -433.43,-270.9 -433.43,-336 0,-65 292.54,-509.4 292.54,-509.4 0,0 444.41,444.4 444.41,390.1 0,-54.1 -249.25,-520.2 -195.02,-552.7 54.12,-32.4 465.98,-32.4 465.98,-32.4 l 140.9,671.9 c 0,0 -422.69,173.4 -422.69,541.8 0,368.5 162.62,607 520.26,574.5 357.6,-32.5 596,-86.7 520.2,-455.2 -75.8,-368.6 -466.1,-585.3 -476.9,-617.8 -10.8,-32.5 151.8,-314.3 -21.6,-563.5 -173.39,-249.3 -563.68,-368.6 -596.19,-509.5 -32.51,-140.8 -249.25,-1083.7 585.29,-1300.4 834.5,-216.9 2384.3,465.9 2872,1365.5"
         style="fill:none;stroke:#312e2f;stroke-width:95.995;stroke-linecap:round;stroke-linejoin:round;stroke-miterlimit:10;stroke-dasharray:none;stroke-opacity:1"
         id="path16" /></g></g></svg>
