<?xml version="1.0" encoding="UTF-8" standalone="no"?>
<svg
   xmlns:dc="http://purl.org/dc/elements/1.1/"
   xmlns:cc="http://creativecommons.org/ns#"
   xmlns:rdf="http://www.w3.org/1999/02/22-rdf-syntax-ns#"
   xmlns:svg="http://www.w3.org/2000/svg"
   xmlns="http://www.w3.org/2000/svg"
   xmlns:sodipodi="http://sodipodi.sourceforge.net/DTD/sodipodi-0.dtd"
   xmlns:inkscape="http://www.inkscape.org/namespaces/inkscape"
   version="1.1"
   id="svg2"
   xml:space="preserve"
   width="3333.3333"
   height="2800"
   viewBox="0 0 3333.3333 2800"
   sodipodi:docname="vectorstock_32237796.eps"><metadata
     id="metadata8"><rdf:RDF><cc:Work
         rdf:about=""><dc:format>image/svg+xml</dc:format><dc:type
           rdf:resource="http://purl.org/dc/dcmitype/StillImage" /></cc:Work></rdf:RDF></metadata><defs
     id="defs6" /><sodipodi:namedview
     pagecolor="#ffffff"
     bordercolor="#666666"
     borderopacity="1"
     objecttolerance="10"
     gridtolerance="10"
     guidetolerance="10"
     inkscape:pageopacity="0"
     inkscape:pageshadow="2"
     inkscape:window-width="640"
     inkscape:window-height="480"
     id="namedview4" /><g
     id="g10"
     inkscape:groupmode="layer"
     inkscape:label="ink_ext_XXXXXX"
     transform="matrix(1.3333333,0,0,-1.3333333,0,2800)"><g
       id="g12"
       transform="scale(0.1)"><path
         d="M 0,0 H 25000 V 21000 H 0 V 0"
         style="fill:none;fill-opacity:1;fill-rule:evenodd;stroke:none"
         id="path14" /><path
         d="m 115.113,3575.3 c 0,0 4166.077,-74.5 4180.587,64.2 14.52,138.8 -680.38,1373.3 -760.58,921 C 3454.93,4108.1 4730.01,2357 5540.96,2267 c 823.75,-91.4 1399.84,688.4 1100.57,561.4 -297.74,-126.5 -730.52,-859.8 -1347.41,-845.5 -609.87,14.2 -860.58,489.6 -934.09,925.4 -73.31,434.4 307.05,661.3 779.99,573.1 477.39,-88.9 675.97,-84.4 883.93,-301 208.96,-217.7 2859.06,-1038.8 2980.98,-933.6 122.2,105.3 -181.8,743.1 -62.99,910.7 118.94,168 392.23,215.3 626.17,220.3 234.93,5.1 1502.29,222 1771.79,-320.7 271.5,-546.5 -24.7,-1229.1 -685.6,-1170.9 -653,57.6 -1608.01,381.8 -1424.03,529.6 184.47,148.1 188.13,522.6 95.31,687.1 -92.57,164.1 289.13,192.7 -674.77,440.5 -946.41,243.2 -2248.28,1215.3 -3083.4,1683.4 -820.75,460 -965.33,158.6 447.89,217.2 1451.16,60.3 3824.36,60.2 3824.36,60.2 0,0 612.24,2748.7 606.04,2871.5 -6.2,122.9 -4170.49,59.4 -4325.25,-49.9 -154.43,-109 -590.87,-2624.1 -587.87,-2703.3 3,-79.3 -725.78,263.6 -966.64,233.1 C 3046.9,5663.4 3842.22,3995.1 3358.29,4125.4 c -302.86,81.6 1202.65,3490.7 1217.43,4153.5 14.78,661.2 -355.12,1886.2 -272.09,1701 83.23,-185.8 284.73,-981.8 50.48,-883.4 -233.07,97.8 -2249.52,1731.5 -2361.95,2432.2 -111.84,697.1 854.72,2617.3 895.12,2510.5 40.45,-107 615.14,-600 704.65,-476.4 89.61,123.8 521.84,704.8 369.42,742.2 -152.03,37.4 -958.42,159.2 -958.42,159.2 0,0 -131.07,-520.2 26.36,-239.2 157.67,281.6 315.69,563.7 361.96,850 46.24,286.2 242.42,555.8 390.22,613.8 148.24,58 618.11,123.6 678.85,19.1 60.86,-104.5 94.89,-514.8 -112.61,-561.4 -206.7,-46.4 -329.3,219 -217.29,252.9 112.2,34.1 582.47,173.7 538.66,-191.1 -43.89,-365.1 -678.1,-673.5 -890.72,-1058 -212.1,-383.5 -442.63,-1879.9 -530.13,-2059.2 -87.43,-179.1 -227.76,126.6 -114.03,63.4 114.03,-63.4 -36.52,-22.8 448.67,-540.1 490.88,-523.3 979.67,-303.8 969.53,-554.5 -10.11,-250.8 -166.34,-707.3 -154.08,-513.9 12.25,193.3 239.33,810.3 482.32,487.2 244.45,-325 949.34,-358.2 853.71,-425.2 -95.56,-67 -609.78,-403.3 -548.72,-475.7 61.14,-72.5 519.42,-287.3 519.42,-287.3 l -534.93,-335.7 c 0,0 446.02,-414.1 460.35,-1295.5 10.56,-483.7 -72.58,-963.9 -144.44,-1262.5 -150.54,-625.4 -166,-76.8 -92.78,159.2 125.79,405.2 463.06,1024.6 707.68,1706.5 118.33,1011.6 -214.36,1921.5 -189.39,1787.4 25.05,-134.4 639.69,-1103.2 791.18,-894 151.77,209.7 503.18,950.4 503.18,950.4 0,0 405.46,-936.9 266.1,-1007.7 -139.12,-70.6 -343.29,-27.2 -402.01,-71.5 -58.62,-44.2 119.05,-904.3 -19.6,-973.7 -138.36,-69.3 -550.64,-295.9 -578.6,-99.9 -27.97,195.7 148.9,761.8 1.4,947.6 -146.97,185.2 -509.36,-177.1 -562.65,171.5 -53.06,347.8 -107.73,1240.2 -113.07,1375.8 -5.32,135.7 -81.38,574.8 -97.16,476.3 -15.7,-98.5 140.12,-569.6 712.4,-536.4 578.35,33.6 809.1,291.3 874.43,652 65.31,360.6 65.31,360.6 65.31,360.6 0,0 93.31,-387.7 134.8,-200.1 41.54,187.5 162.2,383.1 8.38,492.8 -153.35,109.3 -161.55,69.9 -186.18,182.8 -24.58,112.7 -55.74,378.2 -91.77,527.7 -35.96,149.3 155.08,295.2 -49.01,224.4 -203.37,-70.5 -263.91,-29.6 -673.9,-27.9 -406.88,1.7 -709.28,-136.4 -800.31,-259.9 -90.91,-123.3 -86.9,-472.6 -132.72,-524.8 -45.81,-52 -53.21,-355.5 -53.21,-355.5 0,0 -23.76,120.5 -133.17,-13.7 -109.22,-134 -65.34,-536.3 57.93,-514.8 123.53,21.6 83.64,311.5 -72.79,655 -155.75,342 -210.56,787.4 -113.73,986.3 96.89,199 262.1,114.4 262.1,114.4 0,0 -44.15,155 139.7,336.4 184.41,181.8 747.9,315 1032.71,244.5 286.34,-70.9 706.47,-2.5 689.3,-61.9 -17.18,-59.4 -239.81,-152.2 -159.42,-190.6 80.51,-38.6 116.47,42.1 162.41,-105.8 45.95,-148.1 106.28,-170.1 100.69,-497.1 -5.6,-327.5 -191.73,-1290.4 -226.61,-1631.3 -34.91,-341.2 -93.57,-588.2 95.08,-600.4 189.33,-12.1 866.37,526 967.25,301.4 101.15,-225.4 256.71,-525 137.19,-349.4 -119.21,175.2 -110.14,420.2 131.04,677 242.07,257.7 1105.42,862.8 1311.4,883.6 206.79,20.9 703.39,-286.4 469.89,-229.9 -232.6,56.2 -224.7,-101.3 -504.98,521.8 -278.22,618.5 -449.83,1614.6 -449.83,1614.6 0,0 983.91,175.4 933.61,346.1 -50.3,170.4 -190.9,485.8 -293.9,473 -102.86,-12.9 -957.43,-584.9 -795.21,-565.4 162.75,19.8 234.94,223.1 -20.37,424.6 -253.85,200.4 -562.97,315.3 -470.6,500.6 92.41,185.5 610.57,408.4 638.34,257.2 27.77,-151.4 -450.83,-367.9 -514.95,-299 -63.99,68.8 -239.86,372.9 -47.21,571.7 193.1,199.3 934.68,494 965.57,285 30.97,-209.2 242.43,-1135.9 387.63,-1548.3 145.8,-414.1 1159.2,-2484.8 1051,-2855.3 -108.1,-370.2 -1411.32,-1183.6 -1700.79,-1624.3 -288.41,-439.2 -376.93,-743.1 -428.99,-509.6 -52.02,233.1 -105.69,938.7 -72.38,665.6 33.35,-273.4 159.88,-1547.2 248.58,-1679.8 88.91,-132.8 -902.05,-66.3 -948.67,68.6 -46.61,134.6 -772.46,-289 -702.87,-49.1 69.66,239.9 92.89,1082.4 -44.36,1480.5 -136.64,396.5 -475.58,908.2 -297.45,905.2 178.66,-3 936.27,-382.5 903.97,-561.2 -32.3,-178.7 -463.81,-410 -259.78,-490.8 204.85,-81.2 721.46,137.6 514.1,-213.3 -206.9,-350.1 -464.81,-899.5 -464.81,-899.5 0,0 -226.68,-329.9 -586.41,-335 -357.33,-5.2 -1507.51,-142.5 -1507.51,-142.5 0,0 -540.71,-2525.5 -538.52,-2583.7 2.13,-58 249.86,-475.2 682.56,-594.7 436.39,-120.5 1065.47,2 1135.93,-252.4 70.66,-255.2 373.04,-762.5 157.28,-411 -214.55,349.5 -296.59,405.9 217.7,543.7 518.87,139.2 2016.93,418.8 1473.34,74.2 -538.92,-341.6 -1970.58,-1102.9 -1260.66,-803.3 718.4,303 2031.8,1622.1 3191.64,1655.8 1184.3,34.4 1032.3,-1189.6 724.6,-1530.7 -306.4,-339.7 -2086.36,-1044.7 -1924.8,-918.7 161.89,126.2 1056.3,664.8 432.6,400.8 -617.32,-261.4 -1098.92,-416.2 -766.77,-408.6 334.17,7.8 15468.77,105.5 15468.77,105.5"
         style="fill:none;stroke:#312e2f;stroke-width:71.994;stroke-linecap:round;stroke-linejoin:round;stroke-miterlimit:10;stroke-dasharray:none;stroke-opacity:1"
         id="path16" /></g></g></svg>
