<svg height="640" preserveAspectRatio="xMidYMid meet" viewBox="0 0 640 640" width="640" xmlns="http://www.w3.org/2000/svg" xmlns:xlink="http://www.w3.org/1999/xlink"><defs><path id="a" d="m344.34 231.91c0-11.36 8.95-20.57 19.98-20.57s19.98 9.21 19.98 20.57c0 11.37-8.95 20.58-19.98 20.58s-19.98-9.21-19.98-20.58zm-12.98 199.58c0-14.21 11.18-25.72 24.97-25.72s24.97 11.51 24.97 25.72c0 14.2-11.18 25.72-24.97 25.72s-24.97-11.52-24.97-25.72zm-136.84-148.14c0-14.2 11.18-25.72 24.97-25.72s24.97 11.52 24.97 25.72-11.18 25.72-24.97 25.72-24.97-11.52-24.97-25.72zm420.51 41.8c-10.24 0-19.03 6.55-22.89 15.05-8.89 0-80.01 0-88.9 0 .61-5.31.92-11.88.92-18.14 0-.3-.01-.41-.01-.71 4.54-4.67 40.85-42 45.39-46.66 7.27 3.17 15.99 1.76 21.92-4.34 7.8-8.04 7.8-21.04 0-29.08-7.8-8.03-20.45-8.02-28.25.02-5.93 6.1-7.34 15.09-4.26 22.58-3.61 3.71-32.43 33.4-36.03 37.11-1.78-15.42-5.45-30.25-10.76-44.22 4.83-4.97 43.46-44.76 48.29-49.74 8.96 3.62 19.54 1.7 26.78-5.75 9.75-10.05 9.75-26.33 0-36.37-9.75-10.05-25.56-10.05-35.31 0-7.24 7.45-9.1 18.35-5.59 27.58-4.32 4.44-38.82 39.97-43.13 44.42-9.54-18.16-22.02-34.43-36.77-48.14 1.2-3.99 10.79-35.94 11.99-39.93 7.87-.69 14.93-6.17 17.4-14.41 3.26-10.86-2.63-22.38-13.18-25.74-10.53-3.36-21.72 2.72-24.98 13.57-2.48 8.25.34 16.87 6.45 22.02-1.02 3.39-9.17 30.5-10.18 33.89-10.81-8.32-22.6-15.38-35.14-20.97 3.16-6.68 28.41-60.08 31.57-66.76 9.62.41 19.01-4.95 23.49-14.43 6.04-12.77.88-28.17-11.51-34.39-12.4-6.22-27.35-.91-33.39 11.86-4.48 9.48-2.79 20.41 3.45 27.95-3.25 6.87-29.29 61.79-32.54 68.66-12.19-3.79-24.75-6.25-38.17-7.2 0-10.18 0-91.59 0-101.76 7.22-3.06 12.56-10.44 12.56-19.07 0-11.36-8.9-20.57-19.94-20.57-11.03 0-20.28 9.21-20.28 20.57 0 8.63 4.94 16.01 12.17 19.07v101.33c-16.52.24-33.14 2.99-48.66 7.91-1.21-8.28-10.92-74.54-12.13-82.82 8.13-5.29 12.98-15.21 11.43-25.63-2.08-14.04-14.78-23.68-28.41-21.54-13.64 2.15-22.98 15.27-20.89 29.31 1.55 10.43 8.98 18.42 18.28 20.97 1.29 8.71 11.64 78.36 12.93 87.07-8.22 3.74-16.11 8.11-23.61 13.06-2.04-2.11-18.43-18.99-20.47-21.1 3.07-7.49 1.66-16.47-4.26-22.57-7.81-8.04-20.45-8.04-28.26 0-7.8 8.03-7.8 21.06 0 29.09 5.93 6.11 14.65 7.56 21.92 4.39 1.87 1.92 16.79 17.29 18.65 19.21-13.25 10.52-24.99 22.96-34.83 36.91-4.25-4.38-38.26-39.4-42.51-43.78 3.51-9.23 1.65-20.12-5.59-27.58-9.75-10.04-25.56-10.04-35.31 0s-9.75 26.33 0 36.37c7.24 7.46 17.81 9.37 26.77 5.76 4.56 4.69 41.04 42.26 45.6 46.96-11.14 20.44-18.52 43.34-21.18 67.73-4.22-2.69-38.06-24.21-42.29-26.9 1.35-9.81-2.89-19.97-11.6-25.51-11.74-7.46-27.13-3.72-34.37 8.37-7.25 12.09-3.61 27.93 8.13 35.4 8.71 5.53 19.43 4.89 27.34-.75 5.18 3.29 46.55 29.6 51.72 32.88.11 6.19.52 12.3 1.21 18.32-9.88 2.33-88.92 21-98.8 23.34-4.53-6.67-12.67-10.21-20.84-8.28-10.75 2.54-17.47 13.58-15 24.66 2.46 11.07 13.18 17.99 23.94 15.45 8.17-1.93 13.99-8.77 15.25-16.79 9.78-2.31 88.08-20.81 97.86-23.12 2.14 10.61 5.2 20.88 9.07 30.72-2.09 4.54-18.8 40.84-20.88 45.38-7.89-.47-15.62 3.92-19.21 11.72-4.73 10.27-.48 22.54 9.49 27.4 9.97 4.87 21.88.49 26.61-9.78 3.59-7.8 1.99-16.74-3.36-22.73 1.57-3.39 14.05-30.52 15.61-33.91 8.75 16.65 19.98 31.72 33.17 44.68-7.15 7.36-64.32 66.25-71.47 73.61-8.96-3.61-19.54-1.7-26.78 5.76-9.75 10.04-9.75 26.33 0 36.37s25.56 10.04 35.31 0c7.24-7.46 9.1-18.35 5.59-27.58 7.27-7.48 65.36-67.31 72.62-74.79 10.51 8.19 21.95 15.19 34.13 20.79-.64 2.51-5.76 22.56-6.4 25.07-9.5 1.53-17.7 8.68-20.3 18.88-3.5 13.74 4.47 27.8 17.81 31.41s26.99-4.61 30.49-18.35c2.6-10.19-1.12-20.57-8.67-26.71.58-2.3 5.26-20.67 5.85-22.96 14.48 4.68 29.76 7.47 45.59 8.1 1.09 8.84 9.82 79.56 10.91 88.4-8.26 5.08-13.27 14.87-11.98 25.33 1.74 14.09 14.24 24.06 27.93 22.26 13.68-1.79 23.36-14.66 21.62-28.75-1.29-10.46-8.52-18.65-17.75-21.44-1.06-8.62-9.57-77.54-10.64-86.16 20.32-1.56 39.67-6.72 57.46-14.83 4.98 8.3 44.76 74.72 49.73 83.03-4.67 6.55-5.3 15.63-.9 22.97 5.79 9.67 18.1 12.68 27.49 6.71s12.3-18.64 6.51-28.31c-4.4-7.35-12.56-10.84-20.34-9.48-4.9-8.18-44.1-73.62-49-81.8 13.88-7.87 26.61-17.62 37.86-28.93 3.46 3.57 31.16 32.09 34.62 35.65-3.08 7.49-1.67 16.47 4.26 22.58 7.8 8.03 20.45 8.03 28.25 0 7.8-8.04 7.8-21.07 0-29.1-5.93-6.1-14.65-7.56-21.92-4.39-3.49-3.6-31.43-32.37-34.93-35.97 6.98-8.32 13.22-17.3 18.64-26.84 6.19 3.38 55.69 30.48 61.88 33.87-.74 9.88 4.13 19.74 13.17 24.69 12.18 6.67 27.3 1.91 33.77-10.63 6.48-12.55 1.85-28.12-10.32-34.79-9.04-4.95-19.7-3.59-27.25 2.56-6.21-3.4-55.94-30.65-62.16-34.06 4.55-10.63 8.12-21.72 10.61-33.42h92.13c3.86 8.51 12.65 15.46 22.89 15.46 13.79 0 24.97-11.68 24.97-25.89 0-14.2-11.18-25.89-24.97-25.89"/><filter id="b" filterUnits="userSpaceOnUse" height="656.05" width="638.34" x="11.66" y="-7.52"><feFlood/><feComposite in2="SourceAlpha" operator="in"/><feGaussianBlur stdDeviation="1"/><feOffset dx="1" dy="1" result="afterOffset"/><feFlood flood-color="#a80000" flood-opacity=".5"/><feComposite in2="afterOffset" operator="in"/><feMorphology operator="dilate" radius="1"/><feComposite in2="SourceAlpha" operator="out"/></filter><filter id="c" filterUnits="userSpaceOnUse" height="317.17" width="318.25" x="176.84" y="156.13"><feFlood/><feComposite in2="SourceAlpha" operator="in"/><feGaussianBlur stdDeviation="1"/><feOffset dx="1" dy="1" result="afterOffset"/><feFlood flood-color="#a80000" flood-opacity=".5"/><feComposite in2="afterOffset" operator="in"/><feMorphology operator="dilate" radius="1"/><feComposite in2="SourceAlpha" operator="out"/></filter></defs><path d="m344.34 231.91c0-11.36 8.95-20.57 19.98-20.57s19.98 9.21 19.98 20.57c0 11.37-8.95 20.58-19.98 20.58s-19.98-9.21-19.98-20.58zm-12.98 199.58c0-14.21 11.18-25.72 24.97-25.72s24.97 11.51 24.97 25.72c0 14.2-11.18 25.72-24.97 25.72s-24.97-11.52-24.97-25.72zm-136.84-148.14c0-14.2 11.18-25.72 24.97-25.72s24.97 11.52 24.97 25.72-11.18 25.72-24.97 25.72-24.97-11.52-24.97-25.72zm420.51 41.8c-10.24 0-19.03 6.55-22.89 15.05-8.89 0-80.01 0-88.9 0 .61-5.31.92-11.88.92-18.14 0-.3-.01-.41-.01-.71 4.54-4.67 40.85-42 45.39-46.66 7.27 3.17 15.99 1.76 21.92-4.34 7.8-8.04 7.8-21.04 0-29.08-7.8-8.03-20.45-8.02-28.25.02-5.93 6.1-7.34 15.09-4.26 22.58-3.61 3.71-32.43 33.4-36.03 37.11-1.78-15.42-5.45-30.25-10.76-44.22 4.83-4.97 43.46-44.76 48.29-49.74 8.96 3.62 19.54 1.7 26.78-5.75 9.75-10.05 9.75-26.33 0-36.37-9.75-10.05-25.56-10.05-35.31 0-7.24 7.45-9.1 18.35-5.59 27.58-4.32 4.44-38.82 39.97-43.13 44.42-9.54-18.16-22.02-34.43-36.77-48.14 1.2-3.99 10.79-35.94 11.99-39.93 7.87-.69 14.93-6.17 17.4-14.41 3.26-10.86-2.63-22.38-13.18-25.74-10.53-3.36-21.72 2.72-24.98 13.57-2.48 8.25.34 16.87 6.45 22.02-1.02 3.39-9.17 30.5-10.18 33.89-10.81-8.32-22.6-15.38-35.14-20.97 3.16-6.68 28.41-60.08 31.57-66.76 9.62.41 19.01-4.95 23.49-14.43 6.04-12.77.88-28.17-11.51-34.39-12.4-6.22-27.35-.91-33.39 11.86-4.48 9.48-2.79 20.41 3.45 27.95-3.25 6.87-29.29 61.79-32.54 68.66-12.19-3.79-24.75-6.25-38.17-7.2 0-10.18 0-91.59 0-101.76 7.22-3.06 12.56-10.44 12.56-19.07 0-11.36-8.9-20.57-19.94-20.57-11.03 0-20.28 9.21-20.28 20.57 0 8.63 4.94 16.01 12.17 19.07v101.33c-16.52.24-33.14 2.99-48.66 7.91-1.21-8.28-10.92-74.54-12.13-82.82 8.13-5.29 12.98-15.21 11.43-25.63-2.08-14.04-14.78-23.68-28.41-21.54-13.64 2.15-22.98 15.27-20.89 29.31 1.55 10.43 8.98 18.42 18.28 20.97 1.29 8.71 11.64 78.36 12.93 87.07-8.22 3.74-16.11 8.11-23.61 13.06-2.04-2.11-18.43-18.99-20.47-21.1 3.07-7.49 1.66-16.47-4.26-22.57-7.81-8.04-20.45-8.04-28.26 0-7.8 8.03-7.8 21.06 0 29.09 5.93 6.11 14.65 7.56 21.92 4.39 1.87 1.92 16.79 17.29 18.65 19.21-13.25 10.52-24.99 22.96-34.83 36.91-4.25-4.38-38.26-39.4-42.51-43.78 3.51-9.23 1.65-20.12-5.59-27.58-9.75-10.04-25.56-10.04-35.31 0s-9.75 26.33 0 36.37c7.24 7.46 17.81 9.37 26.77 5.76 4.56 4.69 41.04 42.26 45.6 46.96-11.14 20.44-18.52 43.34-21.18 67.73-4.22-2.69-38.06-24.21-42.29-26.9 1.35-9.81-2.89-19.97-11.6-25.51-11.74-7.46-27.13-3.72-34.37 8.37-7.25 12.09-3.61 27.93 8.13 35.4 8.71 5.53 19.43 4.89 27.34-.75 5.18 3.29 46.55 29.6 51.72 32.88.11 6.19.52 12.3 1.21 18.32-9.88 2.33-88.92 21-98.8 23.34-4.53-6.67-12.67-10.21-20.84-8.28-10.75 2.54-17.47 13.58-15 24.66 2.46 11.07 13.18 17.99 23.94 15.45 8.17-1.93 13.99-8.77 15.25-16.79 9.78-2.31 88.08-20.81 97.86-23.12 2.14 10.61 5.2 20.88 9.07 30.72-2.09 4.54-18.8 40.84-20.88 45.38-7.89-.47-15.62 3.92-19.21 11.72-4.73 10.27-.48 22.54 9.49 27.4 9.97 4.87 21.88.49 26.61-9.78 3.59-7.8 1.99-16.74-3.36-22.73 1.57-3.39 14.05-30.52 15.61-33.91 8.75 16.65 19.98 31.72 33.17 44.68-7.15 7.36-64.32 66.25-71.47 73.61-8.96-3.61-19.54-1.7-26.78 5.76-9.75 10.04-9.75 26.33 0 36.37s25.56 10.04 35.31 0c7.24-7.46 9.1-18.35 5.59-27.58 7.27-7.48 65.36-67.31 72.62-74.79 10.51 8.19 21.95 15.19 34.13 20.79-.64 2.51-5.76 22.56-6.4 25.07-9.5 1.53-17.7 8.68-20.3 18.88-3.5 13.74 4.47 27.8 17.81 31.41s26.99-4.61 30.49-18.35c2.6-10.19-1.12-20.57-8.67-26.71.58-2.3 5.26-20.67 5.85-22.96 14.48 4.68 29.76 7.47 45.59 8.1 1.09 8.84 9.82 79.56 10.91 88.4-8.26 5.08-13.27 14.87-11.98 25.33 1.74 14.09 14.24 24.06 27.93 22.26 13.68-1.79 23.36-14.66 21.62-28.75-1.29-10.46-8.52-18.65-17.75-21.44-1.06-8.62-9.57-77.54-10.64-86.16 20.32-1.56 39.67-6.72 57.46-14.83 4.98 8.3 44.76 74.72 49.73 83.03-4.67 6.55-5.3 15.63-.9 22.97 5.79 9.67 18.1 12.68 27.49 6.71s12.3-18.64 6.51-28.31c-4.4-7.35-12.56-10.84-20.34-9.48-4.9-8.18-44.1-73.62-49-81.8 13.88-7.87 26.61-17.62 37.86-28.93 3.46 3.57 31.16 32.09 34.62 35.65-3.08 7.49-1.67 16.47 4.26 22.58 7.8 8.03 20.45 8.03 28.25 0 7.8-8.04 7.8-21.07 0-29.1-5.93-6.1-14.65-7.56-21.92-4.39-3.49-3.6-31.43-32.37-34.93-35.97 6.98-8.32 13.22-17.3 18.64-26.84 6.19 3.38 55.69 30.48 61.88 33.87-.74 9.88 4.13 19.74 13.17 24.69 12.18 6.67 27.3 1.91 33.77-10.63 6.48-12.55 1.85-28.12-10.32-34.79-9.04-4.95-19.7-3.59-27.25 2.56-6.21-3.4-55.94-30.65-62.16-34.06 4.55-10.63 8.12-21.72 10.61-33.42h92.13c3.86 8.51 12.65 15.46 22.89 15.46 13.79 0 24.97-11.68 24.97-25.89 0-14.2-11.18-25.89-24.97-25.89" fill="#fff" filter="url(#b)"/><use fill="#2d4677" xlink:href="#a"/><use fill="none" xlink:href="#a"/><path d="m399.08 263.28-26.37-17.97-22.85-3.59 19.34 28.75 24.61 7.19" fill="none"/><g fill="#2d4677"><path d="m248.9 287.29c0 26.98-13.66 48.89-30.47 48.89-16.82 0-30.47-21.91-30.47-48.89s13.65-48.89 30.47-48.89c16.81 0 30.47 21.91 30.47 48.89z"/><path d="m396.17 433.68c0 23.62-22.14 42.8-49.41 42.8-27.28 0-49.42-19.18-49.42-42.8 0-23.63 22.14-42.81 49.42-42.81 27.27 0 49.41 19.18 49.41 42.81z"/><path d="m401.59 234.24c0 18.11-13.65 32.82-30.47 32.82s-30.47-14.71-30.47-32.82 13.65-32.81 30.47-32.81 30.47 14.7 30.47 32.81z"/></g><path d="m427.33 451.4.59.53.29.75-.04.9-.33 1.02-.6 1.11-.87 1.17-1.09 1.18-1.3 1.17-1.49 1.12-1.58 1-1.56.8-1.5.59-1.39.39-1.26.17-1.07-.05-.86-.29-.59-.53-.29-.75.04-.9.33-1.02.61-1.12.86-1.16 1.09-1.18 1.3-1.17 1.49-1.13 1.58-.99 1.56-.8 1.5-.6 1.39-.39 1.26-.17 1.07.06zm-238.36-55.55.93.54.99.75 1.04.95 1.06 1.13 1.07 1.3 1.06 1.46 1.04 1.59 1.01 1.72.92 1.77.79 1.73.66 1.68.53 1.6.39 1.5.25 1.38.1 1.24-.04 1.07-.2.89-.36.68-.52.46-.45.12-.55-.08-.65-.28-.75-.47-.85-.68-.95-.87-1.06-1.08-1.15-1.27-1.26-1.47-1.35-1.67-1.46-1.86-3.18-7.81-.09-.96-.07-.88-.03-.8v-.72l.03-.64.06-.57.09-.48.12-.4.15-.33.18-.24.22-.17.65-.2.77.07zm186.84-35.35 1.25.33 1.2.42 1.15.53 1.09.63 1.02.71.96.81.87.88.79.96.69 1.03.6 1.1.49 1.16.38 1.22.25 1.28.13 1.29v1.28l-.12 1.25-.25 1.23-.36 1.19-.47 1.15-.57 1.1-.67 1.05-.77.98-.86.92-.94.85-1.02.76-1.09.68-1.17.58-1.23.49-1.28.37-1.34.27-1.36.14-1.34.02-1.32-.1-1.28-.21-1.25-.33-1.2-.43-1.15-.53-1.09-.62-1.02-.72-.96-.8-.87-.88-.79-.96-.69-1.03-.6-1.1-.49-1.17-.38-1.22-.25-1.27-.13-1.29v-1.28l.12-1.25.25-1.23.36-1.19.47-1.15.57-1.1.67-1.05.77-.98.86-.92.94-.85 1.02-.76 1.09-.68 1.17-.58 1.23-.49 1.28-.38 1.34-.26 1.36-.14 1.34-.02 1.32.1zm103.89-60.53.82.49.78.67.72.84.67.99.59 1.12.53 1.25.44 1.37.36 1.46.26 1.55.16 1.63.06 1.69-.06 1.69-.16 1.63-.26 1.55-.36 1.46-.44 1.37-.53 1.25-.59 1.12-.67.99-.72.84-.78.67-.82.5-.87.3-.9.11-.89-.11-.87-.3-.82-.5-.78-.67-.72-.84-.67-.99-.6-1.12-.52-1.25-.44-1.37-.36-1.46-.26-1.55-.17-1.63-.05-1.69.05-1.69.17-1.63.26-1.55.36-1.46.44-1.37.52-1.25.6-1.12.67-.99.72-.84.78-.67.82-.49.87-.31.89-.11.9.11zm-186.56-31.42 1.29.29 1.23.41 1.19.5 1.12.61 1.06.69.98.78.91.86.82.94.73 1 .64 1.07.53 1.12.43 1.18.31 1.22.19 1.26.06 1.3-.06 1.3-.19 1.26-.31 1.22-.43 1.18-.53 1.12-.64 1.07-.73 1-.82.94-.91.86-.98.78-1.06.69-1.12.61-1.19.5-1.23.41-1.29.29-1.33.19-1.36.06-1.37-.06-1.33-.19-1.29-.29-1.23-.41-1.19-.5-1.12-.61-1.06-.69-.98-.78-.91-.86-.82-.94-.73-1-.64-1.07-.53-1.12-.42-1.18-.32-1.22-.19-1.26-.06-1.3.06-1.3.19-1.26.32-1.22.42-1.18.53-1.12.64-1.07.73-1 .82-.94.91-.86.98-.78 1.06-.69 1.12-.61 1.19-.5 1.23-.41 1.29-.29 1.33-.18 1.37-.07 1.36.07zm-15.53-103.08 1 .35.81.47.6.58.38.7.13.78-.13.83-.36.86-.57.89-.78.89-.98.88-1.14.86-1.3.82-1.45.77-1.57.72-1.68.63-1.73.52-1.68.4-1.61.26-1.54.14-1.43.02-1.3-.11-1.16-.23-1-.35-.81-.47-.6-.58-.38-.7-.13-.78.13-.83.36-.87.57-.88.78-.89.97-.88 1.15-.86 1.3-.82 1.44-.78 1.58-.71 1.68-.63 1.72-.52 1.68-.4 1.62-.26 1.54-.14 1.43-.02 1.3.11z" fill="#fff" filter="url(#c)"/><path d="m427.33 451.4.59.53.29.75-.04.9-.33 1.02-.6 1.11-.87 1.17-1.09 1.18-1.3 1.17-1.49 1.12-1.58 1-1.56.8-1.5.59-1.39.39-1.26.17-1.07-.05-.86-.29-.59-.53-.29-.75.04-.9.33-1.02.61-1.12.86-1.16 1.09-1.18 1.3-1.17 1.49-1.13 1.58-.99 1.56-.8 1.5-.6 1.39-.39 1.26-.17 1.07.06zm-238.36-55.55.93.54.99.75 1.04.95 1.06 1.13 1.07 1.3 1.06 1.46 1.04 1.59 1.01 1.72.92 1.77.79 1.73.66 1.68.53 1.6.39 1.5.25 1.38.1 1.24-.04 1.07-.2.89-.36.68-.52.46-.45.12-.55-.08-.65-.28-.75-.47-.85-.68-.95-.87-1.06-1.08-1.15-1.27-1.26-1.47-1.35-1.67-1.46-1.86-3.18-7.81-.09-.96-.07-.88-.03-.8v-.72l.03-.64.06-.57.09-.48.12-.4.15-.33.18-.24.22-.17.65-.2.77.07zm186.84-35.35 1.25.33 1.2.42 1.15.53 1.09.63 1.02.71.96.81.87.88.79.96.69 1.03.6 1.1.49 1.16.38 1.22.25 1.28.13 1.29v1.28l-.12 1.25-.25 1.23-.36 1.19-.47 1.15-.57 1.1-.67 1.05-.77.98-.86.92-.94.85-1.02.76-1.09.68-1.17.58-1.23.49-1.28.37-1.34.27-1.36.14-1.34.02-1.32-.1-1.28-.21-1.25-.33-1.2-.43-1.15-.53-1.09-.62-1.02-.72-.96-.8-.87-.88-.79-.96-.69-1.03-.6-1.1-.49-1.17-.38-1.22-.25-1.27-.13-1.29v-1.28l.12-1.25.25-1.23.36-1.19.47-1.15.57-1.1.67-1.05.77-.98.86-.92.94-.85 1.02-.76 1.09-.68 1.17-.58 1.23-.49 1.28-.38 1.34-.26 1.36-.14 1.34-.02 1.32.1zm103.89-60.53.82.49.78.67.72.84.67.99.59 1.12.53 1.25.44 1.37.36 1.46.26 1.55.16 1.63.06 1.69-.06 1.69-.16 1.63-.26 1.55-.36 1.46-.44 1.37-.53 1.25-.59 1.12-.67.99-.72.84-.78.67-.82.5-.87.3-.9.11-.89-.11-.87-.3-.82-.5-.78-.67-.72-.84-.67-.99-.6-1.12-.52-1.25-.44-1.37-.36-1.46-.26-1.55-.17-1.63-.05-1.69.05-1.69.17-1.63.26-1.55.36-1.46.44-1.37.52-1.25.6-1.12.67-.99.72-.84.78-.67.82-.49.87-.31.89-.11.9.11zm-186.56-31.42 1.29.29 1.23.41 1.19.5 1.12.61 1.06.69.98.78.91.86.82.94.73 1 .64 1.07.53 1.12.43 1.18.31 1.22.19 1.26.06 1.3-.06 1.3-.19 1.26-.31 1.22-.43 1.18-.53 1.12-.64 1.07-.73 1-.82.94-.91.86-.98.78-1.06.69-1.12.61-1.19.5-1.23.41-1.29.29-1.33.19-1.36.06-1.37-.06-1.33-.19-1.29-.29-1.23-.41-1.19-.5-1.12-.61-1.06-.69-.98-.78-.91-.86-.82-.94-.73-1-.64-1.07-.53-1.12-.42-1.18-.32-1.22-.19-1.26-.06-1.3.06-1.3.19-1.26.32-1.22.42-1.18.53-1.12.64-1.07.73-1 .82-.94.91-.86.98-.78 1.06-.69 1.12-.61 1.19-.5 1.23-.41 1.29-.29 1.33-.18 1.37-.07 1.36.07zm-15.53-103.08 1 .35.81.47.6.58.38.7.13.78-.13.83-.36.86-.57.89-.78.89-.98.88-1.14.86-1.3.82-1.45.77-1.57.72-1.68.63-1.73.52-1.68.4-1.61.26-1.54.14-1.43.02-1.3-.11-1.16-.23-1-.35-.81-.47-.6-.58-.38-.7-.13-.78.13-.83.36-.87.57-.88.78-.89.97-.88 1.15-.86 1.3-.82 1.44-.78 1.58-.71 1.68-.63 1.72-.52 1.68-.4 1.62-.26 1.54-.14 1.43-.02 1.3.11z" fill="#fff"/></svg>