<?xml version="1.0" encoding="UTF-8" standalone="no"?>
<svg
   xmlns:dc="http://purl.org/dc/elements/1.1/"
   xmlns:cc="http://creativecommons.org/ns#"
   xmlns:rdf="http://www.w3.org/1999/02/22-rdf-syntax-ns#"
   xmlns:svg="http://www.w3.org/2000/svg"
   xmlns="http://www.w3.org/2000/svg"
   xmlns:sodipodi="http://sodipodi.sourceforge.net/DTD/sodipodi-0.dtd"
   xmlns:inkscape="http://www.inkscape.org/namespaces/inkscape"
   version="1.1"
   id="svg2"
   xml:space="preserve"
   width="2515.3333"
   height="1129.3066"
   viewBox="0 0 2515.3333 1129.3066"
   sodipodi:docname="vectorstock_32324669.eps"><metadata
     id="metadata8"><rdf:RDF><cc:Work
         rdf:about=""><dc:format>image/svg+xml</dc:format><dc:type
           rdf:resource="http://purl.org/dc/dcmitype/StillImage" /></cc:Work></rdf:RDF></metadata><defs
     id="defs6" /><sodipodi:namedview
     pagecolor="#ffffff"
     bordercolor="#666666"
     borderopacity="1"
     objecttolerance="10"
     gridtolerance="10"
     guidetolerance="10"
     inkscape:pageopacity="0"
     inkscape:pageshadow="2"
     inkscape:window-width="640"
     inkscape:window-height="480"
     id="namedview4" /><g
     id="g10"
     inkscape:groupmode="layer"
     inkscape:label="ink_ext_XXXXXX"
     transform="matrix(1.3333333,0,0,-1.3333333,0,1129.3067)"><g
       id="g12"
       transform="scale(0.1)"><path
         d="M 17.5,37.5 C 1141.48,184.449 6419.74,84.2305 7532.73,46.8203 8631.99,9.87109 9287.86,21.1094 9611.34,92.5391 9260.75,119.141 9163.85,-31.0508 9209.09,376.398 c 3.92,35.293 61.56,121.731 53.89,151.75 -26.45,103.524 -157.74,-176.449 -178.78,161.34 -17.95,288.25 -201.68,794.112 -222.31,1078.762 -21.88,301.71 145.9,492.19 -5.27,761.73 -147.18,262.42 -606.01,569.92 -615.55,860.03 199.01,-179.99 343.73,-425.55 380.01,-690.68 100.53,-734.61 -651.36,-997.5 -1016.06,-1845.26 -46.24,18.692 -197.12,99.918 -241.65,130.328 240.43,-94.429 60.11,-242.089 75.53,-404.578 15.49,-163.281 153.34,-235.609 250.82,-340.25 -199.3,-409.148 -855.86,463.86 -943.78,675.231 97.17,82.519 214.91,169.439 331.42,145.869 -344.19,222.46 65.03,259.6 250.54,528.37 264.09,382.61 277.12,686.78 791.62,1070.28 -37.06,164.78 -48.32,348.34 -71.44,521.82 -21.99,164.89 -5.77,377.97 -28.02,525.93 -28.44,189.16 -740.35,1038.72 295.83,821.85 -578.33,48.19 -698.82,-674.73 -650.63,578.33 12.26,318.79 -313.26,1180.76 192.78,1891.63 100.56,141.26 264.61,276.58 385.56,349.42 25.22,15.19 329.94,-203.92 313.27,-228.93 -24.1,-36.15 -363.09,119.06 -349.41,132.54 40.24,39.66 186.79,195.81 215.83,261.55 48.71,187.47 -82.74,462.43 243.58,762.36 110.63,101.68 260.63,231.68 360.63,151.68 85.56,-68.45 47.62,26.6 150,10 370,-60 490,-240 560.27,-465.43 26.1,-83.73 182.69,-86.61 221.84,-190.94 82.79,-220.66 -63.54,-637.55 -349.03,-620.29 298.17,315.79 -94.44,612.85 -462.44,468.59 4.64,224.36 -103.6,189.02 -177.46,125.74 -53.68,-46 -38.42,-85.85 -78.4,-186.87 -26.47,-66.86 -274.13,-67.34 -300.77,-145.03 -167.18,274.44 -61.23,663.36 158.13,792.53 204.6,120.47 376.95,161.39 638.58,24.09 170.32,-89.37 352.82,-386.89 289.17,-590.38 -132.9,-424.92 -307.24,-108.87 -301.22,-469.89 -12.05,-84.35 -111.72,-18.31 -144.58,0 -24.67,-35.74 -9.78,-45.93 -36.15,-72.29 -24.09,-24.11 -62.13,22.39 -72.29,12.04 -8.78,-8.94 -3.82,-52.02 -12.05,-60.24 -12.05,-12.05 -60.24,28.92 -60.24,12.05 0,-156.63 -140.47,-87.48 -253.02,60.24 -88.47,-66.17 -129.49,-145.81 -132.67,-123.65 -3.84,26.78 33.95,38.02 47.46,14.58 99.94,-173.38 189.87,-356.07 157.5,-830.72 -10.54,-154.56 237.76,-127.37 351.76,-226.89 -45.6,71.7 14.93,135.82 -72.18,119.44 -95.13,-17.89 -384.86,-131.84 -491.32,-140.62 -121.17,-9.99 -215.42,-30.37 -282.25,-17.01 -60.25,12.05 -24.23,84.02 0,180.74 78.6,313.76 378.6,732.81 -5.72,948.17 -572.24,215.87 -685.64,-858.8 -553.03,-1456.8 30.11,-135.78 110.15,-259.83 232.74,-262.48 208.71,-4.51 1021.9,138.12 1234.77,378.76 38.18,43.16 -10.78,80.14 -12.86,130.06 9.43,-61.18 56.69,-49.75 78.22,-101.92 102.3,49.64 313.21,122.08 207.76,191.72 71.68,-4.12 101,37.25 91.32,78.66 26.44,84.93 1.82,99.21 -75.04,134.06 17.27,41.96 57.75,33.52 111.65,8.94 30.96,-14.13 62.66,18.58 46.9,48.75 -93.48,178.85 -353.3,101.85 -496.85,-101.43 330.63,98.48 634.17,509.55 875.1,750.52 58.6,58.6 404.1,-517.37 590.4,-614.48 -197.2,-200.32 -632.3,-603.29 -939.77,-819.31 -116.12,-81.59 -144.58,36.15 -349.42,265.07 337.37,-253.02 -381.81,-308.41 -481.94,-277.12 130.75,-262.35 78.78,-635.2 84.34,-867.5 -152.09,23.41 -206.73,-54.77 -361.46,-24.09 233.27,-2.88 390.91,-13.22 457.72,-406.96 71.21,-419.65 336.6,-927.73 423.89,-1333.75 51.79,-240.86 8.31,-326.03 20.53,-538.7 29.26,-509.08 -126.2,-964.81 225.34,-1521.171 -99.77,-38.258 -64.11,-102.551 -167.93,-129.23 202.37,51.121 150.41,-26.899 336.23,-87.289 78.37,-25.461 328.77,-19.719 388.47,-83.059 C 10622.8,113.988 9857.83,214.18 9750.97,104.469 10054.5,-3.62891 10618.6,70.6484 10918.4,95.0117 12917.5,257.5 17812,49.3711 18847.5,17.5"
         style="fill:none;stroke:#100f0d;stroke-width:35;stroke-linecap:round;stroke-linejoin:round;stroke-miterlimit:10;stroke-dasharray:none;stroke-opacity:1"
         id="path14" /></g></g></svg>
