<?xml version="1.0" encoding="UTF-8" standalone="no"?>
<svg
   xmlns:dc="http://purl.org/dc/elements/1.1/"
   xmlns:cc="http://creativecommons.org/ns#"
   xmlns:rdf="http://www.w3.org/1999/02/22-rdf-syntax-ns#"
   xmlns:svg="http://www.w3.org/2000/svg"
   xmlns="http://www.w3.org/2000/svg"
   xmlns:sodipodi="http://sodipodi.sourceforge.net/DTD/sodipodi-0.dtd"
   xmlns:inkscape="http://www.inkscape.org/namespaces/inkscape"
   version="1.1"
   id="svg2"
   xml:space="preserve"
   width="1122.6667"
   height="793.33331"
   viewBox="0 0 1122.6667 793.33331"
   sodipodi:docname="vectorstock_25117572.eps"><metadata
     id="metadata8"><rdf:RDF><cc:Work
         rdf:about=""><dc:format>image/svg+xml</dc:format><dc:type
           rdf:resource="http://purl.org/dc/dcmitype/StillImage" /></cc:Work></rdf:RDF></metadata><defs
     id="defs6" /><sodipodi:namedview
     pagecolor="#ffffff"
     bordercolor="#666666"
     borderopacity="1"
     objecttolerance="10"
     gridtolerance="10"
     guidetolerance="10"
     inkscape:pageopacity="0"
     inkscape:pageshadow="2"
     inkscape:window-width="640"
     inkscape:window-height="480"
     id="namedview4" /><g
     id="g10"
     inkscape:groupmode="layer"
     inkscape:label="ink_ext_XXXXXX"
     transform="matrix(1.3333333,0,0,-1.3333333,0,793.33333)"><g
       id="g12"
       transform="scale(0.1)"><path
         d="M 0,5950 H 8420 V 0 H 0 v 5950"
         style="fill:none;fill-opacity:1;fill-rule:nonzero;stroke:none"
         id="path14" /><path
         d="m 5086.01,5272.01 c -34.44,-76.82 -67.08,-158.48 -54.45,-171.12 1.08,0.46 6.42,7.14 12,23.88 10.57,31.71 19.79,65.28 29.55,100.84 4.22,15.41 8.48,30.95 12.9,46.4 z m 534.73,-564.25 c -38.03,-41.33 -12.19,-169.83 28.13,-301.95 70.96,161.32 60.72,236.36 35.33,271.23 -21.06,28.96 -54.6,31.4 -63.46,30.72 z m -21.09,-269.78 c -5.85,-12.11 -8.84,-72.45 -7.44,-146.74 15.55,28.69 29.13,55.41 40.95,80.29 -4.44,31.36 -13.76,55.25 -33.51,66.45 z m 500.81,-74.05 c 37.97,-54.12 59.1,-103.46 70.57,-130.25 1.61,-3.74 3.22,-7.53 4.67,-10.77 18.2,61.67 -9.64,99.06 -37.12,119.85 -11.67,8.83 -24.74,15.84 -38.12,21.17 z m -454.93,5.66 c 3.54,-27.73 3.68,-60.16 3.83,-94.58 0.43,-110.6 0.93,-235.96 115.7,-274.23 0.31,-0.11 0.63,-0.21 0.97,-0.32 -1.39,25.36 -3.49,48 -8.57,63.24 -5.46,16.39 -15.21,42.22 -27.56,74.93 -24.25,64.21 -56.08,148.55 -83.2,233.45 -0.39,-0.83 -0.78,-1.66 -1.17,-2.49 z M 4738.5,4260.63 c -3.72,-7.31 -7.91,-14.39 -12.04,-21.35 -7.36,-12.47 -14.97,-25.36 -19.51,-38.98 -19.96,-59.9 4.08,-122.75 73.47,-192.15 6.24,-6.24 14.51,-12.68 23.29,-19.5 11.01,-8.56 22.28,-17.31 30.52,-26.56 -5.36,28.49 -20.69,62.62 -37.9,100.96 -27.11,60.39 -58.13,129.45 -57.83,197.58 z m 89.62,158.12 c 2.2,0 4.25,-0.47 6.21,-1.41 15.1,-7.26 12.49,-38.18 6.93,-88.04 -3.4,-30.65 -6.91,-62.34 -2.12,-76.75 7.4,-22.19 14.41,-28.03 24.16,-36.1 12.79,-10.63 28.74,-23.86 51.99,-73.99 24.34,-52.45 61.59,-79.43 88.78,-99.13 25.83,-18.73 46.23,-33.52 37.77,-58.95 -3.81,-11.41 -20.25,-20.91 -37.45,-29.48 -18.74,-9.37 -36.61,-17.68 -53.73,-25.18 1.54,0.42 3.07,0.82 4.6,1.23 52.08,13.85 101.26,26.93 142.71,68.38 0.85,0.85 0.83,1.26 0.83,1.49 -0.2,5.19 -14.16,17.25 -28.96,30.01 -50.25,43.41 -143.81,124.19 -194.54,301.91 -4.12,14.44 -8.31,28.86 -12.48,43.27 -67.88,233.83 -131.97,454.7 80.93,667.62 22.29,22.26 53.67,30.3 93.18,23.89 175,-28.38 456.26,-325.2 480.46,-373.56 35.89,-71.8 36.97,-203.35 37.83,-309.06 0.47,-56.64 1.04,-127.11 10.6,-131.74 0.07,0.04 4.34,0.38 14.85,17.53 -1.9,65.58 -2.36,168.79 13.27,178.79 2.71,1.73 5.93,1.89 8.87,0.42 13.19,-6.59 22.62,-17.11 29.36,-30.67 -38.96,131.84 -60.82,256.17 -18.66,298.32 4.23,4.28 37.12,3.77 62.75,-15.47 42.88,-32.19 68.79,-113.25 -22.02,-313.65 28.51,-90.92 62.83,-181.84 86.9,-245.56 12.4,-32.83 22.18,-58.76 27.72,-75.38 5.76,-17.3 7.91,-42.35 9.34,-70.05 23.07,-3.9 39.45,4.08 56.59,12.47 23.05,11.29 46.91,22.98 85.28,3.77 58.71,-29.36 80.71,-26.58 88.81,-19.06 18.23,16.98 -7.12,78.33 -23.91,118.92 -7.26,17.6 -13.55,32.8 -16.14,43.14 -1.37,5.49 -3.15,10.88 -4.84,15.98 -4.53,13.76 -8.45,25.64 -3.38,34.63 2.55,4.57 7.12,7.64 13.56,9.13 51.3,11.93 95.25,-53.86 124.31,-97.35 8.43,-12.61 18.68,-27.95 23.9,-32.31 14.69,49.57 -40.22,125.31 -84.45,186.31 -24.02,33.11 -44.76,61.71 -51.34,81.43 -3.29,9.86 -0.32,18.71 8.32,24.92 14.17,10.15 43.18,12.12 74.56,5.9 -4.72,5.91 -9.64,11.83 -14.78,17.75 -30.17,34.74 -121.42,236.38 -100.67,263.06 5.46,7 11.19,8.03 15.03,7.62 14.53,-1.48 25.83,-23.1 44.56,-61.16 8.83,-17.98 17.96,-36.55 27.84,-51.87 14.9,-23.12 26.32,-43.77 36.41,-61.99 16.08,-29.05 29.96,-54.13 51.72,-78.2 21.46,-23.79 28.31,-22.41 28.55,-22.32 0.45,0.12 1.16,1.2 1.65,3.31 4.48,19.18 -14.34,74.29 -26.66,84.92 -8.74,7.53 -122.91,224.65 -150.94,308.71 -10.79,32.37 -27.21,51.76 -43.08,70.51 -16.02,18.92 -32.57,38.48 -42.45,70.4 -23.19,74.79 -22.93,98.16 -22.73,115.22 0.12,11.33 0.22,19.51 -6.29,39.07 -31.09,93.24 -115.36,160.51 -196.88,225.57 -36.1,28.81 -70.19,56.03 -99.1,84.94 -18.4,18.39 -66.26,61.23 -115.65,91.66 -38.42,23.66 -78.93,30.56 -127.54,21.76 -41.51,-7.53 -66.95,-16.43 -113.39,-39.64 -25.09,-12.54 -44.56,-29.81 -59.14,-52.53 -6.06,-13.15 -13.89,-29.79 -23.89,-50.92 -1.34,-2.78 -2.7,-5.68 -4.12,-8.67 -16.79,-43.65 -30.18,-92.47 -43.23,-140.09 -9.81,-35.71 -19.06,-69.44 -29.65,-101.23 -9.85,-29.44 -18.47,-31.48 -21.3,-32.15 -3.79,-0.89 -7.62,0.29 -10.68,3.35 -22.38,22.4 26.44,132.35 93.81,274.82 6.05,15.71 12.54,30.79 19.63,44.97 2.77,5.52 5.76,10.8 8.94,15.82 8.93,19.42 15.58,34.76 16.92,40.52 -9.27,8.18 -21.51,10.34 -37.37,6.64 -131.91,-31.14 -440.55,-469.94 -475.33,-574.28 -16.56,-49.7 -5.81,-104.9 4.58,-158.29 10.65,-54.65 21.64,-111.16 4.25,-163.37 -6.76,-19.98 -6.35,-27.99 -5.64,-29.41 74.47,-74.41 69.76,-119.55 65.57,-159.38 -2.13,-20.47 -3.99,-38.15 5.83,-57.79 2.05,-4.11 5.88,-6.95 9.92,-9.96 3.84,-2.86 8.08,-6.01 11.15,-10.5 8.36,30.35 24.93,60.02 53.03,88.11 12.51,12.51 22,18.45 29.77,18.45 z M 6109.4,3829.37 c 109.56,0 193.46,-8.55 258.32,-22.82 -44.5,41.12 -87.01,75.79 -104.16,81.51 -38.82,12.95 -84.83,-3.76 -129.29,-19.94 -49.72,-18.08 -101.14,-36.77 -144.66,-14.98 -34.48,17.23 -68.63,28.7 -101.66,39.78 -32.89,11.05 -66.91,22.47 -101.05,39.54 -2.15,1.1 -4.01,1.98 -5.62,2.69 2.49,-37.17 7.44,-71.69 21.39,-85.62 32.22,-32.24 90.43,-28.77 146.67,-25.38 l 11.75,0.69 c 54.04,3.08 103.36,4.53 148.31,4.53 z m -1274.03,56.09 c -4.46,-1.55 -8.88,-3.08 -13.24,-4.59 -124.69,-43.07 -207.04,-71.52 -304.97,-267.4 -2.1,-4.2 -4.3,-8.39 -6.5,-12.58 -2.91,-5.56 -5.75,-10.98 -8.3,-16.27 36.82,5.83 96.73,14.13 164.95,18.95 12.61,25.73 22.54,54.6 32.3,82.93 13.76,39.99 28,81.35 49.52,113.64 26.88,40.3 56.03,66.74 86.24,85.32 z m -338.78,-313.91 c -6.85,-17.89 -7.91,-33.95 6.22,-48.08 3.08,-0.51 18.22,9.32 23.76,13.07 3.78,2.56 6.99,4.68 8.97,5.68 11.52,5.74 29.01,4.41 47.55,2.96 18.73,-1.44 40.02,-3.09 47.83,4.72 11.63,11.63 21.39,25.68 29.95,41.22 -69.61,-5.26 -129.86,-13.97 -164.28,-19.57 z m 704.56,358.18 c 9.31,0 17.5,-2.92 24.29,-9.72 2.27,-2.25 2.27,-3.05 2.56,-23.66 0.5,-35.23 1.82,-128.78 23.17,-150.13 13.76,-13.76 59.87,-36.97 82.03,-48.12 13.52,-6.8 13.65,-6.88 14.81,-8.4 14.29,-19.31 6.27,-64.74 -3.9,-122.28 -12.08,-68.28 -25.68,-145.23 0.36,-179.93 2.17,3.79 5.6,10.35 11.03,21.56 l 1.32,2.69 c 15.1,30.23 15.47,77.61 15.79,123.42 0.46,60.4 0.92,122.85 33.81,155.74 1.53,1.53 4.04,2.05 6.11,1.48 21.69,-6.05 62.49,-12.21 77.6,2.92 21.17,21.16 49.78,33.69 77.45,45.79 27.46,12.03 53.41,23.39 72.36,42.35 24.42,24.39 45.5,56.09 65.91,86.74 19.27,28.94 37.45,56.27 57.45,76.28 1.49,1.49 3.22,2.41 5.1,2.9 -0.42,8.09 -0.76,16.26 -1.12,24.39 -0.22,4.71 -0.41,9.38 -0.62,13.99 -1.78,0.49 -3.56,1.04 -5.41,1.64 -122.92,41.01 -123.48,176.62 -123.9,285.59 -0.11,26.31 -0.21,51.41 -1.84,73.85 -11.48,-23.39 -24.42,-48.22 -38.92,-74.61 -1.31,-2.37 -2.58,-4.6 -3.8,-6.69 0.03,-1.15 0.07,-2.3 0.1,-3.45 2.25,-68.88 -66.61,-148.58 -126.25,-195.9 -10.73,-8.5 -21.69,-17.89 -32.98,-27.55 -74.3,-63.63 -166.84,-142.81 -300.11,-57.15 -0.65,0.41 -1.15,0.52 -1.95,0.32 -8.01,-1.94 -20.24,-23.07 -28.32,-37.04 -5.81,-10.03 -10.39,-17.96 -14.43,-21.99 -2.55,-2.55 -5.54,-5.62 -8.87,-9.05 -18.39,-18.9 -46.17,-47.46 -67.61,-58.17 -7.29,-3.65 -29.98,-18.99 -35.68,-25.16 3.21,-5.31 7.34,-8.55 12.59,-9.87 23.11,-5.85 64.59,23.45 104.78,51.75 40.25,28.33 78.81,55.47 107.09,55.47 z M 6407.3,3785.28 c 52.21,-50.8 99.63,-103.43 106.22,-123.15 19.93,-59.8 30.19,-127.23 40.09,-192.46 12.36,-81.3 25.14,-165.35 56.65,-238.9 56.93,-132.81 105.52,-250.62 147.84,-365.52 -1.73,41.93 -5.59,84.01 -18.07,123.4 -10.46,33 -22.3,59.85 -33.76,85.8 -15.52,35.15 -30.18,68.35 -36.93,108.91 -2.34,13.97 -5.67,43.49 -9.93,80.85 -11.27,99.44 -30.13,265.86 -51.34,314.29 -4.27,9.76 -8.16,20.06 -12.17,30.68 -23.79,63.04 -51.15,135.39 -188.6,176.1 z m 365.05,-995.41 c 0.92,-24.1 2.44,-48.3 5.78,-71.75 6.86,-48.03 23.54,-97.28 39.66,-144.93 15.57,-45.99 31.68,-93.56 39.64,-141.32 9.27,-55.67 14.69,-113.43 19.93,-169.31 3.44,-36.62 6.98,-74.26 11.6,-111.33 15.98,72.83 16.33,155.63 0.96,247.82 -6.76,40.63 -21.23,85.94 -35.22,129.75 -6.64,20.81 -13.2,41.28 -18.74,60.79 -19.5,68.17 -40.56,134.16 -63.61,200.28 z m -1407.39,-716.6 c -9.24,-3.03 -17.34,-7.46 -22.85,-14.78 -16.48,-21.98 -22.49,-52.25 -24.53,-85.21 13.34,31.42 28.11,63.5 43.63,94.57 0.42,0.81 1.49,2.35 2.87,4.23 0.25,0.33 0.54,0.73 0.88,1.19 z m -60.12,-164.12 c -10.03,-26.78 -18.52,-52.12 -25.01,-74.77 -9.65,-33.82 -15.85,-69 -21.85,-105.09 -0.42,-2.49 -0.7,-5.9 -0.88,-9.77 5.11,10.96 11.44,22.42 17.67,33.71 8.43,15.31 16.41,29.77 20.02,40.63 10.85,32.56 10.53,74.53 10.05,115.29 z m -1594.6,-759.58 c -30.6,0 -57.7,-5.52 -68.29,-20.71 -13.31,-19.1 5.76,-50.46 24.12,-73.4 56.08,-70.101 164.96,-87.749 261.01,-103.331 26.82,-4.367 52.14,-8.481 74.88,-13.527 121.65,-27.032 229.58,-28.332 328.08,-10.903 -106.67,32.051 -229.4,85.101 -336.62,131.441 -74.07,32.01 -138.05,59.65 -184.12,75.01 -24.7,8.24 -64.15,15.42 -99.06,15.42 z m 2153.27,177.22 c 48.02,0 96,-4.18 143.17,-13.63 121.27,-24.23 223.86,-174.69 306.3,-295.58 66.39,-97.389 123.82,-181.682 166.5,-167.26 33.71,11.239 52.84,27.899 58.48,50.95 17.91,73.16 -101.18,196.29 -206.27,304.91 -88.98,91.98 -159.28,164.65 -147.25,203.27 3.64,11.61 14.19,19.24 31.39,22.68 158.87,31.95 250.49,-141.69 339.15,-309.43 57.68,-109.15 112.17,-212.231 180.24,-246.27 2.61,-1.27 8.18,0.769 10.72,3.289 5.14,5.14 10.93,10.601 16.97,16.293 22.73,21.359 48.5,45.578 56.45,69.468 5.65,16.93 -5.44,30.93 -15.23,43.27 -7.91,10 -14.77,18.63 -11.61,27.93 2.52,7.39 10.75,12.47 26.69,16.46 0.8,0.2 1.87,0.86 3.02,1.57 1.52,0.94 3.24,2 5.37,2.7 39.03,13 89.4,-25.17 138.06,-62.129 38.22,-28.992 77.81,-58.98 100.03,-52.07 7.98,2.461 13.88,9.75 18.05,22.289 38.25,114.77 -17.46,215.68 -71.35,313.26 -22.21,40.24 -45.19,81.84 -60.74,123.35 -71.51,190.62 -310.31,581.38 -511.83,648.52 -62.94,21 -132.66,31.52 -200.08,41.68 -80.79,12.2 -164.34,24.8 -240.86,55.4 -65.76,26.28 -127.42,61.09 -187.03,94.74 -71.67,40.45 -139.37,78.65 -213.64,103.41 -74.19,24.76 -148.62,19.09 -208.34,14.59 -43.58,-3.32 -81.26,-6.15 -108.89,3.04 -99.03,33.02 -172.75,85.11 -266.08,155.11 -1.41,1.06 -141.18,106.69 -146.3,178.73 -1.05,14.84 3.47,27.44 13.46,37.42 4.23,4.2 26.77,2.21 28.96,1.12 3.95,-1.97 13.74,-10.25 35.49,-28.8 38.9,-33.13 157.34,-134.14 173.5,-117.72 1.17,1.17 1.62,2.39 1.54,4.07 -0.92,16.15 -43.15,49.69 -83.98,82.11 -58.88,46.74 -119.75,95.08 -121.94,133.69 -0.59,10.26 2.94,19.3 10.49,26.87 1.05,1.03 10.34,9.84 24.58,9.84 0.2,0 0.39,0 0.57,0 10.88,-0.19 21.27,-5.46 30.9,-15.69 34.59,-36.78 169.25,-152.23 214.44,-152.23 0.07,0 0.15,0 0.22,0 3.89,0.03 6.64,0.97 8.38,2.9 2.98,3.27 2.82,5.39 2.77,6.07 -0.39,4.98 -7.47,10.67 -12.66,14.82 -1.36,1.09 -2.63,2.12 -3.76,3.07 -26.98,23.31 -60.33,42.46 -92.58,60.98 -36.69,21.07 -74.65,42.86 -102.35,70.57 -5.26,5.26 -51.29,52.29 -46.01,84.86 1.53,9.48 7.31,16.98 16.72,21.69 37.66,18.73 112.67,-36.08 185.22,-89.13 56.82,-41.56 121.28,-88.6 136.3,-71.97 2.83,3.13 3.76,6.73 2.9,11.3 -7.31,39.06 -127.67,111.4 -181.46,138.42 -34.8,17.47 -54.31,36.38 -58,56.19 -2.17,11.73 1.34,23.39 9.93,32.83 23.88,31.72 89.43,-5.63 142.14,-35.69 19.56,-11.15 43.41,-24.75 52.44,-26.28 -4.47,17.36 -34.25,85.01 -60.78,145.23 -69.8,158.48 -97.96,226.92 -91.65,240.5 1.03,2.17 2.8,3.73 4.98,4.38 14.67,4.28 36.31,-0.2 55.63,-46.08 l 0.64,-1.49 c 9.75,-19.5 16.78,-43.86 24.22,-69.64 2.3,-7.94 4.59,-15.92 7.01,-23.77 3.29,-10.8 6.45,-21.7 9.59,-32.53 19.38,-66.87 37.67,-130.03 83.51,-152.97 34.59,-17.28 72.91,-32.78 113.48,-49.18 40.51,-16.39 82.39,-33.32 120.06,-52.15 24.41,-12.22 31.31,-32.02 36.85,-47.91 l 1.37,-3.91 c 8.56,-24.09 16.02,-50.86 23.24,-76.76 19.3,-69.22 39.25,-140.8 80.77,-161.55 48.81,-24.41 221.26,-81.3 283.86,-93.64 166.5,-32.8 369.64,-84.05 422.19,-119.1 76.54,-51.02 219.08,-146.07 336.04,-87.56 8.69,4.34 6.82,8.1 5.91,9.91 -5.07,10.18 -26.83,19.05 -35.78,14.59 -0.81,-0.5 -2.76,-3.33 -4.18,-5.39 -9.9,-14.38 -30.46,-44.21 -102.56,-7.81 -52.55,26.51 -87.28,97.74 -117.92,160.6 -17.71,36.32 -34.44,70.62 -51.07,87.25 -10.49,10.5 -27.54,24.05 -45.6,38.4 -30.26,24.05 -61.56,48.92 -74.15,68.34 -98.3,151.51 -188.78,472.44 -155.16,818.99 3.73,38.5 42.14,204.67 109.61,248.52 17.04,11.08 34.72,13.7 52.48,7.76 3.77,-1.25 7.95,-2.64 11.17,-5.87 9.8,-9.8 7.03,-28.98 0.75,-38.41 -41.31,-61.95 -49.66,-111.65 -60.24,-174.59 -2.78,-16.58 -5.69,-33.91 -9.37,-52.38 -30.8,-153.96 -32.76,-496.62 73.27,-602.64 0.42,0.28 3.98,3.53 8,11.64 15.33,30.69 14,89.67 13.03,132.74 -0.24,10.05 -0.44,19.4 -0.44,27.62 0,10.14 -1.63,20.87 -3.22,31.25 l -1.14,7.55 c -2.16,15.19 -4.61,30.71 -7.08,46.42 -15.75,100.23 -33.61,213.84 12.07,305.22 0.88,1.74 2.18,4.63 3.89,8.38 21.61,47.42 50.32,102.56 80.91,108.11 9.63,1.71 18.36,-1.37 26.17,-9.17 40.63,-40.65 114.7,-293.75 125.06,-355.78 8.12,-48.85 36.18,-91.14 63.32,-132.02 14.73,-22.21 29.96,-45.17 41.86,-68.95 60.08,-120.17 77.79,-256.84 94.91,-389.02 16.6,-128.05 33.75,-260.49 90.15,-373.26 4.86,-9.76 -0.14,-29.82 -8.96,-61.69 -4.5,-16.27 -9.61,-34.72 -8.67,-40.69 10.17,-64.32 7.22,-101.52 -9.59,-120.6 -15.6,-17.73 -40.53,-16.99 -66.88,-16.21 -28.58,0.83 -60.69,1.77 -88.27,-19.43 -10.2,-7.83 -14.9,-14.53 -13.99,-19.92 0.88,-5.2 8.18,-15.89 47.25,-28.91 9.39,-3.15 58.25,-16.39 97.74,29.88 36.72,43.02 63.38,92.84 79.92,149.19 -0.07,0.49 -0.15,0.97 -0.22,1.46 -6.59,46.23 -11.07,93.84 -15.39,139.87 -5.22,55.64 -10.62,113.2 -19.83,168.42 -7.81,46.84 -23.74,93.92 -39.15,139.47 -16.3,48.15 -33.16,97.95 -40.18,147.08 -5.1,35.73 -6.03,72.81 -6.93,108.67 -0.02,0.58 -0.02,1.19 -0.04,1.77 -45.09,125.61 -97.55,253.32 -160.05,399.18 -32.12,74.95 -45.02,159.78 -57.47,241.82 -10.31,67.7 -20.04,131.65 -39.64,190.46 -6.72,20.12 -62.02,79.79 -118.54,133.37 -90.52,22.41 -223.29,32.46 -421.8,21.16 l -11.73,-0.69 c -58.89,-3.55 -119.83,-7.2 -155.89,28.87 -16.88,16.88 -22.29,53.7 -24.94,94.39 -18.02,-18.79 -35.22,-44.62 -53.37,-71.91 -20.73,-31.14 -42.17,-63.33 -67.41,-88.57 -20.57,-20.57 -48.77,-32.91 -76.06,-44.85 -26.64,-11.67 -54.19,-23.73 -73.75,-43.28 -21.22,-21.21 -70.09,-10.98 -86.05,-6.88 -27.12,-30.21 -27.54,-88.48 -27.95,-144.87 -0.36,-47.18 -0.71,-95.97 -17.07,-128.69 l -1.25,-2.57 c -14.27,-29.43 -16.56,-30.95 -20.4,-31.6 -2.01,-0.31 -4.22,0.41 -5.59,1.77 -36.21,36.2 -21.24,120.84 -8.03,195.53 8.73,49.45 17,96.22 6.66,112.17 -1.76,1 -5.75,2.99 -11.14,5.7 -24.46,12.31 -70,35.22 -85.14,50.35 -21.84,21.84 -25.75,92.35 -26.67,158.45 -0.1,6.95 -0.2,13.59 -0.38,16.56 -21.01,17.57 -68.58,-15.87 -114.63,-48.3 -44.37,-31.23 -86.33,-60.69 -114.64,-53.57 -9.45,2.38 -16.74,8.6 -21.69,18.5 -6.42,12.88 41.85,38.66 42.34,38.91 19.61,9.8 46.54,37.49 64.38,55.81 3.37,3.46 6.39,6.58 8.97,9.15 2.93,2.93 7.81,11.37 12.52,19.52 13.41,23.16 23.83,39.78 35.9,42.7 3.95,0.95 7.83,0.32 11.27,-1.89 125.85,-80.86 210.83,-8.04 285.83,56.17 11.4,9.76 22.47,19.24 33.32,27.85 57.24,45.41 114.21,114.21 121.06,171.95 -6.31,-6.99 -11.84,-9.4 -17.42,-8 -17.73,4.48 -18.83,47.16 -19.61,143.26 -0.82,98.95 -1.92,234.48 -36.58,303.79 -23.05,46.07 -304.08,339.91 -471.63,367.08 -35.54,5.79 -63.38,-1.15 -82.76,-20.53 -207.88,-207.9 -144.75,-425.46 -77.89,-655.79 4.18,-14.42 8.36,-28.86 12.49,-43.32 49.73,-174.26 141.54,-253.53 190.85,-296.1 21.09,-18.23 32.71,-28.26 33.09,-38.67 0.1,-2.68 -0.58,-6.67 -4.32,-10.42 -43.74,-43.73 -94.44,-57.22 -148.11,-71.49 -68.93,-18.34 -140.18,-37.28 -199.23,-125.87 -20.68,-31.01 -34.65,-71.62 -48.17,-110.88 -9.11,-26.48 -18.38,-53.42 -29.89,-78.11 117.82,7.38 256.73,3.66 344.53,-40.24 12.23,-6.13 88.41,-113.83 91.71,-134.14 0.66,-4.02 -0.74,-6.39 -2.01,-7.66 -6.26,-6.22 -18.11,-0.61 -53.15,20.77 -6.44,3.91 -13.09,7.97 -15.04,8.75 -47.99,19.18 -114.24,26 -156.37,26 -106.18,0 -570.86,-42.96 -646.06,-111.06 3.23,-3.21 11.88,-8.42 16.36,-11.12 6.35,-3.82 10.34,-6.28 12.64,-8.57 20.5,-20.5 38.35,-47.49 55.61,-73.59 9.33,-14.11 18.99,-28.7 28.68,-41.61 16.16,-21.56 33.65,-46.66 52.17,-73.24 35.82,-51.43 72.87,-104.61 101.48,-133.21 4.81,-4.78 26.71,4.03 44.35,11.12 34.17,13.75 76.69,30.82 101.07,6.5 2.9,-2.9 4.13,-6.61 3.49,-10.42 -2.24,-13.16 -26.44,-25.46 -65.72,-44.42 -13.92,-6.71 -32.97,-15.9 -43.34,-22.71 h 30.82 c 20.26,0 65.85,14.13 114.15,29.1 104.49,32.39 180.23,53.57 202.94,30.83 23.8,-23.81 -37.06,-85.21 -39.65,-87.81 -17.05,-17.04 -18.5,-48.66 -19.56,-71.75 -0.79,-17.12 -1.3,-28.42 -6.89,-34.01 -14.32,-14.31 -43.22,-27.75 -68.71,-39.61 -7.57,-3.53 -14.77,-6.86 -20.98,-9.98 -7.1,-4.14 -47.27,-55.78 -73.84,-89.96 -21.1,-27.1 -37.76,-48.51 -43.56,-54.33 -4.27,-4.72 -15.74,-26.92 -13.17,-31.22 18.87,-19.04 95.19,49.25 145.61,94.48 33.67,30.17 62.77,56.25 80.94,65.35 0.7,0.36 1.76,1.15 3.05,2.09 6.81,4.93 18.32,13.23 25.91,5.56 18.44,-18.43 -17.53,-77.45 -95.04,-187.06 -17.07,-24.13 -31.81,-44.96 -36.02,-53.39 -5.2,-10.42 -6.23,-18.62 -3.12,-25.08 7.07,-14.64 35.27,-20.62 60.15,-25.88 24.99,-5.29 46.56,-9.85 53.13,-22.98 13.89,-27.78 4.85,-58.37 -3.88,-87.94 -8.11,-27.48 -15.76,-53.44 -4.93,-75.1 15.91,-31.83 37.44,-34.65 62.36,-37.93 16.94,-2.21 36.11,-4.73 54.57,-17.03 21.77,-14.53 28.53,-37.39 35.06,-59.49 6.65,-22.51 12.93,-43.76 34.79,-54.69 24.28,-12.17 55.58,-1.41 85.88,8.93 28.9,9.87 56.2,19.17 77.13,8.71 14.52,-7.27 28.34,-19.76 41.71,-31.84 20.69,-18.71 42.07,-38.04 65.78,-38.04 6.24,0 20.84,3.43 34.98,6.77 29.37,6.93 40.44,9 46.09,6.42 4.06,0.81 8.11,1.53 12.07,2.22 15.91,2.78 30.96,5.41 39.22,13.68 2.34,2.32 5.3,3.34 8.39,2.79 8.29,-1.42 14.13,-13.1 25.49,-37.24 10.51,-22.24 24.88,-52.73 38.85,-57.56 2.78,-1 5.38,-0.79 8.14,0.59 25.29,12.66 49.04,32.86 72,52.42 23.29,19.81 47.35,40.32 73.4,53.32 4.34,2.15 6.73,0.39 22.56,-11.66 10.84,-8.24 27.22,-20.68 34.9,-23.24 13.44,-4.57 26.6,6.26 38.23,15.75 5.1,4.15 9.92,8.08 14.44,10.37 15.22,7.56 27.59,0.34 37.54,-5.51 6.22,-3.65 12.1,-7.08 18.05,-7.08 13.47,0 27.07,0.1 40.71,0.19 124.72,1.03 253.46,1.94 332.4,-75.63 2,0.05 5.64,0.22 7.17,0.34 1.41,0.1 2.53,0.18 3.05,0.18 7.1,0 15.39,3.52 24.15,7.25 14.02,5.98 29.88,12.69 44.62,5.34 14.33,-7.16 24.66,-14.48 32.95,-20.34 20.75,-14.68 29.31,-20.78 67.45,-1.7 6.86,3.54 21.26,10.95 28.96,3.29 11.19,-11.2 14.53,-29.91 18.06,-49.73 3.69,-20.7 7.51,-42.08 20.66,-50.86 16.13,-10.75 39.45,-12.59 64.14,-14.54 35.31,-2.81 71.83,-5.71 91.77,-35.61 33.17,-49.78 42.43,-135.98 50.6,-212.03 3.56,-33.21 6.93,-64.58 11.98,-89.74 3.48,-17.41 0.1,-31.31 -10.03,-41.31 -34.75,-34.27 -141.36,-11.4 -219.2,5.29 -28.06,6 -52.31,11.2 -63.07,11.2 -40.17,0 -78.59,12.79 -115.77,25.15 -29.96,9.97 -60.93,20.26 -91.93,23.36 -37.35,3.74 -95.53,13.32 -162.88,24.42 -178.82,29.48 -423.74,69.83 -504.04,37.66 -202.51,-80.99 -366.3,-221.93 -524.69,-358.23 -183.67,-158.03 -360.58,-310.22 -586.33,-365.568 52.28,-12.91 98.56,-18.832 134.17,-13.73 l 41.76,5.91 c 156.31,22.078 317.95,44.898 468.14,99.518 30.3,11.03 56.63,30.04 82.08,48.45 14.35,10.35 29.19,21.08 44.68,30.37 125.12,75.06 419.3,230.28 711.5,230.28 z m -707.9,-738.341 c -55.3,0 -109.8,-13.297 -163.41,-31.636 22.26,0.726 44.13,1.726 65.61,2.988 57.62,3.39 115.72,10.539 171.88,17.449 11.53,1.41 23.07,2.832 34.69,4.23 -27.96,1.922 -55.75,3.879 -83.31,5.989 -8.49,0.672 -17,0.98 -25.46,0.98 z M 3127.28,658.48 c 11.68,0 21.53,-0.441 28.56,-1.859 32.62,-6.512 61.32,-22.051 89.06,-37.062 29.73,-16.11 60.48,-32.746 95.67,-37.778 50.52,-7.222 101.66,-17.793 151.11,-28.019 64.23,-13.282 130.65,-27.012 196.73,-33.621 51.78,-5.192 105.08,-5.219 156.63,-5.243 45.45,-0.007 92.46,-0.027 138.45,-3.558 45.43,-3.5 90.18,-16.418 133.46,-28.891 42.67,-12.289 86.79,-25.019 130.91,-28.41 124.79,-9.59 253.26,-8.168 404.43,4.41 77.4,6.442 155.44,38.332 230.92,69.141 12.9,5.281 25.86,10.57 38.88,15.769 -103.76,-0.98 -214.68,3.563 -331.49,13.282 -98.04,8.148 -199.81,1.14 -298.21,-5.61 -106.76,-7.383 -217.15,-14.992 -323.24,-3.179 -133.69,14.859 -262.78,25.589 -399.45,36.949 l -32.19,2.691 c -70.26,5.848 -165.59,44.278 -242.19,75.18 -61.41,24.758 -114.28,45.976 -135.59,43.797 -19.1,-2.129 -37.43,-8.84 -55.15,-15.34 -17.56,-6.43 -35.72,-13.09 -54.94,-15.488 -4.48,-0.551 -31.18,-7.578 -45.48,-12.27 19.64,-7.351 61.29,-6.262 93.04,-5.441 10.82,0.289 21.01,0.55 30.08,0.55 z m 2282.69,-75.378 c 158.01,-12.512 317.13,-31.5 465.26,-80.883 31.38,-10.469 63.97,-25.449 95.5,-39.949 53.32,-24.508 108.46,-49.872 163.31,-56.7 116.23,-14.519 345.78,42.789 456.05,70.352 64.29,16.066 113.17,70.25 160.43,122.656 24.78,27.473 50.12,55.582 77.68,77.91 -2.23,-0.226 -4.46,-0.496 -6.7,-0.828 -17.68,-2.539 -32.37,-9.699 -47.93,-17.289 -14.99,-7.32 -30.49,-14.891 -48.84,-17.949 -25.22,-4.192 -50.05,-0.442 -74.08,3.148 -27.32,4.121 -53.1,8.02 -79.68,1.34 -49.28,-12.308 -99.49,-32.398 -148.04,-51.847 -65.16,-26.114 -132.53,-53.094 -200.66,-62.833 -72.93,-10.429 -141.87,1.52 -208.54,13.032 -28.76,4.957 -58.49,10.097 -88.2,13.398 -91.29,10.153 -186.6,15.02 -278.78,19.731 -40.86,2.078 -81.59,4.172 -121.9,6.672 -38.37,2.398 -76.72,2.039 -114.88,0.039 z M 6175.83,391.25 c -15.62,0 -30.13,0.75 -43.28,2.391 -56.68,7.078 -112.69,32.828 -166.84,57.718 -32.66,15.032 -63.5,29.223 -94.28,39.461 -171.16,57.059 -357.79,73.27 -540.27,86.051 -33.64,-3.379 -67.01,-7.492 -100.01,-11.551 -56.36,-6.929 -114.63,-14.101 -172.62,-17.5 -33.14,-1.961 -67.21,-3.281 -102.14,-3.968 -23.05,-8.75 -45.95,-18.102 -68.64,-27.372 -76.3,-31.171 -155.23,-63.39 -234.46,-69.992 -151.84,-12.687 -280.96,-14.066 -406.34,-4.429 -45.36,3.504 -90.07,16.39 -133.32,28.863 -42.7,12.308 -86.86,25.027 -131.07,28.437 -45.53,3.512 -92.3,3.532 -137.53,3.539 -51.84,0.024 -105.45,0.043 -157.81,5.282 -66.72,6.672 -133.44,20.468 -197.97,33.82 -49.27,10.191 -100.22,20.719 -150.37,27.879 -37.33,5.34 -69.04,22.512 -99.7,39.101 -28.2,15.29 -54.84,29.711 -85.7,35.879 -11.15,2.243 -32.92,1.653 -55.97,1.071 -46.21,-1.18 -93.9,-2.43 -110.12,13.789 -1.62,1.633 -2.26,4.363 -1.51,6.543 3.24,9.476 61.7,21.218 62.27,21.308 17.87,2.211 34.59,8.352 52.3,14.828 18.38,6.743 37.41,13.711 57.96,16.004 24.22,2.739 75.89,-18.191 141.4,-44.593 75.85,-30.59 170.24,-68.649 238.7,-74.368 l 32.18,-2.66 c 136.76,-11.371 265.92,-22.121 399.77,-37 105.01,-11.66 214.87,-4.101 321.1,3.219 98.82,6.828 200.95,13.879 300.04,5.602 128.57,-10.704 250.09,-14.922 362.45,-12.801 73.93,27.941 149.85,49.57 227.94,43.66 34.87,-2.68 70.11,-5.109 105.58,-7.539 14.43,-0.992 28.9,-1.992 43.4,-2.992 64.1,6.41 129.16,10.199 194.63,6.121 40.26,-2.512 80.93,-4.602 121.76,-6.68 92.35,-4.73 187.85,-9.59 279.5,-19.793 30.08,-3.34 59.98,-8.496 88.9,-13.496 68.79,-11.891 133.75,-23.113 204.81,-12.961 66.71,9.539 133.39,36.25 197.91,62.078 48.91,19.59 99.5,39.852 149.58,52.371 28.9,7.219 57.13,2.981 84.37,-1.121 24.17,-3.636 47.01,-7.078 70.3,-3.168 16.65,2.758 30.71,9.61 45.57,16.879 15.71,7.66 31.95,15.59 51.51,18.391 8.62,1.219 17.33,1.879 26.05,2.179 8.1,5.579 16.43,10.579 24.99,14.872 66.24,33.097 117.26,44.859 158.25,54.328 74.38,17.16 119.28,27.531 178.34,145.672 18.12,36.187 -13.89,57.828 -54.31,80.41 -12.01,6.707 -22.38,12.488 -28.29,18.398 -7.53,7.52 -5.89,29 -2.57,63.42 1.84,19.18 3.92,40.92 1.53,48.13 -13.44,40.27 -36.08,76.05 -57.98,110.62 -13.96,22.08 -28.43,44.91 -40.27,68.61 -3.08,6.17 -6.63,13.13 -10.44,20.63 -15.08,29.67 -33.87,66.61 -45.5,95.7 -16.48,41.2 -28.91,82.38 -40.91,122.21 -13.56,45 -27.59,91.54 -47.47,137.89 -10.31,24.08 -30.65,42.66 -50.32,60.64 -17.78,16.24 -36.16,33.03 -46.47,53.61 -11.65,23.3 8.21,62.35 33.33,111.75 28.23,55.5 62.34,122.59 64.79,190.01 -17.03,-45.75 -41.16,-86.97 -72.34,-123.48 -44.49,-52.14 -99.98,-37.02 -110.68,-33.48 -35.28,11.78 -52.86,23.95 -55.27,38.32 -1.72,10.24 4.33,20.52 18.5,31.41 30.98,23.81 65.5,22.85 95.94,21.92 24.52,-0.71 45.68,-1.35 57.54,12.14 14.02,15.93 16.17,51.13 6.74,110.79 -1.35,8.54 3.42,25.79 8.95,45.77 5.15,18.63 12.95,46.78 9.78,53.11 -57.3,114.6 -74.59,248.05 -91.3,377.11 -17,131.17 -34.57,266.81 -93.76,385.17 -11.56,23.13 -26.59,45.79 -41.13,67.69 -27.82,41.94 -56.59,85.31 -65.16,136.69 -11.41,68.37 -85.16,312.71 -121.71,349.26 -4.91,4.91 -9.96,6.83 -15.52,5.84 -28.33,-5.12 -61.29,-77.49 -72.12,-101.28 -1.79,-3.91 -3.16,-6.94 -4.08,-8.76 -43.96,-87.95 -27.17,-194.72 -10.93,-297.98 2.47,-15.78 4.91,-31.34 7.1,-46.59 l 1.1,-7.45 c 1.66,-10.81 3.37,-22 3.37,-33.05 0,-8.13 0.21,-17.4 0.43,-27.34 1.05,-46.81 2.37,-105.06 -14.29,-138.38 -5.47,-11.02 -11.33,-17.15 -17.42,-18.13 -3.6,-0.61 -7.07,0.59 -9.83,3.35 -108.99,109.02 -107.77,457.34 -76.55,613.5 3.68,18.34 6.56,35.54 9.33,52.01 10.37,61.8 19.34,115.18 62.07,179.26 4.2,6.29 5.3,18.7 0.74,23.27 -1.2,1.22 -3.66,2.03 -6.02,2.81 -14.81,4.93 -28.59,2.81 -42.59,-6.28 -60.43,-39.29 -99.91,-195.4 -104.18,-239.62 -33.35,-343.69 56.07,-661.48 153.27,-811.29 11.52,-17.78 43.42,-43.13 71.55,-65.49 18.34,-14.56 35.66,-28.32 46.63,-39.3 18.04,-18.05 34.42,-51.62 53.35,-90.47 29.82,-61.16 63.62,-130.47 112.55,-155.16 62.74,-31.66 78.08,-9.4 87.26,3.91 2.8,4.07 5.23,7.59 8.7,9.33 15.91,7.87 44.49,-5.14 51.9,-19.96 1.91,-3.83 6.74,-17.02 -11.29,-26.04 -123.22,-61.57 -269.49,35.93 -348.07,88.32 -43.87,29.25 -215.69,77.5 -417.83,117.3 -58.34,11.49 -233.85,68.14 -286.93,94.68 -46.3,23.14 -66.96,97.34 -86.96,169.08 -7.15,25.69 -14.56,52.26 -22.98,75.94 l -1.41,3.99 c -5.32,15.29 -10.84,31.09 -30.88,41.12 -37.25,18.63 -78.91,35.46 -119.18,51.75 -39.01,15.78 -79.35,32.09 -114.36,49.59 -50.54,25.29 -69.54,90.9 -89.67,160.37 -3.12,10.78 -6.27,21.62 -9.56,32.37 -2.41,7.9 -4.73,15.94 -7.04,23.94 -7.29,25.25 -14.18,49.09 -23.45,67.62 l -0.94,2.18 c -8.35,19.84 -21.5,42.23 -38.68,39.76 0.42,-21.67 55.16,-145.91 91.77,-229.05 61.67,-140.03 65.71,-152.29 60.72,-158.36 -8.27,-10.06 -27.22,0.14 -69.32,24.12 -43.45,24.79 -109.06,62.21 -126.65,38.81 -4.12,-4.58 -9.66,-12.59 -7.66,-23.32 2.04,-10.94 12.64,-28.1 51.56,-47.67 45.94,-23.04 179.03,-99.54 187.89,-146.92 1.53,-8.23 -0.47,-15.69 -5.82,-21.58 -22.32,-24.68 -79.67,17.29 -152.26,70.35 -66.42,48.55 -141.67,103.55 -172.77,88.08 -5.97,-2.99 -9.32,-7.2 -10.23,-12.87 -3.52,-21.69 26.35,-58.19 42.63,-74.45 26.58,-26.59 62.18,-47.03 99.85,-68.65 32.74,-18.8 66.59,-38.24 94.45,-62.3 1.01,-0.87 2.19,-1.8 3.42,-2.8 6.9,-5.52 16.32,-13.07 17.12,-23.24 0.41,-5.29 -1.56,-10.37 -5.85,-15.1 -4.07,-4.47 -9.85,-6.77 -17.18,-6.81 -0.09,0 -0.17,-0.02 -0.27,-0.02 -52.75,0 -193.07,123.94 -223.23,156.01 -7.33,7.79 -14.84,11.79 -22.35,11.93 -9.83,-0.39 -16.39,-6.27 -16.46,-6.34 -5.1,-5.12 -7.39,-10.9 -7,-17.69 1.89,-33.24 65.95,-84.1 117.42,-124.97 54.11,-42.97 87.32,-70.32 88.51,-90.81 0.29,-5.1 -1.45,-9.7 -5.03,-13.27 -20.15,-20.12 -84.84,27.67 -189.8,117.09 -15.5,13.22 -30.16,25.7 -33.06,27.18 -1.41,0.18 -12.22,0.38 -16.22,-0.03 -6.72,-7.3 -9.62,-16.11 -8.85,-26.91 3.94,-55.3 103.49,-141.44 141.52,-169.97 92.42,-69.31 165.36,-120.89 262.69,-153.33 25.27,-8.45 61.83,-5.66 104.17,-2.46 60.86,4.61 136.54,10.34 213.07,-15.15 75.35,-25.14 146.71,-65.41 215.71,-104.37 59.28,-33.45 120.57,-68.04 185.6,-94.04 75.21,-30.09 158.07,-42.59 238.19,-54.68 67.92,-10.24 138.15,-20.83 202.1,-42.15 205.09,-68.35 447.06,-463.2 519.25,-655.72 15.26,-40.67 37,-80.04 60.03,-121.73 55.13,-99.86 112.15,-203.12 72.23,-322.9 -5.41,-16.211 -14.12,-26.301 -25.89,-29.938 -28.2,-8.633 -68.36,21.758 -110.84,53.977 -44.05,33.441 -94.03,71.351 -127.03,60.301 -0.8,-0.27 -1.8,-0.87 -2.84,-1.53 -1.7,-1.03 -3.8,-2.35 -6.43,-3.01 -15.49,-3.87 -17.86,-7.6 -18.22,-8.66 -1.05,-3.11 4.64,-10.28 9.65,-16.61 10.52,-13.27 24.92,-31.429 17.22,-54.53 -8.91,-26.77 -35.85,-52.09 -59.63,-74.43 -5.93,-5.59 -11.64,-10.949 -16.71,-16.031 -4.95,-4.918 -15.83,-9.887 -24.57,-5.539 -71.52,35.769 -126.88,140.51 -185.49,251.42 -86.63,163.85 -176.21,333.25 -326.19,303.27 -12.73,-2.56 -20.01,-7.29 -22.26,-14.48 -9.91,-31.84 68.53,-112.94 144.41,-191.37 107.24,-110.86 228.79,-236.5 209.3,-316.098 -6.61,-27 -28.93,-47.02 -66.33,-59.492 -51.35,-17 -108.23,66.281 -180.23,171.87 -81.22,119.1 -182.27,267.32 -298.73,290.6 -330.02,65.89 -701.64,-128.51 -846.14,-215.18 -15.06,-9.04 -29.68,-19.59 -43.81,-29.82 -26.13,-18.87 -53.15,-38.4 -85.01,-49.97 -151.38,-55.071 -313.66,-77.981 -470.58,-100.149 l -41.74,-5.91 c -42.17,-5.98 -98.22,2.668 -161.11,19.879 -106.14,-22.219 -223.13,-23.02 -356.58,6.629 -22.4,4.992 -47.56,9.062 -74.19,13.391 -98.21,15.921 -209.51,33.992 -268.48,107.7 -30.41,38.01 -38.68,67.53 -24.59,87.76 27.7,39.72 133.25,25.7 181,9.82 46.56,-15.52 110.75,-43.27 185.08,-75.38 114.55,-49.52 246.98,-106.76 357.47,-137.471 234.44,49.93 415.6,205.841 604.03,367.971 159.14,136.93 323.69,278.53 528.05,360.27 83.5,33.43 330.28,-7.27 510.46,-36.97 67.14,-11.06 125.14,-20.62 162.14,-24.31 32.31,-3.22 63.94,-13.75 94.52,-23.93 36.25,-12.05 73.75,-24.51 111.97,-24.51 12.03,0 35.68,-5.07 65.59,-11.48 70.94,-15.21 178.14,-38.18 208.24,-8.48 7.19,7.08 9.37,17.01 6.68,30.42 -5.12,25.68 -8.53,57.3 -12.12,90.79 -8.02,74.69 -17.12,159.34 -48.67,206.68 -16.7,25.05 -48.78,27.59 -82.71,30.27 -25.15,2 -51.12,4.05 -69.84,16.52 -17.44,11.63 -21.7,35.58 -25.85,58.74 -3.19,17.92 -6.2,34.83 -14.73,43.36 0.02,0.01 -0.12,0.01 -0.29,0.01 -1,0 -4.59,-0.3 -13.96,-5.11 -43.53,-21.8 -56.86,-14.61 -80.59,2.2 -8.38,5.92 -17.88,12.63 -31.39,19.39 -9.81,4.88 -21.81,-0.22 -34.54,-5.63 -9.5,-4.05 -19.32,-8.23 -28.86,-8.23 l -2.17,-0.13 c -9,-0.69 -12.68,-0.69 -15.29,1.89 -75.28,75.28 -202.17,74.33 -325.08,73.37 -13.66,-0.1 -27.29,-0.21 -40.79,-0.21 -9.22,0 -16.79,4.44 -24.12,8.76 -10.37,6.07 -17.18,9.54 -26.09,5.09 -3.34,-1.66 -7.65,-5.19 -12.23,-8.92 -12.66,-10.3 -29.98,-24.3 -49.64,-17.83 -9.54,3.19 -25.52,15.32 -38.35,25.07 -4.39,3.34 -9.63,7.32 -12.44,9.19 -23.85,-12.44 -46.52,-31.74 -68.47,-50.44 -23.49,-20.01 -47.81,-40.71 -74.4,-54.01 -5.71,-2.84 -11.58,-3.24 -17.46,-1.21 -18.75,6.49 -33.1,36.95 -45.77,63.81 -5.14,10.94 -12.02,25.52 -15.97,29.69 -10.96,-9.84 -27.13,-12.66 -44.2,-15.64 -3.36,-0.59 -6.73,-1.17 -10.07,-1.83 -1.45,-4.13 -4.66,-8.49 -7.49,-12.34 -0.83,-1.13 -1.53,-2.07 -1.86,-2.62 -20.22,-40.47 -39.15,-82.68 -55.25,-122.83 -0.04,-9.52 0.08,-19.1 0.2,-28.62 0.48,-42.25 0.98,-85.94 -10.64,-120.84 -3.97,-11.91 -12.2,-26.84 -20.91,-42.64 -12.77,-23.14 -27.23,-49.37 -27.23,-65.61 0,-3.85 0,-6.88 -3.44,-8.6 -1.98,-0.99 -4.46,-0.82 -6.27,0.52 -6.61,4.86 -2.31,57.03 -2.23,57.54 6.08,36.43 12.33,71.98 22.18,106.39 8.81,30.87 21.34,66.61 36.34,104.18 0.24,46.77 4.08,92.14 27.86,123.83 1.63,2.17 3.39,4.12 5.27,5.9 -1.34,-0.33 -2.68,-0.63 -3.93,-0.93 -15.49,-3.65 -30.12,-7.1 -37.74,-7.1 -28.34,0 -51.46,20.92 -73.83,41.16 -13.36,12.06 -25.96,23.46 -39.03,29.99 -16.48,8.26 -41.42,-0.3 -67.88,-9.33 -31.13,-10.63 -66.42,-22.66 -95.14,-8.31 -26.51,13.28 -33.83,38.07 -40.92,62.04 -6.2,20.97 -12.05,40.79 -30.23,52.89 -16.1,10.75 -33.05,12.98 -49.46,15.13 -25.94,3.41 -52.76,6.92 -71.54,44.46 -12.94,25.89 -4.25,55.35 4.17,83.87 8.45,28.6 16.41,55.61 4.64,79.17 -3.97,7.94 -25.7,12.54 -44.85,16.59 -28.95,6.14 -58.88,12.47 -68.49,32.42 -4.78,9.9 -3.71,21.9 3.19,35.67 4.62,9.25 18.89,29.41 36.95,54.95 33.22,46.98 111.02,156.99 96.34,171.65 -1.4,-0.32 -8.15,-5.22 -10.39,-6.81 -2,-1.44 -3.67,-2.61 -4.7,-3.11 -16.73,-8.37 -46.63,-35.18 -78.29,-63.55 -66.4,-59.54 -135.01,-121.03 -162.17,-93.96 -5.36,5.37 -4.89,14.67 1.43,28.46 3.75,8.2 9.43,17.32 11.8,19.69 5.27,5.28 23.38,28.56 42.56,53.2 47.86,61.52 70.45,89.57 77.96,93.34 6.3,3.15 13.61,6.53 21.29,10.11 23.37,10.88 52.45,24.4 65.28,37.22 2.3,2.31 2.92,16.03 3.37,26.07 1.17,25.05 2.75,59.36 23.07,79.7 19.83,19.82 50.03,60.44 39.66,70.82 -19.32,19.35 -118.54,-11.39 -190.91,-33.82 -51.3,-15.9 -95.6,-29.64 -117.69,-29.64 h -44.07 c -3.32,0 -6.01,2.69 -6.01,6.01 0,10.79 16.61,19.86 57.37,39.54 20.36,9.82 58.26,28.11 59.1,35.61 -18.86,18.65 -57.33,3.18 -88.23,-9.22 -26.27,-10.55 -46.93,-18.82 -57.32,-8.48 -29.35,29.36 -66.71,82.97 -102.85,134.83 -18.45,26.49 -35.88,51.52 -51.92,72.9 -9.9,13.2 -19.66,27.94 -29.08,42.19 -16.94,25.61 -34.45,52.09 -54.1,71.74 -1.37,1.36 -6.13,4.23 -10.33,6.76 -13.8,8.31 -22.23,13.85 -23.07,20.81 -0.34,2.73 0.58,5.35 2.57,7.34 75.86,75.84 568.49,116.32 656.39,116.32 45.28,0 111.29,-7.05 160.83,-26.85 2.76,-1.11 7.92,-4.23 16.81,-9.65 9.09,-5.53 25.96,-15.82 35.26,-19.79 -11.56,25.97 -73.9,113.94 -83.53,119.89 -87.29,43.65 -227.56,46.47 -345.09,38.56 -9.87,-19.11 -21.39,-36.48 -35.61,-50.71 -11.75,-11.74 -34.89,-9.92 -57.25,-8.21 -16.11,1.25 -32.74,2.54 -41.25,-1.74 -1.69,-0.84 -4.39,-2.7 -7.61,-4.88 -14.15,-9.57 -30.16,-20.4 -38.98,-11.6 -16.61,16.6 -16.88,35.43 -11.07,54.28 -54.3,-9.82 -99.91,-26.85 -135.58,-50.64 -1.71,-1.13 -4.78,-3.63 -8.66,-6.77 -20.88,-16.87 -39.13,-30.71 -50.53,-29.17 -3.13,0.42 -5.72,1.94 -7.47,4.39 -10.61,14.84 -9.22,26.55 -7.78,38.93 1.75,14.92 3.73,31.82 -14.59,62.52 -11.88,19.94 -28.91,72.45 -46.94,128.03 -16.71,51.55 -34,104.84 -48.64,137.12 -60.24,132.83 -111.32,145.32 -135.87,151.32 -11.61,2.84 -19.65,4.57 -25.24,5.62 3.91,-2.82 8.54,-6.02 12.89,-9.02 24.24,-16.73 60.86,-41.99 80.6,-70.26 28.18,-40.38 51.07,-93.47 69.98,-162.32 6.18,-22.44 13.99,-45.38 21.54,-67.56 20.43,-59.98 38.08,-111.76 16.22,-133.61 -1.47,-1.49 -3.66,-2.11 -5.68,-1.6 -8.1,1.93 -56.77,113.02 -57.14,114.11 -18.73,56.21 -56.18,160.57 -96.39,227.94 -15.48,25.94 -54.14,62.02 -84.87,72.29 -71.1,23.78 -85.62,16.6 -120.67,-0.81 -14.81,-7.36 -33.25,-16.52 -60.59,-25.62 -1,-0.34 -3.93,-0.99 -7.69,-1.78 -3.84,-0.81 -11.29,-2.38 -16.31,-3.77 5.22,-3.26 16.79,-7.79 27.29,-11.9 12.35,-4.84 27.73,-10.87 45.39,-19.07 60.77,-28.23 116.23,-94.79 137.07,-126.04 38.49,-57.73 62.6,-118.27 78.21,-196.3 3.62,-18.14 -2.66,-45.61 -9.32,-74.68 -9.47,-41.37 -20.19,-88.25 -1.15,-107.31 16.83,-16.83 40.72,-36.7 66.01,-57.75 71.2,-59.25 159.81,-132.98 186.62,-213.38 l 1.29,-3.86 c 30.74,-90.91 28.75,-102.98 23.69,-108.04 -5.32,-5.29 -16.18,-8.39 -29.92,-12.31 -19.94,-5.67 -44.75,-12.74 -51.16,-27.29 -2.87,-6.51 -1.92,-14.35 2.89,-23.96 9.77,-19.54 31.41,-18.86 54.33,-18.1 22.78,0.74 48.66,1.59 60.23,-21.56 19.26,-38.52 -9.83,-61.59 -33.18,-80.13 -14.07,-11.15 -27.34,-21.69 -28,-32.98 -0.37,-6.57 3.42,-13.74 11.6,-21.91 18.3,-18.44 191.42,60.03 294.84,106.85 123.57,55.93 143.09,63.2 150.19,56.17 8.95,-8.96 12.8,-19.01 11.49,-29.88 -4.59,-37.68 -72.36,-78.57 -150.8,-125.91 -78.46,-47.33 -167.36,-100.97 -194.44,-155.17 -2.41,-4.82 -2.65,-9.14 -0.78,-13.58 9.08,-21.49 62.52,-38.4 101.52,-50.76 29.07,-9.22 45.82,-14.74 52.36,-21.25 7.75,-7.8 1.71,-58.05 1.59,-58.51 -19.54,-83.67 -43.82,-241.22 13.23,-356.23 21.71,-43.69 113.85,-140.61 202.77,-109.89 66.02,22.73 112.07,56.57 140.76,103.47 21.41,35.05 40.17,29.1 45.44,26.37 14.59,-7.42 18.62,-31.03 9.2,-53.74 -14.96,-35.98 -73.93,-226.42 -117.01,-365.48 -21.81,-70.47 -40.67,-131.33 -47.79,-152.72 -21.79,-65.34 51.42,-141.76 104.86,-197.55 36.63,-38.22 54.02,-57.23 49.37,-71.23 -4.71,-14.09 -12.79,-22.37 -24.01,-24.59 -38.55,-7.73 -102.26,61.75 -159.25,127.4 -12.21,14.03 -24.8,28.55 -27.88,30.37 -49.69,24.84 -101.59,12.71 -139.46,3.84 -21.07,-4.93 -36.31,-8.5 -45.55,-3.89 -15.06,7.52 -28.76,17.18 -42.01,26.53 -13.19,9.28 -26.8,18.87 -41.71,26.33 -40.69,20.39 -74.69,-8.48 -107.52,-36.39 -28.96,-24.58 -58.86,-50.02 -90.76,-34.09 -36.08,18.02 -74.66,28.41 -117.75,39.2 -36.54,9.14 -1119.39,75.68 -1147.03,70.51 -17.33,-5.79 -36.41,-11.8 -56.43,-18.1 -144.76,-45.57 -343.02,-107.99 -402.17,-255.92 -105.55,-263.84 59.43,-428.809 218.97,-588.341 2.32,-2.328 2.37,-6.507 0.08,-8.879 -4,-4.121 -13.33,-13.71 -1197.15,3.102 -11.8,0.168 -1179.978,16.906 -1186.42,23.008 -2.414,2.269 -2.527,6.07 -0.246,8.48 1.504,1.59 3.664,2.2 5.661,1.739 29.484,-2.407 2193.685,-42.418 2361.815,-28.168 -152.74,152.839 -320.53,326.869 -213.87,593.529 61.27,153.2 262.67,216.61 409.74,262.91 19.94,6.27 38.95,12.27 56.59,18.15 14.61,4.83 442.31,-21.26 573.03,-29.4 275.54,-17.15 563.36,-36.73 580.35,-40.96 43.78,-10.96 83.04,-21.55 120.2,-40.11 24.74,-12.39 49.24,8.39 77.61,32.49 34.16,29 72.83,61.93 120.67,38 15.71,-7.88 29.71,-17.74 43.25,-27.29 13.49,-9.49 26.22,-18.47 40.47,-25.59 5.29,-2.69 20.93,0.98 37.44,4.85 37.44,8.74 93.97,21.95 147.64,-4.85 4.54,-2.27 12.94,-11.81 31.49,-33.2 36.76,-42.32 112.8,-130.31 147.85,-123.49 6.78,1.35 11.68,6.79 14.95,16.63 2.59,7.73 -24.7,36.24 -46.64,59.12 -55.54,58.01 -131.65,137.44 -107.58,209.66 7.08,21.25 25.92,82.06 47.73,152.46 43.14,139.29 102.22,330.05 117.39,366.52 7.51,18.1 4.2,34.49 -3.58,38.47 -5.76,2.87 -16.98,-1.06 -29.74,-21.94 -29.78,-48.71 -79.28,-85.24 -147.09,-108.59 -97.36,-33.45 -193.62,68 -217.43,115.92 -58.73,118.38 -34.08,279.05 -14.17,364.31 1.42,6.03 3.17,42.72 0.9,48.22 -4.05,3.82 -25.78,10.68 -46.79,17.35 -43.53,13.79 -97.71,30.96 -108.95,57.52 -3.26,7.71 -2.9,15.66 1.09,23.64 28.66,57.31 119.14,111.9 198.97,160.07 72.62,43.83 141.22,85.21 145.09,117.08 0.82,6.71 -1.46,12.86 -6.97,18.81 -12.47,-0.73 -76.18,-29.57 -137.83,-57.49 -166.35,-75.32 -285.78,-126.82 -308.29,-104.4 -10.74,10.75 -15.67,20.9 -15.08,31.09 0.96,16.67 16.28,28.84 32.5,41.72 23.05,18.27 44.82,35.55 29.92,65.34 -8.14,16.27 -27.05,15.66 -49.1,14.93 -24.46,-0.85 -52.25,-1.69 -65.46,24.72 -6.43,12.83 -7.48,24.34 -3.13,34.19 8.68,19.71 36.51,27.63 58.86,34 10.63,3.02 21.6,6.15 24.69,9.24 0.09,1.44 0.5,15.73 -26.55,95.7 l -1.33,3.92 c -25.72,77.15 -112.87,149.67 -182.89,207.94 -25.51,21.23 -49.61,41.28 -66.81,58.49 -23.76,23.75 -12.73,71.9 -2.07,118.47 6.36,27.79 12.36,54.04 9.25,69.65 -15.29,76.43 -38.86,135.64 -76.42,192 -23.48,35.19 -78.03,96.67 -132.15,121.8 -17.32,8.06 -32.5,14.01 -44.71,18.79 -25.08,9.81 -37.65,14.74 -37.65,25.51 0,6.73 6.86,8.51 28.58,13.09 3.06,0.65 5.47,1.14 6.37,1.42 26.54,8.84 44.56,17.79 59.05,24.98 35.94,17.84 53.97,26.8 129.81,1.44 33.71,-11.27 74.46,-49.18 91.37,-77.51 40.79,-68.35 78.59,-173.63 97.47,-230.3 4,-12 35.55,-77.76 47.44,-100.62 8,21.32 -7.4,66.52 -23.58,114.04 -7.62,22.35 -15.49,45.47 -21.76,68.27 -18.55,67.5 -40.87,119.39 -68.26,158.61 -18.5,26.5 -54.04,51.03 -77.56,67.25 -22.75,15.7 -29.6,20.42 -26.37,27.64 2.92,6.48 9.22,6.87 48.38,-2.68 26.39,-6.46 81.3,-19.88 143.94,-158.03 14.93,-32.89 32.32,-86.51 49.14,-138.38 17.83,-54.92 34.64,-106.8 45.85,-125.58 20.39,-34.19 18.06,-54.08 16.19,-70.06 -1.32,-11.32 -2.28,-19.49 5.62,-30.56 3.67,-0.32 17.54,8.44 40.68,27.14 4.26,3.44 7.65,6.16 9.55,7.43 38.61,25.73 88.1,43.79 147.13,53.69 3.54,8.2 7.79,16.31 11.89,24.15 2.17,4.11 4.34,8.24 6.39,12.37 100.11,200.26 184.31,229.35 311.78,273.39 51.57,17.8 109.99,37.99 179.99,72.99 7.95,3.95 29.5,14.7 32.25,22.96 5.45,16.35 -7,26.28 -33.42,45.42 -28.26,20.48 -66.97,48.53 -92.61,103.81 -22.11,47.67 -36.89,59.94 -48.78,69.8 -10.41,8.63 -19.4,16.09 -27.89,41.55 -5.63,16.91 -2.12,48.46 1.61,81.86 2.97,26.92 7.98,71.95 -0.24,75.9 -0.13,0.12 -5.32,2.23 -22.25,-14.7 -100.05,-100.04 -44.34,-224.14 0.43,-323.86 21.99,-48.97 40.97,-91.27 40.97,-125.74 0,-2.77 -2.13,-5.71 -4.83,-6.36 -5.42,-1.24 -9.48,5.19 -10.93,8.04 -5.86,11.72 -21.27,23.69 -36.17,35.27 -9.07,7.06 -17.64,13.72 -24.42,20.5 -72.91,72.92 -97.89,139.79 -76.35,204.43 4.95,14.83 12.9,28.28 20.58,41.29 7.56,12.8 14.71,24.9 19.07,38.01 6.28,18.87 0.52,23.15 -8.21,29.65 -4.75,3.55 -10.16,7.57 -13.49,14.23 -11.39,22.78 -9.27,43.01 -7.03,64.41 3.89,37.16 8.31,79.28 -62.36,149.95 -2.24,2.25 -8.23,8.25 2.92,41.23 16.45,49.37 5.76,104.3 -4.59,157.44 -10.68,54.9 -21.75,111.67 -4.19,164.37 33.08,99.18 341.23,548.48 483.98,582.17 20.95,4.92 37.83,1.06 50.32,-11.42 2.39,-2.39 3.32,-4.95 -0.37,-15.5 10.93,9.95 23.4,18.39 37.5,25.44 47.09,23.54 74.32,33.04 116.62,40.72 51.64,9.39 94.86,1.98 135.97,-23.34 50.36,-31.03 99.12,-74.66 117.88,-93.4 28.41,-28.44 62.25,-55.44 98.08,-84.05 82.88,-66.14 168.58,-134.55 200.78,-231.16 7.16,-21.48 7.04,-31.45 6.92,-43 -0.2,-16.26 -0.46,-38.54 22.18,-111.52 9.17,-29.59 24.21,-47.37 40.14,-66.2 16.61,-19.61 33.79,-39.9 45.32,-74.48 27.85,-83.52 138.22,-292.71 147.7,-303.72 14.91,-12.82 35.69,-72.86 30.18,-96.43 -1.96,-8.39 -6.7,-11.27 -10.32,-12.21 -9.67,-2.38 -22.07,5.52 -40.49,25.91 -22.66,25.08 -36.86,50.72 -53.3,80.42 -10,18.06 -21.31,38.53 -36,61.31 -10.25,15.9 -19.53,34.79 -28.52,53.07 -11.75,23.89 -26.37,53.64 -35,54.52 -1.83,-0.22 -3.19,-1.6 -4.32,-3.05 -12.7,-16.31 64.13,-206.23 100.23,-247.81 8.81,-10.12 16.98,-20.27 24.56,-30.3 20.34,-6.08 40.62,-15.51 57.53,-28.32 45.48,-34.41 58.91,-85.43 37.83,-143.67 -1.71,-4.73 -5.47,-5.21 -6.59,-5.24 -0.1,0 -0.19,-0.01 -0.31,-0.01 -5.83,0 -8.01,5.12 -16.76,25.55 -12.25,28.58 -35.66,83.25 -79.11,141.56 -33.84,9.39 -66.08,8.39 -78.98,-0.86 -4.3,-3.08 -5.51,-6.59 -3.91,-11.36 5.97,-17.98 26.21,-45.87 49.64,-78.18 46.39,-63.99 104.14,-143.62 86.09,-197.76 -2.13,-6.39 -5.96,-8.19 -8.79,-8.57 -9.34,-1.34 -17.47,10.21 -36.44,38.61 -27.22,40.73 -68.23,102.28 -111.62,92.32 -4.54,-1.05 -5.49,-2.76 -5.83,-3.32 -2.45,-4.37 1,-14.85 4.36,-24.97 1.77,-5.39 3.62,-11.06 5.08,-16.85 2.36,-9.47 8.48,-24.29 15.58,-41.45 20.2,-48.85 45.33,-109.64 20.98,-132.3 -16.24,-15.12 -48.78,-9.68 -102.35,17.11 -33.08,16.55 -52.34,7.11 -74.63,-3.81 -16.87,-8.27 -35.65,-17.42 -61.28,-13.91 0.17,-3.63 0.32,-7.28 0.49,-10.96 0.36,-8.5 0.73,-17.21 1.21,-25.89 4.36,-1.38 8.38,-3.44 10.96,-4.76 34.21,-17.11 67.83,-28.4 100.33,-39.31 33.42,-11.21 67.96,-22.82 103.2,-40.42 38.91,-19.48 85.66,-2.47 135.19,15.53 46.39,16.86 94.29,34.31 137.2,20.03 20.49,-6.82 72.5,-50.09 123.57,-98.44 161.26,-41.91 191.59,-122.39 216.2,-187.58 3.92,-10.42 7.73,-20.52 11.94,-30.1 21.92,-50.09 40.19,-211.17 52.28,-317.75 4.22,-37.19 7.55,-66.57 9.83,-80.24 6.5,-39.07 20.2,-70.1 36.06,-106.02 11.6,-26.26 23.58,-53.42 34.21,-87.02 16.64,-52.48 18.39,-108.67 19.77,-163.17 28.03,-78.22 53.24,-155.69 76.25,-236.24 5.54,-19.37 12.05,-39.74 18.65,-60.42 14.13,-44.23 28.72,-89.96 35.65,-131.42 17.73,-106.43 14.83,-200.68 -8.54,-281.94 9.83,-81.2 -31.47,-162.43 -64.76,-227.92 -22.66,-44.57 -42.23,-83.06 -33.29,-100.94 9.3,-18.59 26.07,-33.9 43.82,-50.12 20.61,-18.83 41.93,-38.3 53.26,-64.77 20.14,-46.98 34.26,-93.84 47.93,-139.14 11.94,-39.59 24.26,-80.54 40.55,-121.23 11.43,-28.58 30.08,-65.26 45.08,-94.72 3.81,-7.53 7.37,-14.51 10.47,-20.7 11.56,-23.15 25.86,-45.73 39.67,-67.57 22.28,-35.17 45.32,-71.57 59.23,-113.23 3.19,-9.63 1.26,-29.78 -0.99,-53.1 -1.76,-18.33 -4.71,-49.05 -0.83,-53.79 4.69,-4.7 14.85,-10.37 25.61,-16.378 33.4,-18.66 83.91,-46.871 59.2,-96.262 -61.61,-123.199 -111.25,-134.648 -186.38,-151.988 -40.37,-9.32 -90.64,-20.91 -155.58,-53.39 -2.58,-1.282 -5.12,-2.622 -7.65,-4.043 8.25,-0.168 16.44,-0.508 24.55,-0.86 26.77,-1.109 54.53,-2.258 80.58,2.93 44.74,8.961 91.74,39.562 137.18,69.16 55.18,35.949 112.25,73.109 168.03,73.813 36.24,0.457 283.17,1.5 387.66,1.929 345.94,1.418 345.96,1.391 347.7,-2.09 1.48,-2.961 0.28,-6.582 -2.69,-8.062 -0.95,-0.457 -1.98,-0.777 -2.93,-0.617 -0.03,0 -0.07,0 -0.1,0 -12.18,0 -658.37,-2.25 -729.48,-3.18 -52.3,-0.633 -107.89,-36.832 -161.63,-71.852 -46.4,-30.23 -94.37,-61.46 -141.4,-70.851 -27.42,-5.488 -55.9,-4.32 -83.42,-3.168 -14.17,0.59 -28.59,1.168 -42.95,0.859 -31.79,-22.468 -60.35,-54.14 -90.24,-87.281 -48.46,-53.726 -98.59,-109.309 -166.45,-126.277 -98.64,-24.66 -292.13,-73.012 -417.16,-73.012"
         style="fill:#100f0d;fill-opacity:1;fill-rule:nonzero;stroke:none"
         id="path16" /></g></g></svg>
