<?xml version="1.0" encoding="UTF-8" standalone="no"?>
<svg
   xmlns:dc="http://purl.org/dc/elements/1.1/"
   xmlns:cc="http://creativecommons.org/ns#"
   xmlns:rdf="http://www.w3.org/1999/02/22-rdf-syntax-ns#"
   xmlns:svg="http://www.w3.org/2000/svg"
   xmlns="http://www.w3.org/2000/svg"
   xmlns:sodipodi="http://sodipodi.sourceforge.net/DTD/sodipodi-0.dtd"
   xmlns:inkscape="http://www.inkscape.org/namespaces/inkscape"
   version="1.1"
   id="svg2"
   xml:space="preserve"
   width="6617.3335"
   height="6617.3335"
   viewBox="0 0 6617.3335 6617.3335"
   sodipodi:docname="vectorstock_26317623.eps"><metadata
     id="metadata8"><rdf:RDF><cc:Work
         rdf:about=""><dc:format>image/svg+xml</dc:format><dc:type
           rdf:resource="http://purl.org/dc/dcmitype/StillImage" /></cc:Work></rdf:RDF></metadata><defs
     id="defs6" /><sodipodi:namedview
     bordercolor="#666666"
     borderopacity="1"
     objecttolerance="10"
     gridtolerance="10"
     guidetolerance="10"
     inkscape:pageopacity="0"
     inkscape:pageshadow="2"
     inkscape:window-width="640"
     inkscape:window-height="480"
     id="namedview4" /><g
     id="g10"
     inkscape:groupmode="layer"
     inkscape:label="ink_ext_XXXXXX"
     transform="matrix(1.3333333,0,0,-1.3333333,0,6617.3333)"><g
       id="g12"
       transform="scale(0.1)"><path
         id="path14" /><path
         d="M 24850.1,399.801 C 17555.8,399.801 11009.8,3606.4 6545.32,8686.1 v 79.2 C 11010.6,3660.4 17572.4,436.297 24887.5,436.297 30766.7,436.297 36159.3,2518.9 40368,5986.9 v -5.8 C 36153.8,2494.6 30746.8,399.801 24850.1,399.801 M 5946.33,9394.3 C 2534.66,13586.2 490.004,18933.8 490.004,24759.9 c 0,3420.1 705.256,6676.6 1977.546,9630.1 h 7222.1 c -0.16,-17.9 -0.23,-35.9 -0.23,-53.8 0,-191.5 8.67,-380.6 25.71,-567.6 -2408.31,-185.3 -4304.79,-2198.2 -4304.79,-4654.1 0,-1801.1 1019.89,-3363.9 2513.76,-4142.3 -326.7,-628 -569.77,-1195.3 -635.82,-1774.1 -10.11,15.8 -21.6,31 -34.57,45.5 -78.3,87.4 -190.2,123.6 -307.86,123.6 -112.17,0 -229.58,-32.9 -328.22,-85.6 -136.2,-72.8 -254.61,-177.5 -346.09,-301.8 -28.37,206.7 -87.8,409.1 -177.05,597.8 -165.9,350.7 -433.41,660.7 -508.41,1041.4 -61.79,313.6 15.54,636.8 9.25,956.4 -6.27,319.5 -138.02,681 -440.89,783.3 -52.96,17.9 -106.06,26.2 -158.57,26.2 -311.07,0 -601.41,-290.9 -720.05,-600 -138.67,-361.4 -143.73,-766.8 -308.59,-1117 -24.77,-52.6 -53.03,-103.8 -83.13,-154.1 -149.13,212.3 -388.72,369.6 -523.36,597 -131.37,221.8 -154.14,496.1 -291.86,714 -87.61,138.7 -262.82,238.4 -417.07,238.4 -88.24,0 -169.6,-32.6 -223.83,-109.2 -174.07,-245.7 135,-537.1 242.68,-818.3 139.09,-363.2 -79.65,-753.9 -258.96,-1099 -179.3,-345.2 -311.44,-805.6 -47.26,-1091 83.27,-90 198.38,-150.3 265.35,-253 189.41,-290.7 -109.45,-638.9 -243.82,-958.8 -243.54,-579.8 83.76,-1227.8 401.23,-1770.6 317.48,-542.8 643.65,-1191.8 398.08,-1770.8 l 685.38,-205.4 c 17.8,172.3 35.6,344.6 53.41,516.9 l 226.81,-65.6 c 23.32,-137.6 64.8,-271.8 125.36,-398.4 l 1480.09,29.8 c 24.7,63.2 56.34,122 93.04,177.5 32.38,4.6 64.73,9.7 96.96,15.3 V 11639.9 H 4382.18 c 482.39,-750.3 1004.67,-1472.2 1564.15,-2163 v -82.6 m 39432.57,2245.6 h -2355.8 v 3293.8 c 66.6,-58.5 123.6,-120.4 167,-187.7 30.1,-130.8 51.5,-264.4 62,-400.5 l 1592.7,-284.9 c 618.6,1407.3 551.1,1898.3 1542.1,2451.4 1352.5,754.9 590.2,2451.4 -511.7,2451.4 -26.5,0 -53.3,-0.9 -80.1,-2.9 -444.8,-33.2 -792.6,-385 -1083.5,-706.9 -43.5,-7 -85.7,-11.2 -125.9,-11.2 -215,0 -372.9,120.9 -387.3,593 -9.9,320.9 -100.3,599.5 -238.9,818.6 v 1443.6 c 0,54 -43.8,97.8 -97.8,97.8 h -7068.1 c -54,0 -97.8,-43.8 -97.8,-97.8 V 19623.4 H 40368 V 11639.9 H 20473.2 c 264.4,1890.8 94,3462.5 -417.8,4781.6 -311,801.7 -730.8,1450.8 -1182.6,2037.9 620.4,268.1 1675.5,814.3 2679.8,1759.1 283.3,266.5 543.8,547.3 780.8,841.5 h 4407.9 c 10.4,56.4 15.8,114.4 15.8,173.8 0,520.3 -414.8,942 -926.9,943.6 -274.2,485.2 -788.5,812.8 -1379,812.8 -530.4,0 -999.7,-263.7 -1288.3,-668.9 141.1,268.6 266.1,545.4 374.6,829.9 79.6,208.9 150.3,422 212.1,639.1 1600.6,227.8 3003.5,1069 3963.3,2278.1 h 1528 l -59.5,99.8 h 227.1 l -824,1382.2 c 299.9,726.3 465.4,1522.4 465.4,2357.1 0,2888.4 -1981.6,5313.9 -4659.6,5991 470.2,795.5 767.3,1706.1 839.1,2678.8 825.2,531.5 1371.6,1458.3 1371.6,2512.8 0,759.5 -283.5,1452.9 -750.5,1979.9 h 6565.2 c 19.4,106.1 29.6,215.5 29.6,327.4 0,979.8 -781.1,1774.1 -1745.7,1777.1 -516.4,913.8 -1484.9,1530.7 -2597.1,1530.7 -1008.4,0 -1899.6,-506.1 -2441.7,-1281.5 -342.5,-490 -885.8,-767 -1452.4,-767.1 -182,0 -366.4,28.6 -547.5,88 -288.8,94.6 -596.9,145.8 -917,145.8 -398.2,0 -778.4,-78.9 -1126,-222.2 -777.6,353 -1641.1,549.4 -2550.7,549.4 -682.6,0 -1339.6,-110.7 -1953.5,-315.1 -486.6,923.6 -1273.4,1664 -2230.9,2091.6 3042.7,1366.3 6415.8,2125.9 9967.3,2125.9 13453.8,0 24360.1,-10906.4 24360.1,-24360.1 0,-4830.9 -1406,-9333 -3831.3,-13120 m -2954.8,0 H 40967 v 7983.5 h 1354.6 c -173.9,-360.6 -86.6,-727.4 102.5,-1150.5 v -333.5 c -128.9,-1.4 -259,-47 -392.9,-163 -287.7,-249.3 -187.2,-596.5 51,-1027.6 -238.3,-66.2 -445.6,-177.8 -492.3,-438 -108.7,-606.1 362,-910.5 834.2,-1186.2 v -3684.7 m -23100.7,0 H 6545.32 v 7338.9 c 146.57,191.7 247.55,427.4 208.59,644.6 h 5683.99 v 1474.2 c 0,54 -43.8,97.8 -97.8,97.8 H 9981.23 c 422.67,197.9 750.47,612.5 836.67,1327.8 82.9,687.9 116.7,1216.7 123.1,1620.5 1080.6,-1425.7 2766.1,-2368.1 4674.1,-2445.1 435.2,-1195.8 1115.1,-2071.6 1812.7,-2893.7 1372.9,-1618 2730.9,-3167.6 1895.6,-7165 m -841.1,7306.3 c -123,148.5 -246.9,294.4 -370,439.5 -609.6,718.4 -1210.9,1417.3 -1642.4,2336.6 1744.2,168.5 3276.3,1061.9 4291.2,2375.4 658.3,-239 1368.7,-369.4 2109.6,-369.4 81.3,0 162,1.5 242.5,4.6 -206.5,-647.9 -502,-1253.9 -886.1,-1817.1 -44.9,7.7 -89.8,18.8 -134.2,33.3 -153.3,50.3 -316.9,77.5 -486.9,77.5 -651.3,0 -1211.2,-397.5 -1456.9,-966.6 h 1395.6 c -122.6,-132.7 -251.1,-262.7 -385.2,-389.7 -1028.1,-972.7 -2137.7,-1503.5 -2677.2,-1724.1 M 8493.21,21195.4 H 7278.8 c 17.2,250.2 -206.24,494.5 -227.6,759.1 -18.36,227.5 113.62,435.5 208.39,643.2 7.51,16.5 14.76,33.4 21.66,50.5 12.81,-140.2 37.17,-282.4 74.33,-427.4 110.01,-429.4 578.42,-822.2 1137.63,-1025.4 m -4084.9,14485.9 c -148.2,0 -298.27,23.3 -445.6,71.6 -235.08,77.1 -485.83,118.7 -746.36,118.7 -16.88,0 -33.68,-0.2 -50.47,-0.5 1311.33,2554.2 3059.56,4845.1 5147.77,6776.4 15.39,-889 279.29,-1717.6 725.22,-2419 -839.79,-431.9 -1414.18,-1307.1 -1414.18,-2316.5 0,-194.3 21.3,-383.7 61.66,-565.8 -36.07,1.6 -72.32,2.4 -108.79,2.4 -820.66,0 -1546.02,-411.9 -1987.21,-1043 -278.76,-398.8 -720.94,-624.2 -1182.04,-624.3"
         style="fill:#c7ece8;fill-opacity:1;fill-rule:nonzero;stroke:none"
         id="path16" /><path
         d="m 49031.3,28410 c 10.4,56.3 15.8,114.4 15.8,173.8 0,520.3 -414.8,942 -926.9,943.6 -274.2,485.2 -788.5,812.8 -1379,812.8 -535.4,0 -1008.6,-268.7 -1296.4,-680.5 -240.3,-343.8 -666.7,-490.1 -1061.9,-360.6 -153.3,50.3 -316.9,77.5 -486.9,77.5 -651.3,0 -1211.2,-397.5 -1456.9,-966.6 h 6592.2"
         style="fill:#ffffff;fill-opacity:1;fill-rule:nonzero;stroke:none"
         id="path18" /><path
         d="m 26741.3,21060 c 10.4,56.4 15.8,114.4 15.8,173.8 0,520.3 -414.8,942 -926.9,943.6 -274.2,485.2 -788.5,812.8 -1379,812.8 -535.4,0 -1008.6,-268.7 -1296.4,-680.5 -240.3,-343.7 -666.7,-490.1 -1061.9,-360.6 -153.3,50.3 -316.9,77.5 -486.9,77.5 -651.3,0 -1211.2,-397.5 -1456.9,-966.6 h 6592.2"
         style="fill:#ffffff;fill-opacity:1;fill-rule:nonzero;stroke:none"
         id="path20" /><path
         d="m 41671,38860 c 11.5,62.7 17.5,127.4 17.5,193.5 0,579.3 -461.7,1048.9 -1032,1050.6 -305.3,540.2 -877.8,904.9 -1535.3,904.9 -596.1,0 -1123,-299.1 -1443.5,-757.6 -267.5,-382.7 -742.2,-545.7 -1182.2,-401.4 -170.8,55.9 -352.9,86.2 -542.1,86.2 -725.2,0 -1348.6,-442.6 -1622.2,-1076.2 H 41671"
         style="fill:#ffffff;fill-opacity:1;fill-rule:nonzero;stroke:none"
         id="path22" /><path
         d="m 32415.7,43070 c 19.4,106.1 29.6,215.5 29.6,327.4 0,979.8 -781.1,1774.1 -1745.7,1777.1 -516.4,913.8 -1484.9,1530.7 -2597.1,1530.7 -1008.4,0 -1899.6,-506.1 -2441.7,-1281.5 -452.6,-647.5 -1255.6,-923.1 -1999.9,-679.1 -288.8,94.6 -596.9,145.8 -917,145.8 -1226.7,0 -2281.1,-748.7 -2743.9,-1820.4 h 12415.7"
         style="fill:#ffffff;fill-opacity:1;fill-rule:nonzero;stroke:none"
         id="path24" /><path
         d="m 11088,34390 c 15.9,86.4 24.1,175.4 24.1,266.4 0,797.5 -635.7,1444 -1420.76,1446.4 -420.3,743.7 -1208.54,1245.8 -2113.78,1245.8 -820.66,0 -1546.02,-411.9 -1987.21,-1043 -368.35,-526.9 -1021.9,-751.3 -1627.64,-552.7 -235.08,77.1 -485.83,118.7 -746.36,118.7 -998.38,0 -1856.54,-609.3 -2233.209,-1481.6 H 11088"
         style="fill:#ffffff;fill-opacity:1;fill-rule:nonzero;stroke:none"
         id="path26" /><path
         d="m 44616.9,10504.9 h -10.8 c 267.6,370.3 525.8,749.4 772.8,1135 h 13.8 c -248.1,-385.8 -507,-764.5 -775.8,-1135"
         style="fill:#c6ebe7;fill-opacity:1;fill-rule:nonzero;stroke:none"
         id="path28" /><path
         d="M 24887.5,436.297 C 17572.4,436.297 11010.6,3660.4 6545.32,8765.3 v 2874.6 H 19323.4 c -9.8,-47.2 -19.9,-94.4 -30.4,-142.2 -100.2,-458.1 171.1,-657.7 474.3,-657.7 290.2,0 609.6,182.8 660.2,496.7 16.5,101.9 31.7,203.1 45.7,303.2 H 40368 v -979.3 c -165.1,93.3 -334.3,147 -497.3,147 -207,0 -404,-86.6 -570,-288.5 -54.8,-66.7 -95.7,-132.9 -125,-199.5 h -3728.6 v -650.5 h 2056.2 1666.1 c 50.7,-190.4 130,-401.8 207.1,-648.8 -114.3,42.7 -225.1,73.2 -331.8,73.2 -138.1,0 -269.3,-51 -392.3,-192.6 -215.8,-248.3 -175.5,-484.2 -8.3,-749.8 -98.8,-63.5 -176.6,-153.6 -209.4,-294.1 -152.4,-652 762.1,-877.6 1345.4,-1183.8 70.8,-119.1 137,-244.7 196.2,-377.8 l 245.2,-23.1 c 2.7,-8.2 5.1,-16.5 7.2,-24.9 l 125.8,12.4 13.5,-1.3 V 5986.9 C 36159.3,2518.9 30766.7,436.297 24887.5,436.297 M 5946.33,9476.9 c -559.48,690.8 -1081.76,1412.7 -1564.15,2163 h 1564.15 v -2163 m 35795.77,842.7 H 40967 v 1320.3 h 1457.1 v -1135 h -226.3 v -87.8 c -106.5,-6.5 -220.5,-25.7 -341.2,-58.4 -40,-10.9 -78.2,-24 -114.5,-39.1 m 2864,185.3 h -1583 v 1135 h 2355.8 c -247,-385.6 -505.2,-764.7 -772.8,-1135"
         style="fill:#a1ddd6;fill-opacity:1;fill-rule:nonzero;stroke:none"
         id="path30" /><path
         d="m 20473.2,11639.9 h -1149.8 c 835.3,3997.4 -522.7,5547 -1895.6,7165 -697.6,822.1 -1377.5,1697.9 -1812.7,2893.7 84.2,-3.4 168.5,-5.1 253.5,-5.1 202.9,0 403.4,9.7 601.3,28.8 431.5,-919.3 1032.8,-1618.2 1642.4,-2336.6 123.1,-145.1 247,-291 370,-439.5 -205.2,-83.9 -327.9,-122.9 -332.1,-124.2 -157.9,-48.8 -246.4,-216.4 -197.6,-374.3 39.7,-128.4 158.1,-210.9 285.8,-210.9 29.3,0 59.1,4.3 88.5,13.4 23.4,7.2 227.3,71.5 545.9,209.2 451.8,-587.1 871.6,-1236.2 1182.6,-2037.9 511.8,-1319.1 682.2,-2890.8 417.8,-4781.6"
         style="fill:#5ac1bb;fill-opacity:1;fill-rule:nonzero;stroke:none"
         id="path32" /><path
         d="m 19767.3,10840 c -303.2,0 -574.5,199.6 -474.3,657.7 10.5,47.8 20.6,95 30.4,142.2 h 1149.8 c -14,-100.1 -29.2,-201.3 -45.7,-303.2 -50.6,-313.9 -370,-496.7 -660.2,-496.7"
         style="fill:#51bbb6;fill-opacity:1;fill-rule:nonzero;stroke:none"
         id="path34" /><path
         d="m 18238.4,18236.8 c -127.7,0 -246.1,82.5 -285.8,210.9 -48.8,157.9 39.7,325.5 197.6,374.3 4.2,1.3 126.9,40.3 332.1,124.2 539.5,220.6 1649.1,751.4 2677.2,1724.1 134.1,127 262.6,257 385.2,389.7 h 788.7 c -237,-294.2 -497.5,-575 -780.8,-841.5 -1004.3,-944.8 -2059.4,-1491 -2679.8,-1759.1 -318.6,-137.7 -522.5,-202 -545.9,-209.2 -29.4,-9.1 -59.2,-13.4 -88.5,-13.4 m 4145.2,3665.7 c -52,0 -104.3,4.3 -156.5,13.3 384.1,563.2 679.6,1169.2 886.1,1817.1 215,8.3 427.5,27.6 636.4,57.4 -61.8,-217.1 -132.5,-430.2 -212.1,-639.1 -108.5,-284.5 -233.5,-561.3 -374.6,-829.9 -2.7,-3.9 -5.4,-7.7 -8.1,-11.6 -181.9,-260.2 -470.4,-407.2 -771.2,-407.2"
         style="fill:#5ac1bb;fill-opacity:1;fill-rule:nonzero;stroke:none"
         id="path36" /><path
         d="m 22333.4,21060 h -788.7 c 252.1,273.1 479.6,558.5 682.4,855.8 52.2,-9 104.5,-13.3 156.5,-13.3 300.8,0 589.3,147 771.2,407.2 2.7,3.9 5.4,7.7 8.1,11.6 -232.9,-443.5 -509.9,-864.5 -829.5,-1261.3"
         style="fill:#6acbc3;fill-opacity:1;fill-rule:nonzero;stroke:none"
         id="path38" /><path
         d="m 8313.65,42647.5 c -0.48,27.4 -0.72,54.7 -0.72,82.2 0,2578.1 2089.97,4668.1 4668.07,4668.1 677.3,0 1320.9,-144.3 1901.8,-403.7 -2425.7,-1089.2 -4642.4,-2564.7 -6569.15,-4346.6"
         style="fill:#a3dfd0;fill-opacity:1;fill-rule:nonzero;stroke:none"
         id="path40" /><path
         d="m 12352,39417.8 c -471.7,664.1 -1247.3,1097.6 -2124,1097.6 -428.39,0 -832.68,-103.5 -1189.13,-286.9 -445.93,701.4 -709.83,1530 -725.22,2419 1926.75,1781.9 4143.45,3257.4 6569.15,4346.6 957.5,-427.6 1744.3,-1168 2230.9,-2091.6 -1945.9,-647.9 -3461.4,-2237.1 -4006.7,-4227.6 -76,-20.2 -123.9,-96.4 -108,-174.5 10,-49 19.8,-97.8 29.3,-146.3 -41.2,-190.3 -73.7,-383.8 -97,-580.2 -200.1,-108.3 -393.3,-227.1 -579.3,-356.1"
         style="fill:#83d4c3;fill-opacity:1;fill-rule:nonzero;stroke:none"
         id="path42" /><path
         d="m 13028.3,40354.1 c -9.5,48.5 -19.3,97.3 -29.3,146.3 -15.9,78.1 32,154.3 108,174.5 -29,-105.8 -55.3,-212.8 -78.7,-320.8"
         style="fill:#4fc3b0;fill-opacity:1;fill-rule:nonzero;stroke:none"
         id="path44" /><path
         d="m 7924.1,24972.2 c -1493.87,778.4 -2513.76,2341.2 -2513.76,4142.3 0,2455.9 1896.48,4468.8 4304.79,4654.1 88.39,-970.3 400.97,-1875.8 885.77,-2664.2 -577.6,-939.3 -910.78,-2044.9 -911.48,-3228.2 -68.68,-4.2 -137.04,-6.3 -205.06,-6.3 -747.03,0 -1454.1,250.5 -2113.39,750.4 -27.03,20.5 -58.79,30.4 -90.29,30.4 -45.22,0 -89.92,-20.4 -119.33,-59.2 -49.92,-65.9 -37.02,-159.7 28.82,-209.7 707.36,-536.3 1485.79,-806.5 2302.21,-806.5 67.68,0 135.62,1.9 203.8,5.6 32.34,-695 179.4,-1360 422.82,-1976.5 l -1558.03,539.7 c -228.28,-420.5 -446.75,-806.5 -636.87,-1171.9"
         style="fill:#8fd9c9;fill-opacity:1;fill-rule:nonzero;stroke:none"
         id="path46" /><path
         d="m 9492.38,27575.3 c -816.42,0 -1594.85,270.2 -2302.21,806.5 -65.84,50 -78.74,143.8 -28.82,209.7 29.41,38.8 74.11,59.2 119.33,59.2 31.5,0 63.26,-9.9 90.29,-30.4 659.29,-499.9 1366.36,-750.4 2113.39,-750.4 68.02,0 136.38,2.1 205.06,6.3 0,-1.3 0,-2.3 0,-3.5 0,-97.9 2.26,-195 6.76,-291.8 -68.18,-3.7 -136.12,-5.6 -203.8,-5.6"
         style="fill:#51c4b2;fill-opacity:1;fill-rule:nonzero;stroke:none"
         id="path48" /><path
         d="m 25229.4,38577.3 c 11.3,152.3 17,305.9 17,461.1 0,1540.5 -563.8,2949.5 -1496.3,4031.6 h 2100.4 c 467,-527 750.5,-1220.4 750.5,-1979.9 0,-1054.5 -546.4,-1981.3 -1371.6,-2512.8"
         style="fill:#8fd9c9;fill-opacity:1;fill-rule:nonzero;stroke:none"
         id="path50" /><path
         d="m 25850.5,43070 h -2100.4 c -284.6,330.4 -603.5,630.2 -951.4,894.1 259.3,73.4 532.8,112.7 815.6,112.7 890,0 1689.1,-389.2 2236.2,-1006.8"
         style="fill:#b5e6d9;fill-opacity:1;fill-rule:nonzero;stroke:none"
         id="path52" /><path
         d="m 24390.3,35898.5 c -486.1,122.9 -995.3,188.2 -1519.6,188.2 -283.7,0 -562.9,-19.1 -836.4,-56.1 -0.1,0.7 -0.1,1.6 -0.1,2.3 178.1,63.6 417,193.6 631.7,459.7 311.4,385.7 483.3,935.1 514.9,1642 141.5,-20.5 286.3,-31.2 433.5,-31.2 595,0 1149.5,174.1 1615.1,473.9 -71.8,-972.7 -368.9,-1883.3 -839.1,-2678.8 m -2375.2,448.5 c -49.7,710.4 -145.3,1435.9 -286.8,2174.9 -27.4,143.3 -152.7,243 -293.4,243 -18.7,0 -37.7,-1.7 -56.7,-5.4 -162.4,-31.1 -268.8,-187.8 -237.7,-350.2 76.1,-397.4 138.6,-789.4 187.7,-1176.4 -676.1,1271.7 -1783.4,2279 -3127.1,2827.1 9.4,79.9 19.4,160.2 30.2,241.1 10.9,82 -46.7,157.2 -128.6,168.1 -6.8,0.9 -13.5,1.3 -20.1,1.3 -73.8,0 -137.9,-54.7 -147.9,-129.9 -7.7,-57.4 -15,-114.5 -21.9,-171.3 -285,99.8 -579.8,179.4 -882.1,237 393.4,684.2 618.4,1477.5 618.4,2323.4 0,784.4 -193.6,1523.8 -535.4,2172.8 613.9,204.4 1270.9,315.1 1953.5,315.1 909.6,0 1773.1,-196.4 2550.7,-549.4 -723,-298 -1305.3,-874.4 -1617.9,-1598.2 h 1378.1 c -466.9,-527 -750.5,-1220.4 -750.5,-1979.9 0,-1396.8 958.8,-2569.6 2254.2,-2896.2 -29.4,-788.3 -234.5,-1243.8 -441.9,-1504.9 -143.9,-181.1 -298.5,-283.8 -424.8,-342"
         style="fill:#87d6c6;fill-opacity:1;fill-rule:nonzero;stroke:none"
         id="path54" /><path
         d="M 21378.1,43070 H 20000 c 312.6,723.8 894.9,1300.2 1617.9,1598.2 420.8,-190.9 816.8,-427.9 1180.8,-704.1 -556.7,-157.7 -1047.3,-472.8 -1420.6,-894.1"
         style="fill:#abe2d4;fill-opacity:1;fill-rule:nonzero;stroke:none"
         id="path56" /><path
         d="m 22023.2,36029 c 3.6,1.3 7.3,2.6 11,3.9 0,-0.7 0,-1.6 0.1,-2.3 -3.6,-0.5 -7.5,-1.1 -11.1,-1.6 m -284.1,241.4 c -110.1,334.4 -248,656.1 -410.9,962.5 -49.1,387 -111.6,779 -187.7,1176.4 -31.1,162.4 75.3,319.1 237.7,350.2 19,3.7 38,5.4 56.7,5.4 140.7,0 266,-99.7 293.4,-243 141.5,-739 237.1,-1464.5 286.8,-2174.9 -147.4,-67.9 -256.2,-75.2 -263.8,-75.6 -4.1,-0.2 -8.2,-0.5 -12.2,-1"
         style="fill:#4fc3b1;fill-opacity:1;fill-rule:nonzero;stroke:none"
         id="path58" /><path
         d="m 18201.1,40060 c -95,38.8 -191,75.2 -288.3,109.3 6.9,56.8 14.2,113.9 21.9,171.3 10,75.2 74.1,129.9 147.9,129.9 6.6,0 13.3,-0.4 20.1,-1.3 81.9,-10.9 139.5,-86.1 128.6,-168.1 -10.8,-80.9 -20.8,-161.2 -30.2,-241.1"
         style="fill:#4fc3b1;fill-opacity:1;fill-rule:nonzero;stroke:none"
         id="path60" /><path
         d="m 21821.8,35998 c -25.5,91.7 -53.2,182.6 -82.7,272.4 4,0.5 8.1,0.8 12.2,1 7.6,0.4 116.4,7.7 263.8,75.6 126.3,58.2 280.9,160.9 424.8,342 207.4,261.1 412.5,716.6 441.9,1504.9 97.9,-24.7 197.6,-44.5 299,-59.3 -31.6,-706.9 -203.5,-1256.3 -514.9,-1642 -214.7,-266.1 -453.6,-396.1 -631.7,-459.7 -3.7,-1.3 -7.4,-2.6 -11,-3.9 -67.6,-9.2 -134.5,-19.5 -201.4,-31"
         style="fill:#4fc3b1;fill-opacity:1;fill-rule:nonzero;stroke:none"
         id="path62" /><path
         d="m 12931.3,39773.9 c 23.3,196.4 55.8,389.9 97,580.2 32.4,-163.9 62.4,-325 90,-483 -62.9,-31.3 -125.4,-63.8 -187,-97.2 m 467.7,228.2 c -32.8,184 -68.5,370.1 -106.8,558.1 -14.5,70.9 -76.8,119.8 -146.5,119.8 -9.9,0 -19.9,-1 -30,-3.1 -3,-0.6 -5.9,-1.3 -8.7,-2 545.3,1990.5 2060.8,3579.7 4006.7,4227.6 341.8,-649 535.4,-1388.4 535.4,-2172.8 0,-845.9 -225,-1639.2 -618.4,-2323.4 -376.4,71.6 -764.9,109.1 -1162.1,109.1 -877.9,0 -1713.2,-183.2 -2469.6,-513.3"
         style="fill:#6fceb8;fill-opacity:1;fill-rule:nonzero;stroke:none"
         id="path64" /><path
         d="m 13118.3,39871.1 c -27.6,158 -57.6,319.1 -90,483 23.4,108 49.7,215 78.7,320.8 2.8,0.7 5.7,1.4 8.7,2 10.1,2.1 20.1,3.1 30,3.1 69.7,0 132,-48.9 146.5,-119.8 38.3,-188 74,-374.1 106.8,-558.1 -94.9,-41.4 -188.4,-85.1 -280.7,-131"
         style="fill:#4ec3ac;fill-opacity:1;fill-rule:nonzero;stroke:none"
         id="path66" /><path
         d="m 23614.3,38103.4 c -147.2,0 -292,10.7 -433.5,31.2 21.7,484.6 -22.5,1043.1 -132.8,1673.4 -12.7,72.7 -75.7,123.9 -147.1,123.9 -8.6,0 -17.3,-0.7 -26,-2.3 -81.4,-14.2 -135.9,-91.7 -121.6,-173.1 110.1,-629 144.2,-1143 128.5,-1562.6 -1295.4,326.6 -2254.2,1499.4 -2254.2,2896.2 0,759.5 283.6,1452.9 750.5,1979.9 h 2372 c 932.5,-1082.1 1496.3,-2491.1 1496.3,-4031.6 0,-155.2 -5.7,-308.8 -17,-461.1 -465.6,-299.8 -1020.1,-473.9 -1615.1,-473.9"
         style="fill:#73cfba;fill-opacity:1;fill-rule:nonzero;stroke:none"
         id="path68" /><path
         d="m 23750.1,43070 h -2372 c 373.3,421.3 863.9,736.4 1420.6,894.1 347.9,-263.9 666.8,-563.7 951.4,-894.1"
         style="fill:#8ed8c5;fill-opacity:1;fill-rule:nonzero;stroke:none"
         id="path70" /><path
         d="m 23180.8,38134.6 c -101.4,14.8 -201.1,34.6 -299,59.3 15.7,419.6 -18.4,933.6 -128.5,1562.6 -14.3,81.4 40.2,158.9 121.6,173.1 8.7,1.6 17.4,2.3 26,2.3 71.4,0 134.4,-51.2 147.1,-123.9 110.3,-630.3 154.5,-1188.8 132.8,-1673.4"
         style="fill:#4ec3ad;fill-opacity:1;fill-rule:nonzero;stroke:none"
         id="path72" /><path
         d="m 12541.5,33080.6 c -374.1,232.9 -783.4,414.2 -1218.4,534.2 30.2,251.5 76.4,508.9 138.7,772.2 38.1,160.8 -61.5,322 -222.3,360.1 -23.2,5.4 -46.3,8.1 -69.2,8.1 -20.7,0 -41.2,-2.2 -61,-6.4 -14.7,236.7 -85.5,458 -199,650.2 1106.9,299.8 1921.1,1311.3 1921.1,2513 0,51.1 -1.5,101.8 -4.4,152.1 45.6,-1.4 91.8,-2.3 137.7,-2.4 81,-510 224.6,-999.7 422.3,-1460.1 -44.9,-1596.9 -387.5,-2687.4 -748.3,-3401.9 -14.6,-29 -29.4,-57.5 -44.2,-85.6 -17.8,-11.1 -35.3,-22.2 -53,-33.5 m 508.9,292.7 c 312.2,718.3 512.8,1556.7 597.4,2498.5 5.1,56.4 9.7,113.1 13.9,170.3 439.5,-791 1047.7,-1475.7 1775.7,-2005 -855.2,-59 -1662.6,-291.9 -2387,-663.8 m -2315.5,363.5 c -214.5,30.2 -433.7,45.8 -656.5,45.8 -122.24,0 -243.37,-4.7 -363.27,-14 -17.04,187 -25.71,376.1 -25.71,567.6 0,17.9 0.07,35.9 0.23,53.8 h 1159.05 c -48.4,-221.4 -86.4,-439.1 -113.8,-653.2"
         style="fill:#8dd8c8;fill-opacity:1;fill-rule:nonzero;stroke:none"
         id="path74" /><path
         d="M 10848.7,34390 H 9689.65 c 2.77,326.2 30.84,646.3 82.29,958.5 148.08,-26.2 300.46,-39.8 456.06,-39.8 236.1,0 464.8,31.4 682.3,90.3 113.5,-192.2 184.3,-413.5 199,-650.2 -110,-23.1 -202.3,-107.5 -229.9,-224.1 -10.6,-45 -20.9,-89.9 -30.7,-134.7"
         style="fill:#b2e4d7;fill-opacity:1;fill-rule:nonzero;stroke:none"
         id="path76" /><path
         d="m 11323.1,33614.8 c -191.4,52.8 -387.8,93.8 -588.2,122 27.4,214.1 65.4,431.8 113.8,653.2 h 239.3 c 15.9,86.4 24.1,175.4 24.1,266.4 0,31.1 -0.9,61.9 -2.8,92.4 19.8,4.2 40.3,6.4 61,6.4 22.9,0 46,-2.7 69.2,-8.1 160.8,-38.1 260.4,-199.3 222.3,-360.1 -62.3,-263.3 -108.5,-520.7 -138.7,-772.2"
         style="fill:#50c4b2;fill-opacity:1;fill-rule:nonzero;stroke:none"
         id="path78" /><path
         d="m 11088,34390 h -239.3 c 9.8,44.8 20.1,89.7 30.7,134.7 27.6,116.6 119.9,201 229.9,224.1 1.9,-30.5 2.8,-61.3 2.8,-92.4 0,-91 -8.2,-180 -24.1,-266.4"
         style="fill:#59c7b5;fill-opacity:1;fill-rule:nonzero;stroke:none"
         id="path80" /><path
         d="m 12594.5,33114.1 c 14.8,28.1 29.6,56.6 44.2,85.6 360.8,714.5 703.4,1805 748.3,3401.9 82.4,-191.9 174.1,-378.3 274.7,-559.5 -4.2,-57.2 -8.8,-113.9 -13.9,-170.3 -84.6,-941.8 -285.2,-1780.2 -597.4,-2498.5 -155.8,-80 -308.1,-166.6 -455.9,-259.2"
         style="fill:#50c4b2;fill-opacity:1;fill-rule:nonzero;stroke:none"
         id="path82" /><path
         d="m 12964.7,38061.7 c -45.9,0.1 -92.1,1 -137.7,2.4 -29,502.8 -200.5,967.3 -475,1353.7 186,129 379.2,247.8 579.3,356.1 -28.6,-241.2 -43.3,-486.6 -43.3,-735.5 0,-332.4 26.2,-658.5 76.7,-976.7"
         style="fill:#70ceb9;fill-opacity:1;fill-rule:nonzero;stroke:none"
         id="path84" /><path
         d="m 10600.9,31104.4 c -484.8,788.4 -797.38,1693.9 -885.77,2664.2 119.9,9.3 241.03,14 363.27,14 222.8,0 442,-15.6 656.5,-45.8 -102.5,-798.7 -59.1,-1546.6 129.6,-2238.3 -92.6,-127.6 -180.8,-259.4 -263.6,-394.1 m 747.7,981.6 c -81.6,480.7 -90.2,991.1 -25.5,1528.8 435,-120 844.3,-301.3 1218.4,-534.2 -438.6,-280.8 -839.3,-615.3 -1192.9,-994.6"
         style="fill:#75d0bd;fill-opacity:1;fill-rule:nonzero;stroke:none"
         id="path86" /><path
         d="m 10864.5,31498.5 c -188.7,691.7 -232.1,1439.6 -129.6,2238.3 200.4,-28.2 396.8,-69.2 588.2,-122 -64.7,-537.7 -56.1,-1048.1 25.5,-1528.8 -173,-185.5 -334.8,-381.7 -484.1,-587.5"
         style="fill:#4ec3ae;fill-opacity:1;fill-rule:nonzero;stroke:none"
         id="path88" /><path
         d="m 17621.5,33799.8 c -384.2,113.4 -784.2,190.5 -1195.6,227.3 -442.8,798 -804.3,2038.2 -677.3,3919.7 5.6,82.5 -56.8,153.8 -139.2,159.4 -3.6,0.2 -7.2,0.4 -10.7,0.4 -77.6,0 -143.3,-60.8 -148.7,-139.6 -76.2,-1130.1 11.7,-2136.6 261.2,-2991.5 96.9,-331.9 218.1,-641.5 362.7,-927 -68.2,2.3 -136.5,3.4 -205.3,3.4 -144.9,0 -288.7,-5 -431.2,-14.8 -728,529.3 -1336.2,1214 -1775.7,2005 47.6,642.5 42.5,1332.8 -15.1,2066.6 1449,206.9 2683.5,1079.3 3384.1,2297.6 302.3,-57.6 597.1,-137.2 882.1,-237 -188.5,-1539.3 -132.1,-2901.7 167.9,-4051.8 155.4,-595.7 375.9,-1135.7 658.9,-1614.7 -190.7,-171.5 -370.7,-354.9 -538.8,-548.6 -82.4,404.9 -185.5,819.7 -309.3,1243.8 -38.2,130.7 -157.6,215.5 -287.1,215.5 -27.8,0 -56.1,-3.9 -84.1,-12.1 -158.6,-46.3 -249.7,-212.4 -203.4,-371.1 122.9,-420.8 224.4,-831.2 304.6,-1230.5 m 1350,901.5 c -763.9,1330.2 -1028.9,3156.8 -770.4,5358.7 1343.7,-548.1 2451,-1555.4 3127.1,-2827.1 56.3,-444.1 94.9,-881.7 115.6,-1311.8 -920.8,-217.7 -1762.1,-641.4 -2472.3,-1219.8 M 13387,36601.6 c -197.7,460.4 -341.3,950.1 -422.3,1460.1 5.5,0 10.8,-0.1 16.3,-0.1 123.4,0 245.8,4.8 366.7,14.2 41,-533.7 52,-1023.9 39.3,-1474.2"
         style="fill:#72cfbb;fill-opacity:1;fill-rule:nonzero;stroke:none"
         id="path90" /><path
         d="m 21443.8,35921.1 c -20.7,430.1 -59.3,867.7 -115.6,1311.8 162.9,-306.4 300.8,-628.1 410.9,-962.5 -76.6,-9.2 -134.5,-75.9 -131.4,-154.4 2.6,-65.5 46.9,-119.5 106.3,-137.4 -90.8,-17.2 -180.8,-36.4 -270.2,-57.5"
         style="fill:#4ec3ac;fill-opacity:1;fill-rule:nonzero;stroke:none"
         id="path92" /><path
         d="m 18739.6,34502.8 c -283,479 -503.5,1019 -658.9,1614.7 -300,1150.1 -356.4,2512.5 -167.9,4051.8 97.3,-34.1 193.3,-70.5 288.3,-109.3 -258.5,-2201.9 6.5,-4028.5 770.4,-5358.7 -79,-64.3 -156.3,-130.5 -231.9,-198.5"
         style="fill:#4ec3ac;fill-opacity:1;fill-rule:nonzero;stroke:none"
         id="path94" /><path
         d="m 21714,35978.6 c -59.4,17.9 -103.7,71.9 -106.3,137.4 -3.1,78.5 54.8,145.2 131.4,154.4 29.5,-89.8 57.2,-180.7 82.7,-272.4 -35.9,-6.1 -72,-12.6 -107.8,-19.4"
         style="fill:#4ec3ac;fill-opacity:1;fill-rule:nonzero;stroke:none"
         id="path96" /><path
         d="m 13661.7,36042.1 c -100.6,181.2 -192.3,367.6 -274.7,559.5 12.7,450.3 1.7,940.5 -39.3,1474.2 100.6,7.9 200.2,18.9 298.9,32.9 57.6,-733.8 62.7,-1424.1 15.1,-2066.6"
         style="fill:#4ec3ac;fill-opacity:1;fill-rule:nonzero;stroke:none"
         id="path98" /><path
         d="m 17978.3,33682.4 c -117.4,42.6 -236.3,81.8 -356.8,117.4 -80.2,399.3 -181.7,809.7 -304.6,1230.5 -46.3,158.7 44.8,324.8 203.4,371.1 28,8.2 56.3,12.1 84.1,12.1 129.5,0 248.9,-84.8 287.1,-215.5 123.8,-424.1 226.9,-838.9 309.3,-1243.8 -76.8,-88.6 -150.8,-178.9 -222.5,-271.8"
         style="fill:#4ec3ac;fill-opacity:1;fill-rule:nonzero;stroke:none"
         id="path100" /><path
         d="m 16425.9,34027.1 c -116.5,10.4 -233.8,17.6 -352,21.4 -144.6,285.5 -265.8,595.1 -362.7,927 -249.5,854.9 -337.4,1861.4 -261.2,2991.5 5.4,78.8 71.1,139.6 148.7,139.6 3.5,0 7.1,-0.2 10.7,-0.4 82.4,-5.6 144.8,-76.9 139.2,-159.4 -127,-1881.5 234.5,-3121.7 677.3,-3919.7"
         style="fill:#4ec3ac;fill-opacity:1;fill-rule:nonzero;stroke:none"
         id="path102" /><path
         d="m 12981,38061.6 c -5.5,0 -10.8,0.1 -16.3,0.1 -50.5,318.2 -76.7,644.3 -76.7,976.7 0,248.9 14.7,494.3 43.3,735.5 61.6,33.4 124.1,65.9 187,97.2 113,-646.7 187.2,-1244 229.4,-1795.3 -120.9,-9.4 -243.3,-14.2 -366.7,-14.2 m 665.6,47.1 c -47.2,602.7 -129.8,1234.7 -247.6,1893.4 756.4,330.1 1591.7,513.3 2469.6,513.3 397.2,0 785.7,-37.5 1162.1,-109.1 -700.6,-1218.3 -1935.1,-2090.7 -3384.1,-2297.6"
         style="fill:#69ccb4;fill-opacity:1;fill-rule:nonzero;stroke:none"
         id="path104" /><path
         d="m 13347.7,38075.8 c -42.2,551.3 -116.4,1148.6 -229.4,1795.3 92.3,45.9 185.8,89.6 280.7,131 117.8,-658.7 200.4,-1290.7 247.6,-1893.4 -98.7,-14 -198.3,-25 -298.9,-32.9"
         style="fill:#4ec2a9;fill-opacity:1;fill-rule:nonzero;stroke:none"
         id="path106" /><path
         d="m 22870.7,23728.3 c -740.9,0 -1451.3,130.4 -2109.6,369.4 514.9,666.5 896.9,1441.4 1105.7,2284.2 l 120.1,201.4 c 84.2,-375.5 206.7,-721.6 366.8,-1035 312.6,-612 697.4,-962.4 939.6,-1138.1 -49.7,-230.6 -109.7,-456.3 -180.1,-677.3 -80.5,-3.1 -161.2,-4.6 -242.5,-4.6 m 878.9,62 c 222.3,781.5 328.4,1614.8 317.9,2493 156.6,36.7 364.1,100.1 589.3,208.4 l 252.4,-423.3 h 2803.7 c -959.8,-1209.1 -2362.7,-2050.3 -3963.3,-2278.1 m -392.6,950.8 c -214.2,178.1 -506.2,484 -747.6,964.8 -158.1,314.6 -306.5,731.1 -389.6,1268.1 l 1074.8,1802.8 461.7,-774.5 c -33.6,13 -69.9,20 -107.3,20 -14.7,0 -29.7,-1.1 -44.6,-3.3 -163.5,-24.5 -276.1,-176.9 -251.6,-340.3 157.2,-1048.2 158.3,-2028.6 4.2,-2937.6 m 702.1,1850.4 c -14.9,349.5 -47.8,705.9 -98.8,1068.6 l 541.1,-907.7 c -165.1,-77.3 -318.4,-128 -442.3,-160.9"
         style="fill:#88d6c6;fill-opacity:1;fill-rule:nonzero;stroke:none"
         id="path108" /><path
         d="m 23113.2,23732.9 c 70.4,221 130.4,446.7 180.1,677.3 134.4,-97.4 224.9,-141.1 234.9,-145.8 20.6,-9.7 42.2,-14.2 63.5,-14.2 55.9,0 109.5,31.6 135.1,85.5 35.4,74.4 3.6,163.6 -70.7,199.2 -2.7,1.3 -125.3,61.7 -299.1,206.2 154.1,909 153,1889.4 -4.2,2937.6 -24.5,163.4 88.1,315.8 251.6,340.3 14.9,2.2 29.9,3.3 44.6,3.3 37.4,0 73.7,-7 107.3,-20 l 204,-342.2 c 51,-362.7 83.9,-719.1 98.8,-1068.6 -179.5,-47.7 -297.5,-58.2 -300.9,-58.4 -82.4,-6.3 -144.1,-78.1 -137.9,-160.5 5.9,-78.6 71.5,-138.4 149,-138.4 3.8,0 7.6,0.2 11.4,0.4 14.1,1.1 122.4,10.2 286.8,48.7 10.5,-878.2 -95.6,-1711.5 -317.9,-2493 -208.9,-29.8 -421.4,-49.1 -636.4,-57.4"
         style="fill:#4fc3b1;fill-opacity:1;fill-rule:nonzero;stroke:none"
         id="path110" /><path
         d="m 23591.7,24250.2 c -21.3,0 -42.9,4.5 -63.5,14.2 -10,4.7 -100.5,48.4 -234.9,145.8 -242.2,175.7 -627,526.1 -939.6,1138.1 -160.1,313.4 -282.6,659.5 -366.8,1035 l 232.9,390.7 c 83.1,-537 231.5,-953.5 389.6,-1268.1 241.4,-480.8 533.4,-786.7 747.6,-964.8 173.8,-144.5 296.4,-204.9 299.1,-206.2 74.3,-35.6 106.1,-124.8 70.7,-199.2 -25.6,-53.9 -79.2,-85.5 -135.1,-85.5"
         style="fill:#4fc3b1;fill-opacity:1;fill-rule:nonzero;stroke:none"
         id="path112" /><path
         d="m 23769.3,26234.2 c -77.5,0 -143.1,59.8 -149,138.4 -6.2,82.4 55.5,154.2 137.9,160.5 3.4,0.2 121.4,10.7 300.9,58.4 123.9,32.9 277.2,83.6 442.3,160.9 l 155.4,-260.7 c -225.2,-108.3 -432.7,-171.7 -589.3,-208.4 -164.4,-38.5 -272.7,-47.6 -286.8,-48.7 -3.8,-0.2 -7.6,-0.4 -11.4,-0.4"
         style="fill:#4fc3b1;fill-opacity:1;fill-rule:nonzero;stroke:none"
         id="path114" /><path
         d="m 28584.5,27550.4 -1872.6,3141 h -580.5 c -37.8,199.2 -84,404.1 -138.4,615 -17.4,67.5 -78.2,112.3 -144.7,112.3 -12.4,0 -25,-1.6 -37.5,-4.8 -80,-20.7 -128.2,-102.3 -107.6,-182.3 47.8,-185 88.9,-365 123.5,-540.2 h -3446.5 l -13.4,-8 c -36.5,-6.3 -69.7,-26 -92.6,-55.2 l -61.6,-36.7 h -793.5 c -24.6,50.1 -49.9,99.9 -75.8,149.2 109.9,322.5 207.2,650.6 291.8,984 94.6,372.7 173.3,752.1 236,1137.9 58.9,240.8 103.7,487.1 133.4,738 988.8,535.2 1814.8,1331.9 2385.8,2297.9 2678,-677.1 4659.6,-3102.6 4659.6,-5991 0,-834.7 -165.5,-1630.8 -465.4,-2357.1"
         style="fill:#88d6c6;fill-opacity:1;fill-rule:nonzero;stroke:none"
         id="path116" /><path
         d="m 21343.3,30740.7 c -65,123.9 -133.9,245 -206.9,363.7 330.3,537.3 580.6,1128.7 734.7,1758.2 -62.7,-385.8 -141.4,-765.2 -236,-1137.9 -84.6,-333.4 -181.9,-661.5 -291.8,-984"
         style="fill:#4fc3b1;fill-opacity:1;fill-rule:nonzero;stroke:none"
         id="path118" /><path
         d="m 22274.2,30628.2 c 22.9,29.2 56.1,48.9 92.6,55.2 l -92.6,-55.2"
         style="fill:#4fc3b1;fill-opacity:1;fill-rule:nonzero;stroke:none"
         id="path120" /><path
         d="m 26131.4,30691.4 h -304.7 c -34.6,175.2 -75.7,355.2 -123.5,540.2 -20.6,80 27.6,161.6 107.6,182.3 12.5,3.2 25.1,4.8 37.5,4.8 66.5,0 127.3,-44.8 144.7,-112.3 54.4,-210.9 100.6,-415.8 138.4,-615"
         style="fill:#4fc3b1;fill-opacity:1;fill-rule:nonzero;stroke:none"
         id="path122" /><path
         d="m 22004.5,33600.6 c 28.6,241.2 43.3,486.6 43.3,735.6 0,82 -1.6,164 -4.7,245.2 19.2,475.2 16.3,958.4 -8.8,1449.2 273.5,37 552.7,56.1 836.4,56.1 524.3,0 1033.5,-65.3 1519.6,-188.2 -571,-966 -1397,-1762.7 -2385.8,-2297.9"
         style="fill:#71cfbb;fill-opacity:1;fill-rule:nonzero;stroke:none"
         id="path124" /><path
         d="m 22043.1,34581.4 c -18.8,482.4 -92.9,950.2 -216.1,1398 46.1,7.1 114.4,21.3 196.2,49.6 3.6,0.5 7.5,1.1 11.1,1.6 25.1,-490.8 28,-974 8.8,-1449.2"
         style="fill:#4ec3ac;fill-opacity:1;fill-rule:nonzero;stroke:none"
         id="path126" /><path
         d="m 21827,35979.4 c -1.7,6.1 -3.5,12.5 -5.2,18.6 66.9,11.5 133.8,21.8 201.4,31 -81.8,-28.3 -150.1,-42.5 -196.2,-49.6"
         style="fill:#4ec3ac;fill-opacity:1;fill-rule:nonzero;stroke:none"
         id="path128" /><path
         d="m 20936.8,31408.6 c -394.7,564.7 -881.5,1060.4 -1438.4,1465.4 222.7,15.3 442.1,42.5 657.7,80.8 415.5,-290.7 791.2,-451.2 1033.9,-534.9 -70.7,-342.7 -155.1,-680.1 -253.2,-1011.3 m 310.9,1310 c -171.2,62.4 -408.3,164.7 -675.5,325.1 262.3,65.7 518,148.1 765.8,246.1 -26,-191.9 -56.1,-382.6 -90.3,-571.2 m 623.4,144 c 38.5,237.1 71,476.9 97.5,718.7 12,6.4 23.9,12.8 35.9,19.3 -29.7,-250.9 -74.5,-497.2 -133.4,-738"
         style="fill:#73cfbb;fill-opacity:1;fill-rule:nonzero;stroke:none"
         id="path130" /><path
         d="m 21136.4,31104.4 c -63.5,103.3 -130.2,205 -199.6,304.2 98.1,331.2 182.5,668.6 253.2,1011.3 163.9,-56.5 267,-77.8 280.5,-80.5 9.8,-2 19.7,-2.9 29.3,-2.9 69.8,0 132.2,49.2 146.4,120.3 16.3,80.9 -36.3,159.7 -117.1,176 -3.3,0.7 -109.1,23.1 -281.4,85.8 34.2,188.6 64.3,379.3 90.3,571.2 216.4,85.5 426.9,183 630.6,291.5 -26.5,-241.8 -59,-481.6 -97.5,-718.7 -154.1,-629.5 -404.4,-1220.9 -734.7,-1758.2"
         style="fill:#4fc3ac;fill-opacity:1;fill-rule:nonzero;stroke:none"
         id="path132" /><path
         d="m 21499.8,32336.5 c -9.6,0 -19.5,0.9 -29.3,2.9 -13.5,2.7 -116.6,24 -280.5,80.5 -242.7,83.7 -618.4,244.2 -1033.9,534.9 140.3,25 279.2,54.7 416.1,88.9 267.2,-160.4 504.3,-262.7 675.5,-325.1 172.3,-62.7 278.1,-85.1 281.4,-85.8 80.8,-16.3 133.4,-95.1 117.1,-176 -14.2,-71.1 -76.6,-120.3 -146.4,-120.3"
         style="fill:#4fc3ac;fill-opacity:1;fill-rule:nonzero;stroke:none"
         id="path134" /><path
         d="m 19498.4,32874 c -378.1,274.9 -788.4,507.8 -1224.5,692.3 -22.2,128.3 -46.6,257.5 -73.1,387.9 168.1,193.7 348.1,377.1 538.8,548.6 174,-294.7 371.6,-566.3 592.2,-813.5 274.7,-307.8 557.7,-547.9 824.3,-734.5 -215.6,-38.3 -435,-65.5 -657.7,-80.8 m 1073.8,169.7 c -320.2,192.3 -683.8,468.2 -1029.8,859.2 -213.9,241.6 -404.3,508.3 -570.9,798.4 710.2,578.4 1551.5,1002.1 2472.3,1219.8 44,-909.1 8.6,-1786.3 -105.8,-2631.3 -247.8,-98 -503.5,-180.4 -765.8,-246.1 m 1396.4,537.6 c 36,329.3 60.8,662.5 74.5,1000.1 3.1,-81.2 4.7,-163.2 4.7,-245.2 0,-249 -14.7,-494.4 -43.3,-735.6 -12,-6.5 -23.9,-12.9 -35.9,-19.3"
         style="fill:#6accb5;fill-opacity:1;fill-rule:nonzero;stroke:none"
         id="path136" /><path
         d="m 21338,33289.8 c 114.4,845 149.8,1722.2 105.8,2631.3 89.4,21.1 179.4,40.3 270.2,57.5 13.7,-4.1 28.2,-6.3 43.1,-6.3 2,0 4,0 6,0.1 4.1,0.2 26.8,1.3 63.9,7 123.2,-447.8 197.3,-915.6 216.1,-1398 -13.7,-337.6 -38.5,-670.8 -74.5,-1000.1 -203.7,-108.5 -414.2,-206 -630.6,-291.5"
         style="fill:#4ec3ab;fill-opacity:1;fill-rule:nonzero;stroke:none"
         id="path138" /><path
         d="m 20156.1,32954.8 c -266.6,186.6 -549.6,426.7 -824.3,734.5 -220.6,247.2 -418.2,518.8 -592.2,813.5 75.6,68 152.9,134.2 231.9,198.5 166.6,-290.1 357,-556.8 570.9,-798.4 346,-391 709.6,-666.9 1029.8,-859.2 -136.9,-34.2 -275.8,-63.9 -416.1,-88.9"
         style="fill:#4ec3ab;fill-opacity:1;fill-rule:nonzero;stroke:none"
         id="path140" /><path
         d="m 21757.1,35972.3 c -14.9,0 -29.4,2.2 -43.1,6.3 35.8,6.8 71.9,13.3 107.8,19.4 1.7,-6.1 3.5,-12.5 5.2,-18.6 -37.1,-5.7 -59.8,-6.8 -63.9,-7 -2,-0.1 -4,-0.1 -6,-0.1"
         style="fill:#4ec3ab;fill-opacity:1;fill-rule:nonzero;stroke:none"
         id="path142" /><path
         d="m 18273.9,33566.3 c -97.3,41.1 -195.9,79.9 -295.6,116.1 71.7,92.9 145.7,183.2 222.5,271.8 26.5,-130.4 50.9,-259.6 73.1,-387.9"
         style="fill:#4ec3ab;fill-opacity:1;fill-rule:nonzero;stroke:none"
         id="path144" /><path
         d="m 15615.1,21698.6 c -1908,77 -3593.5,1019.4 -4674.1,2445.1 2.2,142.3 1.1,269 -2.5,381.8 225.4,42 444.9,100.1 657.6,173.2 500.6,-692.6 1196.5,-1214.4 2062,-1538 677.3,-253.2 1297.3,-325.5 1647.7,-345 79.3,-402.9 184.2,-773.4 309.3,-1117.1 m 854.8,23.7 c -291.8,621.9 -506,1344.9 -592.5,2242.8 454.3,263.6 1372.1,856.5 2368.2,1844.6 676.3,-762.8 1538.5,-1357.1 2515.5,-1712 -1014.9,-1313.5 -2547,-2206.9 -4291.2,-2375.4 m -1260.3,1700.8 c -324.7,27.6 -826.7,102.9 -1361.1,305.4 -703.7,266.7 -1267.4,670.8 -1686.3,1207.7 1118.4,558.8 1981.1,1553.7 2365.5,2761.6 356.7,-151.7 664.6,-254.3 880.8,-318.5 -231.4,-1274.2 -303.3,-2350.9 -256.7,-3278.3 -2.9,-29.6 -1.3,-59.8 4.9,-89.7 12,-203.3 29.8,-398.9 52.9,-588.2 m 628.4,1220.7 c -10.9,483.1 11.8,1012.5 73.8,1596.8 497,352.7 922.8,765.6 1276.1,1236.4 132.9,-310.3 290.3,-607.4 470.1,-889 l -309.8,-519.6 h 301.7 C 16933.4,25386.9 16272,24919 15838,24643.8 m 186.8,2450.3 c 53.4,340.5 118.7,697.2 197,1072.8 235.8,13.3 467.8,39.7 695.8,78.7 7.1,-25.4 14.3,-51 21.8,-76.3 -253,-398.4 -558,-757.7 -914.6,-1075.2 m -500.1,877.6 c -195.6,61 -463.5,153.9 -770.2,285.4 265,-48.2 535.9,-79.6 811.5,-92.9 -14.1,-64.7 -27.9,-128.8 -41.3,-192.5"
         style="fill:#87d6c6;fill-opacity:1;fill-rule:nonzero;stroke:none"
         id="path146" /><path
         d="m 15868.6,21693.5 c -85,0 -169.3,1.7 -253.5,5.1 -125.1,343.7 -230,714.2 -309.3,1117.1 99.4,-5.5 177.2,-6.9 228.4,-6.9 39.8,0 63.6,0.8 69.1,1 164.9,6.3 293.4,144.9 287.5,309.8 -5.8,161.6 -139.8,288.5 -299.5,288.5 -3.3,0 -6.7,-0.1 -10.1,-0.2 -1,0 -14.3,-0.4 -38.6,-0.4 -56.8,0 -173.5,2.1 -333,15.6 -23.1,189.3 -40.9,384.9 -52.9,588.2 5,-24 13.1,-47.7 24.4,-70.7 51.9,-106 158.2,-167.5 268.8,-167.5 44.3,0 89.2,9.8 131.6,30.6 18,8.9 123.6,61.5 295.9,161.4 86.5,-897.9 300.7,-1620.9 592.5,-2242.8 -197.9,-19.1 -398.4,-28.8 -601.3,-28.8"
         style="fill:#4fc3b1;fill-opacity:1;fill-rule:nonzero;stroke:none"
         id="path148" /><path
         d="m 15151.8,24101 c -46.6,927.4 25.3,2004.1 256.7,3278.3 186.2,-55.3 304.3,-82 326.6,-86.9 21.7,-4.7 43.2,-7 64.5,-7 137.3,0 225.4,555.8 64.1,591.5 -5.6,1.3 -131.8,30.1 -339,94.8 13.4,63.7 27.2,127.8 41.3,192.5 100.3,-4.8 201.2,-7.3 302.6,-7.3 118.5,0 236.3,3.4 353.2,10 -78.3,-375.6 -143.6,-732.3 -197,-1072.8 -185.6,-165.2 -385.2,-319.1 -598.6,-461.1 -137.6,-91.6 -174.9,-277.4 -83.3,-414.9 57.7,-86.7 152.6,-133.5 249.4,-133.5 57,0 114.6,16.3 165.5,50.2 52.1,34.6 103.5,69.9 154,105.8 -62,-584.3 -84.7,-1113.7 -73.8,-1596.8 -318.1,-201.6 -514.1,-299.8 -520.1,-302.8 -96.7,-47.4 -156.4,-140.1 -166.1,-240"
         style="fill:#4fc3b1;fill-opacity:1;fill-rule:nonzero;stroke:none"
         id="path150" /><path
         d="m 15449.9,23773.1 c -110.6,0 -216.9,61.5 -268.8,167.5 -11.3,23 -19.4,46.7 -24.4,70.7 -6.2,29.9 -7.8,60.1 -4.9,89.7 9.7,99.9 69.4,192.6 166.1,240 6,3 202,101.2 520.1,302.8 434,275.2 1095.4,743.1 1811.9,1424.6 h 378.6 c 70.1,-88.3 142.4,-174.5 217.1,-258.7 -996.1,-988.1 -1913.9,-1581 -2368.2,-1844.6 -172.3,-99.9 -277.9,-152.5 -295.9,-161.4 -42.4,-20.8 -87.3,-30.6 -131.6,-30.6"
         style="fill:#4fc3b1;fill-opacity:1;fill-rule:nonzero;stroke:none"
         id="path152" /><path
         d="m 15799.6,27285.4 c -21.3,0 -42.8,2.3 -64.5,7 -22.3,4.9 -140.4,31.6 -326.6,86.9 -216.2,64.2 -524.1,166.8 -880.8,318.5 59.4,186.9 107.4,378.9 143.1,575.2 27.8,-5.5 55.8,-10.8 83.7,-15.9 306.7,-131.5 574.6,-224.4 770.2,-285.4 207.2,-64.7 333.4,-93.5 339,-94.8 161.3,-35.7 73.2,-591.5 -64.1,-591.5"
         style="fill:#4fc3b1;fill-opacity:1;fill-rule:nonzero;stroke:none"
         id="path154" /><path
         d="m 15592.3,26084.6 c -96.8,0 -191.7,46.8 -249.4,133.5 -91.6,137.5 -54.3,323.3 83.3,414.9 213.4,142 413,295.9 598.6,461.1 356.6,317.5 661.6,676.8 914.6,1075.2 69.3,-237.1 152.4,-467.9 248.5,-692.3 -353.3,-470.8 -779.1,-883.7 -1276.1,-1236.4 -50.5,-35.9 -101.9,-71.2 -154,-105.8 -50.9,-33.9 -108.5,-50.2 -165.5,-50.2"
         style="fill:#4fc3b1;fill-opacity:1;fill-rule:nonzero;stroke:none"
         id="path156" /><path
         d="m 15534.2,22808.8 c -51.2,0 -129,1.4 -228.4,6.9 -350.4,19.5 -970.4,91.8 -1647.7,345 -865.5,323.6 -1561.4,845.4 -2062,1538 194.8,66.9 383.9,146.4 566.1,237.5 418.9,-536.9 982.6,-941 1686.3,-1207.7 534.4,-202.5 1036.4,-277.8 1361.1,-305.4 159.5,-13.5 276.2,-15.6 333,-15.6 24.3,0 37.6,0.4 38.6,0.4 3.4,0.1 6.8,0.2 10.1,0.2 159.7,0 293.7,-126.9 299.5,-288.5 5.9,-164.9 -122.6,-303.5 -287.5,-309.8 -5.5,-0.2 -29.3,-1 -69.1,-1"
         style="fill:#4fc3b1;fill-opacity:1;fill-rule:nonzero;stroke:none"
         id="path158" /><path
         d="m 10938.5,24525.5 c -21.1,658.6 -126,838.7 -126,838.7 l -693.5,240.2 c -243.42,616.5 -390.48,1281.5 -422.82,1976.5 455.52,24.8 921.92,132.7 1393.32,324.2 710.8,288.7 1257.5,693.5 1542.1,930.4 639.1,-531.4 1329.1,-896.5 1896.1,-1137.7 -384.4,-1207.9 -1247.1,-2202.8 -2365.5,-2761.6 -289.8,371.2 -510.3,805.8 -660.2,1302.3 -39.1,129.4 -157.8,212.9 -286.3,212.9 -28.7,0 -57.8,-4.2 -86.7,-12.9 -158.2,-47.7 -247.7,-214.7 -199.9,-372.9 153.6,-509.1 377.7,-966.5 667,-1366.9 -212.7,-73.1 -432.2,-131.2 -657.6,-173.2 m -1249.08,3350.7 c 0.7,1183.3 333.88,2288.9 911.48,3228.2 321.4,-522.7 718.7,-994.3 1176.1,-1398.8 194.5,-245.8 405.6,-468.8 625.5,-670.2 -278.3,-226.6 -784.9,-592.8 -1425.6,-853.1 -440.4,-178.9 -869.9,-280.9 -1287.48,-306.1"
         style="fill:#73cfba;fill-opacity:1;fill-rule:nonzero;stroke:none"
         id="path160" /><path
         d="m 14527.7,27697.8 c -567,241.2 -1257,606.3 -1896.1,1137.7 70.1,58.3 124.3,106.5 161.1,140.2 574.4,-330.2 1206.7,-570.9 1878.1,-702.7 -35.7,-196.3 -83.7,-388.3 -143.1,-575.2 m -2125.2,1337.6 c -219.9,201.4 -431,424.4 -625.5,670.2 234.3,-207.2 484.3,-396.8 748.3,-567 -33.9,-29.4 -75,-64.2 -122.8,-103.2"
         style="fill:#4ec3ad;fill-opacity:1;fill-rule:nonzero;stroke:none"
         id="path162" /><path
         d="m 9696.18,27580.9 c -4.5,96.8 -6.76,193.9 -6.76,291.8 0,1.2 0,2.2 0,3.5 417.58,25.2 847.08,127.2 1287.48,306.1 640.7,260.3 1147.3,626.5 1425.6,853.1 47.8,39 88.9,73.8 122.8,103.2 87.7,-56.5 176.8,-110.8 267.4,-162.9 -36.8,-33.7 -91,-81.9 -161.1,-140.2 -284.6,-236.9 -831.3,-641.7 -1542.1,-930.4 -471.4,-191.5 -937.8,-299.4 -1393.32,-324.2"
         style="fill:#4ec3ad;fill-opacity:1;fill-rule:nonzero;stroke:none"
         id="path164" /><path
         d="m 11596.1,24698.7 c -289.3,400.4 -513.4,857.8 -667,1366.9 -47.8,158.2 41.7,325.2 199.9,372.9 28.9,8.7 58,12.9 86.7,12.9 128.5,0 247.2,-83.5 286.3,-212.9 149.9,-496.5 370.4,-931.1 660.2,-1302.3 -182.2,-91.1 -371.3,-170.6 -566.1,-237.5"
         style="fill:#4ec3ad;fill-opacity:1;fill-rule:nonzero;stroke:none"
         id="path166" /><path
         d="m 15566,28164.2 c -275.6,13.3 -546.5,44.7 -811.5,92.9 -26.5,11.4 -53.2,23 -80.2,34.9 47.4,267 72.2,541.9 72.2,822.5 0,1555.1 -760.5,2932.7 -1929.8,3781 25.2,46.1 50.3,93.4 75.2,141.9 55.7,108.8 108.6,220.8 158.5,335.9 724.4,371.9 1531.8,604.8 2387,663.8 313.8,-228.2 649.7,-427.4 1004.2,-594 58.2,-80.4 118.8,-158.2 181.7,-233.2 229.1,-273 462.6,-478.3 673.9,-631.1 -388.3,-808.5 -605.7,-1714.4 -605.7,-2671.3 0,-575.7 78.8,-1133.1 226.1,-1661.9 -228,-39 -460,-65.4 -695.8,-78.7 18.4,87.9 37.5,177.3 57.3,267.3 83.8,381.4 -132.5,531.1 -321.2,531.1 -113.3,0 -216.7,-54.1 -238.9,-144.4 -55.3,-224.1 -106.2,-443 -153,-656.7 m 1869.3,4684.9 c -127.5,95 -263.6,211.1 -401.2,352.3 168.1,-58.5 339.1,-109.9 513.5,-154 -38.5,-65.2 -76.1,-131.6 -112.3,-198.3 m -4867.6,215.1 c -8.6,5.4 -17.5,11 -26.2,16.4 17.7,11.3 35.2,22.4 53,33.5 -8.9,-16.8 -17.8,-33.4 -26.8,-49.9"
         style="fill:#72cfbb;fill-opacity:1;fill-rule:nonzero;stroke:none"
         id="path168" /><path
         d="m 15868.6,28156.9 c -101.4,0 -202.3,2.5 -302.6,7.3 46.8,213.7 97.7,432.6 153,656.7 22.2,90.3 125.6,144.4 238.9,144.4 188.7,0 405,-149.7 321.2,-531.1 -19.8,-90 -38.9,-179.4 -57.3,-267.3 -116.9,-6.6 -234.7,-10 -353.2,-10"
         style="fill:#4ec3ac;fill-opacity:1;fill-rule:nonzero;stroke:none"
         id="path170" /><path
         d="m 14754.5,28257.1 c -27.9,5.1 -55.9,10.4 -83.7,15.9 1.2,6.4 2.3,12.6 3.5,19 27,-11.9 53.7,-23.5 80.2,-34.9"
         style="fill:#4ec3ac;fill-opacity:1;fill-rule:nonzero;stroke:none"
         id="path172" /><path
         d="m 12816.7,32895.5 c -81.1,58.8 -164.1,115.1 -249,168.7 9,16.5 17.9,33.1 26.8,49.9 147.8,92.6 300.1,179.2 455.9,259.2 -49.9,-115.1 -102.8,-227.1 -158.5,-335.9 -24.9,-48.5 -50,-95.8 -75.2,-141.9"
         style="fill:#4ec3ac;fill-opacity:1;fill-rule:nonzero;stroke:none"
         id="path174" /><path
         d="m 17297.2,32578.8 c -211.3,152.8 -444.8,358.1 -673.9,631.1 -62.9,75 -123.5,152.8 -181.7,233.2 192.2,-90.3 390.1,-171.2 592.5,-241.7 137.6,-141.2 273.7,-257.3 401.2,-352.3 -48.2,-88.8 -94.2,-178.9 -138.1,-270.3"
         style="fill:#4ec3ac;fill-opacity:1;fill-rule:nonzero;stroke:none"
         id="path176" /><path
         d="m 14674.3,28292 c -867.5,383.2 -2011,1067.8 -2720.5,2198.8 -182.3,290.5 -327.7,597.3 -436,919.3 306.4,202.2 836.7,643.1 1298.9,1485.4 1169.3,-848.3 1929.8,-2225.9 1929.8,-3781 0,-280.6 -24.8,-555.5 -72.2,-822.5 M 11777,29705.6 c -457.4,404.5 -854.7,876.1 -1176.1,1398.8 82.8,134.7 171,266.5 263.6,394.1 128.1,-469.6 323.1,-913.3 584.8,-1329.7 102.4,-162.8 212.1,-317.1 327.7,-463.2 m -349.1,2007.8 c -31.5,122.2 -57.9,246.3 -79.3,372.6 353.6,379.3 754.3,713.8 1192.9,994.6 8.7,-5.4 17.6,-11 26.2,-16.4 -398.1,-734 -853.9,-1145.5 -1139.8,-1350.8"
         style="fill:#6accb5;fill-opacity:1;fill-rule:nonzero;stroke:none"
         id="path178" /><path
         d="m 14670.8,28273 c -671.4,131.8 -1303.7,372.5 -1878.1,702.7 32.6,29.8 51.5,48.3 55.8,52.6 58.9,57.9 59.6,152.7 1.6,211.6 -29.2,29.7 -67.9,44.6 -106.6,44.6 -37.9,0 -75.8,-14.3 -104.9,-43 -1.6,-1.6 -40.9,-39.9 -113.3,-102.9 -264,170.2 -514,359.8 -748.3,567 -115.6,146.1 -225.3,300.4 -327.7,463.2 -261.7,416.4 -456.7,860.1 -584.8,1329.7 149.3,205.8 311.1,402 484.1,587.5 21.4,-126.3 47.8,-250.4 79.3,-372.6 -169.4,-121.6 -279.1,-171 -282,-172.2 -76,-32.5 -111.2,-120.4 -78.7,-196.4 24.3,-56.8 79.6,-90.8 137.6,-90.8 19.7,0 39.6,3.9 58.8,12.1 11.8,5.1 107.3,47.1 254.2,144 108.3,-322 253.7,-628.8 436,-919.3 709.5,-1131 1853,-1815.6 2720.5,-2198.8 -1.2,-6.4 -2.3,-12.6 -3.5,-19"
         style="fill:#4dc2ab;fill-opacity:1;fill-rule:nonzero;stroke:none"
         id="path180" /><path
         d="m 11204.8,31254 c -58,0 -113.3,34 -137.6,90.8 -32.5,76 2.7,163.9 78.7,196.4 2.9,1.2 112.6,50.6 282,172.2 285.9,205.3 741.7,616.8 1139.8,1350.8 84.9,-53.6 167.9,-109.9 249,-168.7 -462.2,-842.3 -992.5,-1283.2 -1298.9,-1485.4 -146.9,-96.9 -242.4,-138.9 -254.2,-144 -19.2,-8.2 -39.1,-12.1 -58.8,-12.1"
         style="fill:#4dc2ab;fill-opacity:1;fill-rule:nonzero;stroke:none"
         id="path182" /><path
         d="m 12792.7,28975.7 c -90.6,52.1 -179.7,106.4 -267.4,162.9 72.4,63 111.7,101.3 113.3,102.9 29.1,28.7 67,43 104.9,43 38.7,0 77.4,-14.9 106.6,-44.6 58,-58.9 57.3,-153.7 -1.6,-211.6 -4.3,-4.3 -23.2,-22.8 -55.8,-52.6"
         style="fill:#4dc2ab;fill-opacity:1;fill-rule:nonzero;stroke:none"
         id="path184" /><path
         d="m 17547.6,33047.4 c -174.4,44.1 -345.4,95.5 -513.5,154 -60.4,62 -121.1,128.9 -181.5,200.8 -141.9,169.2 -288.3,375.4 -426.7,624.9 411.4,-36.8 811.4,-113.9 1195.6,-227.3 33.3,-165.9 62.9,-330 88.9,-492 -56.4,-85.4 -110.6,-172.1 -162.8,-260.4 m -1106,395.7 c -354.5,166.6 -690.4,365.8 -1004.2,594 142.5,9.8 286.3,14.8 431.2,14.8 68.8,0 137.1,-1.1 205.3,-3.4 109.4,-215.8 232,-417.9 367.7,-605.4"
         style="fill:#6accb5;fill-opacity:1;fill-rule:nonzero;stroke:none"
         id="path186" /><path
         d="m 17710.4,33307.8 c -26,162 -55.6,326.1 -88.9,492 120.5,-35.6 239.4,-74.8 356.8,-117.4 -93.8,-121.3 -183.2,-246.4 -267.9,-374.6"
         style="fill:#4ec3ab;fill-opacity:1;fill-rule:nonzero;stroke:none"
         id="path188" /><path
         d="m 17034.1,33201.4 c -202.4,70.5 -400.3,151.4 -592.5,241.7 -135.7,187.5 -258.3,389.6 -367.7,605.4 118.2,-3.8 235.5,-11 352,-21.4 138.4,-249.5 284.8,-455.7 426.7,-624.9 60.4,-71.9 121.1,-138.8 181.5,-200.8"
         style="fill:#4ec3ab;fill-opacity:1;fill-rule:nonzero;stroke:none"
         id="path190" /><path
         d="m 20761.1,24097.7 c -977,354.9 -1839.2,949.2 -2515.5,1712 84.2,83.4 168.7,169.5 253.7,258.7 h 3180.6 l 186.9,313.5 C 21658,25539.1 21276,24764.2 20761.1,24097.7"
         style="fill:#71cfbb;fill-opacity:1;fill-rule:nonzero;stroke:none"
         id="path192" /><path
         d="m 18245.6,25809.7 c -74.7,84.2 -147,170.4 -217.1,258.7 h 470.8 c -85,-89.2 -169.5,-175.3 -253.7,-258.7"
         style="fill:#4ec3ac;fill-opacity:1;fill-rule:nonzero;stroke:none"
         id="path194" /><path
         d="m 17658,26588 c -179.8,281.6 -337.2,578.7 -470.1,889 227.5,303.3 424.8,630.4 591.7,981.1 489.2,158.9 951.4,377.1 1378.6,646.3 L 17658,26588 m -718.6,1581.3 c -7.5,25.3 -14.7,50.9 -21.8,76.3 25.8,4.4 51.9,9.1 77.6,13.8 -18.3,-30.2 -37,-60.3 -55.8,-90.1"
         style="fill:#71cfbb;fill-opacity:1;fill-rule:nonzero;stroke:none"
         id="path196" /><path
         d="m 17187.9,27477 c -96.1,224.4 -179.2,455.2 -248.5,692.3 18.8,29.8 37.5,59.9 55.8,90.1 268,49.4 529.8,116 784.4,198.7 -166.9,-350.7 -364.2,-677.8 -591.7,-981.1"
         style="fill:#4ec3ac;fill-opacity:1;fill-rule:nonzero;stroke:none"
         id="path198" /><path
         d="m 21419.1,30591.5 h -127.6 c 17.6,49.7 34.8,99.3 51.8,149.2 25.9,-49.3 51.2,-99.1 75.8,-149.2"
         style="fill:#71cfbb;fill-opacity:1;fill-rule:nonzero;stroke:none"
         id="path200" /><path
         d="m 21291.5,30591.5 h -507.1 c 125.6,164.7 243.1,335.9 352,512.9 73,-118.7 141.9,-239.8 206.9,-363.7 -17,-49.9 -34.2,-99.5 -51.8,-149.2"
         style="fill:#4ec3ac;fill-opacity:1;fill-rule:nonzero;stroke:none"
         id="path202" /><path
         d="m 16917.6,28245.6 c -147.3,528.8 -226.1,1086.2 -226.1,1661.9 0,956.9 217.4,1862.8 605.7,2671.3 207.1,-149.7 392.8,-249.1 531.8,-312.5 102.2,-1574.5 -179.9,-2928.6 -833.8,-4006.9 -25.7,-4.7 -51.8,-9.4 -77.6,-13.8 m 862,212.5 c 188.2,395.5 337.6,821 447.4,1275.2 231.5,957 279.4,2015.7 144.4,3164.6 228.3,-25.6 460.6,-38.7 695.8,-38.7 144.9,0 288.7,5 431.2,14.8 556.9,-405 1043.7,-900.7 1438.4,-1465.4 -81.8,-276.6 -173.2,-548.7 -274.1,-817.1 h -617.9 l -886.6,-1487.1 c -427.2,-269.2 -889.4,-487.4 -1378.6,-646.3 m 20.9,4157 c -106.8,57.7 -231.3,134.2 -365.2,234 36.2,66.7 73.8,133.1 112.3,198.3 69,-17.4 138.4,-33.7 208.3,-48.8 17.2,-129.2 32.1,-257 44.6,-383.5"
         style="fill:#6accb5;fill-opacity:1;fill-rule:nonzero;stroke:none"
         id="path204" /><path
         d="m 20784.4,30591.5 h -121.7 c 100.9,268.4 192.3,540.5 274.1,817.1 69.4,-99.2 136.1,-200.9 199.6,-304.2 -108.9,-177 -226.4,-348.2 -352,-512.9"
         style="fill:#4ec3ab;fill-opacity:1;fill-rule:nonzero;stroke:none"
         id="path206" /><path
         d="m 16995.2,28259.4 c 653.9,1078.3 936,2432.4 833.8,4006.9 149.3,-68 244.9,-94.5 255.6,-97.4 13,-3.5 26.1,-5.2 38.9,-5.2 66.1,0 126.5,44.1 144.4,110.9 21.5,79.8 -25.8,161.9 -105.6,183.3 -3.1,0.8 -146.3,40.7 -361.8,157.2 -12.5,126.5 -27.4,254.3 -44.6,383.5 201.7,-43.6 406.9,-77.3 615.5,-100.7 135,-1148.9 87.1,-2207.6 -144.4,-3164.6 -109.8,-454.2 -259.2,-879.7 -447.4,-1275.2 -254.6,-82.7 -516.4,-149.3 -784.4,-198.7"
         style="fill:#4ec3ab;fill-opacity:1;fill-rule:nonzero;stroke:none"
         id="path208" /><path
         d="m 18123.5,32163.7 c -12.8,0 -25.9,1.7 -38.9,5.2 -10.7,2.9 -106.3,29.4 -255.6,97.4 -139,63.4 -324.7,162.8 -531.8,312.5 43.9,91.4 89.9,181.5 138.1,270.3 133.9,-99.8 258.4,-176.3 365.2,-234 215.5,-116.5 358.7,-156.4 361.8,-157.2 79.8,-21.4 127.1,-103.5 105.6,-183.3 -17.9,-66.8 -78.3,-110.9 -144.4,-110.9"
         style="fill:#4ec3ab;fill-opacity:1;fill-rule:nonzero;stroke:none"
         id="path210" /><path
         d="m 19067.2,32859.2 c -235.2,0 -467.5,13.1 -695.8,38.7 -25.8,219.5 -58.3,442.4 -97.5,668.4 436.1,-184.5 846.4,-417.4 1224.5,-692.3 -142.5,-9.8 -286.3,-14.8 -431.2,-14.8 m -1311.3,139.4 c -69.9,15.1 -139.3,31.4 -208.3,48.8 52.2,88.3 106.4,175 162.8,260.4 16.7,-104 31.8,-206.9 45.5,-309.2"
         style="fill:#66cbb3;fill-opacity:1;fill-rule:nonzero;stroke:none"
         id="path212" /><path
         d="m 18371.4,32897.9 c -208.6,23.4 -413.8,57.1 -615.5,100.7 -13.7,102.3 -28.8,205.2 -45.5,309.2 84.7,128.2 174.1,253.3 267.9,374.6 99.7,-36.2 198.3,-75 295.6,-116.1 39.2,-226 71.7,-448.9 97.5,-668.4"
         style="fill:#4ec3a9;fill-opacity:1;fill-rule:nonzero;stroke:none"
         id="path214" /><path
         d="m 9938.99,36080.3 c -80.41,14.6 -163.17,22.3 -247.65,22.5 -403.37,713.8 -1145.65,1205 -2004.99,1243.4 -40.36,182.1 -61.66,371.5 -61.66,565.8 0,1009.4 574.39,1884.6 1414.18,2316.5 516.68,-812.6 1277.83,-1454.7 2179.83,-1822.7 -582.2,-664.7 -1024.1,-1455.3 -1279.71,-2325.5"
         style="fill:#7fd3c1;fill-opacity:1;fill-rule:nonzero;stroke:none"
         id="path216" /><path
         d="m 9771.94,35348.5 c -1035.41,183 -1859.58,977.8 -2085.59,1997.7 859.34,-38.4 1601.62,-529.6 2004.99,-1243.4 84.48,-0.2 167.24,-7.9 247.65,-22.5 -70,-238.4 -125.96,-482.4 -167.05,-731.8"
         style="fill:#9dddcd;fill-opacity:1;fill-rule:nonzero;stroke:none"
         id="path218" /><path
         d="m 11218.7,38405.8 c -902,368 -1663.15,1010.1 -2179.83,1822.7 356.45,183.4 760.74,286.9 1189.13,286.9 876.7,0 1652.3,-433.5 2124,-1097.6 -418.2,-290 -798.9,-630.3 -1133.3,-1012"
         style="fill:#6ccdb6;fill-opacity:1;fill-rule:nonzero;stroke:none"
         id="path220" /><path
         d="m 10910.3,35399 c -207.8,351.9 -558.8,606.6 -971.31,681.3 255.61,870.2 697.51,1660.8 1279.71,2325.5 498.9,-203.6 1040.6,-323.3 1608.3,-341.7 2.9,-50.3 4.4,-101 4.4,-152.1 0,-1201.7 -814.2,-2213.2 -1921.1,-2513"
         style="fill:#6fceb8;fill-opacity:1;fill-rule:nonzero;stroke:none"
         id="path222" /><path
         d="m 10228,35308.7 c -155.6,0 -307.98,13.6 -456.06,39.8 41.09,249.4 97.05,493.4 167.05,731.8 412.51,-74.7 763.51,-329.4 971.31,-681.3 -217.5,-58.9 -446.2,-90.3 -682.3,-90.3"
         style="fill:#85d5c1;fill-opacity:1;fill-rule:nonzero;stroke:none"
         id="path224" /><path
         d="m 12827,38064.1 c -567.7,18.4 -1109.4,138.1 -1608.3,341.7 334.4,381.7 715.1,722 1133.3,1012 274.5,-386.4 446,-850.9 475,-1353.7"
         style="fill:#67cbb4;fill-opacity:1;fill-rule:nonzero;stroke:none"
         id="path226" /><path
         d="m 34593,34050.3 c -50.7,185.6 8.3,372.9 135.7,500.2 -103.6,85.7 -183.2,201.8 -221,340.4 -18.9,69.4 -22.9,138.7 -19.6,206.8 -107.2,74.2 -191.2,182.3 -227.9,316.7 -82.7,303.3 99.2,614.7 406.4,695.4 307.2,80.8 623.3,-99.6 706,-402.9 0.4,-1.4 0.4,-2.9 0.8,-4.3 212.8,-68.1 387.9,-236.7 450.4,-465.6 79.9,-292.8 -50.8,-589.4 -298.2,-741.5 39.2,-51.7 69.9,-110.8 88,-176.8 19.5,-71.7 22.4,-143.7 11.9,-212.7 210.1,-23.3 394.8,-169.3 453,-382.9 76,-278.3 -91,-563.9 -372.8,-638 -281.8,-74.1 -571.9,91.3 -647.8,369.6 -19.6,71.8 -22.4,143.8 -11.9,212.7 -210.1,23.4 -394.7,169.3 -453,382.9"
         style="fill:#1e3961;fill-opacity:1;fill-rule:nonzero;stroke:none"
         id="path228" /><path
         d="m 30752.6,3680 h -599 v 21416.6 h 599 V 3680"
         style="fill:#6dc6c1;fill-opacity:1;fill-rule:nonzero;stroke:none"
         id="path230" /><path
         d="m 31177.8,3680 h -599 v 21416.6 h 599 V 3680"
         style="fill:#42abaa;fill-opacity:1;fill-rule:nonzero;stroke:none"
         id="path232" /><path
         d="m 15825.8,3680 h -599 v 21289.1 h 599 V 3680"
         style="fill:#6dc6c1;fill-opacity:1;fill-rule:nonzero;stroke:none"
         id="path234" /><path
         d="m 16250.9,3680 h -599 v 21289.1 h 599 V 3680"
         style="fill:#42abaa;fill-opacity:1;fill-rule:nonzero;stroke:none"
         id="path236" /><path
         d="m 30579.4,6487.9 v 599 H 16251.6 v -599 h 14327.8"
         style="fill:#42abaa;fill-opacity:1;fill-rule:nonzero;stroke:none"
         id="path238" /><path
         d="m 11245.2,3680 h 599 v 15943.4 h -599 V 3680"
         style="fill:#42abaa;fill-opacity:1;fill-rule:nonzero;stroke:none"
         id="path240" /><path
         d="m 6324.35,10319.6 v -650.5 h 5084.55 v 650.5 H 6324.35"
         style="fill:#42abaa;fill-opacity:1;fill-rule:nonzero;stroke:none"
         id="path242" /><path
         d="m 5946.33,3680 h 598.988 V 19623.4 H 5946.33 Z"
         style="fill:#42abaa;fill-opacity:1;fill-rule:nonzero;stroke:none"
         id="path244" /><path
         d="m 5174.24,19623.4 h 7263.66 v 1474.2 c 0,54 -43.8,97.8 -97.8,97.8 H 5272 c -53.98,0 -97.76,-43.8 -97.76,-97.8 v -1474.2"
         style="fill:#42abaa;fill-opacity:1;fill-rule:nonzero;stroke:none"
         id="path246" /><path
         d="m 7573.05,19623.4 h 7263.65 v 1474.2 c 0,54 -43.8,97.8 -97.8,97.8 H 7670.8 c -53.99,0 -97.75,-43.8 -97.75,-97.8 v -1474.2"
         style="fill:#6dc6c1;fill-opacity:1;fill-rule:nonzero;stroke:none"
         id="path248" /><path
         d="m 13301.3,3680 h 599 v 15943.4 h -599 V 3680"
         style="fill:#6dc6c1;fill-opacity:1;fill-rule:nonzero;stroke:none"
         id="path250" /><path
         d="m 8380.47,10319.6 v -650.5 h 5084.63 v 650.5 H 8380.47"
         style="fill:#6dc6c1;fill-opacity:1;fill-rule:nonzero;stroke:none"
         id="path252" /><path
         d="m 8002.45,3680 h 599 v 15943.4 h -599 V 3680"
         style="fill:#6dc6c1;fill-opacity:1;fill-rule:nonzero;stroke:none"
         id="path254" /><path
         d="m 8243.04,22993.5 c 647.24,1783.5 3382.76,1012.9 6135.96,-703.9 2753,-1716.8 3862.2,-2096.8 3369.6,-3231.2 -395.6,-911 -1994.1,-549.3 -4959.7,782.7 -2965.47,1332 -4873.97,2248.3 -4545.86,3152.4"
         style="fill:#1e3961;fill-opacity:1;fill-rule:nonzero;stroke:none"
         id="path256" /><path
         d="M 8560.97,26144.1 C 7724.6,24603.5 7020.75,23527.5 7355.58,22220.8 c 295.72,-1154.3 3179.72,-2044 3462.32,302.4 282.7,2346.5 -5.4,2841 -5.4,2841 l -2251.53,779.9"
         style="fill:#284c7c;fill-opacity:1;fill-rule:nonzero;stroke:none"
         id="path258" /><path
         d="m 13931.7,13210.9 -544.7,790 -670.3,-1896.2 -362.9,-205.7 380.6,-1923.3 373.5,216.7 221.8,1328.5 602,1690"
         style="fill:#f8ab78;fill-opacity:1;fill-rule:nonzero;stroke:none"
         id="path260" /><path
         d="m 12696.4,12093.2 c -160.1,-454.9 5.6,-1218.2 175.3,-1664.8 28.7,-75.5 249.2,-140.3 236.2,-236 -68,-501.9 252.1,-1076.9 326.5,-1387.9 30.3,-126.9 -148.1,-238.3 -148.1,-238.3 l -664.2,766 c 0,0 -457.2,589.9 -452.3,1225.6 4.8,635.9 -381.3,1350.8 -184.3,1456.4 410.1,219.8 710.9,79 710.9,79"
         style="fill:#1e3961;fill-opacity:1;fill-rule:nonzero;stroke:none"
         id="path262" /><path
         d="m 12713.9,12415.1 c 453,1348.9 1138.6,3701 1701.6,4954.3 832.4,1852.9 2282,3192.5 2889.2,2890.6 892.2,-443.5 473.6,-1327 -240.1,-2494.6 -538.8,-881.7 -2417.6,-3486.4 -3433,-5809.8 l -917.7,459.5"
         style="fill:#1e3961;fill-opacity:1;fill-rule:nonzero;stroke:none"
         id="path264" /><path
         d="m 8056.94,23604 c 770.39,1735.2 2942.66,71.8 5438.46,-2482.2 2495.9,-2554.1 2789.1,-3000.7 3032.4,-3908.5 116.7,-435.5 -554.7,-1154.1 -1569.2,-800.4 -1100,383.7 -2358.9,1645.6 -3815.7,2809.1 -2800.37,2236.7 -3705.22,2987.2 -3085.96,4382"
         style="fill:#284c7c;fill-opacity:1;fill-rule:nonzero;stroke:none"
         id="path266" /><path
         d="m 14877.7,10512.4 -802.9,525.6 96,-2008.9 -258.3,-327.6 1079.2,-1636.9 263.9,341.8 -296.6,1313.8 -81.3,1792.2"
         style="fill:#f8ab78;fill-opacity:1;fill-rule:nonzero;stroke:none"
         id="path268" /><path
         d="m 14156.4,9010.7 c 23.6,-481.6 465.5,-1125.8 791.4,-1475.1 55.1,-59 283.7,-35.7 307.8,-129.2 126.8,-490.4 640.4,-901.8 826.8,-1161.7 76.1,-105.9 -47.1,-276.5 -47.1,-276.5 l -904.4,458.2 c 0,0 -646.1,373.3 -881.9,963.8 -235.8,590.5 -863.5,1106.6 -721,1278.7 296.7,358.5 628.4,341.8 628.4,341.8"
         style="fill:#1e3961;fill-opacity:1;fill-rule:nonzero;stroke:none"
         id="path270" /><path
         d="m 14073.2,9176.1 c -52.2,1422 -130.6,3887.3 -46.1,5258.7 124.9,2027.4 1008.6,3792.4 1683.3,3724.3 991.2,-100.2 911.4,-1074.5 655.7,-2419 -193,-1015 -980.7,-4997.2 -1197.2,-6697.3 l -1095.7,133.3"
         style="fill:#284c7c;fill-opacity:1;fill-rule:nonzero;stroke:none"
         id="path272" /><path
         d="m 12188.7,35872.5 1179.1,-1204.7 -1711,-3538.2 -1053.4,1066.6 1585.3,3676.3"
         style="fill:#f8ab78;fill-opacity:1;fill-rule:nonzero;stroke:none"
         id="path274" /><path
         d="m 14882.3,27577.6 c -1570.2,-229.2 -3402.1,-397.3 -4107.9,-839.3 -705.7,-442.1 -353.7,-984 43.9,-1118.1 397.6,-134.1 3153.8,659.2 4346.1,1467.8 604,409.6 -282.1,489.6 -282.1,489.6"
         style="fill:#f8ab78;fill-opacity:1;fill-rule:nonzero;stroke:none"
         id="path276" /><path
         d="m 16369.7,27351.4 v 0 c -68.9,-30.1 -100.5,-110.9 -70.3,-179.4 l 330.3,-751.9 c 30.1,-68.6 111,-100.1 179.8,-69.9 68.8,30.1 100.4,110.8 70.3,179.4 l -330.3,751.9 c -30.2,68.6 -111.1,100 -179.8,69.9"
         style="fill:#f8ab78;fill-opacity:1;fill-rule:nonzero;stroke:none"
         id="path278" /><path
         d="m 16457.7,27236 v 0 c -50.2,-55.7 -45.6,-142.3 10.2,-192.3 l 612.2,-548.6 c 55.8,-50 142.6,-45.3 192.8,10.4 50.2,55.7 45.6,142.2 -10.2,192.3 l -612.1,548.6 c -55.9,50 -142.6,45.3 -192.9,-10.4"
         style="fill:#f8ab78;fill-opacity:1;fill-rule:nonzero;stroke:none"
         id="path280" /><path
         d="m 14910.2,27301.3 v 0 c -170.6,-99.5 -208.6,-329.2 -79,-477.9 l 23.1,-26.5 c 76.9,-88.3 196.6,-126.6 310.7,-99.5 l 341,36.2 c 119.8,12.8 232.1,-29.1 332.5,-95.3 l 133.9,-87.4 c 138.9,-92.6 378.5,-76.3 430.3,34.2 24,51.3 1.8,112.2 -49.6,136.1 l -1138.7,588 c -96,49.6 -210.8,46.6 -304.2,-7.9"
         style="fill:#f8ab78;fill-opacity:1;fill-rule:nonzero;stroke:none"
         id="path282" /><path
         d="m 14897.3,27586.2 1118.3,-20.5 c 39.6,-0.7 78.9,-8.1 116,-21.9 l 1378.7,-511.2 c 34.2,-12.7 49.5,-52.5 32.7,-84.8 -52.6,-100.8 -167.4,-152.6 -277.9,-125.5 l -932.4,228.5 c -116.9,28.6 -239.5,23.8 -353.7,-14 l -432,-142.8 c 0,0 -532.8,-442.3 -891.6,45.6 -225.2,306.2 -71.8,496.2 48.5,586.1 55.7,41.5 124,61.7 193.4,60.5"
         style="fill:#f8ab78;fill-opacity:1;fill-rule:nonzero;stroke:none"
         id="path284" /><path
         d="m 11904.8,31900.4 c 407.8,-38.5 948.6,-0.4 1287.8,-643.9 316.3,-599.9 -150.3,-1275.9 272,-2344.8 33.3,-179.1 -105.8,-756.8 -687.4,-922.6 -404,-115.1 -1806.5,-1953.5 -1639.5,-3355.9 104.9,-881.2 -430.8,-1028.7 -1602.77,-801.4 C 8363.02,24059.1 7802.82,24486 7781.91,25601.5 7760,26770 7620,29900 8841.56,31654.8 c 208.13,298.9 540.73,411.2 787.18,508.2 688.46,271 1723.06,-210.4 2276.06,-262.6"
         style="fill:#ffffff;fill-opacity:1;fill-rule:nonzero;stroke:none"
         id="path286" /><path
         d="m 11495.5,30844 c 1055.5,-412.9 1247.4,389.6 1048.9,970.1 -235.7,83.7 -638.4,642.9 -849.2,662.8 -343.1,32.4 -1467.8,-133.4 -1734.91,-238.7 0,0 285.01,4.4 539.81,-384.8 253.1,-386.6 575.7,-845.2 995.4,-1009.4"
         style="fill:#f8ab78;fill-opacity:1;fill-rule:nonzero;stroke:none"
         id="path288" /><path
         d="m 10063.6,25319.9 c 579,138 637.4,886.3 500,2161.3 -137.4,1275 454.3,2579.7 -60.2,3773.4 -514.38,1193.8 -1691.72,646.4 -1615.3,-804.3 76.4,-1450.8 160.53,-3857.1 527.3,-4610.8 366.69,-753.7 648.2,-519.6 648.2,-519.6"
         style="fill:#f8ab78;fill-opacity:1;fill-rule:nonzero;stroke:none"
         id="path290" /><path
         d="m 8835.55,30469 c -39.38,747.4 235.62,1268.2 591.06,1460.3 374.83,202.5 839.09,39.5 1118.59,-609 361.4,-838.8 316.9,-1921.6 214.8,-2820.3 l -1801.89,-223.9 c -55.3,774.3 -89.68,1567.5 -122.56,2192.9"
         style="fill:#ffffff;fill-opacity:1;fill-rule:nonzero;stroke:none"
         id="path292" /><path
         d="m 13198.4,29471.3 c -1408.9,-1821.3 -3144,-2283.5 -3559.64,-3116.1 -415.58,-832.5 200.45,-1158.8 640.04,-1062.5 439.5,96.3 2488.9,2165.4 3164.5,3628.6 251.6,544.9 105.5,544 44.4,599.6 -103,93.9 -289.3,-49.6 -289.3,-49.6"
         style="fill:#f8ab78;fill-opacity:1;fill-rule:nonzero;stroke:none"
         id="path294" /><path
         d="m 13188.1,29588.4 221.6,-206.2 530.1,569.6 c 77.9,83.6 73.1,214.5 -10.5,292.3 -38.7,36.1 -99.4,33.9 -135.5,-4.9 l -605.7,-650.8"
         style="fill:#f8ab78;fill-opacity:1;fill-rule:nonzero;stroke:none"
         id="path296" /><path
         d="m 14806.3,28723.5 -998.8,-124.7 -556.6,2038.6 1593.7,199 -38.3,-2112.9"
         style="fill:#ffffff;fill-opacity:1;fill-rule:nonzero;stroke:none"
         id="path298" /><path
         d="m 14956.8,30802.5 -1785,-222.8 -32.9,263.1 c -1.9,15 8.8,28.7 23.8,30.6 l 1730.7,216 c 15,1.9 28.7,-8.7 30.6,-23.8 l 32.8,-263.1"
         style="fill:#ffffff;fill-opacity:1;fill-rule:nonzero;stroke:none"
         id="path300" /><path
         d="m 13829.3,28650.6 0.2,-2.2 c 8.5,-75 76.4,-128.6 151.2,-119.6 l 926.7,111.4 c 75.2,8.5 129.2,76.4 120.7,151.6 -8.5,75.2 -76.4,129.2 -151.5,120.7 l -928.6,-111.7 c -74.1,-8.9 -127.1,-76 -118.7,-150.2"
         style="fill:#f8ab78;fill-opacity:1;fill-rule:nonzero;stroke:none"
         id="path302" /><path
         d="m 13929.4,29215.9 v 0 c 5.6,-75.5 71.4,-132.2 147,-126.5 l 1149.9,87.2 c 75.5,5.6 132.1,71.2 126.6,146.7 -5.6,75.5 -71.3,132.1 -146.7,126.5 l -1150.5,-87.2 c -75.4,-5.7 -131.9,-71.3 -126.3,-146.7"
         style="fill:#f8ab78;fill-opacity:1;fill-rule:nonzero;stroke:none"
         id="path304" /><path
         d="m 13855.5,28935.8 0.5,-3.9 c 9.6,-74 77.4,-126.2 151.4,-116.6 l 1130.6,147.2 c 75,9.7 128,78.4 118.2,153.5 -9.7,75 -78.4,127.9 -153.4,118.2 L 13972,29087 c -73.9,-9.6 -126.1,-77.3 -116.5,-151.2"
         style="fill:#f8ab78;fill-opacity:1;fill-rule:nonzero;stroke:none"
         id="path306" /><path
         d="m 13740.2,29426.5 v 0 c 14.5,-74.3 86.5,-122.8 160.8,-108.2 l 1121,220.3 c 74.2,14.4 122.7,86.4 108.2,160.6 -14.5,74.3 -86.4,122.7 -160.6,108.3 l -1121.2,-220.4 c -74.2,-14.5 -122.6,-86.4 -108.2,-160.6"
         style="fill:#f8ab78;fill-opacity:1;fill-rule:nonzero;stroke:none"
         id="path308" /><path
         d="m 13980.6,29613.1 c 336.3,73.9 190.7,-1056.5 190.7,-1056.5 0,0 -1486.2,-265.3 -1317.6,332.4 191,677.5 452.7,801.1 452.7,801.1 0,0 338,-150.8 674.2,-77"
         style="fill:#f8ab78;fill-opacity:1;fill-rule:nonzero;stroke:none"
         id="path310" /><path
         d="m 13763.6,30789.4 129.3,59.4 -523.9,1139.8 -129.3,-59.5 523.9,-1139.7"
         style="fill:#ffffff;fill-opacity:1;fill-rule:nonzero;stroke:none"
         id="path312" /><path
         d="m 40368,3680 h 599 v 15943.4 h -599 z"
         style="fill:#42abaa;fill-opacity:1;fill-rule:nonzero;stroke:none"
         id="path314" /><path
         d="m 35447.1,9669.1 h 5084.6 v 650.504 h -5084.6 z"
         style="fill:#42abaa;fill-opacity:1;fill-rule:nonzero;stroke:none"
         id="path316" /><path
         d="m 35069.1,3680 h 599 v 15943.4 h -599 V 3680"
         style="fill:#42abaa;fill-opacity:1;fill-rule:nonzero;stroke:none"
         id="path318" /><path
         d="m 40007,30382.9 c -1297.3,-970.8 -3356.9,-2268.5 -4266.2,-2485.9 -1161.4,-422.8 -2089.9,663.4 -639.8,1695.1 810.2,548 771.8,1279.2 2568,2278.8 l 2338,-1488"
         style="fill:#f8ab78;fill-opacity:1;fill-rule:nonzero;stroke:none"
         id="path320" /><path
         d="m 38634.3,32777.7 c -505.6,-371 -1252.1,-816.8 -1664.7,-1235.7 L 38476,29294.3 c 661,237.5 1307,649.5 1759.6,1364.8 852.7,1347.6 -549.3,2890.6 -1601.3,2118.6"
         style="fill:#ffffff;fill-opacity:1;fill-rule:nonzero;stroke:none"
         id="path322" /><path
         d="m 35649.4,13625.2 726.4,-1462.7 175.2,-1067.7 897.2,1587.9 -692.3,193.1 -428.7,2033.1 -677.8,-1283.7"
         style="fill:#f8ab78;fill-opacity:1;fill-rule:nonzero;stroke:none"
         id="path324" /><path
         d="m 38005.3,12506.5 -1011.7,341.9 c 0,0 227.3,-180.3 4.1,-615.3 -229.7,-447.8 -558.8,-375.8 -566,-422.7 -7.1,-47 -427.1,-2145.9 -427.1,-2145.9 l 360.8,-354.1 1593.9,2662.2 46,533.9"
         style="fill:#1e3961;fill-opacity:1;fill-rule:nonzero;stroke:none"
         id="path326" /><path
         d="M 38224.8,12393.9 36290,8622.7 l -219.6,112.7 1934.9,3771.1 219.5,-112.6"
         style="fill:#ffffff;fill-opacity:1;fill-rule:nonzero;stroke:none"
         id="path328" /><path
         d="m 36070.4,8735.4 c -494.8,253.9 -65.8,929.1 -65.8,929.1 l 511.7,-59.9 -445.9,-869.2"
         style="fill:#ffffff;fill-opacity:1;fill-rule:nonzero;stroke:none"
         id="path330" /><path
         d="m 36127.3,10477.7 237,-42.3 13.6,127 -231.2,12 -19.4,-96.7"
         style="fill:#a7bcd3;fill-opacity:1;fill-rule:nonzero;stroke:none"
         id="path332" /><path
         d="m 36192.1,10841.5 237,-42.2 13.5,127 -231.2,12 -19.3,-96.8"
         style="fill:#a7bcd3;fill-opacity:1;fill-rule:nonzero;stroke:none"
         id="path334" /><path
         d="m 36256.9,11205.5 237,-42.3 13.5,127 -231.2,12 -19.3,-96.7"
         style="fill:#a7bcd3;fill-opacity:1;fill-rule:nonzero;stroke:none"
         id="path336" /><path
         d="m 36321.6,11569.3 237,-42.2 13.6,127 -231.3,12 -19.3,-96.8"
         style="fill:#a7bcd3;fill-opacity:1;fill-rule:nonzero;stroke:none"
         id="path338" /><path
         d="m 33922.3,19726.6 c 432.5,-757.7 3764.3,-6878.4 3764.3,-6878.4 l -1966.9,-1187.1 c 0,0 -3759,5307.6 -5092.2,7850.7 -964.2,1839.6 1927.2,2610.3 3294.8,214.8"
         style="fill:#1e3961;fill-opacity:1;fill-rule:nonzero;stroke:none"
         id="path340" /><path
         d="m 34297,19623.4 h 7263.7 v 1474.2 c 0,54 -43.8,97.8 -97.8,97.8 h -7068.1 c -54,0 -97.8,-43.8 -97.8,-97.8 v -1474.2"
         style="fill:#6dc6c1;fill-opacity:1;fill-rule:nonzero;stroke:none"
         id="path342" /><path
         d="m 36695.8,19623.4 h 7263.7 v 1474.2 c 0,54 -43.8,97.8 -97.8,97.8 h -7068.1 c -54,0 -97.8,-43.8 -97.8,-97.8 v -1474.2"
         style="fill:#6dc6c1;fill-opacity:1;fill-rule:nonzero;stroke:none"
         id="path344" /><path
         d="m 42424.1,3680 h 599 v 15943.4 h -599 z"
         style="fill:#6dc6c1;fill-opacity:1;fill-rule:nonzero;stroke:none"
         id="path346" /><path
         d="m 37503.3,9669.1 h 5084.6 v 650.504 h -5084.6 z"
         style="fill:#6dc6c1;fill-opacity:1;fill-rule:nonzero;stroke:none"
         id="path348" /><path
         d="m 37125.3,3680 h 598.9 v 15943.4 h -598.9 V 3680"
         style="fill:#6dc6c1;fill-opacity:1;fill-rule:nonzero;stroke:none"
         id="path350" /><path
         d="m 31218.3,21326.8 c 1446.7,854.4 6570.8,2633 8462.7,3582 2202.7,1104.9 2510.1,-2734.8 -574.3,-3831.2 -1782.4,-633.6 -5873.6,-1836.3 -5873.6,-1836.3 0,0 82,-280.7 -43.8,-455.6 -125.8,-174.8 -535.6,66.2 -616.7,109 -1252.6,-592.7 -3284.7,1292 -1354.3,2432.1"
         style="fill:#1e3961;fill-opacity:1;fill-rule:nonzero;stroke:none"
         id="path352" /><path
         d="m 32152.4,9513.1 -529.1,-1293 -976.8,-465.5 1774.8,-419.8 -7.2,718.7 887.1,1689.3 -1148.8,-229.7"
         style="fill:#f8ab78;fill-opacity:1;fill-rule:nonzero;stroke:none"
         id="path354" /><path
         d="m 32407.2,6750.8 46.8,1066.8 c 0,0 -109.9,-268.5 -589.9,-175.2 -494.1,96 -516.4,432.1 -563.5,425.9 -47.1,-6.2 -2180,-187 -2180,-187 l -239.6,-445.1 3000.6,-790 525.6,104.6"
         style="fill:#1e3961;fill-opacity:1;fill-rule:nonzero;stroke:none"
         id="path356" /><path
         d="m 32360.1,6508.5 -4160.7,808.8 47.1,242.2 4160.7,-808.7 -47.1,-242.3"
         style="fill:#ffffff;fill-opacity:1;fill-rule:nonzero;stroke:none"
         id="path358" /><path
         d="m 28246.5,7559.5 c 106.2,545.9 874.1,321.8 874.1,321.8 l 84.9,-508.2 -959,186.4"
         style="fill:#ffffff;fill-opacity:1;fill-rule:nonzero;stroke:none"
         id="path360" /><path
         d="m 29935.8,7989.8 25.4,-239.4 125.8,22.3 -52.9,225.4 -98.3,-8.3"
         style="fill:#a7bcd3;fill-opacity:1;fill-rule:nonzero;stroke:none"
         id="path362" /><path
         d="m 30303.3,8028.9 25.5,-239.5 125.7,22.4 -52.9,225.4 -98.3,-8.3"
         style="fill:#a7bcd3;fill-opacity:1;fill-rule:nonzero;stroke:none"
         id="path364" /><path
         d="m 30670.9,8067.9 25.4,-239.4 125.7,22.4 -52.8,225.4 -98.3,-8.4"
         style="fill:#a7bcd3;fill-opacity:1;fill-rule:nonzero;stroke:none"
         id="path366" /><path
         d="m 31038.4,8107 25.4,-239.3 125.8,22.3 -52.9,225.4 -98.3,-8.4"
         style="fill:#a7bcd3;fill-opacity:1;fill-rule:nonzero;stroke:none"
         id="path368" /><path
         d="M 36087.4,15309.4 C 35822.7,14478 33270.3,7970.7 33270.3,7970.7 l -1901.1,554.8 c 0,0 1493.1,4502.8 2329.2,9063 374.6,2042.9 3225.8,349.3 2389,-2279.1"
         style="fill:#284c7c;fill-opacity:1;fill-rule:nonzero;stroke:none"
         id="path370" /><path
         d="m 34219.6,18601.2 c 1042.9,1317.3 5185.1,4819.1 6609.3,6384.7 1658.3,1822.9 4087.9,-1625.6 1603.8,-3757.4 -1435.5,-1232 -5583.3,-3849.2 -5583.3,-3849.2 0,0 177.4,-232.4 122.9,-440.8 -54.6,-208.4 -523.5,-130.8 -614.7,-120 -955.8,-1003.4 -3529.5,24.9 -2138,1782.7"
         style="fill:#284c7c;fill-opacity:1;fill-rule:nonzero;stroke:none"
         id="path372" /><path
         d="m 43742.2,23369.5 c 429.6,5478.1 349.1,6793.9 -1423.2,8566.2 -1772.3,1772.4 -3786.4,1666.5 -3920.6,-187.2 -134.3,-1853.6 671.3,-2310.1 563.9,-3867.6 -107.4,-1557.5 -429.7,-3410.4 -429.7,-3410.4 0,0 1101,-751.9 2792.8,-1101 1691.7,-349.1 2416.8,0 2416.8,0"
         style="fill:#ffffff;fill-opacity:1;fill-rule:nonzero;stroke:none"
         id="path374" /><path
         d="m 35997.7,34222 1619.2,1079.2 2320.8,-2323.7 c 351,-350.8 219.3,-978.4 -131.6,-1329.4 -350.8,-351.1 -919.8,-351.2 -1270.8,-0.4 L 35997.7,34222"
         style="fill:#f8ab78;fill-opacity:1;fill-rule:nonzero;stroke:none"
         id="path376" /><path
         d="m 36601.6,36528.9 c -1512.2,-81.5 -1756,-941.2 -1405.6,-2031 350.4,-1089.8 1408.3,-2846.1 2145.5,-2667.1 737.2,179.1 1558.5,1188.8 1181.3,2285 -377.3,1096.1 94.7,2521.6 -1921.2,2413.1"
         style="fill:#f8ab78;fill-opacity:1;fill-rule:nonzero;stroke:none"
         id="path378" /><path
         d="m 42872.5,30124.8 c -595.3,-1592 -2123.8,-4389 -2803.4,-5096.2 -693.1,-721.3 -958.9,-381.1 -958.9,-381.1 -659.4,321.8 -705.8,637.5 -120.9,1999.5 404.9,942.8 -43.4,1566.6 976,3466.9 l 2907.2,10.9"
         style="fill:#f8ab78;fill-opacity:1;fill-rule:nonzero;stroke:none"
         id="path380" /><path
         d="m 34717.4,27578.1 c 1858,-515.4 4040.8,-996.9 4824.4,-1637.2 783.5,-640.4 276.6,-1240.1 -223.1,-1341.2 -499.8,-101.2 -3701.7,1274.7 -5016,2431.1 -665.7,585.7 414.7,547.3 414.7,547.3"
         style="fill:#f8ab78;fill-opacity:1;fill-rule:nonzero;stroke:none"
         id="path382" /><path
         d="m 40303.7,31461.4 c -236.2,-614.1 -642.5,-1430.6 -769.5,-2034.2 l 2603.5,-1130.8 c 448.9,584.1 785.9,1313.9 780.1,2201.9 -10.8,1672.8 -2122.7,2240.6 -2614.1,963.1"
         style="fill:#ffffff;fill-opacity:1;fill-rule:nonzero;stroke:none"
         id="path384" /><path
         d="m 32841.2,27320.2 v 0 c 83.7,-36.6 122.1,-134.7 85.5,-218 l -401.5,-913.6 c -36.6,-83.4 -134.9,-121.6 -218.5,-85 -83.5,36.6 -122,134.7 -85.4,218 l 401.4,913.7 c 36.7,83.3 135,121.5 218.5,84.9"
         style="fill:#f8ab78;fill-opacity:1;fill-rule:nonzero;stroke:none"
         id="path386" /><path
         d="m 32734.2,27180 v 0 c 61,-67.7 55.4,-172.9 -12.4,-233.6 l -743.8,-666.7 c -67.8,-60.8 -173.3,-55.1 -234.3,12.6 -61,67.8 -55.4,172.9 12.4,233.7 l 743.8,666.6 c 67.9,60.8 173.3,55.1 234.3,-12.6"
         style="fill:#f8ab78;fill-opacity:1;fill-rule:nonzero;stroke:none"
         id="path388" /><path
         d="m 34614.7,27259.3 v 0 c 207.3,-120.9 253.4,-400 96,-580.6 l -28.1,-32.3 c -93.5,-107.2 -239,-153.8 -377.6,-120.8 l -414.3,44 c -145.6,15.4 -282.1,-35.5 -404.1,-115.9 l -162.6,-106.2 c -168.8,-112.4 -459.9,-92.7 -522.9,41.6 -29.2,62.3 -2.2,136.3 60.2,165.3 L 34245,27269 c 116.7,60.2 256.2,56.6 369.7,-9.7"
         style="fill:#f8ab78;fill-opacity:1;fill-rule:nonzero;stroke:none"
         id="path390" /><path
         d="m 34630.3,27605.5 -1358.9,-24.9 c -48.1,-0.9 -95.8,-9.9 -140.9,-26.6 l -1675.2,-621.1 c -41.6,-15.5 -60.3,-63.8 -39.8,-103.1 63.9,-122.4 203.4,-185.4 337.7,-152.5 l 1132.9,277.6 c 142,34.8 291,28.9 429.9,-17 l 524.9,-173.5 c 0,0 647.3,-537.4 1083.3,55.5 273.7,372 87.3,602.9 -58.9,712.1 -67.6,50.4 -150.7,75 -235,73.5"
         style="fill:#f8ab78;fill-opacity:1;fill-rule:nonzero;stroke:none"
         id="path392" /><path
         d="M 27686.7,24969.1 H 11755.9 v 992.1 h 15930.8 v -992.1"
         style="fill:#6dc6c1;fill-opacity:1;fill-rule:nonzero;stroke:none"
         id="path394" /><path
         d="M 36274.1,24969.1 H 20343.3 v 992.1 h 15930.8 v -992.1"
         style="fill:#42abaa;fill-opacity:1;fill-rule:nonzero;stroke:none"
         id="path396" /><path
         d="m 21520.7,25962.6 h -5266 v 195 h 5266 v -195"
         style="fill:#1e3961;fill-opacity:1;fill-rule:nonzero;stroke:none"
         id="path398" /><path
         d="m 17189,25962.6 h -5266 v 195 h 5266 v -195"
         style="fill:#1e3961;fill-opacity:1;fill-rule:nonzero;stroke:none"
         id="path400" /><path
         d="m 20044.8,30591.5 -2696.6,-4523.1 -167.5,99.8 2696.6,4523.2 167.5,-99.9"
         style="fill:#284c7c;fill-opacity:1;fill-rule:nonzero;stroke:none"
         id="path402" /><path
         d="m 17348.2,26068.4 2696.6,4523.1 h 4331.7 l -2696.6,-4523.1 h -4331.7"
         style="fill:#1e3961;fill-opacity:1;fill-rule:nonzero;stroke:none"
         id="path404" /><path
         d="M 19877.3,30691.4 H 24209 l 167.5,-99.9 h -4331.7 l -167.5,99.9"
         style="fill:#284c7c;fill-opacity:1;fill-rule:nonzero;stroke:none"
         id="path406" /><path
         d="m 20515.8,28248.2 c -106.5,-235 35.3,-425.6 316.8,-425.6 281.5,0 596.1,190.6 702.7,425.6 106.6,235.1 -35.2,425.6 -316.7,425.6 -281.5,0 -596.2,-190.5 -702.8,-425.6"
         style="fill:#284c7c;fill-opacity:1;fill-rule:nonzero;stroke:none"
         id="path408" /><path
         d="m 34294.7,31130.3 c 1010,-1642.4 1297.5,-1341.7 1435.4,-2344.2 137.9,-1002.5 -641.6,-1096.6 -1076.5,-830.4 -435,266.2 -860,1314.4 -1035.3,3056.1 -88.8,882.4 676.4,118.5 676.4,118.5"
         style="fill:#f8ab78;fill-opacity:1;fill-rule:nonzero;stroke:none"
         id="path410" /><path
         d="m 34635.9,32469.1 c -209.9,-65.2 -533.2,14.8 -706.1,-212.7 -248.8,-327.4 -309.1,-978.7 -309.1,-978.7 l 583.8,-309.1 c 0,0 34.2,-185.3 784.4,211.9 750.3,397.1 635.5,962 635.5,962 l -988.5,326.6"
         style="fill:#f8ab78;fill-opacity:1;fill-rule:nonzero;stroke:none"
         id="path412" /><path
         d="m 36738.9,32182.7 c -163.5,-525.7 -635.2,-906 -1192.3,-906 -692.7,0 -1254.3,587.4 -1254.3,1312 0,5.6 0.8,11 0.8,16.5 260.4,89.5 553.6,141 865.2,141 654.9,0 1232.7,-223.2 1580.6,-563.5"
         style="fill:#ffffff;fill-opacity:1;fill-rule:nonzero;stroke:none"
         id="path414" /><path
         d="m 34704.3,31501.8 c -20.3,-140.1 245,-294.5 592.6,-344.9 347.6,-50.4 645.9,22.3 666.2,162.4 20.3,140 -245,294.5 -592.6,344.9 -347.6,50.4 -645.9,-22.3 -666.2,-162.4"
         style="fill:#ffffff;fill-opacity:1;fill-rule:nonzero;stroke:none"
         id="path416" /><path
         d="m 25076.8,25970.9 h 5265.9 v 195 h -5265.9 v -195"
         style="fill:#1e3961;fill-opacity:1;fill-rule:nonzero;stroke:none"
         id="path418" /><path
         d="m 29408.4,25970.9 h 5266 v 195 h -5266 v -195"
         style="fill:#1e3961;fill-opacity:1;fill-rule:nonzero;stroke:none"
         id="path420" /><path
         d="m 29240.9,26068.4 -2696.6,4523.1 -4164.1,99.9 -167.6,-99.9 2696.6,-4523.1 h 4331.7"
         style="fill:#1e3961;fill-opacity:1;fill-rule:nonzero;stroke:none"
         id="path422" /><path
         d="m 29408.5,26168.2 -2696.6,4523.2 h -4331.7 l 2696.6,-4523.2 h 4331.7"
         style="fill:#284c7c;fill-opacity:1;fill-rule:nonzero;stroke:none"
         id="path424" /><path
         d="m 25170.1,26332.5 -2500.8,4194.6 h 3949.2 l 2500.8,-4194.6 h -3949.2"
         style="fill:#ffffff;fill-opacity:1;fill-rule:nonzero;stroke:none"
         id="path426" /><path
         d="m 28556.6,26692.1 h -3207.3 c -59.3,0 -145.8,63.2 -193.2,141 l -1867.2,3067.6 h 3460 l 1826.3,-3000.4 c 73.7,-121 65.8,-208.2 -18.6,-208.2 m -642.7,277.1 v 0 l -725.2,1191.3 h -1370.5 l 725.1,-1191.3 h 1370.6 M 27119,28275 v 0 l -362.6,595.7 h -1370.5 l 362.6,-595.7 H 27119 m -446.7,734 v 0 l -6.8,11.1 v 0 l -50.4,82.9 v 0 l -384.4,631.5 h -2337.3 l 293.4,-482.1 v 0 L 24335,29009 h 2337.3"
         style="fill:#becdd9;fill-opacity:1;fill-rule:nonzero;stroke:none"
         id="path428" /><path
         d="m 26748.9,29900.7 h -3460 l -65,106.8 c -20.2,33.2 -30,63.6 -30.1,87.7 -0.1,32.5 17.6,53.3 51.7,53.3 h 3245.1 c 59.4,0 145.9,-63.1 193.3,-141 v 0 l 65,-106.8"
         style="fill:#8da6bd;fill-opacity:1;fill-rule:nonzero;stroke:none"
         id="path430" /><path
         d="m 27913.9,26969.2 h -1370.6 l -725.1,1191.3 h 1370.5 l 725.2,-1191.3"
         style="fill:#ffffff;fill-opacity:1;fill-rule:nonzero;stroke:none"
         id="path432" /><path
         d="m 27119,28275 h -1370.5 l -362.6,595.7 h 1370.5 L 27119,28275"
         style="fill:#ffffff;fill-opacity:1;fill-rule:nonzero;stroke:none"
         id="path434" /><path
         d="m 25882.1,28428.5 c -1,0 -2,0 -3,0.1 -62,2.1 -150.3,68.3 -197.2,148 -46.2,78.4 -35.1,140.6 24.3,140.6 1,0 2,0 3,-0.1 62,-2.1 150.3,-68.3 197.2,-148 46.2,-78.4 35.1,-140.6 -24.3,-140.6"
         style="fill:#becdd9;fill-opacity:1;fill-rule:nonzero;stroke:none"
         id="path436" /><path
         d="m 25090.3,28566.9 c 73.6,-124.9 54.4,-223.6 -42.8,-220.3 -97.2,3.3 -235.6,107.2 -309.2,232.2 -73.6,124.9 -54.4,223.6 42.8,220.3 97.2,-3.3 235.7,-107.2 309.2,-232.2"
         style="fill:#ffffff;fill-opacity:1;fill-rule:nonzero;stroke:none"
         id="path438" /><path
         d="m 26314.3,27718.3 c -1,0 -1.9,0 -2.9,0.1 -62,2.1 -150.3,68.4 -197.2,148 -46.2,78.4 -35.1,140.6 24.3,140.6 1,0 2,0 3,-0.1 62,-2 150.3,-68.3 197.2,-148 46.2,-78.4 35,-140.6 -24.4,-140.6"
         style="fill:#becdd9;fill-opacity:1;fill-rule:nonzero;stroke:none"
         id="path440" /><path
         d="m 27636.4,27152.5 h -680.9 l -344.4,565.8 h 680.9 l 344.4,-565.8"
         style="fill:#becdd9;fill-opacity:1;fill-rule:nonzero;stroke:none"
         id="path442" /><path
         d="m 27220.3,27836.2 h -680.9 l -63,103.4 h 681 l 62.9,-103.4"
         style="fill:#becdd9;fill-opacity:1;fill-rule:nonzero;stroke:none"
         id="path444" /><path
         d="m 26898.4,28365 h -680.9 l -108.2,177.8 h 680.9 l 108.2,-177.8"
         style="fill:#becdd9;fill-opacity:1;fill-rule:nonzero;stroke:none"
         id="path446" /><path
         d="m 26718.4,28660.6 h -680.9 l -62.9,103.4 h 680.9 l 62.9,-103.4"
         style="fill:#becdd9;fill-opacity:1;fill-rule:nonzero;stroke:none"
         id="path448" /><path
         d="m 25590.3,28065.3 h -680.9 l -62.9,103.4 h 680.9 l 62.9,-103.4"
         style="fill:#ffffff;fill-opacity:1;fill-rule:nonzero;stroke:none"
         id="path450" /><path
         d="m 25693.5,27895.7 h -680.9 l -62.9,103.4 h 680.9 l 62.9,-103.4"
         style="fill:#ffffff;fill-opacity:1;fill-rule:nonzero;stroke:none"
         id="path452" /><path
         d="m 25796.7,27726.2 h -680.9 l -62.9,103.4 h 680.9 l 62.9,-103.4"
         style="fill:#ffffff;fill-opacity:1;fill-rule:nonzero;stroke:none"
         id="path454" /><path
         d="M 25899.9,27556.7 H 25219 l -62.9,103.4 h 680.9 l 62.9,-103.4"
         style="fill:#ffffff;fill-opacity:1;fill-rule:nonzero;stroke:none"
         id="path456" /><path
         d="M 26672.3,29009 H 24335 l -441.6,725.5 h 2337.3 l 441.6,-725.5"
         style="fill:#ffffff;fill-opacity:1;fill-rule:nonzero;stroke:none"
         id="path458" /><path
         d="M 26672.3,29009 H 24335 l -148.2,243.4 c 112,-31.3 214.3,-54 308.1,-69.5 -34.2,-7.6 -71,-11.8 -111.1,-11.8 -48,0 -100.7,6 -159.3,19.3 l 103.7,-170.3 h 2337.3 l 6.8,-11.1 m -57.2,94 c -319.2,216.3 -574.4,358.6 -782,446.4 77,27.1 161.6,43.9 260.5,43.9 71.8,0 151.2,-8.9 240.8,-29.2 l 280.7,-461.1"
         style="fill:#bee9e4;fill-opacity:1;fill-rule:nonzero;stroke:none"
         id="path460" /><path
         d="m 26665.5,29020.1 v 0 l -50.4,82.9 v 0 l 50.4,-82.9"
         style="fill:#89b2bb;fill-opacity:1;fill-rule:nonzero;stroke:none"
         id="path462" /><path
         d="m 26665.5,29020.1 v 0 l -50.4,82.9 v 0 l 50.4,-82.9 m -1868.3,136.2 c -90.2,0 -190.2,8.1 -302.3,26.6 151.7,33.9 250.5,135.3 353.4,236.8 126,124.3 258,248.5 500.6,248.5 126.5,0 283,-33.7 484.2,-118.8 -119.2,-41.9 -220.4,-108.2 -328.8,-174.6 -178.6,-109.2 -376.9,-218.5 -707.1,-218.5"
         style="fill:#bee9e4;fill-opacity:1;fill-rule:nonzero;stroke:none"
         id="path464" /><path
         d="m 26665.5,29020.1 h -2337.3 l -103.7,170.3 c 58.6,-13.3 111.3,-19.3 159.3,-19.3 40.1,0 76.9,4.2 111.1,11.8 112.1,-18.5 212.1,-26.6 302.3,-26.6 330.2,0 528.5,109.3 707.1,218.5 108.4,66.4 209.6,132.7 328.8,174.6 207.6,-87.8 462.8,-230.1 782,-446.4 l 50.4,-82.9"
         style="fill:#b7dad4;fill-opacity:1;fill-rule:nonzero;stroke:none"
         id="path466" /><path
         d="m 23385.8,30024.6 c 19.9,-32.8 15.9,-59.3 -9.1,-59.3 -25,0 -61.4,26.5 -81.4,59.3 -19.9,32.8 -15.8,59.3 9.1,59.3 25,0 61.4,-26.5 81.4,-59.3"
         style="fill:#ffffff;fill-opacity:1;fill-rule:nonzero;stroke:none"
         id="path468" /><path
         d="m 23555.1,30024.6 c 20,-32.8 15.9,-59.3 -9.1,-59.3 -25,0 -61.4,26.5 -81.3,59.3 -20,32.8 -15.9,59.3 9.1,59.3 25,0 61.4,-26.5 81.3,-59.3"
         style="fill:#ffffff;fill-opacity:1;fill-rule:nonzero;stroke:none"
         id="path470" /><path
         d="m 23724.5,30024.6 c 19.9,-32.8 15.8,-59.3 -9.1,-59.3 -25,0 -61.4,26.5 -81.4,59.3 -19.9,32.8 -15.9,59.3 9.1,59.3 25,0 61.4,-26.5 81.4,-59.3"
         style="fill:#ffffff;fill-opacity:1;fill-rule:nonzero;stroke:none"
         id="path472" /><path
         d="m 11501.6,33711.1 c 874,-1089.2 1846.1,-1390.7 2073.7,-1028.8 200.9,319.3 367.3,838.5 425.2,918.8 57.9,80.2 196.9,40.3 261.3,185.4 64.4,145.2 -91.7,548.8 -47.3,869.4 44.5,320.7 302.4,1381.4 -97.4,1702 -399.7,320.6 -1426.8,827.7 -2079.5,248.8 -652.6,-578.9 -1065.4,-1347.9 -931.9,-1718.5 133.5,-370.5 395.9,-1177.1 395.9,-1177.1"
         style="fill:#f8ab78;fill-opacity:1;fill-rule:nonzero;stroke:none"
         id="path474" /><path
         d="m 13342.8,35274.4 c -1126.5,48.6 -1576.9,-563.5 -1576.9,-563.5 0,0 95.9,293.4 -141.9,419.7 -237.8,126.3 -392.9,-30.4 -400.7,-269.5 -15.8,-484.4 253.3,-652.8 253.3,-652.8 l -242.9,-536.7 c 0,0 -30.6,714.8 -294.9,1118.8 -283.6,433.7 -224,1209.9 94.8,1763 300.6,521.3 906.4,1019.2 2035.2,800.6 1372.2,-265.7 2280.8,-2166.1 274,-2079.6"
         style="fill:#1e3961;fill-opacity:1;fill-rule:nonzero;stroke:none"
         id="path476" /><path
         d="m 11279.5,36355.3 c 84.4,347.9 -779.7,1150.9 -1610.88,364.5 -624.45,-590.8 -5.58,-1269.3 -291.88,-2021.5 -306.88,-806.2 -725.02,-569.9 -1326.56,-993.3 -973.78,-685.5 -141.25,-1652.3 -1565.02,-1402.2 441.58,-879.2 1458.77,-1222.9 2674.65,-752.7 923.19,357 577.91,1575.5 1320.89,2163.2 889.4,703.4 328.9,1196.6 159.7,2039 -163.2,812.9 639.1,603 639.1,603"
         style="fill:#1e3961;fill-opacity:1;fill-rule:nonzero;stroke:none"
         id="path478" /><path
         d="m 11108.4,36764.7 c -131.5,-94 -213.6,-265.6 -232.5,-428.4 l 102.4,-57.3 c 43.9,145.4 131.2,307.5 250.6,418.3 l -120.5,67.4"
         style="fill:#ed9b11;fill-opacity:1;fill-rule:nonzero;stroke:none"
         id="path480" /><path
         d="m 34462.1,36297.5 c -10.4,25.8 -22.6,50.5 -30.1,77.9 -105.4,386.3 124.5,782.2 513.6,889 33,192.2 174.6,357.5 377.9,411 134.6,35.4 270.5,14.5 384.1,-46.5 79.3,64.9 172.6,115.7 278.9,143.6 154.7,40.7 310.4,28.3 449.8,-23.7 94.5,160.2 250.4,285.1 446.4,336.6 375.7,98.8 758.9,-109 885.7,-465.9 333.5,8.1 642.5,-207.1 733.1,-539.1 31.1,-113.9 30.9,-228.1 8.2,-335.9 191.7,-88.3 345.7,-253.5 405,-470.8 41.9,-153.4 29.5,-307.7 -23.1,-445.6 171.3,-92.6 306.2,-250.1 361,-450.9 89.4,-327.6 -63.3,-660.2 -348.1,-820.3 76.7,-82.9 192.8,-180.8 169,-298.6 -127,-629.3 -677.7,-28.8 -670.6,228.7 -8.9,217.6 -15,420.5 -75.8,606.1 -57.4,175.4 -370.9,230.7 -603.2,67.2 -53.2,395.3 -159.7,932.4 -635.6,934.6 -620.9,2.9 -1408.3,-888.7 -1983.2,-974.2 -503.8,-74.9 -875.1,867.5 -643,1176.8"
         style="fill:#1e3961;fill-opacity:1;fill-rule:nonzero;stroke:none"
         id="path482" /><path
         d="m 44844.8,14060.6 -1592.7,284.9 c -10.5,136.1 -31.9,269.7 -62,400.5 40.1,-62.1 68.6,-128.7 82.5,-201.4 l 1653.7,212.2 c 174,2127.7 1422.4,2374.1 838.5,3381.8 -105.2,181.4 -252.1,236.5 -414.2,236.5 -125.7,0 -260.6,-33.1 -392.2,-66.3 -84.7,-21.4 -168.1,-42.7 -246.8,-55.2 290.9,321.9 638.7,673.7 1083.5,706.9 26.8,2 53.6,2.9 80.1,2.9 1101.9,0 1864.2,-1696.5 511.7,-2451.4 -991,-553.1 -923.5,-1044.1 -1542.1,-2451.4 m -2762.6,2888.2 c -238.2,431.1 -338.7,778.3 -51,1027.6 133.9,116 264,161.6 392.9,163 v -1116.8 c -111.9,-21.7 -230.3,-42.7 -341.9,-73.8"
         style="fill:#95d8d1;fill-opacity:1;fill-rule:nonzero;stroke:none"
         id="path484" /><path
         d="m 42424.1,17022.6 v 1116.8 c 1.9,0 3.9,0 5.8,0 55.6,0 111.1,-8.2 166.5,-22.4 83.1,-163.5 173.7,-335.8 264.4,-519.4 212.5,-429.6 -78.6,-505.6 -436.7,-575"
         style="fill:#6dc6c1;fill-opacity:1;fill-rule:nonzero;stroke:none"
         id="path486" /><path
         d="m 43190.1,14746 c -43.4,67.3 -100.4,129.2 -167,187.7 v 333.8 c 68.3,-168.6 125.8,-342.4 167,-521.5 m -766,578.6 c -472.2,275.7 -942.9,580.1 -834.2,1186.2 46.7,260.2 254,371.8 492.3,438 96.8,-175.2 216.4,-364.5 341.9,-566.5 v -1057.7"
         style="fill:#7acdc7;fill-opacity:1;fill-rule:nonzero;stroke:none"
         id="path488" /><path
         d="m 43023.1,14933.7 c -161.9,142.1 -380.6,263.4 -599,390.9 v 1057.7 c 209.3,-337.1 435.1,-710.2 599,-1114.8 v -333.8"
         style="fill:#6dc6c1;fill-opacity:1;fill-rule:nonzero;stroke:none"
         id="path490" /><path
         d="m 43793,17645 c -255,0 -487.7,123.6 -710.6,247.2 -19.8,11 -39.6,22 -59.3,32.9 v 1698.3 h -599 v -1150.5 c -189.1,423.1 -276.4,789.9 -102.5,1150.5 h 1637.9 v 30.6 c 138.6,-219.1 229,-497.7 238.9,-818.6 14.4,-472.1 172.3,-593 387.3,-593 40.2,0 82.4,4.2 125.9,11.2 -192.6,-213.2 -360.3,-413.3 -514.9,-498.9 -141.3,-78.4 -275.3,-109.7 -403.7,-109.7"
         style="fill:#7acdc7;fill-opacity:1;fill-rule:nonzero;stroke:none"
         id="path492" /><path
         d="m 43959.5,19623.4 h -1637.9 c 22.5,46.4 49.2,92.8 80.6,139.1 195.9,288.9 452.7,417.5 710.6,417.5 317.8,0 637.2,-195.1 846.7,-526 v -30.6"
         style="fill:#6dc6c1;fill-opacity:1;fill-rule:nonzero;stroke:none"
         id="path494" /><path
         d="m 43023.1,17925.1 c -144.7,80.2 -285.7,155.6 -426.7,191.9 -62.7,123.3 -121.2,241.7 -172.3,355.9 v 1150.5 h 599 v -1698.3"
         style="fill:#6dc6c1;fill-opacity:1;fill-rule:nonzero;stroke:none"
         id="path496" /><path
         d="m 43272.6,14544.6 c -13.9,72.7 -42.4,139.3 -82.5,201.4 -41.2,179.1 -98.7,352.9 -167,521.5 v 2657.6 c 19.7,-10.9 39.5,-21.9 59.3,-32.9 222.9,-123.6 455.6,-247.2 710.6,-247.2 128.4,0 262.4,31.3 403.7,109.7 154.6,85.6 322.3,285.7 514.9,498.9 78.7,12.5 162.1,33.8 246.8,55.2 131.6,33.2 266.5,66.3 392.2,66.3 162.1,0 309,-55.1 414.2,-236.5 583.9,-1007.7 -664.5,-1254.1 -838.5,-3381.8 l -1653.7,-212.2 m -848.5,1837.7 c -125.5,202 -245.1,391.3 -341.9,566.5 111.6,31.1 230,52.1 341.9,73.8 v -640.3"
         style="fill:#73c9c4;fill-opacity:1;fill-rule:nonzero;stroke:none"
         id="path498" /><path
         d="m 43023.1,15267.5 c -163.9,404.6 -389.7,777.7 -599,1114.8 v 640.3 c 358.1,69.4 649.2,145.4 436.7,575 -90.7,183.6 -181.3,355.9 -264.4,519.4 141,-36.3 282,-111.7 426.7,-191.9 v -2657.6"
         style="fill:#6dc6c1;fill-opacity:1;fill-rule:nonzero;stroke:none"
         id="path500" /><path
         d="m 42619.3,14796 c -22.4,-294.3 -34.1,-599.4 -34.1,-912.1 0,-1375.8 227,-2603.8 582.4,-3409.1 h 1988 c 355.4,805.3 582.4,2033.3 582.4,3409.1 0,312.7 -11.7,617.8 -34,912.1 h -3084.7"
         style="fill:#31898c;fill-opacity:1;fill-rule:nonzero;stroke:none"
         id="path502" /><path
         d="m 42197.8,3680 h 2649.61 v 6824.9 H 42197.8 Z"
         style="fill:#6dc6c1;fill-opacity:1;fill-rule:nonzero;stroke:none"
         id="path504" /><path
         d="m 44812.1,3680 h 1517.8 v 6824.9 H 44812.1 V 3680"
         style="fill:#42abaa;fill-opacity:1;fill-rule:nonzero;stroke:none"
         id="path506" /><path
         d="m 38652.4,8900.9 c 282,324.5 606.7,173.4 958.7,22.4 340.3,-146.1 706.2,-292.2 1083.5,-8.3 341.1,256.6 415,1241.1 1162,1443.7 1155.9,313.5 1676,-619.7 1281.7,-1908.4 -394.4,-1288.8 -514.1,-1111.4 -767.6,-2380.3 l -2394.4,225.4 c -598.5,1345 -1911.9,1929 -1323.9,2605.5"
         style="fill:#42abaa;fill-opacity:1;fill-rule:nonzero;stroke:none"
         id="path508" /><path
         d="m 40228.7,6247.4 c -2.1,8.4 -4.5,16.7 -7.2,24.9 l 133,-12.5 -125.8,-12.4 m -448.6,425.8 c -583.3,306.2 -1497.8,531.8 -1345.4,1183.8 32.8,140.5 110.6,230.6 209.4,294.1 243.2,-386.4 754.6,-835.8 1136,-1477.9 m 449.3,2079.8 c -212.9,0 -420,85.1 -618.3,170.3 -79.7,34.1 -157.9,68.3 -234.6,97 -77.1,247 -156.4,458.4 -207.1,648.8 H 40368 v -903.4 c -46.4,-8.7 -92.7,-12.7 -138.6,-12.7 m 737.6,574.4 v 341.7 h 162.5 c -59.6,-116.1 -111.6,-233.5 -162.5,-341.7 m -599,992.2 h -1192.3 c 29.3,66.6 70.2,132.8 125,199.5 166,201.9 363,288.5 570,288.5 163,0 332.2,-53.7 497.3,-147 v -341"
         style="fill:#7dcfc8;fill-opacity:1;fill-rule:nonzero;stroke:none"
         id="path510" /><path
         d="m 40368,8765.7 v 903.4 h 599 v -341.7 c -83.9,-178.2 -164.8,-331.5 -272.4,-412.4 -109.9,-82.7 -218.9,-128.9 -326.6,-149.3 m 431.5,1553.9 h -267.8 -163.7 v 341 c 149.7,-84.6 296.1,-201.8 431.5,-341"
         style="fill:#5cbdb9;fill-opacity:1;fill-rule:nonzero;stroke:none"
         id="path512" /><path
         d="m 41129.5,9669.1 h -1960.1 c -64.2,240.8 -82.8,447.9 6.3,650.5 h 1356 267.8 c 149.2,-153.4 285.1,-333.7 397.4,-526.7 -23.6,-40.7 -46,-82.2 -67.4,-123.8"
         style="fill:#6dc6c1;fill-opacity:1;fill-rule:nonzero;stroke:none"
         id="path514" /><path
         d="m 40354.5,6259.8 -133,12.5 c -53.5,162.1 -224.5,287.1 -441.4,400.9 -381.4,642.1 -892.8,1091.5 -1136,1477.9 345.8,222.2 948.8,118.7 780.4,708.9 -15.7,55.1 -31.8,108.5 -48,160.3 76.7,-28.7 154.9,-62.9 234.6,-97 198.3,-85.2 405.4,-170.3 618.3,-170.3 45.9,0 92.2,4 138.6,12.7 107.7,20.4 216.7,66.6 326.6,149.3 107.6,80.9 188.5,234.2 272.4,412.4 50.9,108.2 102.9,225.6 162.5,341.7 21.4,41.6 43.8,83.1 67.4,123.8 6.4,-10.9 12.6,-21.8 18.8,-32.8 202.6,-359 422.7,-447.4 642.6,-447.4 106.8,0 213.5,20.8 318.1,41.7 104.5,20.8 207,41.6 305.4,41.6 146.1,0 283,-46 404,-206.3 622.6,-825 -708.4,-1026.7 -894,-2768.6 l -1637.3,-161.3"
         style="fill:#5cbdb9;fill-opacity:1;fill-rule:nonzero;stroke:none"
         id="path516" /><path
         d="m 39152.9,6680.4 c -26.7,-204.3 -40.8,-416.2 -40.8,-633.3 0,-955.3 271.8,-1807.9 697.1,-2367.1 h 2379.5 c 425.4,559.2 697.1,1411.8 697.1,2367.1 0,217.1 -14.1,429 -40.8,633.3 h -3692.1"
         style="fill:#31898c;fill-opacity:1;fill-rule:nonzero;stroke:none"
         id="path518" /><path
         d="M 7196.57,3680 H 4295.08 V 14147.3 H 7196.57 V 3680"
         style="fill:#42abaa;fill-opacity:1;fill-rule:nonzero;stroke:none"
         id="path520" /><path
         d="M 4333.73,3680 H 2671.59 V 14147.3 H 4333.73 V 3680"
         style="fill:#6dc6c1;fill-opacity:1;fill-rule:nonzero;stroke:none"
         id="path522" /><path
         d="m 6186.87,19902.8 c -87.93,231 -222.55,445.7 -275.79,687.1 -128.43,582.4 236.34,1148.9 345.64,1735.2 78.41,420.7 20.78,865.7 -162.23,1252.5 -165.9,350.7 -433.41,660.7 -508.41,1041.4 -61.79,313.6 15.54,636.8 9.25,956.4 -6.27,319.5 -138.02,681 -440.89,783.3 -366.72,123.8 -739.96,-212.5 -878.62,-573.8 -138.67,-361.4 -143.73,-766.8 -308.59,-1117 -142.26,-302.2 -400,-555.9 -456.94,-885 -75.8,-438.1 227.95,-861.4 215.98,-1305.8 -17.65,-655 -701.86,-1153.1 -704.83,-1808.3 -3.47,-768.2 932.14,-1374.5 753.18,-2121.6 l 704,-203.7 122.42,-81.6 45.28,21.5 c 456.47,-93.8 931.69,-95.3 1388.73,-4.4 294.3,479.9 352.05,1097.6 151.82,1623.8"
         style="fill:#6dc6c1;fill-opacity:1;fill-rule:nonzero;stroke:none"
         id="path524" /><path
         d="m 3870.66,17987.1 -685.38,205.4 c 245.57,579 -80.6,1228 -398.08,1770.8 -317.47,542.8 -644.77,1190.8 -401.23,1770.6 134.37,319.9 433.23,668.1 243.82,958.8 -66.97,102.7 -182.08,163 -265.35,253 -264.18,285.4 -132.04,745.8 47.26,1091 179.31,345.1 398.05,735.8 258.96,1099 -107.68,281.2 -416.75,572.6 -242.68,818.3 54.23,76.6 135.59,109.2 223.83,109.2 154.25,0 329.46,-99.7 417.07,-238.4 137.72,-217.9 160.49,-492.2 291.86,-714 134.64,-227.4 374.23,-384.7 523.36,-597 -142.79,-238.7 -326.79,-459.1 -373.81,-730.9 -75.8,-438.1 227.95,-861.4 215.98,-1305.8 -17.65,-655 -701.86,-1153.1 -704.83,-1808.3 -3.47,-768.2 932.14,-1374.5 753.18,-2121.6 l 149.45,-43.2 c -17.81,-172.3 -35.61,-344.6 -53.41,-516.9"
         style="fill:#94d8d1;fill-opacity:1;fill-rule:nonzero;stroke:none"
         id="path526" /><path
         d="m 3924.07,18504 -149.45,43.2 c 178.96,747.1 -756.65,1353.4 -753.18,2121.6 2.97,655.2 687.18,1153.3 704.83,1808.3 11.97,444.4 -291.78,867.7 -215.98,1305.8 47.02,271.8 231.02,492.2 373.81,730.9 37.89,-53.9 69.94,-111.4 92.95,-174.5 171.13,-469.2 -241.42,-975.2 -159.3,-1467.8 56.01,-336.2 332.65,-600.1 406.07,-932.9 37.21,-168.7 19.64,-343.9 1.89,-515.7 -100.54,-972.9 -201.09,-1946 -301.64,-2918.9"
         style="fill:#6dc6c1;fill-opacity:1;fill-rule:nonzero;stroke:none"
         id="path528" /><path
         d="m 4276.24,18040 c -60.56,126.6 -102.04,260.8 -125.36,398.4 l 327.74,-94.9 122.42,-81.6 45.28,21.5 c 231.83,-47.6 468.54,-71.5 705.21,-71.5 166.52,0 333,11.8 497.84,35.4 -36.7,-55.5 -68.34,-114.3 -93.04,-177.5 L 4276.24,18040 m 2269.08,938.8 v 644.6 h 208.59 c 38.96,-217.2 -62.02,-452.9 -208.59,-644.6 m 733.48,2216.6 H 5925 c 81.14,374.7 260.56,748 331.72,1129.7 40.17,215.5 44.63,437.5 14.82,654.7 91.48,124.3 209.89,229 346.09,301.8 98.64,52.7 216.05,85.6 328.22,85.6 117.66,0 229.56,-36.2 307.86,-123.6 12.97,-14.5 24.46,-29.7 34.57,-45.5 -20.7,-181.4 -24.01,-364 -7.03,-549.9 -6.9,-17.1 -14.15,-34 -21.66,-50.5 -94.77,-207.7 -226.75,-415.7 -208.39,-643.2 21.36,-264.6 244.8,-508.9 227.6,-759.1"
         style="fill:#94d8d1;fill-opacity:1;fill-rule:nonzero;stroke:none"
         id="path530" /><path
         d="m 6200.43,18629.6 c 110.04,317.2 133.95,664.8 67.15,993.8 h 277.74 v -644.6 c -35.98,-47 -74.73,-91.4 -114.81,-132.3 -73.14,-74.4 -152.07,-145.3 -230.08,-216.9"
         style="fill:#55b9b5;fill-opacity:1;fill-rule:nonzero;stroke:none"
         id="path532" /><path
         d="m 6753.91,19623.4 h -486.33 c -19.29,95 -46.16,188.6 -80.71,279.4 -87.93,231 -222.55,445.7 -275.79,687.1 -44.82,203.2 -29.57,404.6 13.92,605.5 h 1353.8 c -2.13,-30.9 -7.92,-61.9 -18.22,-93.1 -66.41,-200.7 -288.17,-295.5 -478.9,-386.7 -190.71,-91.2 -397.48,-246.6 -380.59,-457.3 15.33,-191.7 207.91,-314.3 299.67,-483.3 26.56,-48.9 43.84,-99.7 53.15,-151.6"
         style="fill:#55b9b5;fill-opacity:1;fill-rule:nonzero;stroke:none"
         id="path534" /><path
         d="m 7281.25,22648.2 c -16.98,185.9 -13.67,368.5 7.03,549.9 99.19,-155.1 65.56,-369.2 -7.03,-549.9"
         style="fill:#4b8da4;fill-opacity:1;fill-rule:nonzero;stroke:none"
         id="path536" /><path
         d="m 5351.53,18211.9 c -236.67,0 -473.38,23.9 -705.21,71.5 l -45.28,-21.5 -122.42,81.6 -327.74,94.9 c -91.22,538 95.41,1125.5 505.18,1490.3 136.87,121.9 312.23,260.5 283.4,441.5 -9.99,62.8 -44.75,118.4 -74,174.9 -155.29,300.2 -159.81,673.9 -11.81,977.8 148.02,303.9 445,530.7 777.12,593.5 112.36,21.2 236.21,28.3 321.86,104.1 101.31,89.6 111.68,240.1 141.23,372.1 31.27,139.7 92.91,271.9 177.68,387.2 29.81,-217.2 25.35,-439.2 -14.82,-654.7 -71.16,-381.7 -250.58,-755 -331.72,-1129.7 -43.49,-200.9 -58.74,-402.3 -13.92,-605.5 53.24,-241.4 187.86,-456.1 275.79,-687.1 34.55,-90.8 61.42,-184.4 80.71,-279.4 66.8,-329 42.89,-676.6 -67.15,-993.8 -129.81,-119.2 -257.08,-240.1 -351.06,-382.3 -164.84,-23.6 -331.32,-35.4 -497.84,-35.4"
         style="fill:#6dc6c1;fill-opacity:1;fill-rule:nonzero;stroke:none"
         id="path538" /><path
         d="m 6505.88,18975.9 c 24.93,-328.8 38.03,-669.7 38.03,-1019.1 0,-1537 -253.64,-2909 -650.68,-3808.8 H 3672.11 c -397.03,899.8 -650.67,2271.8 -650.67,3808.8 0,349.4 13.11,690.3 38.02,1019.1 h 3446.42"
         style="fill:#31898c;fill-opacity:1;fill-rule:nonzero;stroke:none"
         id="path540" /></g></g></svg>
