<?xml version="1.0" encoding="UTF-8" standalone="no"?>
<svg
   xmlns:dc="http://purl.org/dc/elements/1.1/"
   xmlns:cc="http://creativecommons.org/ns#"
   xmlns:rdf="http://www.w3.org/1999/02/22-rdf-syntax-ns#"
   xmlns:svg="http://www.w3.org/2000/svg"
   xmlns="http://www.w3.org/2000/svg"
   xmlns:sodipodi="http://sodipodi.sourceforge.net/DTD/sodipodi-0.dtd"
   xmlns:inkscape="http://www.inkscape.org/namespaces/inkscape"
   version="1.1"
   id="svg2"
   xml:space="preserve"
   width="6629.4268"
   height="6629.4268"
   viewBox="0 0 6629.4268 6629.4268"
   sodipodi:docname="vectorstock_27931633.eps"><metadata
     id="metadata8"><rdf:RDF><cc:Work
         rdf:about=""><dc:format>image/svg+xml</dc:format><dc:type
           rdf:resource="http://purl.org/dc/dcmitype/StillImage" /></cc:Work></rdf:RDF></metadata><defs
     id="defs6"><clipPath
       clipPathUnits="userSpaceOnUse"
       id="clipPath426"><path
         d="m 23441.4,16313.3 c -5.5,0 -10.9,0.1 -16.3,0.2 -336.6,8 -553.7,260.8 -484.9,564.7 67.6,298.9 386.8,536 717.6,536 5.4,0 10.8,-0.1 16.3,-0.2 336.5,-7.9 553.7,-260.8 484.9,-564.7 -67.7,-298.9 -386.8,-536 -717.6,-536"
         id="path424" /></clipPath></defs><sodipodi:namedview
     bordercolor="#666666"
     borderopacity="1"
     objecttolerance="10"
     gridtolerance="10"
     guidetolerance="10"
     inkscape:pageopacity="0"
     inkscape:pageshadow="2"
     inkscape:window-width="640"
     inkscape:window-height="480"
     id="namedview4" /><g
     id="g10"
     inkscape:groupmode="layer"
     inkscape:label="ink_ext_XXXXXX"
     transform="matrix(1.3333333,0,0,-1.3333333,0,6629.4267)"><g
       id="g12"
       transform="scale(0.1)"><path
         d="m 3729.2,25630.1 h 85 c 0.01,266.8 54.01,520.4 151.64,751.3 146.43,346.2 391.27,641.1 699.35,849.2 308.14,208.1 679.03,329.5 1079.04,329.6 266.71,0 520.37,-54 751.23,-151.7 346.25,-146.4 641.1,-391.2 849.22,-699.3 208.11,-308.2 329.54,-679 329.57,-1079.1 -0.01,-266.7 -54,-520.3 -151.63,-751.2 -146.44,-346.2 -391.27,-641.1 -699.36,-849.2 -308.14,-208.1 -679.01,-329.5 -1079.03,-329.6 -266.72,0 -520.37,54 -751.23,151.6 -346.24,146.5 -641.11,391.3 -849.23,699.4 -208.11,308.2 -329.53,679 -329.57,1079 h -85 -85 c -0.02,-289.7 58.76,-566.1 165.07,-817.4 159.46,-377 425.63,-697.5 760.75,-923.9 335.06,-226.4 739.57,-358.7 1174.21,-358.7 289.71,0 566.16,58.8 817.44,165.1 376.99,159.5 697.46,425.6 923.89,760.7 226.42,335.1 358.73,739.6 358.69,1174.2 0.02,289.8 -58.76,566.2 -165.07,817.5 -159.46,377 -425.62,697.5 -760.75,923.9 -335.06,226.4 -739.57,358.7 -1174.2,358.7 -289.72,0 -566.16,-58.8 -817.45,-165.1 -376.99,-159.5 -697.46,-425.6 -923.88,-760.7 -226.42,-335.1 -358.74,-739.6 -358.7,-1174.3 h 85"
         style="fill:#ffffff;fill-opacity:1;fill-rule:nonzero;stroke:none"
         id="path14" /><path
         d="m 5239.27,26417 h 1697.87 c 46.94,0 85,38.1 85,85 0,46.9 -38.06,85 -85,85 H 5239.27 c -46.95,0 -85,-38.1 -85,-85 0,-46.9 38.05,-85 85,-85"
         style="fill:#ffffff;fill-opacity:1;fill-rule:nonzero;stroke:none"
         id="path16" /><path
         d="m 5239.27,25809 h 2053.51 c 46.93,0 84.98,38 84.98,85 0,46.9 -38.05,85 -84.98,85 H 5239.27 c -46.95,0 -85,-38.1 -85,-85 0,-47 38.05,-85 85,-85"
         style="fill:#ffffff;fill-opacity:1;fill-rule:nonzero;stroke:none"
         id="path18" /><path
         d="m 5239.27,25201 h 1456.96 c 46.93,0 85,38 85,85 0,46.9 -38.07,84.9 -85,84.9 H 5239.27 c -46.95,0 -85,-38 -85,-84.9 0,-47 38.05,-85 85,-85"
         style="fill:#ffffff;fill-opacity:1;fill-rule:nonzero;stroke:none"
         id="path20" /><path
         d="m 5239.27,24592.9 h 1147.21 c 46.94,0 84.99,38.1 84.99,85 0,47 -38.05,85 -84.99,85 H 5239.27 c -46.95,0 -85,-38 -85,-85 0,-46.9 38.05,-85 85,-85"
         style="fill:#ffffff;fill-opacity:1;fill-rule:nonzero;stroke:none"
         id="path22" /><path
         d="m 4585.23,26500.6 h 84.99 c 0.01,7.1 1.39,13.4 3.87,19.3 3.71,8.8 10.12,16.6 18.09,21.9 8.02,5.4 17.12,8.4 27.7,8.5 7.1,-0.1 13.41,-1.4 19.31,-3.9 8.8,-3.7 16.55,-10.1 21.92,-18.1 5.36,-8 8.39,-17.1 8.42,-27.7 -0.01,-7.1 -1.38,-13.4 -3.87,-19.3 -3.69,-8.8 -10.1,-16.6 -18.08,-21.9 -8.03,-5.4 -17.12,-8.4 -27.7,-8.5 -7.09,0.1 -13.4,1.4 -19.3,3.9 -8.8,3.7 -16.56,10.1 -21.92,18.1 -5.37,8 -8.4,17.1 -8.44,27.7 h -84.99 -85 c -0.01,-30.1 6.14,-59.2 17.29,-85.5 16.74,-39.6 44.47,-72.9 79.49,-96.6 34.96,-23.7 77.68,-37.6 122.87,-37.6 30.1,0 59.2,6.2 85.53,17.3 39.53,16.8 72.9,44.5 96.56,79.5 23.68,35 37.6,77.7 37.57,122.9 0.01,30.1 -6.15,59.2 -17.3,85.5 -16.73,39.5 -44.48,72.9 -79.49,96.6 -34.95,23.7 -77.67,37.6 -122.87,37.5 -30.09,0.1 -59.19,-6.1 -85.52,-17.2 -39.53,-16.8 -72.9,-44.5 -96.56,-79.5 -23.68,-35 -37.61,-77.7 -37.57,-122.9 h 85"
         style="fill:#ffffff;fill-opacity:1;fill-rule:nonzero;stroke:none"
         id="path24" /><path
         d="m 4585.23,25894.6 h 84.99 c 0.01,7.1 1.39,13.5 3.87,19.4 3.71,8.8 10.12,16.5 18.09,21.9 8.02,5.3 17.12,8.4 27.7,8.4 7.1,0 13.41,-1.4 19.31,-3.9 8.8,-3.7 16.55,-10.1 21.92,-18 5.36,-8.1 8.39,-17.2 8.42,-27.8 -0.01,-7 -1.38,-13.4 -3.87,-19.3 -3.69,-8.8 -10.1,-16.5 -18.08,-21.9 -8.03,-5.3 -17.12,-8.4 -27.7,-8.4 -7.09,0 -13.4,1.4 -19.3,3.9 -8.8,3.7 -16.56,10.1 -21.92,18 -5.37,8.1 -8.4,17.2 -8.44,27.7 h -84.99 -85 c -0.01,-30 6.14,-59.2 17.29,-85.5 16.74,-39.5 44.47,-72.9 79.49,-96.5 34.96,-23.7 77.68,-37.6 122.87,-37.6 30.1,0 59.2,6.1 85.53,17.3 39.53,16.7 72.9,44.5 96.56,79.5 23.68,34.9 37.6,77.7 37.57,122.8 0.01,30.1 -6.15,59.2 -17.3,85.6 -16.73,39.5 -44.48,72.9 -79.49,96.5 -34.95,23.7 -77.67,37.6 -122.87,37.6 -30.09,0 -59.19,-6.1 -85.52,-17.3 -39.53,-16.7 -72.9,-44.5 -96.56,-79.5 -23.68,-34.9 -37.61,-77.7 -37.57,-122.9 h 85"
         style="fill:#ffffff;fill-opacity:1;fill-rule:nonzero;stroke:none"
         id="path26" /><path
         d="m 4585.23,25288.7 h 84.99 c 0.01,7.1 1.39,13.4 3.87,19.3 3.71,8.8 10.12,16.6 18.09,21.9 8.02,5.4 17.12,8.4 27.7,8.5 7.1,-0.1 13.41,-1.4 19.31,-3.9 8.8,-3.7 16.54,-10.1 21.92,-18.1 5.36,-8 8.39,-17.1 8.42,-27.7 -0.01,-7.1 -1.38,-13.4 -3.87,-19.3 -3.69,-8.8 -10.1,-16.6 -18.07,-21.9 -8.04,-5.4 -17.13,-8.4 -27.71,-8.5 -7.09,0 -13.4,1.4 -19.3,3.9 -8.8,3.7 -16.56,10.1 -21.92,18.1 -5.37,8 -8.4,17.1 -8.44,27.7 h -84.99 -85 c -0.01,-30.1 6.14,-59.2 17.29,-85.5 16.74,-39.6 44.49,-72.9 79.49,-96.6 34.96,-23.7 77.68,-37.6 122.87,-37.6 30.1,0 59.2,6.2 85.53,17.3 39.53,16.8 72.89,44.5 96.56,79.5 23.68,35 37.6,77.7 37.57,122.9 0.01,30.1 -6.15,59.2 -17.3,85.5 -16.73,39.6 -44.48,72.9 -79.49,96.6 -34.95,23.7 -77.67,37.6 -122.87,37.6 -30.09,0 -59.19,-6.2 -85.52,-17.3 -39.53,-16.8 -72.9,-44.5 -96.58,-79.5 -23.66,-35 -37.59,-77.7 -37.55,-122.9 h 85"
         style="fill:#ffffff;fill-opacity:1;fill-rule:nonzero;stroke:none"
         id="path28" /><path
         d="m 4585.23,24682.7 h 84.99 c 0.01,7.1 1.39,13.5 3.87,19.3 3.71,8.8 10.12,16.6 18.09,22 8.02,5.3 17.12,8.4 27.7,8.4 7.1,0 13.41,-1.4 19.31,-3.9 8.8,-3.7 16.55,-10.1 21.92,-18.1 5.36,-8 8.39,-17.1 8.42,-27.7 -0.01,-7 -1.38,-13.4 -3.87,-19.3 -3.69,-8.8 -10.1,-16.5 -18.08,-21.9 -8.03,-5.4 -17.12,-8.4 -27.7,-8.4 -7.09,0 -13.4,1.4 -19.3,3.9 -8.8,3.7 -16.56,10.1 -21.92,18 -5.37,8.1 -8.4,17.2 -8.44,27.7 h -84.99 -85 c -0.01,-30 6.14,-59.2 17.29,-85.5 16.74,-39.5 44.47,-72.9 79.49,-96.5 34.96,-23.7 77.68,-37.7 122.87,-37.6 30.1,0 59.2,6.1 85.53,17.3 39.53,16.7 72.9,44.5 96.56,79.5 23.68,34.9 37.6,77.6 37.57,122.8 0.01,30.1 -6.15,59.2 -17.3,85.6 -16.73,39.5 -44.48,72.9 -79.49,96.5 -34.95,23.7 -77.67,37.6 -122.87,37.6 -30.09,0 -59.19,-6.1 -85.52,-17.3 -39.53,-16.7 -72.9,-44.5 -96.56,-79.5 -23.68,-34.9 -37.61,-77.7 -37.57,-122.9 h 85"
         style="fill:#ffffff;fill-opacity:1;fill-rule:nonzero;stroke:none"
         id="path30" /><path
         d="M 0,0 H 49720.7 V 49720.7 H 0 Z"
         style="fill:#ffffff;fill-opacity:1;fill-rule:nonzero;stroke:none"
         id="path32" /><path
         d="M 24845.6,1044.2 C 11551.1,1044.2 773.809,11821.5 773.809,25116 c 0,13294.5 10777.291,24071.8 24071.791,24071.8 6958.8,0 13227.9,-2952.8 17622.7,-7673.8 H 10121.7 c -856.13,0 -1684.85,-676 -1881.39,-1522.2 -0.01,-0.1 -0.02,-0.1 -0.02,-0.1 -0.52,-2.3 -1.02,-4.4 -1.53,-6.7 -0.04,-0.1 -0.08,-0.3 -0.12,-0.5 -0.2,-0.9 -0.42,-1.8 -0.62,-2.7 -0.04,-0.2 -0.09,-0.4 -0.13,-0.6 -0.47,-2.1 -0.95,-4.2 -1.41,-6.3 -0.06,-0.3 -0.13,-0.6 -0.19,-0.9 -0.18,-0.8 -0.36,-1.6 -0.53,-2.4 -0.06,-0.2 -0.12,-0.5 -0.18,-0.8 -0.22,-1 -0.45,-2 -0.67,-3 -0.04,-0.2 -0.08,-0.4 -0.13,-0.6 -0.18,-0.9 -0.37,-1.8 -0.56,-2.6 -0.05,-0.3 -0.11,-0.5 -0.17,-0.8 -0.19,-0.9 -0.38,-1.8 -0.57,-2.7 -0.04,-0.2 -0.07,-0.3 -0.1,-0.5 -0.24,-1.1 -0.46,-2.1 -0.7,-3.3 -0.01,0 -0.03,-0.1 -0.05,-0.2 -0.21,-1 -0.41,-2 -0.62,-3 -0.04,-0.2 -0.08,-0.3 -0.12,-0.5 -0.22,-1.1 -0.42,-2.1 -0.64,-3.1 -0.01,-0.1 -0.02,-0.1 -0.03,-0.1 -0.23,-1.2 -0.45,-2.3 -0.68,-3.4 -0.02,-0.1 -0.04,-0.2 -0.06,-0.3 -0.21,-1 -0.41,-2 -0.62,-3 -0.03,-0.2 -0.05,-0.3 -0.08,-0.4 -0.44,-2.2 -0.88,-4.4 -1.31,-6.6 -0.04,-0.1 -0.07,-0.3 -0.11,-0.5 -0.18,-0.9 -0.35,-1.8 -0.52,-2.7 -0.05,-0.2 -0.1,-0.5 -0.14,-0.7 -0.21,-1.1 -0.42,-2.1 -0.62,-3.2 v 0 c 0,0 -0.29,-1.4 -0.84,-4.3 l -0.04,-0.2 c -0.28,-1.4 -0.62,-3.2 -1.02,-5.3 l -0.1,-0.5 c -0.18,-0.9 -0.37,-1.9 -0.57,-2.9 l -0.12,-0.6 c -0.09,-0.5 -0.19,-1 -0.29,-1.5 l -0.1,-0.6 c -0.03,-0.2 -0.07,-0.3 -0.1,-0.5 l -0.8,-4.1 c -0.02,-0.1 -0.03,-0.2 -0.05,-0.3 l -0.67,-3.4 c 0,-0.1 -0.01,-0.1 -0.02,-0.1 l -188.03,-971.5 c -3.4,-17.6 -6.86,-35.4 -10.34,-53.4 v 0 l -4298.84,-22209 c -0.06,-0.3 -0.11,-0.6 -0.17,-0.9 l -0.18,-0.9 c -0.03,-0.2 -0.05,-0.3 -0.08,-0.4 l -0.54,-2.8 c -0.01,-0.1 -0.02,-0.2 -0.04,-0.2 l -0.16,-0.8 c -0.03,-0.2 -0.07,-0.4 -0.11,-0.6 l -2.11,-10.9 c -0.02,-0.2 -0.05,-0.3 -0.07,-0.4 l -0.99,-5.1 c -0.01,-0.1 -0.02,-0.1 -0.03,-0.2 l -0.67,-3.4 c -0.11,-0.6 -0.21,-1.1 -0.32,-1.7 l -0.13,-0.7 c -0.03,-0.1 -0.06,-0.3 -0.09,-0.4 l -0.56,-2.9 c -0.04,-0.2 -0.07,-0.4 -0.11,-0.6 l -0.11,-0.5 c -0.11,-0.6 -0.23,-1.2 -0.34,-1.8 l -0.09,-0.4 c -0.11,-0.6 -0.22,-1.2 -0.33,-1.7 l -0.08,-0.5 c -0.05,-0.2 -0.09,-0.5 -0.14,-0.7 l -0.05,-0.3 c -0.04,-0.1 -0.06,-0.3 -0.09,-0.4 l -0.15,-0.8 c -0.09,-0.4 -0.18,-0.9 -0.27,-1.4 l -0.08,-0.4 c -0.11,-0.6 -0.22,-1.1 -0.32,-1.7 l -0.05,-0.2 c -0.22,-1.2 -0.44,-2.3 -0.65,-3.4 l -0.05,-0.3 c -2.69,-13.8 -4.06,-20.9 -4.06,-20.9 v 0 0 c -14.78,-76.4 -23.9,-151.5 -27.65,-224.9 -168.71,-874.9 928.56,-1903.6 1805.34,-1903.6 H 22897.7 l 893.5,-2359.4 H 4587.76 C 8869.28,5456 16343.3,1044.8 24848.2,1044.2 c -0.8,0 -1.8,0 -2.6,0 m 20262.5,11071 h -8599.7 v 1005.4 H 30155 v -429.8 l -675.4,1783.8 h 12297.2 c 877,0 1725.3,709.3 1894.6,1584.4 l 3499,18076.8 c 1126.8,-2785.8 1746.9,-5830.1 1746.9,-9019.8 0,-4789.1 -1398.3,-9251.2 -3809.2,-13000.8"
         style="fill:#c7ece8;fill-opacity:1;fill-rule:nonzero;stroke:none"
         id="path34" /><path
         d="m 37900.2,42275.6 c 10.6,58.2 16.2,118.2 16.2,179.6 0,537.5 -428.5,973.4 -957.8,975 -283.3,501.3 -814.7,839.8 -1424.9,839.8 -553.2,0 -1042.2,-277.6 -1339.6,-703.1 -248.3,-355.2 -688.9,-506.4 -1097.2,-372.6 -158.5,52 -327.5,80 -503.1,80 -673.1,0 -1251.6,-410.7 -1505.5,-998.7 h 6811.9"
         style="fill:#ffffff;fill-opacity:1;fill-rule:nonzero;stroke:none"
         id="path36" /><path
         d="m 16100.1,12895.8 c 14.3,77.7 21.7,157.8 21.7,239.7 0,717.4 -571.9,1299 -1278.2,1301.2 -378.1,669.1 -1087.2,1120.8 -1901.6,1120.8 -738.3,0 -1390.9,-370.6 -1787.8,-938.4 -331.4,-474 -919.3,-675.8 -1464.27,-497.2 -211.48,69.3 -437.07,106.8 -671.45,106.8 -898.18,0 -1670.21,-548.2 -2009.07,-1332.9 h 9090.69"
         style="fill:#ffffff;fill-opacity:1;fill-rule:nonzero;stroke:none"
         id="path38" /><path
         d="m 44686.1,35703.7 c 18.1,98.4 27.5,200 27.5,303.8 0,909.3 -724.9,1646.5 -1620.1,1649.3 -479.3,848 -1378.1,1420.6 -2410.4,1420.6 -935.8,0 -1762.9,-469.7 -2266,-1189.4 -420,-600.8 -1165.3,-856.6 -1856,-630.2 -268.1,87.8 -554,135.3 -851.1,135.3 -1138.5,0 -2117,-694.8 -2546.5,-1689.4 h 11522.6"
         style="fill:#ffffff;fill-opacity:1;fill-rule:nonzero;stroke:none"
         id="path40" /><path
         d="m 23136.4,44270 c 14.7,80.2 22.4,162.8 22.4,247.3 0,740.1 -590,1340.1 -1318.6,1342.3 -390.1,690.2 -1121.6,1156.2 -1961.7,1156.2 -761.7,0 -1434.9,-382.2 -1844.3,-968 -341.9,-489 -948.4,-697.2 -1510.6,-512.9 -218.2,71.5 -450.9,110.2 -692.7,110.2 -926.5,0 -1723,-565.6 -2072.5,-1375.1 h 9378"
         style="fill:#ffffff;fill-opacity:1;fill-rule:nonzero;stroke:none"
         id="path42" /><path
         d="m 24850.3,1044.2 c -0.5,0 -1.6,0 -2.1,0 3047.7,0.3 5962.2,566.7 8645.7,1600.3 h 4.7 C 30814.5,1610.8 27898.7,1044.2 24850.3,1044.2 m 11658.1,3006.4 v 2.6 c 3489.7,1936.5 6448.2,4715.8 8599.7,8062 h 4.8 C 42960.2,8767.1 40000.5,5987.3 36508.4,4050.6"
         style="fill:#c6ebe7;fill-opacity:1;fill-rule:nonzero;stroke:none"
         id="path44" /><path
         d="M 24848.2,1044.2 C 16343.3,1044.8 8869.28,5456 4587.76,12115.2 H 23791.2 l 663.5,-1752.3 H 30155 V 8221.8 c -94.4,131.6 -220.1,243.3 -387.4,333.1 -186.7,100.2 -366.8,145.6 -533.8,145.6 -791.3,0 -1288.1,-1017.7 -793.8,-2036.8 279.7,-576.7 92.4,-759.2 -211.4,-861.4 -315.4,116.4 -664.5,233 -1002.5,233 -160.7,0 -318.7,-26.3 -469.5,-91.5 -276.8,-119.6 -485.3,-329.3 -620.1,-582 -45.2,-36.2 -88.8,-79.4 -130.4,-130 -344.6,-419.3 -127.9,-816.6 73.9,-1462.9 -111.5,41.7 -219.7,71.5 -323.9,71.5 -134.7,0 -262.7,-49.8 -382.8,-188 -210.7,-242.4 -171.3,-472.6 -8.1,-731.9 -93.8,-60.3 -168.3,-145.2 -201.7,-276 h 4000.7 v 0 h 399.3 v 0 h 2207.9 v 0 h 1722.5 c -2683.5,-1033.6 -5598,-1600 -8645.7,-1600.3 m 11660.2,3009 v 8062 h 8599.7 C 42956.6,8769 39998.1,5989.7 36508.4,4053.2"
         style="fill:#a1ddd6;fill-opacity:1;fill-rule:nonzero;stroke:none"
         id="path46" /><path
         d="m 22737,17969.5 c 43.7,225.9 262.7,409 489.1,409 226.4,0 374.5,-183.1 330.8,-409 -43.7,-226 -262.7,-409.1 -489.1,-409.1 -226.5,0 -374.6,183.1 -330.8,409.1"
         style="fill:#a7e1db;fill-opacity:1;fill-rule:nonzero;stroke:none"
         id="path48" /><path
         d="M 31036.5,10362.9 H 24454.7 L 20527.1,20735 H 27109 l 3927.5,-10372.1"
         style="fill:#42abaa;fill-opacity:1;fill-rule:nonzero;stroke:none"
         id="path50" /><path
         d="M 32965.3,10362.9 H 14670.8 v 463.7 h 18294.5 v -463.7"
         style="fill:#42abaa;fill-opacity:1;fill-rule:nonzero;stroke:none"
         id="path52" /><path
         d="M 46905.3,40969.8 H 10618.1 c -876.99,0 -1725.24,-709.3 -1894.61,-1584.3 L 3684.41,16378.9 c -169.36,-875.1 928.22,-1904.3 1805.21,-1904.3 H 41776.8 c 877,0 1725.3,709.3 1894.6,1584.4 l 4515.2,23326.5 c 72.7,375.9 8.4,721.2 -158.3,992.9 -64.4,104.9 -663.8,762.8 -756.7,843.3 -226.4,196 -11.6,-251.9 -366.3,-251.9"
         style="fill:#42abaa;fill-opacity:1;fill-rule:nonzero;stroke:none"
         id="path54" /><path
         d="M 46408.9,41514 H 10121.7 c -877,0 -1725.24,-709.4 -1894.62,-1584.4 L 3711.93,16603.1 c -169.36,-875 559.42,-1125.8 1436.42,-1125.8 l 35980.75,204.6 c 877,0 1876.5,46.2 2045.9,921.2 l 4515.2,23326.5 c 169.3,875 -404.3,1584.4 -1281.3,1584.4"
         style="fill:#42abaa;fill-opacity:1;fill-rule:nonzero;stroke:none"
         id="path56" /><path
         d="m 8252.14,40039.6 c -9.54,-36.3 -17.91,-73 -25.06,-110 0,0 -74.01,-382.4 -203.09,-1049.2 H 47487.1 c 129,666.8 203.1,1049.2 203.1,1049.2 7.1,37 12.9,73.7 17.5,110 H 8252.14"
         style="fill:#abe3e1;fill-opacity:1;fill-rule:nonzero;stroke:none"
         id="path58" /><path
         d="m 47665.3,39801.3 c 16.3,84.3 24.9,128.3 24.9,128.3 169.3,875 -404.3,1584.4 -1281.3,1584.4 H 10121.7 c -877,0 -1725.25,-709.4 -1894.62,-1584.4 0,0 -8.52,-44 -24.83,-128.3 H 47665.3"
         style="fill:#64cbc2;fill-opacity:1;fill-rule:nonzero;stroke:none"
         id="path60" /><path
         d="m 43582.6,18708.8 c -250.7,-1295.4 -407.6,-2105.7 -407.6,-2105.7 -169.4,-875 -1017.6,-1584.4 -1894.6,-1584.4 H 4993.21 c -877,0 -1450.64,709.4 -1281.28,1584.4 0,0 156.85,810.3 407.58,2105.7 H 43582.6"
         style="fill:#64cbc2;fill-opacity:1;fill-rule:nonzero;stroke:none"
         id="path62" /><path
         d="M 22571.3,38601.5 C 18552,38601.5 8161.08,37277 8161.08,37277 L 4742.1,19175.7 c 0,0 10390.9,1324.5 14410.3,1324.5 4019.3,0 4257.9,-923.6 4257.9,-923.6 l 3419,18101.3 c 0,0 -238.6,923.6 -4258,923.6"
         style="fill:#abe3e1;fill-opacity:1;fill-rule:nonzero;stroke:none"
         id="path64" /><path
         d="m 22809.9,40159.9 c -4019.3,0 -13763.07,-2542.8 -13763.07,-2542.8 L 5627.85,19515.8 c 0,0 9743.75,2542.8 13763.15,2542.8 4019.3,0 4225.5,-2220.6 4225.5,-2220.6 l 3419,18101.3 c 0,0 -206.2,2220.6 -4225.6,2220.6"
         style="fill:#ffffff;fill-opacity:1;fill-rule:nonzero;stroke:none"
         id="path66" /><path
         d="m 46214.1,37389.4 c -5403.7,-340.1 -7373.7,497.6 -12993.1,1862 -3646.7,885.5 -5771,-1866.1 -5771,-1866.1 L 24103,19664.7 c 0,0 2059.1,2398.5 5699,1485.4 6028.8,-1512.2 7589.4,-2202.1 12993.1,-1862 l 3419,18101.3"
         style="fill:#abe3e1;fill-opacity:1;fill-rule:nonzero;stroke:none"
         id="path68" /><path
         d="m 45297.4,37673.3 c -5403.7,-340.1 -6807.1,1284.1 -12426.5,2648.5 -3646.8,885.4 -5653.5,-2413.3 -5653.5,-2413.3 l -3419,-18101.3 c 0,0 2013.6,3326.3 5653.5,2413.3 6028.8,-1512.2 7022.8,-2988.5 12426.5,-2648.5 l 3419,18101.3"
         style="fill:#ffffff;fill-opacity:1;fill-rule:nonzero;stroke:none"
         id="path70" /><path
         d="m 24178,33606.1 c -23.5,0 -49.2,7.2 -75.6,22.4 l -0.4,0.3 c -856.2,495.4 -1893.4,620.9 -2868.8,642.1 h -0.2 c -193.2,1.2 -219.5,80.3 -200.4,176.6 29.1,146.8 143.8,171.7 267,176.2 71.8,2.6 144.9,3.9 218.7,3.9 869.7,0 1860.7,-185.8 2651.1,-646.5 86.8,-50.6 136.1,-171.9 117.5,-269.2 -12.9,-67.7 -55.1,-105.8 -108.9,-105.8"
         style="fill:#70cac3;fill-opacity:1;fill-rule:nonzero;stroke:none"
         id="path72" /><path
         d="m 19386.4,34166.9 c -99.8,0 -166.1,65.1 -149.1,155.1 18.3,97.4 127.5,187.3 240.9,199 407.9,42.2 818.3,76 1227.7,93.6 2.4,0.1 4.9,0.2 7.3,0.2 92.3,0 149.8,-75.8 131.9,-170.7 -18.4,-97.4 -109.3,-178.1 -205.9,-182.2 -409.2,-17.6 -818.9,-52.1 -1227.5,-93.7 h -0.1 c -8.6,-0.9 -17,-1.3 -25.2,-1.3"
         style="fill:#70cac3;fill-opacity:1;fill-rule:nonzero;stroke:none"
         id="path74" /><path
         d="m 13563.6,33186.4 c -98.5,0 -161.7,55.2 -144,132.7 26.9,118.4 155.4,201.6 272.1,226.6 1548.6,332.6 3127.4,625.6 4706.6,843.1 12.5,1.7 24.7,2.5 36.4,2.5 103.3,0 170.6,-64.8 151.9,-149 -24.9,-112.6 -142.4,-189.3 -255,-206.3 h -0.1 c -1504.5,-270.4 -3145.9,-517.8 -4705.7,-842.9 l -0.4,-0.1 c -21.7,-4.5 -42.5,-6.6 -61.8,-6.6"
         style="fill:#70cac3;fill-opacity:1;fill-rule:nonzero;stroke:none"
         id="path76" /><path
         d="m 10218.1,32440.8 c -80.1,0 -128.4,53.9 -113.1,136 18.2,97.4 118.2,196.7 226.4,222.3 752.9,178.2 1508.2,349.4 2264.4,513 21,4.6 41,6.7 59.8,6.7 95.2,0 156.8,-55.4 138.8,-133.2 -26.9,-116.5 -150.2,-199.5 -265.9,-226.4 l -0.6,-0.1 c -751.2,-166.7 -1509.7,-334.7 -2262.1,-512.6 l -0.5,-0.1 c -16.7,-3.8 -32.5,-5.6 -47.2,-5.6"
         style="fill:#70cac3;fill-opacity:1;fill-rule:nonzero;stroke:none"
         id="path78" /><path
         d="m 18189.2,33020.6 c -103.6,0 -173.4,64.2 -154.1,148.6 25.7,112.5 145.5,191 257.7,206.8 856.7,120.1 1737.1,221.6 2615.5,221.6 651.8,0 1302.4,-55.9 1941.6,-201.5 l 1,-0.3 c 107.8,-26.7 219.9,-122.1 202,-239.6 -11.5,-75.8 -89.6,-123 -188.5,-123 -25.3,0 -51.9,3.1 -79.1,9.6 -610.5,145.1 -1239.6,199.9 -1870.1,199.9 -217.7,0 -435.4,-6.6 -652.7,-18.1 -682.2,-39.1 -1361.6,-112.7 -2038.2,-201.7 -12,-1.5 -23.8,-2.3 -35.1,-2.3"
         style="fill:#70cac3;fill-opacity:1;fill-rule:nonzero;stroke:none"
         id="path80" /><path
         d="m 16134.5,32695.5 c -103.9,0 -172.5,58.4 -154.3,138 26.8,118 157.3,198.2 273.9,219.5 359,65.4 723.5,124.8 1086,183 l 0.6,0.1 c 15.8,2.6 31,3.9 45.6,3.9 102.6,0 171.1,-62.4 153,-144 -25.6,-115.4 -150.2,-193.7 -264.6,-212.6 -360.6,-59.7 -724.6,-119.4 -1086.3,-183 l -0.5,-0.1 c -18.6,-3.3 -36.5,-4.8 -53.4,-4.8"
         style="fill:#70cac3;fill-opacity:1;fill-rule:nonzero;stroke:none"
         id="path82" /><path
         d="m 10023.8,31416.8 c -80.27,0 -127.8,55 -111.93,137.4 18.75,97.3 118.93,196 226.63,221.3 l 0.8,0.2 c 1709.7,397.9 3429.3,771.5 5155.7,1101.2 h 0.4 c 20.3,4.1 39.9,6 58.4,6 101.8,0 169.4,-58.1 151.5,-136.5 -27.1,-118.8 -158.9,-199.3 -276.2,-222.2 -705.8,-138 -1417.7,-278.6 -2124.6,-427.5 -1013.3,-214.8 -2024.2,-440.3 -3033.3,-674.1 -16.8,-3.9 -32.6,-5.8 -47.4,-5.8"
         style="fill:#70cac3;fill-opacity:1;fill-rule:nonzero;stroke:none"
         id="path84" /><path
         d="m 22815.6,31972.3 c -26.4,0 -54.5,3.8 -83.5,11.8 l -0.2,0.1 c -675,169.3 -1368.5,232.4 -2066.3,232.4 -798.9,0 -1603.3,-82.7 -2391.7,-183.1 h -0.1 c -11.8,-1.6 -23.2,-2.4 -34.3,-2.4 -101.7,0 -171.3,65 -152.6,149.6 24.7,111.7 142.1,190.3 253.4,205.6 757.9,103.9 1543.6,178.2 2324.3,178.2 724.3,0 1444.4,-64 2134.4,-227.6 98.1,-23.3 210.9,-136.3 192,-244.6 -13.1,-74.5 -84,-120 -175.4,-120"
         style="fill:#70cac3;fill-opacity:1;fill-rule:nonzero;stroke:none"
         id="path86" /><path
         d="m 11669.1,30814.2 c -92.5,0 -150.8,54.9 -133.6,132.7 25.7,115.5 144.9,200.6 258.7,226.8 1823,419.4 3689.9,787.6 5553.5,1071.8 14.8,2.2 29.1,3.3 42.8,3.3 104.1,0 172.1,-62.6 153.5,-145.2 -25.8,-114.8 -148.6,-192 -263.1,-210.9 h -0.1 c -1848.8,-264.1 -3712.5,-663.1 -5552.3,-1071.6 l -0.5,-0.1 c -20.8,-4.6 -40.5,-6.8 -58.9,-6.8"
         style="fill:#70cac3;fill-opacity:1;fill-rule:nonzero;stroke:none"
         id="path88" /><path
         d="m 9830.96,30393.2 c -79.11,0 -127.31,53.5 -112.93,134.7 17.2,97.1 116.73,197.1 224.93,223.4 292.54,71.2 586.64,139.2 880.74,204.1 18.2,4 35.7,5.9 52,5.9 88.8,0 145.5,-56.4 126.9,-135.9 -26.1,-111.6 -136.7,-195.6 -247.9,-223.3 l -2.4,-0.6 c -289.9,-62.6 -582.1,-131.4 -871.55,-201.9 -17.61,-4.3 -34.3,-6.4 -49.79,-6.4"
         style="fill:#70cac3;fill-opacity:1;fill-rule:nonzero;stroke:none"
         id="path90" /><path
         d="m 17673.8,30953.2 c -103.7,0 -173.4,63.5 -154.5,147.4 25.4,113.1 145.1,190.5 258.4,208.1 h 0.3 c 944.9,116.7 1913.2,236.9 2879.9,236.9 223.7,0 447.1,-6.4 670.3,-20.8 l 1.2,-0.1 c 109.3,-6.9 296.8,-82.7 273.7,-205.1 -20.9,-110.6 -184.6,-149.2 -302.1,-149.2 -13,0 -25.5,0.5 -37.1,1.4 -232,18 -465.4,25.8 -699.5,25.8 -510.7,0 -1025.2,-36.9 -1536.9,-84.9 -440,-42.3 -879.2,-97 -1316.7,-156.9 -12.7,-1.7 -25.1,-2.6 -37,-2.6"
         style="fill:#70cac3;fill-opacity:1;fill-rule:nonzero;stroke:none"
         id="path92" /><path
         d="m 15831.1,30664.4 c -104.3,0 -173.1,59 -154.5,139.1 27.4,117.6 156.8,196.6 273.9,218.4 l 0.7,0.1 c 359,61.4 719.1,121.2 1079,177 15.2,2.4 29.8,3.5 43.8,3.5 104.2,0 172.3,-62.4 153.6,-144.8 -26.1,-115.1 -149.6,-192.3 -264.4,-211.5 l -0.3,-0.1 c -357.1,-58.5 -720.4,-115.2 -1079.6,-177.1 -18.1,-3.1 -35.6,-4.6 -52.2,-4.6"
         style="fill:#70cac3;fill-opacity:1;fill-rule:nonzero;stroke:none"
         id="path94" /><path
         d="m 9637.15,29369.5 c -80.23,0 -127.78,54.8 -112.02,137.2 18.66,97.3 118.81,196.1 226.68,221.4 l 0.54,0.2 c 1758.05,410.8 3528.15,794.5 5304.65,1131.9 l 0.6,0.1 c 19.3,3.5 37.9,5.1 55.4,5.1 103.5,0 172.3,-56.8 154.3,-135.9 -26.9,-118.7 -158.5,-199 -275.7,-221.8 -928.5,-180.6 -1864.2,-368.1 -2793,-568 -839.5,-181.6 -1677.5,-370.2 -2513.92,-564.5 -16.83,-3.9 -32.74,-5.7 -47.53,-5.7"
         style="fill:#70cac3;fill-opacity:1;fill-rule:nonzero;stroke:none"
         id="path96" /><path
         d="m 13975,29334.2 c -100.9,0 -167.2,56.5 -149.4,134.4 27.3,119 158.8,200.8 276.4,224.6 1138.4,230.9 2296.7,431.5 3452.4,589.9 12.5,1.7 24.6,2.5 36.3,2.5 103.5,0 171,-65 151.8,-149.4 -25.5,-112.5 -143.2,-188.8 -255.8,-206 l -1.1,-0.2 c -1152,-162.6 -2305,-363.4 -3449.5,-589.4 l -0.4,-0.1 c -21.2,-4.3 -41.6,-6.3 -60.7,-6.3"
         style="fill:#70cac3;fill-opacity:1;fill-rule:nonzero;stroke:none"
         id="path98" /><path
         d="m 11928,28908.3 c -95.3,0 -155.9,54.8 -138.6,132.3 26.1,117 150.1,201.3 265.4,227.2 407.8,91.5 822.8,176.7 1234.8,261.9 l 0.4,0.1 c 21.7,4.6 42.5,6.8 62,6.8 98.8,0 164.4,-56.4 146.8,-133.7 -27.2,-118.7 -157.8,-201 -275,-225.8 -409.4,-86.8 -823.3,-172.5 -1234.3,-261.8 l -0.7,-0.2 c -21.4,-4.6 -41.8,-6.8 -60.8,-6.8"
         style="fill:#70cac3;fill-opacity:1;fill-rule:nonzero;stroke:none"
         id="path100" /><path
         d="m 9443.73,28345.7 c -79.25,0 -126.91,53.9 -112.35,135.1 17.41,97.2 117.04,197 225.25,223.2 522.67,126.6 1047.87,246.5 1573.37,360.6 19.7,4.3 38.5,6.3 56,6.3 92.6,0 151.9,-56 133.3,-134.7 -26.9,-114.2 -144.3,-197.5 -257.9,-224.8 l -2.1,-0.5 c -522.5,-112.8 -1045.1,-233.1 -1565.62,-358.8 l -1.88,-0.5 c -17.01,-4 -33.1,-5.9 -48.07,-5.9"
         style="fill:#70cac3;fill-opacity:1;fill-rule:nonzero;stroke:none"
         id="path102" /><path
         d="m 15961.2,36628.7 c -115.8,0 -254.6,55.2 -224,186.2 36.4,155.7 223.6,278.4 382.2,306 1022,177.7 2065,367.1 3103.5,510.8 l 1.7,0.2 c 12.5,1.9 25.3,2.8 38.3,2.8 117.5,0 245,-75.6 216,-205.8 -34.1,-153 -192.4,-258.6 -344.4,-282.2 -642.6,-99.8 -1307.9,-195.5 -1959.6,-307.2 -383.6,-66.6 -777.6,-126.9 -1149.9,-204.6 -19.4,-4.1 -41.2,-6.2 -63.8,-6.2"
         style="fill:#70cac3;fill-opacity:1;fill-rule:nonzero;stroke:none"
         id="path104" /><path
         d="m 10865.4,35538.5 c -102.4,0 -194.3,73.2 -165.1,189.6 35.6,142.4 169.8,272.5 315.5,303.8 1192.5,255.9 2405.3,540.4 3611.2,796.3 1.1,0.3 2.3,0.5 3.4,0.8 20.8,4.7 44.3,7.1 68.7,7.1 113.3,0 246.7,-52.8 218.9,-179.6 -35.5,-162.2 -216.3,-275.9 -375.9,-312.3 -800.8,-182.8 -1631.9,-349 -2445.9,-532.9 -392.6,-88.7 -797.9,-169.8 -1177.6,-266.2 -17.7,-4.4 -35.6,-6.6 -53.2,-6.6"
         style="fill:#70cac3;fill-opacity:1;fill-rule:nonzero;stroke:none"
         id="path106" /><path
         d="m 17649.6,35910 c -117.2,0 -256.7,62.8 -226.1,195.1 35.1,151.7 215.1,272.5 370.9,295 1277.4,184.9 2594.6,385.7 3902.9,385.7 16.3,0 32.4,0 48.7,-0.1 h 1.5 c 145.1,-8.7 445.2,-72.2 417,-260.4 -25.5,-170.9 -329.6,-225.3 -491.9,-225.3 -5.3,0 -10.4,0.1 -15.4,0.2 -58.2,1.3 -116.6,1.9 -175.3,1.9 -406.5,0 -821.9,-29.9 -1231.9,-63.5 -853.8,-75.8 -1723.7,-177.1 -2549.3,-324.3 -16.1,-2.8 -33.3,-4.3 -51.1,-4.3"
         style="fill:#70cac3;fill-opacity:1;fill-rule:nonzero;stroke:none"
         id="path108" /><path
         d="m 10667.4,34487.8 c -101.8,0 -194.2,71.7 -166,187.8 34.6,142.1 168.8,272.9 314,305.1 1808.8,400.6 3695.1,788.6 5488,1162.3 19.2,4 40.6,6 62.7,6 116.5,0 255.5,-56.9 225.8,-187.4 -36.8,-161.6 -218.2,-271.4 -378.1,-303.8 -947.1,-191.4 -1925.3,-375.2 -2884.4,-580.2 -870.7,-187.3 -1768.4,-364.9 -2607.3,-582.8 -18.1,-4.7 -36.6,-7 -54.7,-7"
         style="fill:#70cac3;fill-opacity:1;fill-rule:nonzero;stroke:none"
         id="path110" /><path
         d="m 18805.9,27918.9 c -97.1,0 -162.1,68.6 -144.8,160.7 18.3,97.4 121.7,184.3 228,192.8 368.2,29.4 737.1,42.9 1105.3,42.9 170.5,0 340.7,-2.9 510.8,-8.4 109.3,-3.6 310.4,-75.4 286,-199.1 -22.3,-113.3 -196.8,-154.8 -319.4,-154.8 -11.6,0 -22.8,0.4 -33.4,1.1 h -0.1 c -169,12.7 -341.8,18.1 -516.6,18.1 -363.3,0 -735.1,-23.3 -1098.9,-52.6 h -0.2 c -5.7,-0.4 -11.3,-0.7 -16.7,-0.7"
         style="fill:#70cac3;fill-opacity:1;fill-rule:nonzero;stroke:none"
         id="path112" /><path
         d="m 14845.2,27365.2 c -103.7,0 -171.9,58 -153.8,137.3 27.1,118.3 158.2,198.7 275.2,220.6 1076,200.9 2171.9,370.2 3264.9,487.9 8.7,0.9 17.2,1.4 25.4,1.4 99.7,0 163,-66.9 145.9,-156.8 -18.4,-97.4 -123.9,-185.2 -238,-197.4 h -0.1 c -1039.2,-56.5 -2181.4,-291.8 -3264,-487.8 l -0.4,-0.1 c -19.2,-3.4 -37.7,-5.1 -55.1,-5.1"
         style="fill:#70cac3;fill-opacity:1;fill-rule:nonzero;stroke:none"
         id="path114" /><path
         d="m 13644.9,27140.3 c -102,0 -168.3,56.5 -150.1,134.8 27.7,118.9 158.7,199.7 276.8,224 l 0.3,0.1 c 185.4,35 372.2,71.5 558.4,106.3 19.9,3.8 39,5.5 57,5.5 103.3,0 170.5,-58 152,-137.1 -27.8,-118.4 -158.7,-197.9 -276.4,-221.3 l -0.7,-0.1 c -185.5,-35.2 -371.9,-70.2 -557.5,-106.2 -21,-4 -41,-6 -59.8,-6"
         style="fill:#70cac3;fill-opacity:1;fill-rule:nonzero;stroke:none"
         id="path116" /><path
         d="m 12194.8,26844.1 c -97.6,0 -160.3,54.8 -143.1,132 26.3,118.2 154,201.8 270.3,227.3 267,58.4 538.2,113.2 807.7,168.2 l 0.3,0.1 c 20.2,3.7 39.5,5.4 57.8,5.4 101.5,0 169.7,-54.4 151.7,-132.9 -27.2,-118.8 -158.4,-200.7 -275.8,-225.3 -267.3,-55.9 -537.5,-110.8 -805.9,-167.8 l -1.3,-0.3 c -21.7,-4.5 -42.4,-6.7 -61.7,-6.7"
         style="fill:#70cac3;fill-opacity:1;fill-rule:nonzero;stroke:none"
         id="path118" /><path
         d="m 9026.35,26135.5 c -79.78,0 -127.39,54.3 -112.26,136.1 18,97.3 118.01,196.7 226.16,222.4 787.94,187.3 1578.75,366.3 2370.55,536.2 21,4.5 41,6.6 59.8,6.6 95.8,0 157.6,-55.5 139.4,-133.4 -27.1,-116.7 -150.9,-199.4 -266.7,-226.2 l -1,-0.2 c -784.2,-174.4 -1579.99,-348.6 -2367.19,-535.4 l -0.76,-0.2 c -16.99,-3.9 -33.07,-5.9 -48,-5.9"
         style="fill:#70cac3;fill-opacity:1;fill-rule:nonzero;stroke:none"
         id="path120" /><path
         d="m 14995.5,26398.6 c -104.2,0 -172.9,58.8 -154.4,138.8 27.2,117.7 156.8,196.9 274,218.8 h 0.3 c 1193.8,177.8 2441.7,398 3674.3,497.6 l 0.8,0.1 c 4.9,0.3 9.8,0.5 14.6,0.5 96.2,0 157,-70.8 139.9,-163.4 -18,-97.4 -115.5,-181.6 -220.4,-189.9 -772.9,-61 -1543.9,-161.2 -2312,-275.5 -455.6,-69.2 -910.6,-143.5 -1364.4,-222.3 -18.3,-3.2 -36,-4.7 -52.7,-4.7"
         style="fill:#70cac3;fill-opacity:1;fill-rule:nonzero;stroke:none"
         id="path122" /><path
         d="m 11867.4,25788.7 c -97.6,0 -159.9,55.3 -142.1,132.9 27,118 153.5,200.5 270.4,226.6 l 0.2,0.1 c 786.7,184.2 1620.3,333.5 2431.8,484 19.6,3.6 38.5,5.4 56.3,5.4 103.1,0 171.4,-57.9 153.3,-137 -27,-118.5 -158.3,-198.6 -275.4,-221 -515.6,-98.8 -1036,-197.9 -1552.9,-302.3 -293.5,-59.7 -587,-120.3 -880,-182 -21.7,-4.5 -42.3,-6.7 -61.6,-6.7"
         style="fill:#70cac3;fill-opacity:1;fill-rule:nonzero;stroke:none"
         id="path124" /><path
         d="m 10872.3,25574.4 c -93.6,0 -152.7,55.2 -135,133.1 26.2,115.9 146.3,199.5 261.3,226.5 h 0.3 c 110.9,24.3 221.9,48.5 332.8,72.4 21.3,4.6 41.6,6.8 60.6,6.8 95.6,0 157.4,-55.2 139.7,-132.9 -26.8,-116.9 -151.1,-199.9 -267.1,-226.7 h -0.2 c -111,-24 -222,-48.1 -333,-72.4 -20.9,-4.6 -40.8,-6.8 -59.4,-6.8"
         style="fill:#70cac3;fill-opacity:1;fill-rule:nonzero;stroke:none"
         id="path126" /><path
         d="m 8832.96,25111.8 c -80.23,0 -127.8,55 -112.01,137.3 18.67,97.3 118.82,196.1 226.69,221.4 l 0.56,0.2 c 470.73,105.2 947.75,218.2 1422.1,324.3 20,4.5 39.2,6.6 57,6.6 91.3,0 150.1,-55.3 132.5,-133.4 -25.9,-114.4 -142.8,-198.5 -256.4,-226.1 h -0.3 c -473.4,-107.2 -948.94,-214.5 -1422.64,-324.5 -16.81,-3.9 -32.71,-5.8 -47.5,-5.8"
         style="fill:#70cac3;fill-opacity:1;fill-rule:nonzero;stroke:none"
         id="path128" /><path
         d="m 21084.6,25793.3 c -24.4,0 -48.1,2.3 -69.3,6.5 l -0.2,0.1 c -491.2,85.6 -991.9,121 -1493.4,121 -192.6,0 -385.2,-5.2 -577.6,-14.8 h -0.2 c -3.1,-0.2 -6.1,-0.3 -9.1,-0.3 -93.7,0 -156.8,72.2 -139.1,166.5 18.3,97.5 115.8,181.6 214.7,186.5 184.4,9.2 368.8,14.1 553,14.1 508.5,0 1015.5,-36.9 1518.7,-120.3 110.5,-18.3 249.2,-111.3 227,-229.1 -17.6,-93.5 -127,-130.2 -224.5,-130.2"
         style="fill:#70cac3;fill-opacity:1;fill-rule:nonzero;stroke:none"
         id="path130" /><path
         d="m 17994.4,25834.9 c -99.1,0 -165.1,66 -148,156.6 18.3,97.5 125.7,186.3 237.2,197.2 136.1,13 272.1,25.1 408.4,36.4 v 0 c 2.9,0.1 5.7,0.2 8.6,0.2 97.9,0 166.4,-67.7 148.5,-162.4 -18.3,-97.4 -117.1,-182.1 -223.6,-190.5 -136.2,-11.3 -272.2,-23.5 -408.3,-36.4 h -0.1 c -7.7,-0.8 -15.3,-1.1 -22.7,-1.1"
         style="fill:#70cac3;fill-opacity:1;fill-rule:nonzero;stroke:none"
         id="path132" /><path
         d="m 12697.2,24979.9 c -100.3,0 -165.3,55.5 -147.8,133.1 27,118.9 157.7,201.4 275,225.9 1539.2,320.9 3108.8,601.8 4680,787 10.2,1.2 20,1.8 29.6,1.8 100.8,0 164.9,-65.1 148,-154.1 -18.5,-97.4 -126.9,-186.6 -244.4,-200.5 h -0.2 c -1550.5,-160.3 -3128.7,-473 -4678.1,-786.7 l -0.8,-0.2 c -21.5,-4.3 -42.1,-6.3 -61.3,-6.3"
         style="fill:#70cac3;fill-opacity:1;fill-rule:nonzero;stroke:none"
         id="path134" /><path
         d="m 8639.49,24088.1 c -79.39,0 -127.19,54.4 -112.12,136.1 17.96,97.3 117.96,196.7 226.12,222.5 1145.19,272.5 2295.41,528.5 3448.41,764.9 21.3,4.4 41.7,6.5 60.8,6.5 99.5,0 163.9,-56.1 145.6,-134.1 -27.8,-118.2 -156.7,-199.6 -274,-225.3 l -1,-0.2 C 10982,24623.1 9832.88,24366.3 8688.46,24094.3 l -0.82,-0.2 c -17.03,-4.1 -33.16,-6 -48.15,-6"
         style="fill:#70cac3;fill-opacity:1;fill-rule:nonzero;stroke:none"
         id="path136" /><path
         d="m 16701.5,24678.7 c -103.2,0 -172.9,64.1 -154,148.6 25.2,112.3 143,189.6 255.7,206.5 h 0.2 c 874.9,116.3 1757.9,209.5 2643.2,209.5 153.2,0 306.5,-2.8 459.8,-8.8 h 1 c 108.5,-4.1 310.8,-74.4 287.3,-198 -22,-115.6 -204.8,-155.5 -326.7,-155.5 -9.1,0 -17.9,0.2 -26.2,0.7 -157.1,8.1 -315,11.7 -473.4,11.7 -479.8,0 -964,-33.3 -1445.1,-76.6 -396.6,-37 -792.5,-83.9 -1187,-135.8 -11.9,-1.6 -23.5,-2.3 -34.8,-2.3"
         style="fill:#70cac3;fill-opacity:1;fill-rule:nonzero;stroke:none"
         id="path138" /><path
         d="m 14555.4,24342.5 c -104,0 -172.6,58.6 -154.3,138.4 27.1,117.9 157.6,198 274.4,219.2 422.6,76.6 852,145.3 1279.1,211.6 h 0.1 c 8.2,0.6 16.4,0.9 24.4,0.9 107.6,0 191.6,-55.6 172.2,-142.5 -25.8,-114.9 -149.1,-192.9 -263.1,-211.2 -424.7,-68 -853.5,-137.2 -1279.2,-211.6 h -0.1 c -18.6,-3.2 -36.5,-4.8 -53.5,-4.8"
         style="fill:#70cac3;fill-opacity:1;fill-rule:nonzero;stroke:none"
         id="path140" /><path
         d="m 10597.9,23552.6 c -94.2,0 -153.7,55 -136.1,132.9 26.4,116.2 147.4,199.8 262.7,226.6 l 0.1,0.1 c 1064.9,231 2133.5,451.7 3205.2,652.7 l 0.1,0.1 c 18.9,3.2 37.1,4.8 54.3,4.8 104,0 173.5,-56.8 155.2,-136.3 -27.2,-118.6 -158.7,-198.8 -276,-221.3 -499.6,-96 -1003.7,-192.4 -1504.6,-293.8 -567.8,-116 -1135,-235.7 -1701.1,-359.1 -21.1,-4.6 -41.2,-6.7 -59.8,-6.7"
         style="fill:#70cac3;fill-opacity:1;fill-rule:nonzero;stroke:none"
         id="path142" /><path
         d="m 8446.22,23064.5 c -80.47,0 -127.98,55.3 -111.84,137.9 19,97.2 119,195.5 226.54,220.8 l 1.26,0.3 c 413.61,91.1 832.82,191.1 1249.42,285.7 l 0.3,0.1 c 19.88,4.7 38.94,7 56.77,7 89.09,0 148.03,-55.7 130.7,-133.5 -25.31,-113.9 -141.53,-199.7 -253.8,-226.2 -110.27,-26.1 -217.73,-49.5 -319.36,-72.7 -311.1,-71 -622.11,-142.4 -933.13,-213.7 -16.57,-3.9 -32.26,-5.7 -46.86,-5.7"
         style="fill:#70cac3;fill-opacity:1;fill-rule:nonzero;stroke:none"
         id="path144" /><path
         d="m 15251.2,23474.5 c -104.2,0 -173.6,60.2 -155.4,141.4 26.2,116.3 153.3,195.7 268.5,215.2 578.4,97.5 1168,179.6 1753.8,249.2 10.2,1.2 20.1,1.8 29.6,1.8 100.7,0 164.8,-65.2 147.9,-154.2 -18.5,-97.3 -126.9,-186.5 -244.3,-200.4 l -0.3,-0.1 c -571.4,-52.6 -1169.6,-154.8 -1752.1,-248.9 l -0.6,-0.1 c -16.3,-2.6 -32.1,-3.9 -47.1,-3.9"
         style="fill:#70cac3;fill-opacity:1;fill-rule:nonzero;stroke:none"
         id="path146" /><path
         d="m 12127.7,22896 c -99.3,0 -163.8,54.7 -147.1,131.7 25.9,118.9 156.1,201.9 272.9,227 627.6,134.9 1266.1,255.2 1901.4,367.8 18.6,3.3 36.5,4.9 53.5,4.9 104.2,0 171.9,-59.4 153,-139.4 -27.9,-117.6 -157.4,-196.2 -274.5,-218.5 l -1.5,-0.3 c -631.1,-114 -1264.2,-234.8 -1893.7,-366.3 l -2.5,-0.5 c -21.6,-4.4 -42.2,-6.4 -61.5,-6.4"
         style="fill:#70cac3;fill-opacity:1;fill-rule:nonzero;stroke:none"
         id="path148" /><path
         d="m 8253.04,22040.9 c -79.63,0 -127.31,54 -112.42,135.6 17.74,97.3 117.57,196.8 225.76,222.8 979.76,234.9 1964.22,455.4 2950.52,660.5 21.1,4.4 41.3,6.5 60.2,6.5 98.1,0 161.4,-56 142.9,-134.1 -27.9,-117.4 -154.5,-199.2 -271.2,-225.4 l -1.5,-0.4 c -984.7,-205.1 -1966.63,-425.1 -2945.11,-659.3 l -1.24,-0.3 c -16.96,-4 -33,-5.9 -47.91,-5.9"
         style="fill:#70cac3;fill-opacity:1;fill-rule:nonzero;stroke:none"
         id="path150" /><path
         d="m 27612.7,30881.4 c 183.4,972.2 366.8,1944.4 550.2,2916.6 757.3,407.9 1557.3,614.9 2415.4,614.9 21.1,0 42.1,-0.1 63.2,-0.4 -184.1,-977 -368.2,-1954 -552.3,-2931 -38.8,0.9 -77.5,1.3 -116.2,1.3 -816,0 -1608.3,-196.7 -2360.3,-601.4"
         style="fill:#fbc338;fill-opacity:1;fill-rule:nonzero;stroke:none"
         id="path152" /><path
         d="m 33915.9,30572.9 c -843.8,267.6 -1694.8,511.6 -2553.4,727.4 102.4,545.9 204.9,1091.9 307.3,1637.8 854.3,-216.2 1701.2,-457.2 2541.4,-722.7 -98.4,-547.5 -196.9,-1095 -295.3,-1642.5"
         style="fill:#57b1ad;fill-opacity:1;fill-rule:nonzero;stroke:none"
         id="path154" /><path
         d="m 36702,29627.3 c -632.8,212.2 -1261.6,438.4 -1892.7,652.5 226.4,1268.7 452.8,2537.6 679.2,3806.3 632.2,-213.7 1261.3,-436 1893.3,-650.4 -226.6,-1269.5 -453.2,-2539 -679.8,-3808.4"
         style="fill:#91dad2;fill-opacity:1;fill-rule:nonzero;stroke:none"
         id="path156" /><path
         d="m 39169.9,28934.9 c -589.3,120.3 -1168.6,279.1 -1742.5,457.3 338.2,1884.6 676.5,3769.4 1014.8,5654 581.2,-180.5 1166.3,-339.8 1762,-465.3 -344.8,-1882 -689.5,-3764 -1034.3,-5646"
         style="fill:#fbc338;fill-opacity:1;fill-rule:nonzero;stroke:none"
         id="path158" /><path
         d="m 39452.7,28557.9 c -9.7,0 -19.5,0.9 -29.3,2.7 -1729.8,309.4 -3366.7,975.5 -5028.8,1523.9 -1035,341.5 -2080.9,648.9 -3138.3,913.3 -453,113.4 -901.7,170.9 -1343.1,170.9 -885.9,0 -1743.2,-231.7 -2552.2,-709.9 -34.7,-21.3 -64.7,-31.5 -87.8,-31.5 -38.8,0 -58,29 -47.8,83.3 16.4,86.7 101.6,205.1 194.9,262.2 63.8,37.7 127.9,73.9 192.4,108.6 752,404.7 1544.3,601.4 2360.3,601.4 38.7,0 77.4,-0.4 116.2,-1.3 403.7,-9.2 813,-66.1 1226.1,-169.4 15.7,-3.9 31.5,-7.8 47.2,-11.8 858.6,-215.8 1709.6,-459.8 2553.4,-727.4 178.7,-56.6 357.1,-114.4 535.1,-173.1 119.6,-39.5 238.9,-79.5 358.3,-120 631.1,-214.1 1259.9,-440.3 1892.7,-652.5 241.1,-80.9 482.7,-159.7 725.4,-235.1 573.9,-178.2 1153.2,-337 1742.5,-457.3 103.5,-21.1 207.2,-41 311.4,-59.6 88.9,-15.9 148.9,-98.5 132.9,-185.3 -14.2,-77.3 -83.8,-132.1 -161.5,-132.1"
         style="fill:#57b1ad;fill-opacity:1;fill-rule:nonzero;stroke:none"
         id="path160" /><path
         d="m 33782.8,33366.4 c -65.3,129.4 -188.1,237.6 -319.3,314.5 955.3,483.6 1885.5,1010.8 2789.7,1584 46,-123.3 133.2,-233.2 240.7,-312 -878.6,-572 -1782.2,-1100.6 -2711.1,-1586.5 M 32465,33588 c -802.5,600.8 -1650.7,1134.4 -2612.3,1418.8 134.2,84.5 251.4,192.7 314.4,323.5 966.8,-331.6 1816.1,-907.3 2624.3,-1534.1 -139,-29.6 -263.4,-95.1 -326.4,-208.2 m 4807.7,1663.8 c 4.4,126.9 -36.7,250.3 -108,354 623.2,98.8 1242.6,215.5 1858.3,353.4 -5.4,-121.8 31,-243 98.3,-343 -612.3,-141.7 -1228.4,-262.3 -1848.6,-364.4"
         style="fill:#57b1ad;fill-opacity:1;fill-rule:nonzero;stroke:none"
         id="path162" /><path
         d="m 29147.1,34784.2 c -183.9,0 -363.9,61.1 -309.5,300 76.7,337 421.5,650.1 742.8,719.6 48.2,10.4 106.5,16.5 167.8,16.5 236.5,0 519.3,-91.1 457.6,-378.2 -8.4,-38.9 -21.5,-76.2 -38.7,-111.8 -63,-130.8 -180.2,-239 -314.4,-323.5 -149.1,-93.8 -319.1,-158.4 -458.8,-192.1 -64.9,-15.7 -156.3,-30.5 -246.8,-30.5"
         style="fill:#fbc338;fill-opacity:1;fill-rule:nonzero;stroke:none"
         id="path164" /><path
         d="m 33313.5,32754.3 c -88.8,0 -177.2,12.8 -254.6,33.8 -288.7,78.6 -691.9,362.2 -631,695.6 7.1,38.5 19.7,73.2 37.1,104.3 63,113.1 187.4,178.6 326.4,208.2 62.2,13.3 127.3,19.4 191.1,19.4 93,0 183.2,-12.9 257.7,-35.6 71.2,-21.7 148.6,-55.3 223.3,-99.1 131.2,-76.9 254,-185.1 319.3,-314.5 43.2,-85.5 61.3,-180.2 40.3,-281.3 -51.2,-246.2 -281.4,-330.8 -509.6,-330.8"
         style="fill:#57b1ad;fill-opacity:1;fill-rule:nonzero;stroke:none"
         id="path166" /><path
         d="m 36835.5,34831.3 c -55.9,0 -113,9.5 -168.7,29.3 -60.9,21.6 -119.4,53.1 -172.9,92.3 -107.5,78.8 -194.7,188.7 -240.7,312 -32.6,87.2 -44.5,181.2 -28.3,275.6 38.3,223.9 235.9,343.4 442.4,343.4 59.2,0 119.2,-9.8 176.3,-29.9 129.7,-45.5 243.3,-135.2 321.1,-248.2 71.3,-103.7 112.4,-227.1 108,-354 -0.8,-23.6 -3.2,-47.3 -7.3,-71.1 -38.2,-222.6 -226,-349.4 -429.9,-349.4"
         style="fill:#91dad2;fill-opacity:1;fill-rule:nonzero;stroke:none"
         id="path168" /><path
         d="m 39540.7,35379.7 c -38.9,0 -78.5,5.1 -118.1,15.8 -126,34 -230.7,115.6 -301.3,220.7 -67.3,100 -103.7,221.2 -98.3,343 1,22.8 3.5,45.6 7.5,68.3 39.6,225.3 233,376.8 448.9,376.8 40.5,0 81.8,-5.3 123,-16.5 265.6,-71.9 447.5,-346.2 398.3,-618.8 -40.8,-226.3 -239.3,-389.3 -460,-389.3"
         style="fill:#fbc338;fill-opacity:1;fill-rule:nonzero;stroke:none"
         id="path170" /><path
         d="m 39335.9,26258.9 c -10.9,0 -21.8,0.8 -32.8,2.5 l -0.5,0.1 c -745.5,117.6 -1481.6,303.6 -2207.6,524.3 h -0.1 c -101.1,28.2 -171.2,145.9 -151.8,254.1 15.9,88.9 86.1,145.8 167.8,145.8 17.7,0 36,-2.7 54.3,-8.3 725.6,-221.7 1462.2,-404.8 2210.5,-525.1 112.1,-18 189,-118.3 168.7,-226.2 -18.2,-97.2 -108.6,-167.2 -208.5,-167.2"
         style="fill:#70cac3;fill-opacity:1;fill-rule:nonzero;stroke:none"
         id="path172" /><path
         d="m 35882.6,27196.2 c -21.3,0 -43.6,3.6 -66.1,11.4 h -0.1 c -1586.3,521.4 -3203.8,1087.6 -4846.7,1508.8 l -0.4,0.1 c -126.3,30.9 -310.7,148.6 -287.5,276.1 16.9,92.6 138.2,127.8 248.6,127.8 40.6,0 79.7,-4.8 111.6,-13.2 1627.6,-429.2 3243.1,-955.4 4844.4,-1507.8 109,-37.6 180.4,-155.1 161.1,-263.3 -15.4,-85.8 -83.1,-139.9 -164.9,-139.9"
         style="fill:#70cac3;fill-opacity:1;fill-rule:nonzero;stroke:none"
         id="path174" /><path
         d="m 26637.1,28047.4 c -44.4,0 -65.8,35.4 -52.1,100 27.5,130 120.4,256.2 229.9,330.9 791.8,540.9 1715.5,832 2695.2,853.6 1.9,0 3.8,0 5.7,0 117.3,0 300.7,-77 274.7,-204.9 -26.6,-130.2 -223.4,-185.3 -353.8,-185.3 -0.3,0 -0.6,0 -0.9,0 h -0.8 c -971.4,-13.1 -1875.5,-317.7 -2692.7,-852.8 l -0.5,-0.3 c -41.7,-28 -77.5,-41.2 -104.7,-41.2"
         style="fill:#70cac3;fill-opacity:1;fill-rule:nonzero;stroke:none"
         id="path176" /><path
         d="m 39581.7,25062.1 c -8.9,0 -17.9,0.5 -26.9,1.6 -665.3,79.3 -1322.8,209.8 -1972.7,380.5 -638.9,174.2 -1267.1,381.8 -1892.1,599 -108.2,37.6 -181.4,156.5 -161.7,264.5 15.6,85.4 84.8,138.3 166.3,138.3 21.7,0 44.2,-3.7 66.8,-11.6 1263.2,-438.8 2532.4,-815.7 3864.2,-979.7 l 0.9,-0.1 c 116.4,-14 197,-110.9 177.4,-218.6 -18,-99.6 -115.7,-173.9 -222.2,-173.9"
         style="fill:#70cac3;fill-opacity:1;fill-rule:nonzero;stroke:none"
         id="path178" /><path
         d="m 34918.8,26322.8 c -23.5,0 -48.3,4 -73.3,12.6 -336,115.1 -672.5,229 -1009.8,340.6 l -0.5,0.2 c -113.9,38.7 -217.9,149.2 -199.7,272.6 12,81.5 89.7,133.4 183.4,133.4 27.7,0 56.8,-4.5 86,-14.2 336.9,-111.2 673.4,-225.4 1009.3,-340.4 l 0.5,-0.2 c 109.4,-38.9 191.5,-151 173.3,-267.4 -13.1,-83.7 -83.5,-137.2 -169.2,-137.2"
         style="fill:#70cac3;fill-opacity:1;fill-rule:nonzero;stroke:none"
         id="path180" /><path
         d="m 26423.5,26915.3 c -44.7,0 -66.1,35.9 -51.9,101.3 28,129.8 120.1,251.9 230.2,330.1 l 0.8,0.5 c 789.3,527.7 1720.2,841.2 2674.9,848 11.2,0 22.6,0.1 33.8,0.1 1223.3,0 2471,-465.4 3628.6,-819.4 l 0.4,-0.1 c 116.8,-36.9 238.8,-148.7 217.9,-274.5 -15.3,-91.9 -107.7,-130.6 -198,-130.6 -31.4,0 -62.6,4.7 -90.2,13.5 -835.2,266.2 -1702.9,505.5 -2567.3,705.1 -345.7,67.4 -690.4,101.3 -1030.8,101.3 -970.3,0 -1907.6,-275.3 -2744.4,-834.5 -41.4,-27.6 -77,-40.8 -104,-40.8"
         style="fill:#70cac3;fill-opacity:1;fill-rule:nonzero;stroke:none"
         id="path182" /><path
         d="m 34894.3,25126.3 c -23.1,0 -47.3,4 -71.8,12.5 h -0.1 c -827.1,315.6 -1727.7,590.4 -2602.9,850.8 -1062.7,316.2 -2149.8,678.7 -3263.3,678.7 -164.1,0 -328.6,-7.9 -493.8,-25 h -0.6 c -14.3,-2.4 -30.4,-3.7 -47.3,-3.7 -99.3,0 -228.7,43.2 -204.6,154 29.2,134.4 190.4,224 324.8,239.7 173.7,20.4 347.4,29.7 521.1,29.7 1093,0 2182.8,-369.2 3234.5,-682 874.9,-260.2 1748.8,-546.9 2602,-850.4 108.6,-38.7 188.4,-151.5 169.9,-267 -13.5,-83.7 -83.3,-137.3 -167.9,-137.3"
         style="fill:#70cac3;fill-opacity:1;fill-rule:nonzero;stroke:none"
         id="path184" /><path
         d="m 26210,25784.2 c -43.9,0 -65.6,34 -52.6,97.5 26.7,130 119.6,256.4 228.6,331.5 296,204.2 621.8,374.9 958.8,511.7 35.9,14.5 69.6,21.2 99.2,21.2 80.9,0 131.1,-50.1 112.8,-125.7 -31.9,-131.3 -163.4,-234.3 -288.3,-286.7 -0.9,-0.4 -1.9,-0.7 -2.8,-1.1 -332.7,-134.3 -649.4,-305.8 -948.8,-506.4 -42.4,-28.4 -79.1,-42 -106.9,-42"
         style="fill:#70cac3;fill-opacity:1;fill-rule:nonzero;stroke:none"
         id="path186" /><path
         d="m 34581.6,24023.4 c -23.5,0 -48.1,4.1 -73.1,12.7 l -0.3,0.1 c -331.6,112.9 -667.8,229.5 -1000.3,342.6 -113.5,38.6 -216.7,150.2 -197.8,273.3 12.4,81.1 89.5,132.5 182.4,132.5 27.7,0 56.8,-4.6 86,-14.3 l 0.6,-0.2 c 333.2,-111.2 670.1,-225.2 999.5,-342.3 109,-38.7 190.3,-151.6 171.6,-267.7 -13.5,-83.4 -83.5,-136.7 -168.6,-136.7"
         style="fill:#70cac3;fill-opacity:1;fill-rule:nonzero;stroke:none"
         id="path188" /><path
         d="m 25996.2,24651.9 c -44.6,0 -66,35.4 -51.9,100.6 28,129.8 120.1,252.1 230.3,330.3 l 0.6,0.4 c 809.5,536.6 1746.4,848.2 2723.8,848.2 103.8,0 207.9,-3.5 312.5,-10.7 609.1,-41.5 1199.4,-213.9 1786.3,-372 565.8,-152.3 1128.1,-316.8 1688,-489.8 l 0.6,-0.2 c 117.2,-36.8 235.5,-149.1 215,-274.3 -15,-91.7 -106.3,-130.9 -195.9,-130.9 -30.9,0 -61.7,4.7 -89,13.5 -1107.5,356.6 -2301.4,762.5 -3478.5,863.5 -86.6,4.3 -172.9,6.4 -258.6,6.4 -1002.3,0 -1940.2,-291 -2778.9,-844.5 -41.5,-27.4 -77.2,-40.5 -104.3,-40.5"
         style="fill:#70cac3;fill-opacity:1;fill-rule:nonzero;stroke:none"
         id="path190" /><path
         d="m 30715.8,24044.5 c -40.2,0 -79.3,5.3 -111.4,14.2 -554.2,154.3 -1119,298.4 -1701.6,344 h -1 c -112.4,3.8 -307,73.4 -281.3,204.4 24.5,125.6 194.7,186.9 325.7,186.9 9.7,0 19.1,-0.3 28.2,-1 579.8,-42 1138.7,-194 1701.5,-343.2 l 0.5,-0.1 c 122.9,-32.8 288.7,-144.6 265.4,-277.1 -16.5,-94.3 -124.5,-128.1 -226,-128.1"
         style="fill:#70cac3;fill-opacity:1;fill-rule:nonzero;stroke:none"
         id="path192" /><path
         d="m 25782.6,23519.6 c -44.1,0 -65.5,34.8 -52.4,98.6 26.9,130 119.9,256.4 229,331.5 536.9,369.6 1151.6,617.7 1794.9,762.7 16.6,3.7 35.4,5.6 54.9,5.6 97.9,0 216.4,-47.9 191.5,-154.7 -30.5,-130.8 -191.4,-214.5 -322.4,-241.5 l -2.6,-0.5 c -642,-131.9 -1233.8,-395.2 -1786.2,-759.2 l -1.9,-1.3 c -41.7,-27.9 -77.6,-41.2 -104.8,-41.2"
         style="fill:#70cac3;fill-opacity:1;fill-rule:nonzero;stroke:none"
         id="path194" /><path
         d="m 31979.9,2644.5 h 8395.6 V 13120.6 H 31979.9 V 2644.5"
         style="fill:#42abaa;fill-opacity:1;fill-rule:nonzero;stroke:none"
         id="path196" /><path
         d="m 30155,2644.5 h 6353.4 V 13120.6 H 30155 Z"
         style="fill:#6dc6c1;fill-opacity:1;fill-rule:nonzero;stroke:none"
         id="path198" /><path
         d="m 39704,25567.2 c 166.1,1158.4 927.4,2453.8 729.7,3656.8 -197.6,1203.1 -1784.5,1851 -1990.4,866.9 -270.4,-1292.8 -773.8,-4160.9 -718.3,-4948.7 96.7,-1370.4 1768.1,-1045.2 1979,425"
         style="fill:#6dc6c1;fill-opacity:1;fill-rule:nonzero;stroke:none"
         id="path200" /><path
         d="m 43269,6295.6 -258.3,-1537.9 900.6,-165.8 688.8,2319 -1331.1,-615.3"
         style="fill:#6dc6c1;fill-opacity:1;fill-rule:nonzero;stroke:none"
         id="path202" /><path
         d="m 40834.6,6910.9 289.7,-2349.1 h 836 l -257.3,2651.1 -868.4,-302"
         style="fill:#6dc6c1;fill-opacity:1;fill-rule:nonzero;stroke:none"
         id="path204" /><path
         d="m 42923.1,4955.3 c -161.7,-332.5 -197.7,-874 -214.8,-1151.9 h 1034.6 l 77.1,101.2 1005.5,-101.2 h 1529.2 c 0.3,156.9 0.7,232.5 0.7,232.5 l -1689.5,525.9 -515.5,393.5 h -1227.3"
         style="fill:#284c7c;fill-opacity:1;fill-rule:nonzero;stroke:none"
         id="path206" /><path
         d="m 39916.7,4146.9 c 180.2,135 1011,670.6 1011,670.6 l 1112.1,-61.1 104.9,-944.6 c 0,0 -1299.6,-4.3 -2228,-8 v 343.1"
         style="fill:#284c7c;fill-opacity:1;fill-rule:nonzero;stroke:none"
         id="path208" /><path
         d="m 46584.9,24236.8 c 604.2,190.2 563.3,929.9 238.7,2167.7 -324.6,1237.9 118,2700.2 -601.2,3822.7 -719.3,1122.5 -2447.5,669.3 -2164.2,-746.8 283.3,-1416.1 1028.8,-4089.1 1528,-4793.9 499.2,-704.7 998.7,-449.7 998.7,-449.7"
         style="fill:#6dc6c1;fill-opacity:1;fill-rule:nonzero;stroke:none"
         id="path210" /><path
         d="m 40473.7,23013.1 c -315.3,-1563.4 -656.4,-3484.2 -458.6,-4196.3 197.9,-712.2 5088.4,-1457.6 4930.8,816.3 -157.7,2273.8 -823.2,3420.5 -823.2,3420.5 l -3649,-40.5"
         style="fill:#31898c;fill-opacity:1;fill-rule:nonzero;stroke:none"
         id="path212" /><path
         d="m 41445,22976.9 c 2786.3,-509.4 946,-8693.3 826.1,-10058 -120,-1364.7 -1678.2,-3283.8 -1973.5,-435.3 -302.8,2920.3 -757.2,7910.6 175.7,9233.3 933,1322.7 971.7,1260 971.7,1260"
         style="fill:#31898c;fill-opacity:1;fill-rule:nonzero;stroke:none"
         id="path214" /><path
         d="m 41722,13664 c -1636.4,72.9 -1746.5,-2399.7 -1603.3,-3632.5 143.2,-1232.8 558.4,-5055.6 558.4,-5055.6 l 1479.1,-39.7 c 0,0 88.7,6870.7 35.3,7718.1 -53.4,847.4 -469.5,1009.7 -469.5,1009.7"
         style="fill:#31898c;fill-opacity:1;fill-rule:nonzero;stroke:none"
         id="path216" /><path
         d="m 43230.7,22934 c -2634.4,-1040.6 759.7,-8711.6 1142.3,-10027 382.6,-1315.4 2283.7,-2895.6 2020.4,-43.9 -269.9,2923.5 -793,7907.1 -1964.9,9023.5 -1172,1116.5 -1197.8,1047.4 -1197.8,1047.4"
         style="fill:#31898c;fill-opacity:1;fill-rule:nonzero;stroke:none"
         id="path218" /><path
         d="m 45236.5,14226.6 c 1617.7,-257.9 1227.9,-2702 839.5,-3880.8 -388.4,-1178.7 -1705.8,-5385.3 -1705.8,-5385.3 l -1456.8,258.7 c 0,0 1437.2,7293.6 1660.1,8112.9 222.8,819.3 663,894.5 663,894.5"
         style="fill:#31898c;fill-opacity:1;fill-rule:nonzero;stroke:none"
         id="path220" /><path
         d="m 43442.3,30837.2 c 0,-2179 410,-8133 410,-8133 -340.9,-74.8 -2278.7,-241.5 -2777.7,-216.8 0,0 178.8,6132.4 178.8,8349.8 h 993.2 l 841.4,-30.3 354.3,30.3"
         style="fill:#ffffff;fill-opacity:1;fill-rule:nonzero;stroke:none"
         id="path222" /><path
         d="m 41418,31321.5 c 0,0 510.5,-6038 603.8,-7566.1 93.3,-1528.1 -383.6,-5757.2 -383.6,-5757.2 0,0 -2162.9,-112.1 -2099.1,789.2 63.8,901.3 293.3,3241.6 239,4189.9 -54.3,948.4 -1085.1,6897.2 -994.6,7405.2 90.4,508.1 2634.5,939 2634.5,939"
         style="fill:#6dc6c1;fill-opacity:1;fill-rule:nonzero;stroke:none"
         id="path224" /><path
         d="m 43093.6,31369.3 284.1,-475.8 c 0,0 27.4,-4647 54.3,-7138.1 27,-2491.1 669.4,-5761.6 669.4,-5761.6 0,0 2033.8,172.1 1756.3,1165.7 -277.6,993.5 -746.4,2450.9 -692.1,3399.3 54.3,948.3 933.9,7315.7 843.4,7823.7 -90.5,508.1 -2915.4,986.8 -2915.4,986.8"
         style="fill:#6dc6c1;fill-opacity:1;fill-rule:nonzero;stroke:none"
         id="path226" /><path
         d="m 40719,35449.2 c -571.2,-911.3 415.9,-2284.9 415.9,-2284.9 l 663,2189.6 -1078.9,95.3"
         style="fill:#284c7c;fill-opacity:1;fill-rule:nonzero;stroke:none"
         id="path228" /><path
         d="m 41694.8,34580.3 1454.6,-432 111.1,-3069.8 -1744.4,-6.9 178.7,3508.7"
         style="fill:#f8ab78;fill-opacity:1;fill-rule:nonzero;stroke:none"
         id="path230" /><path
         d="m 42905.9,35829.7 c -1252.2,592.8 -1848,102.5 -2101.7,-851.2 -253.7,-953.5 -272.5,-2712.2 398.1,-2912.9 670.6,-200.8 1854.3,169.4 2089.9,1139.8 235.7,970.2 320.6,2289.7 -386.3,2624.3"
         style="fill:#f8ab78;fill-opacity:1;fill-rule:nonzero;stroke:none"
         id="path232" /><path
         d="m 45125.3,28454.2 102.4,-567.8 -679.5,111.7 z"
         style="fill:#ffffff;fill-opacity:1;fill-rule:nonzero;stroke:none"
         id="path234" /><path
         d="m 44417.9,27942.2 428.1,651.6 381.7,-707.4 z"
         style="fill:#ffffff;fill-opacity:1;fill-rule:nonzero;stroke:none"
         id="path236" /><path
         d="m 41418,30227.2 h 1959.7 v 1414.7 H 41418 v -1414.7"
         style="fill:#ffffff;fill-opacity:1;fill-rule:nonzero;stroke:none"
         id="path238" /><path
         d="M 43432.6,23674.4 43377,31408 c 0,0 291.1,-13.9 500.6,-228.5 209.4,-214.6 450.1,-1057.4 450.1,-1057.4 l -475,-310.5 475,-313.6 -895.1,-5823.6"
         style="fill:#31898c;fill-opacity:1;fill-rule:nonzero;stroke:none"
         id="path240" /><path
         d="M 42021.8,23755.4 41418,31408 c 0,0 -291.1,-13.9 -500.5,-228.5 -209.5,-214.6 -450.1,-1057.4 -450.1,-1057.4 l 475,-310.5 -475,-313.6 1554.4,-5742.6"
         style="fill:#31898c;fill-opacity:1;fill-rule:nonzero;stroke:none"
         id="path242" /><path
         d="m 40501.2,26770.9 -283,-1672.2 c 0,0 5184.5,-911.9 5953,-906.8 768.4,5 917.1,529.5 880.2,955.6 -115.4,1332.6 -6550.2,1623.4 -6550.2,1623.4"
         style="fill:#6dc6c1;fill-opacity:1;fill-rule:nonzero;stroke:none"
         id="path244" /><path
         d="m 45363,26343.7 c -567.7,1135.9 -2522.7,321 -2522.7,321 l 324.4,-951.5 c 0,0 178.1,174.2 1023.9,409.5 845.8,235.2 1174.4,221 1174.4,221"
         style="fill:#f8ab78;fill-opacity:1;fill-rule:nonzero;stroke:none"
         id="path246" /><path
         d="m 40083.2,26535 1.5,1.3 c 49.3,43.9 53.5,119.5 9.2,168.5 l -547.3,606.4 c -44.1,49.5 -119.8,53.9 -169.3,9.8 -49.5,-44 -53.9,-119.8 -9.8,-169.3 l 548.4,-607.5 c 43.8,-48.6 118.5,-52.7 167.3,-9.2"
         style="fill:#f8ab78;fill-opacity:1;fill-rule:nonzero;stroke:none"
         id="path248" /><path
         d="m 39707.5,26470.3 1.7,0.8 c 59.9,27.8 85.7,99 57.5,158.7 l -348.9,738.6 c -27.8,60.1 -99.1,86.2 -159.2,58.3 -60.1,-27.8 -86.2,-99.1 -58.3,-159.2 l 349.6,-740.1 c 27.9,-59.1 98.3,-84.6 157.6,-57.1"
         style="fill:#f8ab78;fill-opacity:1;fill-rule:nonzero;stroke:none"
         id="path250" /><path
         d="m 39532.2,26421.2 1.8,0.8 c 59.9,27.8 85.6,99 57.5,158.7 l -348.9,738.7 c -27.8,60 -99.1,86.1 -159.2,58.2 -60.1,-27.8 -86.2,-99.1 -58.3,-159.2 l 349.5,-740.1 c 28,-59.1 98.3,-84.6 157.6,-57.1"
         style="fill:#f8ab78;fill-opacity:1;fill-rule:nonzero;stroke:none"
         id="path252" /><path
         d="m 39408.6,26126.9 1.6,1.2 c 53.3,38.8 64.8,113.7 25.5,166.7 l -485.7,656.9 c -39,53.5 -114.1,65.2 -167.5,26.2 -53.5,-39 -65.3,-114.1 -26.3,-167.5 l 486.7,-658.1 c 38.9,-52.6 112.9,-63.9 165.7,-25.4"
         style="fill:#f8ab78;fill-opacity:1;fill-rule:nonzero;stroke:none"
         id="path254" /><path
         d="m 44101.7,27019.8 452.8,-1834.7 c 0,0 -5184.5,-911.9 -5952.9,-906.8 -768.5,5 -912,777.1 -875,1203.1 115.4,1332.7 6375.1,1538.4 6375.1,1538.4"
         style="fill:#6dc6c1;fill-opacity:1;fill-rule:nonzero;stroke:none"
         id="path256" /><path
         d="m 40701.3,36564.8 c -645.1,-646 -471,-1076.7 155.6,-1142.9 626.7,-66.3 1375.2,0 1375.2,0 0,0 452.6,-1921.5 0,-2120.3 -452.6,-198.8 -550.1,348.7 -1410,198.8 -527.8,-92 -370.3,-1706.1 221.6,-1772.4 591.8,-66.2 1612,358.4 1730.9,874.9 119,516.5 -275.6,1725.7 0,2073.6 275.6,347.8 519.3,99.4 502,-165.7 -17.5,-265 0.8,-1457.6 0.8,-1457.6 0,0 469.1,1262.9 434.3,2039.4 -34.8,776.5 -348.1,1439.1 -1166.3,1339.7 -818.1,-99.4 -922.5,-350.9 -1409.9,-241.7 -487.4,109.2 -434.2,374.2 -434.2,374.2"
         style="fill:#284c7c;fill-opacity:1;fill-rule:nonzero;stroke:none"
         id="path258" /><path
         d="m 34799.8,17740.2 c -550.4,140.1 -550.7,804.4 -321.8,1928.7 228.8,1124.3 -246.2,2297.5 341.6,3338.3 587.9,1040.8 2163.5,835.1 1980.6,-446.7 -183,-1281.9 -921.9,-3724.7 -1333.7,-4380.5 -411.7,-655.8 -666.7,-439.8 -666.7,-439.8"
         style="fill:#f8ab78;fill-opacity:1;fill-rule:nonzero;stroke:none"
         id="path260" /><path
         d="m 34819.6,23007.2 c -250.4,-443.4 -307.4,-910.9 -308.6,-1388.4 l 1931,-702.7 c 162.1,606 294.2,1196.2 358.2,1644.4 182.9,1281.8 -1392.7,1487.5 -1980.6,446.7"
         style="fill:#31898c;fill-opacity:1;fill-rule:nonzero;stroke:none"
         id="path262" /><path
         d="m 40846.3,23393.3 c -505.3,365 -1494.9,539.5 -2288.2,606.2 -189.7,16 -368.1,25.9 -525.4,30.6 -662.1,19.8 -1773.4,-60.2 -2324.8,-335.5 -563,-281.1 -526.3,-776.4 -522.1,-2700.7 4.2,-1897.6 934.1,-2719.5 815.2,-5173.6 1315.2,-621 760,-560.8 2041.3,-599.2 149.2,-4.4 290.8,-1.9 432.4,0 1076.5,14.8 1523.3,505.5 1523.3,505.5 l 893.7,6306.8 c 59.3,590.6 429.8,1016.5 -45.4,1359.9"
         style="fill:#42abaa;fill-opacity:1;fill-rule:nonzero;stroke:none"
         id="path264" /><path
         d="m 40846.3,23393.3 c -339.3,245.1 -897.1,404.1 -1467.2,502.4 -882.3,-1305.8 -1257.1,-3013.5 -1155,-4443.2 87.5,-1429 19.1,-2845 -198.7,-4230.9 5.8,-0.1 11,-0.3 16.9,-0.5 149.2,-4.4 290.8,-1.9 432.5,0 1076.4,14.8 1523.2,505.5 1523.2,505.5 l 893.7,6306.8 c 59.3,590.6 429.8,1016.5 -45.4,1359.9"
         style="fill:#31898c;fill-opacity:1;fill-rule:nonzero;stroke:none"
         id="path266" /><path
         d="m 36001,16562.6 c 0,0 1307.5,-211.2 2152.2,-189.8 844.7,21.4 1949.7,94.2 1949.7,94.2 0,0 1257.3,-2246.7 849.9,-2915.5 -407.4,-668.7 -902.2,-382.4 -5404.1,-431 -2407.1,-26.1 -2897,1198.2 -2966.6,1522.3 -338.3,1574.4 2216.2,1104.8 2706.4,1171.1 494.5,572.5 712.5,748.7 712.5,748.7"
         style="fill:#1e3961;fill-opacity:1;fill-rule:nonzero;stroke:none"
         id="path268" /><path
         d="m 42338.2,17781.3 c -533,-186.8 -898.7,363.3 -1327.8,1420.6 -429,1057.3 -1369.5,1732.7 -1455.1,2918.4 -85.7,1185.6 1234.1,1917.3 1787.9,754.7 553.7,-1162.6 1285.6,-3592.7 1305.4,-4362.5 19.7,-769.8 -310.4,-731.2 -310.4,-731.2"
         style="fill:#f8ab78;fill-opacity:1;fill-rule:nonzero;stroke:none"
         id="path270" /><path
         d="m 41336.9,22904.2 c -556.8,1169 -1983.1,468.6 -1896.9,-723.6 54.7,-757.3 496,-1321.8 921.4,-1905.4 l 1582.9,1073.3 c -199.1,590 -414,1149.8 -607.4,1555.7"
         style="fill:#31898c;fill-opacity:1;fill-rule:nonzero;stroke:none"
         id="path272" /><path
         d="m 39243.6,23943 c -476.7,79.5 -982,214.5 -1351,214.5 -353.7,0 -1004.5,-197.5 -1556.6,-324 88.1,-597 702.6,-1059.8 1449,-1059.8 791.3,0 1434.1,520.2 1458.6,1169.3"
         style="fill:#f8ab78;fill-opacity:1;fill-rule:nonzero;stroke:none"
         id="path274" /><path
         d="m 40343.2,5186 c -432.3,75.6 -539.2,-457.4 -539.2,-457.4 l -661.5,-2444 c 0,0 -249.9,-837.5 471.6,-963.7 721.5,-126.1 1045,568.3 1136.1,1089.4 91.1,521.1 41.9,2283.3 41.9,2283.3 0,0 -16.6,416.8 -448.9,492.4"
         style="fill:#6dc6c1;fill-opacity:1;fill-rule:nonzero;stroke:none"
         id="path276" /><path
         d="m 40350.8,5156.7 c -402.9,70.4 -502.6,-426.3 -502.6,-426.3 l -640,-2377.6 c 0,0 -233,-780.6 439.5,-898.2 672.4,-117.5 973.9,529.6 1058.8,1015.3 84.9,485.6 62.6,2227.9 62.6,2227.9 0,0 -15.4,388.5 -418.3,458.9"
         style="fill:#284c7c;fill-opacity:1;fill-rule:nonzero;stroke:none"
         id="path278" /><path
         d="m 39151.8,2279.5 c -40.3,-213.1 -86.5,-763.5 483,-863.1 504.3,-88.2 810.8,231.4 978.1,607.6 l -1461.1,255.5"
         style="fill:#6dc6c1;fill-opacity:1;fill-rule:nonzero;stroke:none"
         id="path280" /><path
         d="m 39918.2,5571.2 -16.6,-767.7 c 0,0 -92.2,-590.6 352.4,-611.3 444.6,-20.7 454.8,569.9 454.8,569.9 l 0.6,840.3 -791.2,-31.2"
         style="fill:#f8ab78;fill-opacity:1;fill-rule:nonzero;stroke:none"
         id="path282" /><path
         d="m 39872.5,3904.6 c 137.1,-23.9 575.3,-100.6 575.3,-100.6 l 17.6,100.7 c 0,0 -438.3,76.6 -575.3,100.5 l -17.6,-100.6"
         style="fill:#6dc6c1;fill-opacity:1;fill-rule:nonzero;stroke:none"
         id="path284" /><path
         d="m 39827.5,3647.5 c 215.4,-37.7 575.4,-100.6 575.4,-100.6 l 17.6,100.6 c 0,0 -360,62.9 -575.4,100.6 l -17.6,-100.6"
         style="fill:#6dc6c1;fill-opacity:1;fill-rule:nonzero;stroke:none"
         id="path286" /><path
         d="m 39782.6,3390.3 c 248.3,-43.4 575.3,-100.6 575.3,-100.6 l 17.6,100.7 c 0,0 -327,57.1 -575.3,100.5 l -17.6,-100.6"
         style="fill:#6dc6c1;fill-opacity:1;fill-rule:nonzero;stroke:none"
         id="path288" /><path
         d="m 39738.9,3124.8 c 248.3,-43.4 575.3,-100.5 575.3,-100.5 l 17.6,100.6 c 0,0 -327,57.1 -575.3,100.6 l -17.6,-100.7"
         style="fill:#6dc6c1;fill-opacity:1;fill-rule:nonzero;stroke:none"
         id="path290" /><path
         d="m 39706.6,15264.8 c 1548.8,242.7 1766,-3707.4 1729.1,-5406 -36.9,-1698.7 -453.9,-4773.1 -453.9,-4773.1 l -1316,-2.5 c 0,0 -307.1,3228.8 -639.3,5449.9 -329,2199.1 -821.6,4496.4 680.1,4731.7"
         style="fill:#284c7c;fill-opacity:1;fill-rule:nonzero;stroke:none"
         id="path292" /><path
         d="m 36599.8,27061.7 1418.8,-9.8 657.2,-3401.9 -1710.5,-263.9 -365.5,3675.6"
         style="fill:#f8ab78;fill-opacity:1;fill-rule:nonzero;stroke:none"
         id="path294" /><path
         d="m 36831.5,6257.6 c 358.9,252.5 682.7,-184.1 682.7,-184.1 l 1639.6,-1929.4 c 0,0 582.9,-651.3 -16.2,-1072.8 -599,-421.4 -1187.5,69 -1491.9,501.6 -304.4,432.6 -1010.5,2047.9 -1010.5,2047.9 0,0 -162.6,384.2 196.3,636.8"
         style="fill:#6dc6c1;fill-opacity:1;fill-rule:nonzero;stroke:none"
         id="path296" /><path
         d="m 36837.2,6227.8 c 334.5,235.4 636.2,-171.5 636.2,-171.5 l 1591.9,-1878.5 c 0,0 543.3,-607 -15,-999.8 -558.3,-392.8 -1106.7,64.2 -1390.4,467.4 -283.7,403.2 -1005.8,1989 -1005.8,1989 0,0 -151.5,358.1 183.1,593.4"
         style="fill:#284c7c;fill-opacity:1;fill-rule:nonzero;stroke:none"
         id="path298" /><path
         d="m 39147.6,4135.5 c 127.2,-175.7 403.4,-654 -69.4,-986.6 -418.6,-294.6 -832.1,-136.1 -1143.7,133 l 1213.1,853.6"
         style="fill:#6dc6c1;fill-opacity:1;fill-rule:nonzero;stroke:none"
         id="path300" /><path
         d="m 37051.9,6787.1 342.1,-687.5 c 0,0 335,-495 -58.5,-703.1 -393.4,-208.2 -654.2,321.8 -654.2,321.8 l -358.5,760 729.1,308.8"
         style="fill:#f8ab78;fill-opacity:1;fill-rule:nonzero;stroke:none"
         id="path302" /><path
         d="m 37803.2,5298.8 c -113.8,-80.1 -477.6,-336.1 -477.6,-336.1 l -58.8,83.5 c 0,0 363.9,256.1 477.7,336.1 l 58.7,-83.5"
         style="fill:#6dc6c1;fill-opacity:1;fill-rule:nonzero;stroke:none"
         id="path304" /><path
         d="m 37953.5,5085.3 c -178.9,-125.8 -477.7,-336.1 -477.7,-336.1 l -58.8,83.5 c 0,0 298.9,210.3 477.7,336.1 l 58.8,-83.5"
         style="fill:#6dc6c1;fill-opacity:1;fill-rule:nonzero;stroke:none"
         id="path306" /><path
         d="M 38103.7,4871.8 C 37897.5,4726.7 37626,4535.7 37626,4535.7 l -58.8,83.5 c 0,0 271.5,191.1 477.7,336.1 l 58.8,-83.5"
         style="fill:#6dc6c1;fill-opacity:1;fill-rule:nonzero;stroke:none"
         id="path308" /><path
         d="m 38256.3,4650.2 c -206.2,-145.1 -477.7,-336.1 -477.7,-336.1 l -58.8,83.5 c 0,0 271.5,191.1 477.7,336.1 l 58.8,-83.5"
         style="fill:#6dc6c1;fill-opacity:1;fill-rule:nonzero;stroke:none"
         id="path310" /><path
         d="m 33113.9,15647.3 c -1504.6,-440.3 -18.4,-4106.5 738.6,-5627.6 757,-1521.1 2443.9,-4124.9 2443.9,-4124.9 l 1191.8,558.3 c 0,0 -1097.7,3052 -1743.2,5203 -639.2,2129.7 -1172.1,4418 -2631.1,3991.2"
         style="fill:#284c7c;fill-opacity:1;fill-rule:nonzero;stroke:none"
         id="path312" /><path
         d="m 35525.8,15543.5 h -4336.1 c -101,0 -190.5,65 -221.8,161 l -1278.3,3921.4 c -52.3,160.3 67.2,324.9 235.8,324.9 h 4101.9 c 218.3,0 412.3,-139.5 481.7,-346.5 l 1252,-3734 c 53.8,-160.6 -65.7,-326.8 -235.2,-326.8"
         style="fill:#6dc6c1;fill-opacity:1;fill-rule:nonzero;stroke:none"
         id="path314" /><path
         d="m 35493.8,15543.5 h -4387.3 c -100.3,0 -189.3,64.1 -221.2,159.1 l -1309.4,3905.9 c -41,122.2 50,248.6 178.9,248.6 h 4189.6 c 218.4,0 412.3,-139.5 481.7,-346.5 l 1246.6,-3718.4 c 41,-122.3 -50,-248.7 -178.9,-248.7"
         style="fill:#ffffff;fill-opacity:1;fill-rule:nonzero;stroke:none"
         id="path316" /><path
         d="m 39788.6,15298.4 h -8212.9 c -136.8,0 -247.7,110.9 -247.7,247.7 h 8708.3 c 0,-136.8 -110.9,-247.7 -247.7,-247.7"
         style="fill:#ffffff;fill-opacity:1;fill-rule:nonzero;stroke:none"
         id="path318" /><path
         d="m 38126.3,16675.6 c 1223.2,592.7 2953.4,2002 3719.7,2148.6 766.2,146.6 870,-428.6 682.7,-763.6 -187.3,-334.9 -2585.6,-1515.7 -3918.4,-1728.8 -1332.8,-213.1 -484,343.8 -484,343.8"
         style="fill:#f8ab78;fill-opacity:1;fill-rule:nonzero;stroke:none"
         id="path320" /><path
         d="m 36894.3,16490.1 v 0 c 63.9,-29.4 92.1,-105.5 62.7,-169.2 l -322.3,-697.9 c -29.3,-63.6 -105.6,-91.7 -169.5,-62.3 -63.8,29.4 -92,105.5 -62.7,169.2 l 322.3,697.9 c 29.5,63.6 105.7,91.7 169.5,62.3"
         style="fill:#f8ab78;fill-opacity:1;fill-rule:nonzero;stroke:none"
         id="path322" /><path
         d="m 36809.9,16383.6 v 0 c 46,-53 40.2,-133.9 -12.9,-179.8 l -582.4,-502.7 c -53.2,-45.8 -134.3,-40 -180.3,13 -46.1,53.1 -40.2,134 12.9,179.8 l 582.4,502.8 c 53.2,45.9 134.3,40 180.3,-13.1"
         style="fill:#f8ab78;fill-opacity:1;fill-rule:nonzero;stroke:none"
         id="path324" /><path
         d="m 38259.4,16417.7 v 0 c 157.9,-96.1 189.5,-311.8 65.6,-448.6 l -22.1,-24.5 c -73.5,-81.2 -186.2,-115 -292.6,-87.6 l -318.5,39.8 c -111.8,14 -217.7,-23.2 -312.8,-83.4 l -126.8,-79.5 c -131.7,-84.1 -355.6,-64.8 -402.1,39.6 -21.6,48.4 0.2,105 48.7,126.5 l 1076,530.4 c 90.7,44.8 198.1,40 284.6,-12.7"
         style="fill:#d59470;fill-opacity:1;fill-rule:nonzero;stroke:none"
         id="path326" /><path
         d="m 38276.4,16684.1 -1047,0.4 c -37,-0.1 -73.8,-6.3 -108.9,-18.5 l -1299.2,-454.3 c -32.3,-11.3 -47.3,-48.3 -32.1,-78.9 47.4,-95.2 154,-145.7 257.9,-122.3 l 876.6,197.6 c 109.8,24.7 224.5,18.1 330.8,-19.3 l 401.8,-141.2 c 0,0 490.9,-423.2 835.2,27.2 216.1,282.6 76,463.1 -35.2,549.3 -51.3,39.8 -114.9,60 -179.9,60"
         style="fill:#f8ab78;fill-opacity:1;fill-rule:nonzero;stroke:none"
         id="path328" /><path
         d="m 37389.7,28630.7 c -1507.1,706.7 -2465.3,-1030.9 -2288,-2002.2 177.2,-971.2 884.5,-2591.8 1535,-2521.5 650.4,70.4 1466.1,841.5 1266.7,1821.1 -199.5,979.8 681.4,2142.1 -513.7,2702.6"
         style="fill:#f8ab78;fill-opacity:1;fill-rule:nonzero;stroke:none"
         id="path330" /><path
         d="m 36393.3,27694.8 c -554.2,-465.7 -91.7,-889 -91.7,-889 0,0 285.3,-266 442.5,-572.8 31.2,-60.8 174.8,38.7 250.9,5.7 94.7,-41 -153.8,665.7 264.8,681.8 418.6,16.1 408.9,-765.7 408.9,-765.7 121.6,3.8 206.2,13.1 206.2,13.1 0,0 408.1,1039.7 98.9,1412 -477.8,575.4 -1580.5,114.9 -1580.5,114.9"
         style="fill:#1e3961;fill-opacity:1;fill-rule:nonzero;stroke:none"
         id="path332" /><path
         d="m 34543.9,28057.2 c 110.8,30.3 116,54.5 338.7,31.9 222.9,-22.5 373,-111 373,-111 0,0 -211,131.3 -314.6,222 209,-26.4 473.2,67.5 473.2,67.5 0,0 -181,19.5 -327,33.1 263.6,69.1 434.7,138.9 434.7,138.9 0,0 -161.6,-6.3 -250.3,-1.6 185.1,162.6 545.7,123.6 545.7,123.6 0,0 -227.7,99.7 -279.5,101.1 277.4,59.8 723,207 723,207 0,0 -219.3,-25.6 -355.7,-13.9 343.8,223.6 757.1,368.9 1298.2,190.9 1182.2,-389 819.3,-1575.7 819.3,-1575.7 -91.6,669.2 -2535.3,-596.8 -2941.4,-569.8 -561.2,37.3 -647.5,880.3 -537.3,1156"
         style="fill:#284c7c;fill-opacity:1;fill-rule:nonzero;stroke:none"
         id="path334" /><path
         d="m 32410.6,17400.4 c -239.5,0 -478.3,149.7 -533.5,334.5 -55.2,184.7 94.2,334.5 333.6,334.5 239.5,0 478.3,-149.8 533.5,-334.5 55.2,-184.8 -94.2,-334.5 -333.6,-334.5"
         style="fill:#def4f2;fill-opacity:1;fill-rule:nonzero;stroke:none"
         id="path336" /><path
         d="m 16242.7,29834.7 v 0 c 29.6,-75.4 114.8,-112.6 190.1,-82.8 l 1147,452.5 c 75.3,29.5 112.4,114.5 82.9,189.8 -29.6,75.3 -114.6,112.4 -189.9,82.9 l -1147.4,-452.7 c -75.2,-29.7 -112.2,-114.5 -82.7,-189.7"
         style="fill:#f8ab78;fill-opacity:1;fill-rule:nonzero;stroke:none"
         id="path338" /><path
         d="m 15788.6,29584.7 v 0 c 16.2,-79.3 93.8,-130.4 173.1,-114 l 1207.4,250.3 c 79.2,16.3 130.3,93.7 114,172.9 -16.3,79.2 -93.7,130.3 -172.9,114 l -1207.9,-250.4 c -79.1,-16.4 -130,-93.7 -113.7,-172.8"
         style="fill:#f8ab78;fill-opacity:1;fill-rule:nonzero;stroke:none"
         id="path340" /><path
         d="m 16022.5,29291 c 182.9,-7.2 360.2,-14.2 360.2,-14.2 291.2,95.3 580.7,190.1 580.7,190.1 76.9,25 119,107.6 93.9,184.5 -25,76.9 -107.6,119 -184.5,94 0,0 -496.5,-162.5 -843.3,-275.9 l -7,-178.5"
         style="fill:#f8ab78;fill-opacity:1;fill-rule:nonzero;stroke:none"
         id="path342" /><path
         d="m 7460.09,28954.1 c -996,-192.9 -1376.36,-405.5 -1877.25,-223.5 -934.75,339.7 -1070.5,4488.6 -403.29,5489.5 76.23,38.7 195.7,105 280.77,135.9 314.84,117.3 1227.53,416.8 1406.51,384.7 59.64,-9.9 207.98,647.8 958.02,-1.8 511.77,-443.2 792.67,-1577.9 395.58,-2696.8 -441.77,-1244.8 858.64,-2774.5 -760.34,-3088"
         style="fill:#1e3961;fill-opacity:1;fill-rule:nonzero;stroke:none"
         id="path344" /><path
         d="m 12534,27024.1 c -144.8,-233.8 -772.5,-675.5 -1737.2,-110.2 -964.72,565.3 -2831.67,1222.7 -3908.44,1908.5 -867,552.2 2008.98,1586.6 2456.38,749.9 210.28,-393.3 2445.46,-1435.5 3067.86,-1876.3 632.6,-448 266.2,-438.1 121.4,-671.9"
         style="fill:#284c7c;fill-opacity:1;fill-rule:nonzero;stroke:none"
         id="path346" /><path
         d="m 7235.35,22527.7 c -2082.03,-390.1 -314.84,-3387.8 414.82,-4776.7 729.66,-1389 1572.52,-3846.3 2082.28,-3981.4 509.75,-134.9 1129.05,270.9 953.65,1064.9 -175.5,794 -787.96,4822.4 -1638.16,6389.8 -850.25,1567.3 -1176.93,1422.5 -1812.59,1303.4"
         style="fill:#f8ab78;fill-opacity:1;fill-rule:nonzero;stroke:none"
         id="path348" /><path
         d="m 10228.5,14699.7 c -957.68,-86.2 -832.05,-784.4 -356.59,-1735.3 475.39,-950.9 1860.99,-4748.7 2074.89,-5770.9 214,-1022.3 318.2,-1612.4 318.2,-1612.4 l 761.7,190.4 c 0,0 -135.7,489.1 -349.7,2153.2 -213.9,1664 38.1,2802.9 -357,4109 -354.3,1171.3 -1274.5,2739.7 -2091.5,2666"
         style="fill:#f8ab78;fill-opacity:1;fill-rule:nonzero;stroke:none"
         id="path350" /><path
         d="m 12113.7,3774.9 c -15.8,66.8 -23.1,134.5 -21.4,198.9 8.9,317.3 81.8,1481.5 32.1,2075.9 -49.6,594.6 -32.3,1167.4 -32.3,1167.4 l 376.2,62.7 c 0,0 990.2,-2257.2 1087.1,-2847.7 39.6,-241.3 -40,-469.4 -173.3,-657.2 h -1268.4"
         style="fill:#f8ab78;fill-opacity:1;fill-rule:nonzero;stroke:none"
         id="path352" /><path
         d="m 12110.9,3774.9 c -13.9,69.3 -70.2,308.8 -65.4,416 2.5,54.8 366.3,520.6 872.2,285.8 354,-164.4 522.2,-34.8 591.3,57.7 18.4,24.8 56.9,16.8 63.4,-13.3 63.4,-294.3 -18.8,-545 -130.9,-746.2 h -1330.6"
         style="fill:#1e3961;fill-opacity:1;fill-rule:nonzero;stroke:none"
         id="path354" /><path
         d="m 12997.5,6908.4 -1078.4,-202.9 -50.7,269.5 1078.4,202.9 50.7,-269.5"
         style="fill:#1e3961;fill-opacity:1;fill-rule:nonzero;stroke:none"
         id="path356" /><path
         d="m 5497.9,22565.3 c 2093.86,320.6 1417.78,-3092.9 1188.68,-4645 -229.15,-1552.2 -211.68,-4150 -648.09,-4446 -436.41,-296 -1155.06,-117.9 -1252.13,689.4 -97.1,807.4 -851.7,4811.6 -567.81,6572 283.89,1760.3 640.1,1731.7 1279.35,1829.6"
         style="fill:#f8ab78;fill-opacity:1;fill-rule:nonzero;stroke:none"
         id="path358" /><path
         d="m 5439.09,14755.1 c 931.78,237.3 1045.68,-462.9 913.8,-1517.8 -131.87,-1054.9 -174.5,-5097.3 -36.06,-6132.5 138.44,-1035.2 139.94,-1635.5 139.94,-1635.5 l -685.02,-64.8 c 0,0 -34.73,506.4 -386.82,2146.8 -352.04,1640.4 -968.75,2630.4 -1030.85,3993.6 -55.65,1222.5 290.1,3007.7 1085.01,3210.2"
         style="fill:#f8ab78;fill-opacity:1;fill-rule:nonzero;stroke:none"
         id="path360" /><path
         d="m 6800.95,3806.5 c 2.01,56.1 -1.81,111.4 -11.37,163.6 -57.3,312.3 -307.56,1451.5 -349.45,2046.6 -41.89,595.2 -146.7,1158.6 -146.7,1158.6 l -381.31,4.3 c 0,0 -633.07,-2382.1 -638.49,-2980.5 -1.26,-142.6 36.81,-274.6 100.64,-392.6 h 1426.68"
         style="fill:#f8ab78;fill-opacity:1;fill-rule:nonzero;stroke:none"
         id="path362" /><path
         d="m 6801.77,3806.5 c 4.8,141.1 1.46,329.6 -13.53,404.3 -10.81,53.7 -279.16,610.9 -687.97,231.7 -368.33,-341.5 -676.83,-199.9 -798.76,-117.1 -26.98,18.3 -61.9,-0.9 -63.55,-33.4 -9.64,-186.8 44.91,-345.5 108.55,-485.5 h 1455.26"
         style="fill:#1e3961;fill-opacity:1;fill-rule:nonzero;stroke:none"
         id="path364" /><path
         d="m 6501.8,6672.1 -1093,-97.8 -24.42,273 1093,97.9 24.42,-273.1"
         style="fill:#1e3961;fill-opacity:1;fill-rule:nonzero;stroke:none"
         id="path366" /><path
         d="m 6561.62,20396.6 c 841.99,27.3 2500.75,271 2540.87,1413.4 40.07,1142.3 -1486.38,2750.6 -1582.22,3364 -95.85,613.4 -1389.08,978.5 -1389.08,978.5 0,0 -784.13,-448.1 -1023.34,-1394.6 -239.25,-946.4 -712.51,-2421 -757.39,-3222.7 -44.87,-801.7 1654.67,-1156.7 2211.16,-1138.6"
         style="fill:#d87c55;fill-opacity:1;fill-rule:nonzero;stroke:none"
         id="path368" /><path
         d="m 5056.64,24749.7 c -62.34,-246.6 -139.86,-527.3 -223.04,-824.1 -232.52,-841.2 -784.77,-1641.4 -784.77,-2895.2 -118.77,-1341.7 -120.62,-2777.2 515.31,-6117.6 l 672.71,20.7 11.69,3944 434.08,-3929.8 5093.38,137.8 c -683.7,5527.9 -2027.49,8320.2 -2415.95,8921.2 -281.68,433.9 -353.54,993.6 -393.23,1220.4 -39.96,1049.8 -2772.6,1103 -2910.18,-477.4"
         style="fill:#1e3961;fill-opacity:1;fill-rule:nonzero;stroke:none"
         id="path370" /><path
         d="m 8485.31,24137.1 c -162.31,739.9 264.7,3350.3 649.63,3986.3 213.24,352.4 116.77,1399.8 7.86,1569.1 -168.69,261.1 -1350.29,423.5 -1724.44,510.4 -470.16,108.6 -913.45,211.2 -1053.94,195 -257.46,-30 -2038.5,-570.2 -2118.85,-641.6 -708.86,-629.8 904.99,-3203.4 503.35,-5802.9 -34.18,-243 837.9,-547.6 1267.15,-299.2 229.81,133 173.53,641.1 138.92,918.1 -81.78,654.3 1051.93,148.2 1051.93,-154.6 0,-203.2 56.99,-464.3 250.26,-639.7 305.04,-276.9 1028.13,359.1 1028.13,359.1"
         style="fill:#284c7c;fill-opacity:1;fill-rule:nonzero;stroke:none"
         id="path372" /><path
         d="m 7206.92,24417.7 c -41.22,1736.9 840.45,5937.5 -480.5,5937.4 -109.81,-12.8 -1511.36,421.2 -881.87,-1596.5 363.26,-1164.2 294.11,-2877.2 337.45,-4454.7 l 1024.92,113.8"
         style="fill:#ffffff;fill-opacity:1;fill-rule:nonzero;stroke:none"
         id="path374" /><path
         d="m 7345.48,29699.5 c 172.47,275.2 833.33,-210.8 833.33,-210.8 0,0 -744.92,1219.6 -2021.51,1133.1 -1807.7,-122.3 -913.56,-1852.3 -913.56,-1852.3 0,0 -130.74,886.5 527.5,443.3 658.19,-443.3 1574.24,486.7 1574.24,486.7"
         style="fill:#ffffff;fill-opacity:1;fill-rule:nonzero;stroke:none"
         id="path376" /><path
         d="m 5848.2,29592.4 c 82.17,-485.1 629.69,-1523.9 878.22,-1466.7 353.89,81.5 543.66,1163.6 461.51,1648.6 -82.17,485.1 -18.85,611.7 -809.71,477.7 -790.89,-133.9 -612.22,-174.6 -530.02,-659.6"
         style="fill:#f8ab78;fill-opacity:1;fill-rule:nonzero;stroke:none"
         id="path378" /><path
         d="m 6270.5,33749.6 v 0 c -281.06,-71.5 -477.75,-324.5 -477.75,-614.5 v -3143 c 0,-350.2 283.89,-373.4 634.01,-373.4 350.24,0 736.3,-36.3 736.3,313.9 l -102.21,3202.5 c 0,413.6 -389.57,716.4 -790.35,614.5"
         style="fill:#f8ab78;fill-opacity:1;fill-rule:nonzero;stroke:none"
         id="path380" /><path
         d="m 5225.46,32751.5 c 155.74,-950 1161.47,-1792.6 1678.66,-1718.6 439.05,62.7 1179.36,1211.7 1023.58,2161.8 -155.75,950 -886.95,1620.9 -1633.2,1498.6 -746.22,-122.4 -1224.84,-991.8 -1069.04,-1941.8"
         style="fill:#f8ab78;fill-opacity:1;fill-rule:nonzero;stroke:none"
         id="path382" /><path
         d="m 2659.33,20732.7 c 778.9,1352.1 2015.45,3013.6 2155.5,3886.8 140.1,873.1 -518.13,1005.2 -882.61,781.5 -679.24,-417 -1219.83,-2879.7 -1651.41,-4239.1 -463.46,-1460 378.52,-429.2 378.52,-429.2"
         style="fill:#f8ab78;fill-opacity:1;fill-rule:nonzero;stroke:none"
         id="path384" /><path
         d="m 3541.12,22352.5 -228.51,-879.2 c 0,0 -1028.18,-521.6 -1251.73,-84.4 466.93,506.6 660.91,1074.6 660.91,1074.6 l 819.33,-111"
         style="fill:#ffffff;fill-opacity:1;fill-rule:nonzero;stroke:none"
         id="path386" /><path
         d="m 3499.59,21989.2 c 647.33,1020.8 1261.56,2011.6 1361.15,2632.5 150.87,940.4 -558.02,1082.6 -950.58,841.7 -572.14,-351.2 -1052.96,-2050 -1457.71,-3474.2 h 1047.14"
         style="fill:#284c7c;fill-opacity:1;fill-rule:nonzero;stroke:none"
         id="path388" /><path
         d="m 2168.49,20783.5 -79.02,-964.5 c -2.75,-34.3 0.24,-68.6 8.85,-101.8 l 695.4,-359.8 c 402.75,51.5 161.77,393.4 204.17,488.5 l -289.55,318.5 c 0,0 426.77,420.4 37.67,771.5 -244.16,220.4 -420.98,104.7 -508.73,8.8 -40.56,-44.2 -63.88,-101.4 -68.79,-161.2"
         style="fill:#f8ab78;fill-opacity:1;fill-rule:nonzero;stroke:none"
         id="path390" /><path
         d="m 4033.65,24185 c -263.27,42.3 -358.3,814.3 -366.67,1967.5 -7.91,1088.9 31.27,1977.9 60.13,2851.1 37.56,1139.2 1444.49,901 1353.76,-317.9 -90.78,-1218.9 -114.06,-2992.1 -276.26,-3713.6 -164.91,-733.5 -507.6,-829.4 -770.96,-787.1"
         style="fill:#284c7c;fill-opacity:1;fill-rule:nonzero;stroke:none"
         id="path392" /><path
         d="m 2741.5,20914.2 v 0 c -172.87,56.1 -353.75,-58.7 -376.32,-238.6 l -4.02,-32.2 c -13.41,-106.8 33.67,-212.5 122.21,-274.1 l 233.77,-211.8 c 82.17,-74.3 122.25,-177.1 138.41,-286.5 l 22.07,-145.4 c 21.66,-152 179.62,-306.5 287.19,-274.2 49.91,14.9 78.03,67.5 62.96,117.3 l -294.42,1141.6 c -24.82,96.3 -97.23,173.2 -191.85,203.9"
         style="fill:#f8ab78;fill-opacity:1;fill-rule:nonzero;stroke:none"
         id="path394" /><path
         d="m 7195.9,34628.5 c -16.06,-221.8 -85.49,-387.5 -227.35,-467.1 -1723.08,-967.3 -2017.77,-4016.9 -1256.8,-4849.5 -1363.9,948.9 -1349.69,3404.5 -858.19,4455.8 445.11,1013.3 1193.71,1486.2 1865.6,1446.3 256.93,-15.2 488.75,-126.9 476.74,-585.5"
         style="fill:#284c7c;fill-opacity:1;fill-rule:nonzero;stroke:none"
         id="path396" /><path
         d="m 7873.93,33618.9 c -38.66,-361.7 -178.95,-608.3 -178.95,-608.3 -226.46,731.1 -906.98,917.7 -807.56,1725.1 234.51,516.3 613.5,322.2 929.06,-469.8 70.69,-234.5 78.44,-456.8 57.45,-647"
         style="fill:#284c7c;fill-opacity:1;fill-rule:nonzero;stroke:none"
         id="path398" /><path
         d="m 15428.1,29725.5 c -1415.9,-655.8 -3384.1,-1300.5 -4002,-1933.2 -617.8,-632.8 -156.1,-1120.1 270.6,-1147.4 795.4,-50.9 2656.9,1649.7 3793.3,2511.8 1220.3,925.7 -61.9,568.8 -61.9,568.8"
         style="fill:#f8ab78;fill-opacity:1;fill-rule:nonzero;stroke:none"
         id="path400" /><path
         d="m 13875.5,29029.4 c 355.5,285 190,719.5 190,719.5 0,0 322,-182.2 655.7,-713.6 333.8,-531.4 249.9,-857.6 249.9,-857.6 0,0 -291.6,334.6 -554.4,208.3 -262.7,-126.3 -541.2,643.4 -541.2,643.4"
         style="fill:#ffffff;fill-opacity:1;fill-rule:nonzero;stroke:none"
         id="path402" /><path
         d="m 14021,29239.9 c -1126.7,-464 -2185.6,-997 -2627.3,-1449.3 -633.2,-648.5 -160.1,-1147.9 277.3,-1175.9 608.5,-38.9 1825.7,922.3 2888.2,1779.7 l -538.2,845.5"
         style="fill:#284c7c;fill-opacity:1;fill-rule:nonzero;stroke:none"
         id="path404" /><path
         d="m 16745.2,29429.8 c 54.3,74.1 82.3,90.6 92.9,99.4 0,0 27.7,430.7 -106.3,623.6 -134.1,192.8 -596.4,-18.5 -700.5,-20.3 l -65.6,83.8 c 0,0 -541.6,-15.6 -695.1,-516.6 -96.4,-314.4 -11,-461.2 113,-500.2 37.6,-11.8 519.6,-34.5 845.9,-53.6 250.4,-14.6 400.3,126.5 515.7,283.9"
         style="fill:#f8ab78;fill-opacity:1;fill-rule:nonzero;stroke:none"
         id="path406" /><path
         d="M 22869.9,33938.1 C 20436.7,32346.6 16226.6,29607 16226.6,29607 c -91.6,-59.9 -214.5,-32.9 -272.6,59.8 -58.1,92.7 -28.8,215 65,271.3 0,0 4322.3,2560.8 6814.9,4057.4 l 36,-57.4"
         style="fill:#284c7c;fill-opacity:1;fill-rule:nonzero;stroke:none"
         id="path408" /><path
         d="m 15350.3,29965.8 v 0 c -43.7,-176.5 83.6,-348.7 264.7,-358.5 l 32.4,-1.7 c 107.5,-5.8 209.5,48.7 264.7,141.4 l 194.7,248.2 c 68.3,87.2 167.9,134.5 276,158.4 l 143.4,32.3 c 150.1,32.5 293,200.9 253.1,305.9 -18.4,48.7 -72.8,73.1 -121.5,54.5 L 15540,30171.6 c -94.3,-31.6 -165.9,-109.3 -189.7,-205.8"
         style="fill:#f8ab78;fill-opacity:1;fill-rule:nonzero;stroke:none"
         id="path410" /><path
         d="m 17226.3,29746 v 0 c 62.8,41.6 80,126.4 38.1,189.2 l -210.8,335.3 c -41.6,62.7 -126.2,79.9 -188.9,38.3 -62.8,-41.6 -79.9,-126.2 -38.3,-189 l 211.1,-335.8 c 41.7,-62.6 126.1,-79.6 188.8,-38"
         style="fill:#f8ab78;fill-opacity:1;fill-rule:nonzero;stroke:none"
         id="path412" /><path
         d="m 16986.3,29553.5 v 0 c 62.8,41.7 79.9,126.4 38.1,189.2 l -210.8,335.3 c -41.6,62.8 -126.2,79.9 -189,38.3 -62.7,-41.6 -79.9,-126.1 -38.3,-189 l 211.2,-335.7 c 41.7,-62.6 126.1,-79.7 188.8,-38.1"
         style="fill:#f8ab78;fill-opacity:1;fill-rule:nonzero;stroke:none"
         id="path414" /><path
         d="m 16734.6,29344.5 v 0 c 62.8,41.6 79.9,126.4 38.1,189.2 l -210.8,335.3 c -41.6,62.7 -126.2,79.9 -189,38.3 -62.7,-41.6 -79.9,-126.2 -38.3,-189 l 211.2,-335.8 c 41.7,-62.5 126.1,-79.6 188.8,-38"
         style="fill:#f8ab78;fill-opacity:1;fill-rule:nonzero;stroke:none"
         id="path416" /><path
         d="m 16265,29241 v 0 c 32.8,-67.8 114.6,-96.1 182.4,-63.1 l 260.4,121.2 c 67.8,32.8 96.1,114.4 63.3,182.1 -32.9,67.8 -114.4,96 -182.2,63.2 l -261,-121.4 c -67.6,-32.9 -95.8,-114.3 -62.9,-182"
         style="fill:#f8ab78;fill-opacity:1;fill-rule:nonzero;stroke:none"
         id="path418" /><g
         id="g420"><g
           id="g422"
           clip-path="url(#clipPath426)"><path
             d="m 22871.4,16313.3 h 1356.4 v 1100.9 h -1356.4 z"
             style="fill:#a6e1d9;fill-opacity:1;fill-rule:nonzero;stroke:none"
             id="path428" /></g></g><path
         d="m 27237.9,5243.5 c -218.7,167.4 -453,269.9 -675.5,269.9 -150.1,0 -294.9,-46.7 -425.9,-151.6 134.8,252.7 343.3,462.4 620.1,582 150.8,65.2 308.8,91.5 469.5,91.5 338,0 687.1,-116.6 1002.5,-233 -363.2,-122.2 -893.1,-129.7 -990.7,-558.8"
         style="fill:#85d2cb;fill-opacity:1;fill-rule:nonzero;stroke:none"
         id="path430" /><path
         d="m 30778.7,5682.3 c -190.9,0 -320.1,100.7 -327.9,436.9 -5.4,234 -5,456.6 -7.5,666.2 122.5,110.4 265.3,181.7 449.9,181.7 60.9,0 126.4,-7.7 197.1,-24.4 423.6,-100 505.8,-504.9 493.1,-1067.8 -99.6,-21.3 -200.2,-50.8 -298.2,-80.3 -186.7,-56.1 -363.8,-112.3 -506.5,-112.3"
         style="fill:#6dc6c1;fill-opacity:1;fill-rule:nonzero;stroke:none"
         id="path432" /><path
         d="m 31771.4,2644.5 c -215.2,843.6 1323.1,2041.9 542.8,3047.7 -251.9,324.9 -659.3,213.6 -1029,102.4 -436.7,-131.4 -820.9,-262.7 -834.4,324.6 -26.4,1149.8 85.8,2022.9 -683.2,2435.7 -1071.3,575.1 -1926.2,-657.1 -1327.6,-1891.2 641.8,-1323.4 -1175.6,-570.9 -1217.1,-1536.1 -52,-1211.2 1099.7,-977.8 2290.8,-2483.1 h 2257.7"
         style="fill:#42abaa;fill-opacity:1;fill-rule:nonzero;stroke:none"
         id="path434" /><path
         d="m 25569.5,2644.5 c -311.8,380.2 -478.5,683.1 -196.2,1007.9 275.2,316.6 592.1,169.2 935.7,21.8 332.2,-142.6 689.3,-285.1 1057.6,-8.1 332.9,250.5 405,1211.4 1134.1,1409.1 1128.3,306 1635.9,-604.9 1251,-1862.7 -71.1,-232.1 -133,-415.5 -188.2,-568 h -3994"
         style="fill:#42abaa;fill-opacity:1;fill-rule:nonzero;stroke:none"
         id="path436" /><path
         d="m 29164.2,2644.5 h -4000.7 c 33.4,130.8 107.9,215.7 201.7,276 55.5,-88.1 125.2,-179.6 204.3,-276 h 3594.7 v 0 m -2900.1,1049 c -62.3,26.7 -123.7,52.8 -184.1,75.4 -201.8,646.3 -418.5,1043.6 -73.9,1462.9 41.6,50.6 85.2,93.8 130.4,130 -272.3,-510.5 -244.1,-1196.3 127.6,-1668.3"
         style="fill:#7dcfc8;fill-opacity:1;fill-rule:nonzero;stroke:none"
         id="path438" /><path
         d="m 26912.5,3508 c -207.8,0 -409.9,83.1 -603.5,166.2 -15,6.4 -30,12.9 -44.9,19.3 -371.7,472 -399.9,1157.8 -127.6,1668.3 131,104.9 275.8,151.6 425.9,151.6 222.5,0 456.8,-102.5 675.5,-269.9 -8.1,-35.7 -13.2,-74.2 -15,-115.9 -21,-489.8 154.8,-743.3 450.4,-971.1 -97.4,-210.6 -184.5,-398.4 -306.7,-490.4 -153.7,-115.5 -305.3,-158.1 -454.1,-158.1"
         style="fill:#75cac4;fill-opacity:1;fill-rule:nonzero;stroke:none"
         id="path440" /><path
         d="m 27673.3,4156.5 c -295.6,227.8 -471.4,481.3 -450.4,971.1 1.8,41.7 6.9,80.2 15,115.9 235.8,-180.4 453.5,-436.2 619,-720.5 -70,-120.7 -128.5,-247.2 -183.6,-366.5"
         style="fill:#5cbdb9;fill-opacity:1;fill-rule:nonzero;stroke:none"
         id="path442" /><path
         d="m 29164.2,2644.5 h -3594.7 c -79.1,96.4 -148.8,187.9 -204.3,276 337.5,216.9 926.1,115.8 761.7,691.9 -15.4,53.8 -31.1,105.9 -46.9,156.5 60.4,-22.6 121.8,-48.7 184.1,-75.4 14.9,-6.4 29.9,-12.9 44.9,-19.3 193.6,-83.1 395.7,-166.2 603.5,-166.2 148.8,0 300.4,42.6 454.1,158.1 122.2,92 209.3,279.8 306.7,490.4 55.1,119.3 113.6,245.8 183.6,366.5 6.1,-10.6 12.3,-21.3 18.3,-32 197.7,-350.4 412.6,-436.8 627.2,-436.8 104.2,0 208.3,20.4 310.4,40.7 102.1,20.4 202.2,40.7 298.1,40.7 142.6,0 276.2,-44.9 394.4,-201.4 374.5,-496.2 24.8,-761.4 -341.1,-1289.7"
         style="fill:#5cbdb9;fill-opacity:1;fill-rule:nonzero;stroke:none"
         id="path444" /><path
         d="m 10188.3,39062.5 c -2.6,0 -5.1,0 -7.6,0.1 -156.6,3.7 -257.58,121.3 -225.6,262.7 31.48,139.1 180,249.4 333.9,249.4 2.5,0 5,0 7.6,-0.1 156.6,-3.7 257.6,-121.3 225.6,-262.7 -31.5,-139.1 -180,-249.4 -333.9,-249.4"
         style="fill:#d0efee;fill-opacity:1;fill-rule:nonzero;stroke:none"
         id="path446" /><path
         d="m 11271.8,39062.5 c -2.6,0 -5.1,0 -7.6,0.1 -156.6,3.7 -257.6,121.3 -225.6,262.7 31.5,139.1 180,249.4 333.9,249.4 2.5,0 5,0 7.6,-0.1 156.5,-3.7 257.6,-121.3 225.6,-262.7 -31.5,-139.1 -180,-249.4 -333.9,-249.4"
         style="fill:#d0efee;fill-opacity:1;fill-rule:nonzero;stroke:none"
         id="path448" /><path
         d="m 12355.3,39062.5 c -2.6,0 -5.1,0 -7.6,0.1 -156.6,3.7 -257.6,121.3 -225.6,262.7 31.5,139.1 179.9,249.4 333.8,249.4 2.6,0 5.1,0 7.6,-0.1 156.6,-3.7 257.6,-121.3 225.6,-262.7 -31.4,-139.1 -179.9,-249.4 -333.8,-249.4"
         style="fill:#d0efee;fill-opacity:1;fill-rule:nonzero;stroke:none"
         id="path450" /></g></g></svg>
