<?xml version="1.0" encoding="utf-8"?>
<svg id="master-artboard" viewBox="0 0 1751.1319580078125 955.7399291992188" version="1.1" xmlns="http://www.w3.org/2000/svg" x="0px" y="0px" style="enable-background:new 0 0 336 235.2;" width="1751.1319580078125px" height="955.7399291992188px"><rect id="ee-background" x="0" y="0" width="1751.1319580078125" height="955.7399291992188" style="fill: white; fill-opacity: 0; pointer-events: none;"/><g transform="matrix(0.6961830258369446, 0, 0, 0.6961830258369446, 640.9759252737349, 151.16392886318226)"><metadata id="metadata8"/><g id="g10" transform="matrix(1.4494078159332275, 0, 0, -1.4494078159332275, -203.6778917190925, 1124.5463699738555)"><g id="g12" transform="matrix(0.09334030515142476, 0, 0, 0.09334030515142476, 125.51862674348533, 56.2900752432843)"><path d="M 4590.226414680481 55.461910247802734 C 5757.40625 64.02742004394531 6419.74 84.2305 7532.73 46.8203 C 8631.99 9.87109 9287.86 21.1094 9611.34 92.5391 C 9260.75 119.141 9163.85 -31.0508 9209.09 376.398 C 9213.01 411.69100000000003 9270.65 498.129 9262.98 528.148 C 9236.529999999999 631.672 9105.24 351.699 9084.199999999999 689.488 C 9066.249999999998 977.738 8882.519999999999 1483.6 8861.89 1768.25 C 8840.01 2069.96 9007.789999999999 2260.44 8856.619999999999 2529.98 C 8709.439999999999 2792.4 8250.609999999999 3099.9 8241.07 3390.01 C 8440.08 3210.0200000000004 8584.8 2964.46 8621.08 2699.3300000000004 C 8721.61 1964.7200000000003 7969.72 1701.8300000000004 7605.02 854.0700000000004 C 7558.780000000001 872.7620000000004 7407.900000000001 953.9880000000004 7363.370000000001 984.3980000000004 C 7603.800000000001 889.9690000000004 7423.4800000000005 742.3090000000004 7438.900000000001 579.8200000000004 C 7454.39 416.5390000000004 7592.240000000001 344.21100000000035 7689.72 239.5700000000004 C 7490.42 -169.57799999999963 6833.860000000001 703.4300000000004 6745.9400000000005 914.8010000000004 C 6843.110000000001 997.3200000000004 6960.85 1084.2400000000005 7077.360000000001 1060.6700000000003 C 6733.170000000001 1283.1300000000003 7142.39 1320.2700000000004 7327.900000000001 1589.0400000000004 C 7591.990000000001 1971.6500000000005 7605.02 2275.8200000000006 8119.52 2659.3200000000006 C 8082.46 2824.100000000001 8071.200000000001 3007.6600000000008 8048.080000000001 3181.140000000001 C 8026.090000000001 3346.0300000000007 8042.31 3559.1100000000006 8020.06 3707.0700000000006 C 7991.620000000001 3896.2300000000005 7279.71 4745.790000000001 8315.890000000001 4528.920000000001 C 7737.560000000001 4577.110000000001 7617.0700000000015 3854.190000000001 7665.260000000001 5107.250000000001 C 7677.520000000001 5426.040000000001 7352.000000000001 6288.010000000001 7858.040000000001 6998.880000000001 C 7958.600000000001 7140.140000000001 8122.650000000001 7275.460000000001 8243.6 7348.300000000001 C 8268.82 7363.490000000001 8573.54 7144.380000000001 8556.87 7119.370000000001 C 8532.77 7083.220000000001 8193.78 7238.430000000001 8207.460000000001 7251.910000000001 C 8247.7 7291.570000000001 8394.250000000002 7447.720000000001 8423.29 7513.460000000001 C 8472 7700.930000000001 8340.550000000001 7975.890000000001 8666.87 8275.820000000002 C 8777.5 8377.500000000002 8927.5 8507.500000000002 9027.5 8427.500000000002 C 9113.06 8359.050000000001 9075.12 8454.100000000002 9177.5 8437.500000000002 C 9547.5 8377.500000000002 9667.5 8197.500000000002 9737.77 7972.0700000000015 C 9763.87 7888.340000000002 9920.460000000001 7885.460000000002 9959.61 7781.130000000002 C 10042.400000000001 7560.470000000002 9896.07 7143.580000000002 9610.58 7160.840000000002 C 9908.75 7476.630000000002 9516.14 7773.690000000002 9148.14 7629.430000000002 C 9152.779999999999 7853.790000000002 9044.539999999999 7818.450000000003 8970.68 7755.170000000002 C 8917 7709.170000000002 8932.26 7669.3200000000015 8892.28 7568.300000000002 C 8865.810000000001 7501.440000000002 8618.150000000001 7500.960000000002 8591.51 7423.270000000002 C 8424.33 7697.710000000002 8530.28 8086.630000000002 8749.64 8215.800000000003 C 8954.24 8336.270000000002 9126.59 8377.190000000002 9388.22 8239.890000000003 C 9558.539999999999 8150.520000000003 9741.039999999999 7853.000000000003 9677.39 7649.510000000003 C 9544.49 7224.590000000003 9370.15 7540.640000000003 9376.17 7179.620000000003 C 9364.12 7095.270000000002 9264.45 7161.310000000002 9231.59 7179.620000000003 C 9206.92 7143.880000000003 9221.81 7133.690000000002 9195.44 7107.330000000003 C 9171.35 7083.220000000003 9133.310000000001 7129.720000000003 9123.15 7119.370000000003 C 9114.369999999999 7110.430000000003 9119.33 7067.350000000002 9111.1 7059.130000000003 C 9099.050000000001 7047.080000000003 9050.86 7088.050000000003 9050.86 7071.180000000003 C 9050.86 6914.550000000003 8910.390000000001 6983.7000000000035 8797.84 7131.420000000003 C 8709.37 7065.250000000003 8668.35 6985.610000000002 8665.17 7007.770000000003 C 8661.33 7034.550000000003 8699.12 7045.790000000004 8712.63 7022.350000000003 C 8812.57 6848.970000000003 8902.5 6666.280000000003 8870.13 6191.630000000003 C 8859.589999999998 6037.070000000002 9107.89 6064.260000000003 9221.89 5964.7400000000025 C 9176.289999999999 6036.440000000002 9236.82 6100.560000000002 9149.71 6084.180000000002 C 9054.58 6066.290000000002 8764.849999999999 5952.340000000002 8658.39 5943.560000000002 C 8537.22 5933.570000000002 8442.97 5913.190000000002 8376.14 5926.550000000002 C 8315.89 5938.600000000002 8351.91 6010.570000000002 8376.14 6107.290000000002 C 8454.74 6421.050000000002 8754.74 6840.100000000002 8370.42 7055.460000000002 C 7798.18 7271.330000000002 7684.78 6196.660000000002 7817.39 5598.660000000002 C 7847.5 5462.880000000002 7927.54 5338.830000000002 8050.13 5336.180000000002 C 8258.84 5331.670000000002 9072.03 5474.300000000002 9284.9 5714.940000000002 C 9323.08 5758.100000000002 9274.119999999999 5795.080000000003 9272.039999999999 5845.000000000003 C 9281.47 5783.820000000002 9328.73 5795.250000000003 9350.259999999998 5743.080000000003 C 9452.559999999998 5792.720000000003 9663.469999999998 5865.160000000003 9558.019999999999 5934.800000000003 C 9629.699999999999 5930.680000000003 9659.019999999999 5972.050000000003 9649.339999999998 6013.460000000003 C 9675.779999999999 6098.390000000003 9651.159999999998 6112.670000000003 9574.299999999997 6147.520000000003 C 9591.569999999998 6189.480000000003 9632.049999999997 6181.040000000004 9685.949999999997 6156.460000000003 C 9716.909999999996 6142.330000000003 9748.609999999997 6175.040000000003 9732.849999999997 6205.210000000003 C 9639.369999999997 6384.060000000003 9379.549999999997 6307.060000000003 9235.999999999996 6103.7800000000025 C 9566.629999999996 6202.260000000002 9870.169999999996 6613.330000000003 10111.099999999997 6854.300000000003 C 10169.699999999997 6912.900000000003 10515.199999999997 6336.930000000003 10701.499999999996 6239.820000000003 C 10504.299999999996 6039.500000000004 10069.199999999997 5636.530000000003 9761.729999999996 5420.510000000004 C 9645.609999999995 5338.920000000004 9617.149999999996 5456.6600000000035 9412.309999999996 5685.580000000004 C 9749.679999999997 5432.560000000003 9030.499999999996 5377.170000000004 8930.369999999995 5408.460000000004 C 9061.119999999995 5146.110000000003 9009.149999999996 4773.260000000004 9014.709999999995 4540.960000000004 C 8862.619999999995 4564.3700000000035 8807.979999999996 4486.190000000003 8653.249999999996 4516.8700000000035 C 8886.519999999997 4513.990000000003 9044.159999999996 4503.650000000003 9110.969999999996 4109.9100000000035 C 9182.179999999995 3690.2600000000034 9447.569999999996 3182.1800000000035 9534.859999999995 2776.1600000000035 C 9586.649999999996 2535.3000000000034 9543.169999999995 2450.1300000000037 9555.389999999996 2237.4600000000037 C 9584.649999999996 1728.3800000000037 9429.189999999995 1272.6500000000037 9780.729999999996 716.2890000000036 C 9680.959999999995 678.0310000000036 9716.619999999995 613.7380000000036 9612.799999999996 587.0590000000036 C 9815.169999999996 638.1800000000036 9763.209999999995 560.1600000000036 9949.029999999995 499.7700000000036 C 10027.399999999996 474.3090000000036 10277.799999999996 480.0510000000036 10337.499999999995 416.71100000000365 C 10622.8 113.988 9857.83 214.18 9750.97 104.469 C 10054.5 -3.62891 10618.6 70.6484 10918.4 95.0117 C 12917.5 257.5 17812 49.3711 18847.5 17.5" style="fill:none;stroke:#100f0d;stroke-width:35;stroke-linecap:round;stroke-linejoin:round;stroke-miterlimit:10;stroke-dasharray:none;stroke-opacity:1" id="path14" transform="matrix(1.0394645929336546, 0, 0, 1.0394645929336546, 398.2553422761757, -571.2909732391199)"/><path d="M 3991.10986328125 -1532.72607421875" style="fill-opacity: 1; stroke: rgb(16, 15, 13); stroke-opacity: 1; stroke-width: 35; paint-order: stroke;"/><path d="M 4825.17041015625 -1916.65869140625" style="fill-opacity: 1; stroke: rgb(16, 15, 13); stroke-opacity: 1; stroke-width: 35; paint-order: stroke;"/><path d="M 5284.13427734375 -921.3602905273438" style="fill-opacity: 1; stroke: rgb(16, 15, 13); stroke-opacity: 1; stroke-width: 35; paint-order: stroke;"/><path d="M 5743.7275390625 -1164.551025390625" style="fill-opacity: 1; stroke: rgb(16, 15, 13); stroke-opacity: 1; stroke-width: 35; paint-order: stroke;"/></g></g></g><g transform="matrix(0.7071105837821959, 0, 0, 0.7071105837821959, -62.600662888282386, -26.813733521257518)"><metadata id="metadata-1"/><g id="g-1" transform="matrix(1.3333333,0,0,-1.3333333,0,1351.6133)"><g id="g-2" transform="scale(0.1)"><path d="M 454.918,10112.1 C 452.488,8943.42 439.008,538.609 478.891,86 1131.48,115.5 1810.47,53.9023 1915.99,179.82 c 80.11,95.621 -126.71,174.231 -159.35,232.91 -131.79,236.922 141.41,475.719 239.03,723.24 51.63,130.89 238.64,265.33 263.93,387.14 23.6,113.72 62.32,603.69 -177.08,709.94 -175.6,-148.96 -339.62,-823.14 -515.88,-974.51 -124.81,-107.18 -202.25,-55.35 -239.04,-104.19 -94.56,-125.54 18.17,-188.049 56,-310.92 115.62,-375.528 -117.29,-694.25 482.26,-620.258 16.01,109.641 -323.74,-24.961 -311.48,171.168 31.86,509.75 -125.48,467.941 -36.77,649.68 83.06,170.18 98.06,67.42 490.32,619.05 416.01,585.01 408.36,273.02 40.3,1022.23 -3.05,6.2 -191.75,354.83 -159.11,530.77 77.11,8.13 496.25,121.09 448.82,214.98 -67.95,134.51 -183.06,-141.63 -627.33,-116.27 -389.08,22.2 -754.508,-403.85 -805.899,-211.41 -32.945,123.37 -98.285,809.89 -30.645,1090.97 110.2,457.96 343.224,600.65 61.289,1189.04 -119.726,249.87 -316.437,1156.8 -116.453,1317.75 288.458,232.16 421.428,18.36 438.648,-300.01 18.28,-337.85 11.04,-163.53 37.48,-385.31 64.87,-543.87 -255.49,-555.8 397.41,-347 103.02,32.95 241.43,113.69 441.14,158.94 110.02,24.93 203.93,-13.78 321.36,-11.8 233.17,3.92 450.33,24.32 529.84,-132.96 11.13,-22.01 -12.24,-45.64 -34.59,-35.21 -69.9,32.63 -140.3,63.94 -218.38,67.9 58.42,-40.46 141.24,-65.93 201.7,-98.35 56.28,-30.18 36.23,-115.78 -27.61,-117.71 -106.54,-3.21 -242.98,5.02 -306.25,32.23 40.27,-15.93 121.5,-42.76 151.3,-74.54 24.56,-26.21 -46.14,-50.03 -79.3,-36.24 -167.27,69.59 -341.12,14.96 -451.32,130.88 -40.79,42.9 -187.66,-31.95 -267.56,-98.07 -355.49,-294.19 -943.86,-585.34 -1029.676,-444.37 -162.082,266.29 -225.125,586.87 -251.289,864.2 -61.289,649.68 -65,676.83 98.062,1005.16 53.977,108.67 -20.359,529.09 -25.574,733.19 -10.555,413.13 215.578,1084.08 989.597,743.88 547.11,-240.47 438.9,-495.58 356.34,-728.08 -32.95,-92.79 -111.48,-89.94 -140.03,-217.98 -11.7,-52.42 1.34,-110.28 20.23,-175.5 -9.62,-48.33 -97.21,-40.88 -123.99,-60.35 -14.89,-10.82 28.8,-62.78 18.51,-81.9 -35,-65 -92.32,-2.2 -100.7,-25.26 -9.4,-25.89 55.7,-84.74 -24.3,-69.74 -52.16,9.78 37.83,-135.84 -115,-160 -207.74,-32.84 -613.58,421.4 -408.45,800.88 96.8,179.08 108.33,-14.06 182.95,-43.25 185.89,-72.72 220.24,74.1 474.91,242.79 284.18,188.25 322.85,-397.87 410.64,-322.93 64.89,55.38 128.82,566.75 -89.54,664.38 -86.45,38.66 -392.33,368.56 -628.81,416.01 C 1169.48,8674.7 720.84,8466.3 654.82,8170.48 618.93,8009.68 335.781,8276.17 150.836,8055.65 -270.41,7553.4 524.707,7179.2 242.773,6719.52 c 0,0 166.872,-93.71 318.711,159.35 147.094,245.17 55.161,1041.94 154.805,600.69 103.305,-457.44 649.421,-460.93 979.071,-974.56 146.36,-228.05 153.21,-260.47 263.54,-536.28 84.34,-210.86 40.28,-73.75 200.54,-67.42 -17.81,-5.46 -124.95,166.66 -100.88,177.97 737.43,346.69 1100.02,520.78 1100.02,520.78 0,0 132.62,-151 194.18,-217.11 384.62,-413.04 62.36,-399.37 -312.63,-548.7 13.27,13.77 251.62,175.98 431.49,139.06 301.72,-61.92 469.28,-118.04 626.31,-249.92 -122.9,-22.44 -1038.99,-248.06 -1342.26,-465.63 554.88,113.84 1188.83,318.66 1342.27,318.71 98.37,-145.33 23.88,-112.31 -815.17,-294.2 -39.87,-8.64 -88.61,-20.04 -128.71,0 -73.54,36.78 -62.62,-92.55 -85.8,-98.06 -18.01,-4.28 -57.4,15.91 -68.09,0 -27.56,-40.99 -64.56,23.5 -85.14,18.39 -34.08,-8.47 21.93,-61.64 -42.9,-55.16 -61.3,6.13 -114.16,19.34 -140.97,12.26 -84.3,-22.26 -441.29,337.1 -588.39,183.87 88.92,-310.49 710.98,-1290.18 986.12,-1547.6 -251.29,-202.27 -407.85,-122 -501.91,-183.88 462.3,-983.31 114.19,-890.21 259.39,-1542.85 101.27,-455.18 18.84,-1294.32 779.83,-1695.609 98.96,-52.191 379.89,2.871 385.27,-143.012 C 4059.43,15.4023 3557.77,38 3460.66,55.1992 3298.82,83.9023 3001.53,29.6016 2859.87,124.699 c -230.68,154.711 70.5,134.211 -263.54,692.531 -109.55,183.12 -350.38,553.27 -263.56,815.19 48.23,145.51 568.28,392.75 845.81,680.32 161.4,167.25 240.08,284.21 98.07,570 -330.43,664.97 -257.41,606.76 -343.22,735.47 -46.37,-394.26 54.33,-184.98 183.43,-887.38 70.53,-383.7 -587.96,-350.66 -287.64,-1202.61 C 2958.7,1160.94 2974.49,675.961 3288.91,443.383 3983.88,-70.6992 10211.7,33.6992 12454.9,33.6992" style="fill:none;stroke:#100f0d;stroke-width:50;stroke-linecap:round;stroke-linejoin:round;stroke-miterlimit:10;stroke-dasharray:none;stroke-opacity:1" id="path-1"/></g></g></g></svg>