<?xml version="1.0" encoding="UTF-8" standalone="no"?>
<svg
   xmlns:dc="http://purl.org/dc/elements/1.1/"
   xmlns:cc="http://creativecommons.org/ns#"
   xmlns:rdf="http://www.w3.org/1999/02/22-rdf-syntax-ns#"
   xmlns:svg="http://www.w3.org/2000/svg"
   xmlns="http://www.w3.org/2000/svg"
   xmlns:sodipodi="http://sodipodi.sourceforge.net/DTD/sodipodi-0.dtd"
   xmlns:inkscape="http://www.inkscape.org/namespaces/inkscape"
   version="1.1"
   id="svg2"
   xml:space="preserve"
   width="6592"
   height="6592"
   viewBox="0 0 6592 6592"
   sodipodi:docname="vectorstock_27931630.eps"><metadata
     id="metadata8"><rdf:RDF><cc:Work
         rdf:about=""><dc:format>image/svg+xml</dc:format><dc:type
           rdf:resource="http://purl.org/dc/dcmitype/StillImage" /></cc:Work></rdf:RDF></metadata><defs
     id="defs6" /><sodipodi:namedview
     bordercolor="#666666"
     borderopacity="1"
     objecttolerance="10"
     gridtolerance="10"
     guidetolerance="10"
     inkscape:pageopacity="0"
     inkscape:pageshadow="2"
     inkscape:window-width="640"
     inkscape:window-height="480"
     id="namedview4" /><g
     id="g10"
     inkscape:groupmode="layer"
     inkscape:label="ink_ext_XXXXXX"
     transform="matrix(1.3333333,0,0,-1.3333333,0,6592)"><g
       id="g12"
       transform="scale(0.1)"><path
         id="path14" /><path
         d="M 24785.9,965.199 C 11676.5,965.199 1049.17,11592.5 1049.17,24701.9 c 0,11261.2 7841.8,20690.7 18362.63,23125.8 0,-4668.4 0,-15628.6 0,-22832.8 h -7006.7 c -202.3,0 -376.9,-141.9 -418.3,-339.9 v 0 c 0,0 -2,-9.6 -5.8,-28 l -0.1,-0.1 c -0.6,-3 -1.3,-6.1 -2,-9.5 l -0.1,-0.6 c -0.3,-1.6 -0.6,-3.2 -1,-4.8 l -0.2,-1 c -0.1,-0.6 -0.3,-1.4 -0.4,-2.1 l -1.5,-6.9 c 0,-0.3 -0.1,-0.5 -0.1,-0.8 l -0.5,-2.4 c -0.1,-0.4 -0.2,-0.8 -0.3,-1.2 l -1.8,-8.9 c -0.1,-0.1 -0.1,-0.3 -0.2,-0.5 l -1256.4,-6011.7 c -29.5,-140.9 52.2,-274.8 178.7,-320.3 50.6,-66.9 130.8,-111.1 223.1,-111.1 h 7620.7 c 202.3,0 376.9,141.9 418.3,339.9 l 254.6,1218.3 c 0,-961 0,-1514.6 0,-1514.6 h 5676.4 l 121.6,-964.4 c 12.5,-99.6 114.9,-179.8 228.7,-179.8 h 1723.8 l 90,-864.7 c 0,0 478,-1054 1679.7,-1118.5 158.4,-8.4 321.7,-13.4 488.9,-13.4 1435.1,0 2061.9,1230.6 2061.9,1230.6 l 70.5,766 h 103 c 113.8,0 216.2,80.2 228.8,179.8 l 121.6,964.4 h 2888.9 l 351.3,-1047.9 c 20.5,-61.1 69.6,-106.7 129.4,-123.7 l 2.5,-7.4 h 50.3 v 0 h 3982.8 v 0 h 18 c 142.2,0 242.5,139.4 197.3,274.3 l -303.4,904.7 h 4915.3 c 0,0 0,11035 0,20118.5 2699.8,-3852.7 4283.6,-8543.6 4283.6,-13605.3 0,-4722.4 -1378.9,-9122.4 -3756.2,-12819.9 H 4810.04 C 9031.96,5315.5 16402,965.699 24788.5,965.199 c -0.8,0 -1.8,0 -2.6,0 M 11489.2,36247.5 c -72.9,0 -140.1,-26.9 -184.9,-90.1 -143.8,-203 111.5,-443.8 200.5,-676 114.9,-300.1 -65.8,-622.8 -213.9,-907.9 -148.2,-285.1 -257.3,-665.5 -39.1,-901.3 68.8,-74.3 163.9,-124.1 219.2,-208.9 156.5,-240.1 -90.4,-527.8 -201.4,-792.1 -201.2,-478.9 69.2,-1014.2 331.5,-1462.6 262.2,-448.4 531.7,-984.6 328.8,-1462.8 l 566.2,-169.7 c 14.7,142.4 29.4,284.7 44.1,427 l 187.4,-54.2 c 19.2,-113.6 53.5,-224.5 103.5,-329.1 l 1222.7,24.6 c 20.4,52.2 46.5,100.8 76.8,146.7 51.4,7.3 102.5,16 153.4,26.2 56,91.2 101.6,188.5 136.6,289.6 64.5,59.1 129.7,117.7 190.1,179.2 200.2,203.8 359.6,515.9 223.2,766.9 -75.8,139.6 -234.8,241 -247.5,399.3 -14,174.1 156.8,302.4 314.4,377.8 157.5,75.3 340.7,153.6 395.6,319.4 77.4,233.9 -153.2,458.4 -173,704 -15.1,187.9 93.9,359.8 172.2,531.3 78.2,171.6 120.9,393.1 -4.9,533.5 -64.7,72.3 -157.1,102.2 -254.3,102.2 -92.7,0 -189.7,-27.2 -271.1,-70.8 -112.5,-60.1 -210.4,-146.5 -285.9,-249.3 -23.5,170.8 -72.6,338 -146.3,493.9 -137,289.7 -358,545.8 -420,860.2 -51,259.1 12.9,526 7.7,790.1 -5.2,264 -114,562.6 -364.2,647 -43.8,14.8 -87.6,21.7 -131,21.7 -257,0 -496.8,-240.3 -594.8,-495.7 -114.6,-298.5 -118.8,-633.4 -255,-922.7 -20.4,-43.4 -43.8,-85.7 -68.6,-127.2 -123.2,175.3 -321.1,305.3 -432.4,493.1 -108.5,183.2 -127.3,409.8 -241.1,589.9 -72.3,114.5 -217.1,196.8 -344.5,196.8 M 43164.8,19262.9 h -4201.2 l -512.6,1528.8 c -35.1,104.7 -133.2,175.3 -243.6,175.3 h -3915.5 c -68.9,0 -124.9,-43.3 -147.2,-101.3 -68.7,-34.7 -107.5,-116.6 -80.7,-196.4 l 471.4,-1406.4 h -2393.3 l 199.4,1581.5 c 16.4,129.8 -76.7,235.8 -207.9,235.8 h -209.1 l 126.2,1371.5 c 0,572 284.7,807.5 -228.5,1060.1 -494.4,243.5 -1824.7,473 -2396.4,473 -135.9,0 -290.1,-3.7 -454.2,-12.1 -687.4,-35 -1553.5,-154 -2021.2,-445.1 -448.2,-279 -336.8,-680.5 -336.8,-1208.5 l 128.9,-1238.9 h -1781.2 c -131.3,0 -224.3,-106 -208,-235.8 l 199.4,-1581.5 h -4466.6 c 0,0 0,23743.2 0,28787.3 1394.6,255.2 2831.6,388.5 4299.8,388.5 7409.3,0 14025.9,-3395 18378.9,-8714 0,-8723.2 0,-20461.8 0,-20461.8"
         style="fill:#c7ece8;fill-opacity:1;fill-rule:nonzero;stroke:none"
         id="path16" /><path
         d="m 19972.9,42956.5 c 2815.2,0 7745.5,0 7745.5,0 15.1,82.6 23,167.7 23,254.7 0,762.1 -607.6,1380 -1357.9,1382.3 -401.7,710.8 -1155,1190.7 -2020.2,1190.7 -784.3,0 -1477.5,-393.7 -1899.2,-996.9 -352,-503.6 -976.7,-718 -1555.6,-528.2 -224.7,73.6 -464.3,113.4 -713.3,113.4 -75,0 -149.1,-3.6 -222.3,-10.6 v -1405.4"
         style="fill:#ffffff;fill-opacity:1;fill-rule:nonzero;stroke:none"
         id="path18" /><path
         d="m 43861.8,34586.9 c -403.6,422 -967.8,684.6 -1593.2,684.6 -748.9,0 -1410.9,-375.9 -1813.5,-951.8 -336.2,-480.9 -932.6,-685.6 -1485.4,-504.4 -214.5,70.3 -443.4,108.3 -681.1,108.3 -911.1,0 -1694.3,-556.1 -2038,-1352.1 0,0 4968.1,0 7611.2,0 v 2015.4"
         style="fill:#ffffff;fill-opacity:1;fill-rule:nonzero;stroke:none"
         id="path20" /><path
         d="m 24790.6,965.199 c -0.5,0 -1.6,0 -2.1,0 C 33174.6,966 40544.7,5315.9 44766.5,11882 h 4.6 C 40549,5315.1 33177.8,965.199 24790.6,965.199"
         style="fill:#c6ebe7;fill-opacity:1;fill-rule:nonzero;stroke:none"
         id="path22" /><path
         d="M 24788.5,965.199 C 16402,965.699 9031.96,5315.5 4810.04,11882 H 44766.5 C 40544.7,5315.9 33174.6,966 24788.5,965.199"
         style="fill:#a1ddd6;fill-opacity:1;fill-rule:nonzero;stroke:none"
         id="path24" /><path
         d="m 12846.7,11872.4 c 0,5745.6 0,14531.8 0,14531.8 h 2396.8 c 0,0 0,-8786.2 0,-14531.8 h -2396.8"
         style="fill:#42abaa;fill-opacity:1;fill-rule:nonzero;stroke:none"
         id="path26" /><path
         d="m 11505.6,11872.4 c 0,5745.6 0,14531.8 0,14531.8 h 1373 c 0,0 0,-8786.2 0,-14531.8 h -1373"
         style="fill:#6dc6c1;fill-opacity:1;fill-rule:nonzero;stroke:none"
         id="path28" /><path
         d="m 14409.4,31158.6 c -72.6,190.9 -183.8,368.2 -227.8,567.6 -106.1,481.1 195.2,949.1 285.5,1433.4 64.8,347.5 17.2,715.1 -134,1034.7 -137,289.7 -358,545.8 -420,860.2 -51,259.1 12.9,526 7.7,790.1 -5.2,264 -114,562.6 -364.2,647 -303,102.3 -611.3,-175.5 -725.8,-474 -114.6,-298.5 -118.8,-633.4 -255,-922.7 -117.5,-249.6 -330.4,-459.2 -377.4,-731.1 -62.6,-361.9 188.3,-711.5 178.4,-1078.6 -14.6,-541.1 -579.8,-952.6 -582.2,-1493.8 -2.9,-634.6 770,-1135.5 622.1,-1752.6 l 581.6,-168.2 101.1,-67.5 37.4,17.7 c 377.1,-77.4 769.7,-78.6 1147.2,-3.5 243.1,396.4 290.8,906.6 125.4,1341.3"
         style="fill:#6dc6c1;fill-opacity:1;fill-rule:nonzero;stroke:none"
         id="path30" /><path
         d="m 12496.1,29576.1 -566.2,169.7 c 202.9,478.2 -66.6,1014.4 -328.8,1462.8 -262.3,448.4 -532.7,983.7 -331.5,1462.6 111,264.3 357.9,552 201.4,792.1 -55.3,84.8 -150.4,134.6 -219.2,208.9 -218.2,235.8 -109.1,616.2 39.1,901.3 148.1,285.1 328.8,607.8 213.9,907.9 -89,232.2 -344.3,473 -200.5,676 44.8,63.2 112,90.1 184.9,90.1 127.4,0 272.2,-82.3 344.5,-196.8 113.8,-180.1 132.6,-406.7 241.1,-589.9 111.3,-187.8 309.2,-317.8 432.4,-493.1 -118,-197.3 -270,-379.3 -308.8,-603.9 -62.6,-361.9 188.3,-711.5 178.4,-1078.6 -14.6,-541.1 -579.8,-952.6 -582.2,-1493.8 -2.9,-634.6 770,-1135.5 622.1,-1752.6 l 123.5,-35.7 c -14.7,-142.3 -29.4,-284.6 -44.1,-427"
         style="fill:#94d8d1;fill-opacity:1;fill-rule:nonzero;stroke:none"
         id="path32" /><path
         d="m 12540.2,30003.1 -123.5,35.7 c 147.9,617.1 -625,1118 -622.1,1752.6 2.4,541.2 567.6,952.7 582.2,1493.8 9.9,367.1 -241,716.7 -178.4,1078.6 38.8,224.6 190.8,406.6 308.8,603.9 31.3,-44.6 57.8,-92.1 76.8,-144.2 141.3,-387.6 -199.5,-805.6 -131.6,-1212.6 46.2,-277.7 274.8,-495.7 335.4,-770.6 30.7,-139.3 16.2,-284.1 1.6,-426 -83.1,-803.7 -166.1,-1607.5 -249.2,-2411.2"
         style="fill:#6dc6c1;fill-opacity:1;fill-rule:nonzero;stroke:none"
         id="path34" /><path
         d="m 12831.1,29619.8 c -50,104.6 -84.3,215.5 -103.5,329.1 l 270.7,-78.3 101.1,-67.5 37.4,17.7 c 191.5,-39.3 387.1,-58.9 582.6,-59 137.5,0 275.1,9.8 411.2,29.3 -30.3,-45.9 -56.4,-94.5 -76.8,-146.7 l -1222.7,-24.6 m 1589.5,487.1 c 117.2,337.7 116.2,717.1 -11.2,1051.7 -72.6,190.9 -183.8,368.2 -227.8,567.6 -106.1,481.1 195.2,949.1 285.5,1433.4 33.2,178.1 36.9,361.4 12.3,540.8 75.5,102.8 173.4,189.2 285.9,249.3 81.4,43.6 178.4,70.8 271.1,70.8 97.2,0 189.6,-29.9 254.3,-102.2 125.8,-140.4 83.1,-361.9 4.9,-533.5 -78.3,-171.5 -187.3,-343.4 -172.2,-531.3 19.8,-245.6 250.4,-470.1 173,-704 -54.9,-165.8 -238.1,-244.1 -395.6,-319.4 -157.6,-75.4 -328.4,-203.7 -314.4,-377.8 12.7,-158.3 171.7,-259.7 247.5,-399.3 136.4,-251 -23,-563.1 -223.2,-766.9 -60.4,-61.5 -125.6,-120.1 -190.1,-179.2"
         style="fill:#94d8d1;fill-opacity:1;fill-rule:nonzero;stroke:none"
         id="path36" /><path
         d="m 13719.4,29761.8 c -195.5,0.1 -391.1,19.7 -582.6,59 l -37.4,-17.7 -101.1,67.5 -270.7,78.3 c -75.4,444.4 78.8,929.8 417.3,1231.2 113,100.6 257.9,215.1 234.1,364.6 -8.3,51.9 -37,97.8 -61.1,144.5 -128.3,248 -132.1,556.7 -9.8,807.7 122.3,251 367.6,438.4 641.9,490.3 92.9,17.5 195.2,23.4 265.9,86 83.7,74 92.3,198.4 116.7,307.4 25.8,115.4 76.7,224.6 146.8,319.8 24.6,-179.4 20.9,-362.7 -12.3,-540.8 -90.3,-484.3 -391.6,-952.3 -285.5,-1433.4 44,-199.4 155.2,-376.7 227.8,-567.6 127.4,-334.6 128.4,-714 11.2,-1051.7 -107.2,-98.4 -212.3,-198.4 -290,-315.8 -136.1,-19.5 -273.7,-29.3 -411.2,-29.3"
         style="fill:#6dc6c1;fill-opacity:1;fill-rule:nonzero;stroke:none"
         id="path38" /><path
         d="m 14672.9,30392.9 c 20.6,-271.6 31.5,-553.1 31.5,-841.8 0,-1269.7 -209.6,-2403.1 -537.5,-3146.3 h -1834.8 c -328,743.2 -537.5,1876.6 -537.5,3146.3 0,288.7 10.8,570.2 31.4,841.8 h 2846.9"
         style="fill:#31898c;fill-opacity:1;fill-rule:nonzero;stroke:none"
         id="path40" /><path
         d="m 44239.1,48803.3 c 0,-5905.1 0,-30614.6 0,-30614.6 H 19411.8 c 0,0 0,24709.5 0,30614.6 h 1074.3 c 0,-2483.2 0,-29540.4 0,-29540.4 h 22678.7 c 0,0 0,27057.2 0,29540.4 h 1074.3"
         style="fill:#ffffff;fill-opacity:1;fill-rule:nonzero;stroke:none"
         id="path42" /><path
         d="m 32033.2,48803.3 c 0,-4433.2 0,-29798.9 0,-29798.9 h -415.5 c 0,0 0,25365.7 0,29798.9 h 415.5"
         style="fill:#ffffff;fill-opacity:1;fill-rule:nonzero;stroke:none"
         id="path44" /><path
         d="m 43997.4,39285.7 v -415.6 H 19987.2 v 415.6 h 24010.2"
         style="fill:#ffffff;fill-opacity:1;fill-rule:nonzero;stroke:none"
         id="path46" /><path
         d="m 43997.4,29378.2 v -415.6 H 19987.2 v 415.6 h 24010.2"
         style="fill:#ffffff;fill-opacity:1;fill-rule:nonzero;stroke:none"
         id="path48" /><path
         d="m 13292.5,25625.4 c 1411.3,-35.5 3274.8,134.7 4018.2,-166.2 743.4,-300.8 541.3,-866.6 198.8,-1041.1 -638.4,-325.2 -2802.4,411.9 -4058.7,716.9 -1349,327.5 -158.3,490.4 -158.3,490.4"
         style="fill:#f8ab78;fill-opacity:1;fill-rule:nonzero;stroke:none"
         id="path50" /><path
         d="m 12135.6,25146.9 v 0 c 57.7,-9.6 97.1,-64.4 87.5,-121.9 l -104.7,-630.8 c -9.5,-57.5 -64.6,-96.9 -122.2,-87.3 -57.7,9.5 -97.1,64.3 -87.6,121.9 l 104.8,630.8 c 9.5,57.5 64.5,96.8 122.2,87.3"
         style="fill:#f8ab78;fill-opacity:1;fill-rule:nonzero;stroke:none"
         id="path52" /><path
         d="m 12091.3,25042.9 v 0 c 48.6,-32.4 61.8,-98.6 29.3,-147.1 l -356.4,-531.5 c -32.6,-48.5 -98.9,-61.7 -147.5,-29.3 -48.6,32.4 -61.8,98.6 -29.3,147.1 l 356.5,531.5 c 32.4,48.5 98.8,61.7 147.4,29.3"
         style="fill:#f8ab78;fill-opacity:1;fill-rule:nonzero;stroke:none"
         id="path54" /><path
         d="m 13201.4,25607 -839.8,-230.4 c -29.8,-8.2 -58,-21.3 -83.3,-38.8 l -942,-650.7 c -23.4,-16.1 -27.3,-49.1 -8.4,-70.3 59,-65.9 155.6,-82.9 233.8,-41.3 l 659.6,351.7 c 82.6,44 176.1,63.9 269.6,57.4 l 353.4,-24.8 c 0,0 486.9,-231.3 663.9,205.8 111.1,274.4 -41.2,388.2 -149.2,432.9 -50,20.6 -105.5,22.8 -157.6,8.5"
         style="fill:#f8ab78;fill-opacity:1;fill-rule:nonzero;stroke:none"
         id="path56" /><path
         d="m 16828.9,24889.3 c -1.6,379.9 34.1,1673.5 200.5,2199.5 190.2,601.1 95.2,1173.6 140.1,1728.6 l 1212.8,-922.1 c 0,-1345.5 -431,-2558.5 -611.8,-2995.1 -110.5,-266.9 -941.6,-10.9 -941.6,-10.9"
         style="fill:#f8ab78;fill-opacity:1;fill-rule:nonzero;stroke:none"
         id="path58" /><path
         d="m 17067.8,27920.3 c 74.3,523.8 37.2,768.1 191.3,1415.5 221.1,928.8 1703.6,793.5 1381.1,-539.7 -123.7,-493 -93.7,-618.7 -222,-1185.7 l -1350.4,309.9"
         style="fill:#1e3961;fill-opacity:1;fill-rule:nonzero;stroke:none"
         id="path60" /><path
         d="m 19325.3,22889.7 c 1993,-373.4 301.4,-3242.9 -397,-4572.4 -698.5,-1329.5 -1505.3,-3681.8 -1993.2,-3811 -488,-129.2 -1080.7,259.3 -912.8,1019.3 167.9,760 754.2,4616.1 1568,6116.4 813.9,1500.2 1126.6,1361.7 1735,1247.7"
         style="fill:#f8ab78;fill-opacity:1;fill-rule:nonzero;stroke:none"
         id="path62" /><path
         d="m 16460.3,15396.6 c 916.7,-82.6 796.4,-750.9 341.3,-1661.1 -455.1,-910.2 -1781.4,-4545.5 -1986.2,-5524 -204.8,-978.5 -304.5,-1543.4 -304.5,-1543.4 l -729.1,182.3 c 0,0 129.9,468.1 334.7,2061 204.8,1592.9 -36.5,2683 341.8,3933.2 339.1,1121.2 1220,2622.5 2002,2552"
         style="fill:#f8ab78;fill-opacity:1;fill-rule:nonzero;stroke:none"
         id="path64" /><path
         d="m 14655.7,4939.2 c 15.2,63.9 22.1,128.7 20.4,190.4 -8.4,303.7 -78.2,1418 -30.6,1987.1 47.5,569.1 30.9,1117.4 30.9,1117.4 l -360.1,60 c 0,0 -947.8,-2160.6 -1040.6,-2725.8 -37.9,-231.1 38.3,-449.4 165.9,-629.1 h 1214.1"
         style="fill:#f8ab78;fill-opacity:1;fill-rule:nonzero;stroke:none"
         id="path66" /><path
         d="m 14658.4,4939.2 c 13.4,66.3 67.2,295.5 62.5,398.2 -2.3,52.4 -350.6,498.3 -834.7,273.5 -339,-157.3 -500,-33.3 -566.1,55.3 -17.6,23.6 -54.4,16.1 -60.7,-12.8 -60.7,-281.6 18.1,-521.7 125.3,-714.2 h 1273.7"
         style="fill:#284c7c;fill-opacity:1;fill-rule:nonzero;stroke:none"
         id="path68" /><path
         d="m 13809.7,7938.7 1032.3,-194.3 48.5,257.9 -1032.3,194.3 -48.5,-257.9"
         style="fill:#3f1d44;fill-opacity:1;fill-rule:nonzero;stroke:none"
         id="path70" /><path
         d="m 20988.5,22925.7 c -2004.3,306.9 -1357.2,-2960.6 -1137.8,-4446.3 219.3,-1485.8 202.6,-3972.5 620.3,-4255.8 417.7,-283.4 1105.6,-112.8 1198.6,659.9 92.9,772.8 815.2,4605.7 543.5,6290.8 -271.7,1685 -612.8,1657.7 -1224.6,1751.4"
         style="fill:#f8ab78;fill-opacity:1;fill-rule:nonzero;stroke:none"
         id="path72" /><path
         d="m 21044.7,15449.6 c -891.9,227.1 -1000.9,-443.1 -874.7,-1452.9 126.3,-1009.8 167.1,-4879.2 34.6,-5870.1 -132.5,-990.9 -134,-1565.5 -134,-1565.5 l 655.7,-62 c 0,0 33.3,484.7 370.3,2054.9 337,1570.2 927.3,2517.9 986.8,3822.7 53.2,1170.2 -277.7,2879.1 -1038.7,3072.9"
         style="fill:#f8ab78;fill-opacity:1;fill-rule:nonzero;stroke:none"
         id="path74" /><path
         d="m 19741.2,4969.4 c -2,53.7 1.7,106.7 10.9,156.7 54.8,298.8 294.4,1389.3 334.5,1959 40.1,569.6 140.4,1109 140.4,1109 l 365,4.1 c 0,0 606,-2280.2 611.1,-2853 1.3,-136.5 -35.2,-262.9 -96.3,-375.8 h -1365.6"
         style="fill:#f8ab78;fill-opacity:1;fill-rule:nonzero;stroke:none"
         id="path76" /><path
         d="m 19740.4,4969.4 c -4.6,135.1 -1.4,315.5 12.9,387 10.4,51.5 267.3,584.8 658.6,221.9 352.6,-327 647.9,-191.4 764.6,-112.1 25.8,17.5 59.2,-0.9 60.8,-32.1 9.2,-178.7 -43,-330.7 -103.9,-464.7 h -1393"
         style="fill:#284c7c;fill-opacity:1;fill-rule:nonzero;stroke:none"
         id="path78" /><path
         d="m 21097.2,7880.1 -1046.3,93.7 -23.4,-261.3 1046.2,-93.7"
         style="fill:#284c7c;fill-opacity:1;fill-rule:nonzero;stroke:none"
         id="path80" /><path
         d="m 20743.6,34846.6 c 760.9,217.4 1307.7,-627.7 1307.7,-1606 0,-978.3 155.4,-1825.1 -687,-2096.9 -842.4,-271.7 -1408.8,-400.5 -1870.8,-346.1 -461.9,54.4 -1875,978.3 -1929.3,1548.9 -54.4,570.7 1179.5,2912.8 2157.8,2885.7 978.3,-27.2 1021.6,-385.6 1021.6,-385.6"
         style="fill:#1e3961;fill-opacity:1;fill-rule:nonzero;stroke:none"
         id="path82" /><path
         d="m 23395,24598.4 c 235,92.4 193.7,1044.3 -158.7,2008.4 -352.5,964.2 53.8,1885.8 -616.1,2731.7 -669.9,845.9 -1435.2,318.9 -1104.5,-789.9 330.6,-1108.9 711,-2744 1007.1,-3378.4 301,-644.9 637.3,-664.3 872.2,-571.8"
         style="fill:#f8ab78;fill-opacity:1;fill-rule:nonzero;stroke:none"
         id="path84" /><path
         d="m 23146.4,27324.4 c -76.7,724.8 55.3,1460.4 -459.7,2110.8 -669.8,845.9 -1501.7,222.2 -1171,-886.6 114.7,-384.7 186.7,-1258.7 307.7,-1706.3 l 1323,482.1"
         style="fill:#1e3961;fill-opacity:1;fill-rule:nonzero;stroke:none"
         id="path86" /><path
         d="m 19970.3,20849.7 c -806,26.1 -2393.8,259.5 -2432.2,1352.9 -38.4,1093.6 1422.8,2633 1514.5,3220.1 91.8,587.1 1329.7,936.6 1329.7,936.6 0,0 750.6,-428.9 979.5,-1334.9 229,-905.9 682.1,-2317.4 725,-3084.8 43,-767.4 -1583.9,-1107.1 -2116.5,-1089.9"
         style="fill:#d87c55;fill-opacity:1;fill-rule:nonzero;stroke:none"
         id="path88" /><path
         d="m 18685.9,25148.3 c -510.1,1372.9 -961.3,3287.3 -1116.9,3708.4 -138.8,375.4 -173.7,729.2 -69.5,891.2 161.5,250 1292.5,405.4 1650.7,488.6 450,103.9 874.3,202.1 1008.8,186.6 246.5,-28.7 1951.3,-545.7 2028.2,-614.1 678.6,-602.9 -684.5,-3139.1 -820.9,-4573.3 175.7,-1449.5 -2578.5,-1963.8 -2680.4,-87.4"
         style="fill:#1e3961;fill-opacity:1;fill-rule:nonzero;stroke:none"
         id="path90" /><path
         d="m 21410.8,25016.6 c 59.7,-236.1 133.9,-504.8 213.6,-788.9 222.5,-805.2 751.1,-1571.1 751.1,-2771.3 113.8,-1284.2 115.5,-2658.3 -493.2,-5855.9 l -1042,19.9 386.9,3775.2 -824.8,-3761.6 -4466.2,131.8 c 654.4,5291.4 1940.8,7964.2 2312.6,8539.6 269.6,415.3 338.4,951 376.4,1168.2 38.2,1004.9 2654,1055.8 2785.6,-457"
         style="fill:#1e3961;fill-opacity:1;fill-rule:nonzero;stroke:none"
         id="path92" /><path
         d="m 19492.4,33823.9 1213.9,-308.8 v -3837.8 h -1213.9 v 4146.6"
         style="fill:#f8ab78;fill-opacity:1;fill-rule:nonzero;stroke:none"
         id="path94" /><path
         d="m 21292.8,32850.2 c -149.1,-909.4 -1111.8,-1716 -1606.9,-1645.2 -420.2,60.1 -1128.9,1160 -979.8,2069.3 149.1,909.4 849.1,1551.7 1563.4,1434.6 714.3,-117.2 1172.4,-949.3 1023.3,-1858.7"
         style="fill:#f8ab78;fill-opacity:1;fill-rule:nonzero;stroke:none"
         id="path96" /><path
         d="m 20743.6,34846.6 c -135.9,-1687.5 -1909.2,-3426.7 -3179.4,-2500.1 -54.4,570.7 1179.5,2912.8 2157.8,2885.7 978.3,-27.2 1021.6,-385.6 1021.6,-385.6"
         style="fill:#284c7c;fill-opacity:1;fill-rule:nonzero;stroke:none"
         id="path98" /><path
         d="m 21205.6,33131.9 c -217.3,692 -853.8,648.2 -609.2,1572.1 0,0 442.4,71.5 609.7,-240.5 369.9,-690.1 -0.5,-1331.6 -0.5,-1331.6"
         style="fill:#284c7c;fill-opacity:1;fill-rule:nonzero;stroke:none"
         id="path100" /><path
         d="m 21374.1,29210.6 c -78.6,-464.3 -756,-736.8 -1513.1,-608.6 -757,128.2 -1307,608.6 -1228.3,1072.9 78.6,464.4 756.1,736.9 1513.1,608.6 757,-128.2 1307,-608.6 1228.3,-1072.9"
         style="fill:#f8ab78;fill-opacity:1;fill-rule:nonzero;stroke:none"
         id="path102" /><path
         d="m 21020.3,21518.5 h 3341.2 l 906.5,4651.7 h -3341.1 l -906.6,-4651.7"
         style="fill:#ffffff;fill-opacity:1;fill-rule:nonzero;stroke:none"
         id="path104" /><path
         d="m 21196,21361.9 h 3341.1 l 906.6,4651.6 H 22102.5 L 21196,21361.9"
         style="fill:#ed9b11;fill-opacity:1;fill-rule:nonzero;stroke:none"
         id="path106" /><path
         d="m 24433.5,23057.3 v 0 c -0.5,-63.5 51.1,-115.6 114.6,-115.9 l 465.1,-2.8 c 63.4,-0.3 115.7,51.5 116.2,115 0.4,63.5 -51.2,115.7 -114.7,115.9 l -465.1,2.9 c -63.4,0.2 -115.7,-51.6 -116.1,-115.1"
         style="fill:#f8ab78;fill-opacity:1;fill-rule:nonzero;stroke:none"
         id="path108" /><path
         d="m 24487.9,23287.1 v 0 c -0.4,-63.5 51.2,-115.7 114.6,-115.9 l 465.1,-2.8 c 63.5,-0.3 115.8,51.5 116.2,115 0.4,63.5 -51.2,115.6 -114.6,115.9 l -465.1,2.8 c -63.5,0.3 -115.8,-51.4 -116.2,-115"
         style="fill:#f8ab78;fill-opacity:1;fill-rule:nonzero;stroke:none"
         id="path110" /><path
         d="m 24626.4,23508.7 v 0 c -0.4,-63.5 51.2,-115.7 114.6,-115.9 l 326.6,-2.9 c 63.5,-0.2 115.7,51.5 116.2,115.1 0.4,63.5 -51.2,115.6 -114.6,115.9 l -326.6,2.8 c -63.5,0.3 -115.8,-51.5 -116.2,-115"
         style="fill:#f8ab78;fill-opacity:1;fill-rule:nonzero;stroke:none"
         id="path112" /><path
         d="m 24440.9,22928.5 v 0 c -22.5,-59.4 7.8,-126.3 67.2,-148.6 l 305.3,-116 c 59.4,-22.3 126.4,8.1 148.9,67.5 22.4,59.4 -7.9,126.3 -67.3,148.5 l -305.2,116.1 c -59.5,22.3 -126.5,-8.1 -148.9,-67.5"
         style="fill:#f8ab78;fill-opacity:1;fill-rule:nonzero;stroke:none"
         id="path114" /><path
         d="m 3104.24,21978.8 c 347.35,223.4 508.4,637.6 397.21,1035.3 -72.04,257.9 -77.26,521.9 -3.55,776.8 119.51,413.5 427.15,736.4 845.12,941.4 377.42,185 572.4,602.9 496.11,1016.3 -68.35,370.3 -33.92,766.9 125.69,1149.4 357.46,856.7 1281.35,1363.8 2196.02,1205.7 1207.65,-208.8 1934.29,-1407.8 1603.58,-2551.7 -54.74,-189.4 -134.84,-364.6 -235.52,-523 -327.32,-514.8 -410.47,-1146.5 -187.34,-1714.3 121.37,-308.9 148.08,-631.6 58.65,-940.9 -46.26,-160 -120.68,-306.4 -218.79,-437.7 -346.76,-464 -456.2,-1052.4 -301.96,-1610.7 79.46,-287.7 84.73,-582.1 2.54,-866.4 -316.1,-1093.5 -1803.79,-1623.8 -3322.9,-1184.7 -1519.07,439.1 -2494.27,1681.5 -2178.19,2774.9 111.63,386.2 369.54,701.9 723.33,929.6"
         style="fill:#1e3961;fill-opacity:1;fill-rule:nonzero;stroke:none"
         id="path116" /><path
         d="m 25331.5,17747.9 c -537.2,234.2 -426.9,910.6 -6.8,2017.4 420.2,1106.7 131.7,2380.3 903.5,3342.2 771.8,961.9 2341.9,490.3 1942.3,-784.4 -399.7,-1274.8 -1558.5,-3639.1 -2086.9,-4238.3 -528.4,-599.3 -752.1,-336.9 -752.1,-336.9"
         style="fill:#f39f0f;fill-opacity:1;fill-rule:nonzero;stroke:none"
         id="path118" /><path
         d="m 33961.9,17283.3 c 537.1,234.2 161.6,1219.5 -258.5,2326.3 -420.1,1106.7 -131.7,2380.3 -903.5,3342.2 -771.7,961.9 -2341.9,490.3 -1942.3,-784.5 399.7,-1274.8 1558.6,-3639 2087,-4238.3 528.4,-599.2 1017.3,-645.7 1017.3,-645.7"
         style="fill:#f39f0f;fill-opacity:1;fill-rule:nonzero;stroke:none"
         id="path120" /><path
         d="m 33369.7,4858.9 c -78.9,0 -145,62.1 -148.9,141.9 l -366.6,7521.3 c -4,82.3 59.4,152.3 141.7,156.3 80.5,6.6 152.3,-59.4 156.4,-141.7 L 33519,5015.4 c 3.9,-82.3 -59.5,-152.3 -141.8,-156.4 -2.5,-0.1 -5,-0.1 -7.5,-0.1"
         style="fill:#6dc6c1;fill-opacity:1;fill-rule:nonzero;stroke:none"
         id="path122" /><path
         d="m 25297.5,5008.1 c -2.5,0 -5,0 -7.5,0.2 -82.3,4 -145.7,74 -141.8,156.3 l 366.7,7521.3 c 4.1,82.3 74.6,147.9 156.4,141.8 82.3,-4.1 145.7,-74 141.8,-156.4 L 25446.4,5150 c -3.9,-79.8 -69.9,-141.9 -148.9,-141.9"
         style="fill:#6dc6c1;fill-opacity:1;fill-rule:nonzero;stroke:none"
         id="path124" /><path
         d="m 33004.5,12529.4 h -9164.3 c -82.5,0 -149.2,66.7 -149.2,149.2 0,82.5 66.7,149.2 149.2,149.2 h 9164.3 c 82.5,0 149.3,-66.7 149.3,-149.2 0,-82.5 -66.8,-149.2 -149.3,-149.2"
         style="fill:#6dc6c1;fill-opacity:1;fill-rule:nonzero;stroke:none"
         id="path126" /><path
         d="m 26950.4,23527.6 c 467.7,291.1 1333.8,410.1 2021.2,445.1 164.1,8.4 318.3,12.1 454.2,12.1 571.7,0 1902,-229.5 2396.4,-473 513.2,-252.6 228.5,-488.1 228.5,-1060.1 l -567.9,-6173.2 c 0,0 -626.8,-1230.6 -2061.9,-1230.6 -167.2,0 -330.5,5 -488.9,13.4 -1201.7,64.5 -1679.7,1118.5 -1679.7,1118.5 l -638.7,6139.3 c 0,528 -111.4,929.5 336.8,1208.5"
         style="fill:#f39f0f;fill-opacity:1;fill-rule:nonzero;stroke:none"
         id="path128" /><path
         d="m 27849.7,23844.3 c 488.6,81.6 1197.8,250.6 1576.1,250.6 362.5,0 1029.3,-202.2 1595.4,-331.9 -90.4,-612 -756.3,-996.3 -1521.4,-996.3 -811.3,0 -1625,412.3 -1650.1,1077.6"
         style="fill:#f8ab78;fill-opacity:1;fill-rule:nonzero;stroke:none"
         id="path130" /><path
         d="m 28083.1,26751.1 1454.6,-4.6 518.6,-2630.9 c 93,-471.8 -214,-929.6 -685.8,-1022.6 -301.1,-59.3 -593.3,136.7 -652.6,437.8 l -634.8,3220.3"
         style="fill:#f8ab78;fill-opacity:1;fill-rule:nonzero;stroke:none"
         id="path132" /><path
         d="m 27252.3,16179.8 -635.4,-664.7 c 0,0 -2630.2,307.4 -3441.2,-301.9 -811,-609.3 1478.1,-2421.7 1478.1,-2421.7 l 7709.3,115.6 c 0,0 398.5,986.2 251.8,1575.9 -146.6,589.8 -950.2,1372.8 -950.2,1372.8 l -181.9,422.7 -4230.5,-98.7"
         style="fill:#1e3961;fill-opacity:1;fill-rule:nonzero;stroke:none"
         id="path134" /><path
         d="m 32153.9,7530.4 -62.6,-1663 -664.9,-54 -200.9,2097.9 928.4,-380.9"
         style="fill:#f8ab78;fill-opacity:1;fill-rule:nonzero;stroke:none"
         id="path136" /><path
         d="m 30852,15485.7 c -966.6,-29.1 -1260.2,-1631.6 -1004.6,-2857.4 255.7,-1225.8 1319.2,-5851.7 1319.2,-5851.7 l 1183.3,130.5 c 0,0 284.9,6457.6 160.8,7304 -124.1,846.4 -810.7,1300 -1658.7,1274.6"
         style="fill:#284c7c;fill-opacity:1;fill-rule:nonzero;stroke:none"
         id="path138" /><path
         d="m 25318,7421.2 521.2,-1580.5 653.9,132.5 -388.7,2071.3 -786.4,-623.3"
         style="fill:#f8ab78;fill-opacity:1;fill-rule:nonzero;stroke:none"
         id="path140" /><path
         d="m 23095.1,15118 c 954.2,471.8 2290.6,-710.4 2568.9,-2210.9 255,-1374.9 780.2,-5826.3 780.2,-5826.3 l -1167.6,-381.9 c 0,0 -2502.7,6024.1 -2702.4,6855.9 -199.6,831.8 520.9,1563.2 520.9,1563.2"
         style="fill:#284c7c;fill-opacity:1;fill-rule:nonzero;stroke:none"
         id="path142" /><path
         d="m 26622.9,6134.6 -978.3,-4.3 -778,-1014.8 1864.8,-13.4 -108.5,1032.5"
         style="fill:#203561;fill-opacity:1;fill-rule:nonzero;stroke:none"
         id="path144" /><path
         d="m 24866.6,4935.4 h 1865.9 v 227.1 h -1865.9 v -227.1"
         style="fill:#ffffff;fill-opacity:1;fill-rule:nonzero;stroke:none"
         id="path146" /><path
         d="m 26382.7,5967.1 -653.7,10 54.1,61.4 617,-23.6 -17.4,-47.8"
         style="fill:#ffffff;fill-opacity:1;fill-rule:nonzero;stroke:none"
         id="path148" /><path
         d="m 26313.3,5657.8 -653.6,10.1 54,61.2 617.1,-23.4 -17.5,-47.9"
         style="fill:#ffffff;fill-opacity:1;fill-rule:nonzero;stroke:none"
         id="path150" /><path
         d="m 25746.4,5819.7 653.7,10.1 -54,61.2 -617.1,-23.5 17.4,-47.8"
         style="fill:#ffffff;fill-opacity:1;fill-rule:nonzero;stroke:none"
         id="path152" /><path
         d="m 26732.5,5162.5 c -1.5,233.3 -195.5,410.3 -828.9,404.6 -633.4,-5.7 -1037,-118.8 -1037,-404.6 0,-286 985.7,-113.5 985.7,-113.5 l 880.2,113.5"
         style="fill:#ffffff;fill-opacity:1;fill-rule:nonzero;stroke:none"
         id="path154" /><path
         d="m 31197.7,6134.6 978.3,-4.3 778.1,-1014.8 -1864.9,-13.4 108.5,1032.5"
         style="fill:#203561;fill-opacity:1;fill-rule:nonzero;stroke:none"
         id="path156" /><path
         d="m 32954.1,4935.4 h -1865.9 v 227.1 h 1865.9 v -227.1"
         style="fill:#ffffff;fill-opacity:1;fill-rule:nonzero;stroke:none"
         id="path158" /><path
         d="m 31438,5967.1 653.6,10 -54,61.4 -617.1,-23.6 17.5,-47.8"
         style="fill:#ffffff;fill-opacity:1;fill-rule:nonzero;stroke:none"
         id="path160" /><path
         d="m 31507.3,5657.8 653.7,10.1 -54,61.2 -617.1,-23.4 17.4,-47.9"
         style="fill:#ffffff;fill-opacity:1;fill-rule:nonzero;stroke:none"
         id="path162" /><path
         d="m 32074.2,5819.7 -653.7,10.1 54.1,61.2 617,-23.5 -17.4,-47.8"
         style="fill:#ffffff;fill-opacity:1;fill-rule:nonzero;stroke:none"
         id="path164" /><path
         d="m 31088.2,5162.5 c 1.4,233.3 195.5,410.3 828.8,404.6 633.5,-5.7 1037.1,-118.8 1037.1,-404.6 0,-286 -985.7,-113.5 -985.7,-113.5 l -880.2,113.5"
         style="fill:#ffffff;fill-opacity:1;fill-rule:nonzero;stroke:none"
         id="path166" /><path
         d="m 32614.9,8148.8 -58.4,-1300.7 -1488.7,-70.5 c 0,0 -262.7,1067.8 -204.3,1087.1 58.4,19.2 1751.4,284.1 1751.4,284.1"
         style="fill:#1e3961;fill-opacity:1;fill-rule:nonzero;stroke:none"
         id="path168" /><path
         d="m 26447.7,8368.7 232.8,-1299.2 -1503.2,-464.4 -422,1096.6 1692.4,667"
         style="fill:#1e3961;fill-opacity:1;fill-rule:nonzero;stroke:none"
         id="path170" /><path
         d="m 14418.5,19980.9 c -33.1,116.4 -42,238.4 -26.2,358.4 l 139.6,1052.5 c 4.9,37 36.4,64.6 73.7,64.6 h 1716.3 c 44.7,0 79.2,-39.3 73.3,-83.6 l -139.1,-1050 c -13.7,-103.5 -6,-208.7 22.6,-309.2 l 786.8,-2762.8 c 26.7,-93.8 21.3,-196.7 -26.9,-281.5 -64.2,-112.9 -179.2,-179 -305.7,-179 H 14989 v 120.9 c 72.6,0 139.4,33.3 183.1,91.2 43.6,57.9 57.4,131.1 37.5,200.9 l -791.1,2777.6"
         style="fill:#6dc6c1;fill-opacity:1;fill-rule:nonzero;stroke:none"
         id="path172" /><path
         d="m 13994.7,16790.3 h 2736.4 c 110.7,0 212.7,50.7 279.5,139.1 66.8,88.5 87.6,200.4 57.2,307 l -791,2777.7 c -28.7,100.9 -36.2,204.7 -22.4,308.7 l 141.1,1065.2 c 4.3,33.1 -19,63.5 -52.2,67.9 -32,4.4 -63.3,-18.8 -67.9,-52.1 l -141,-1065.2 c -16,-120.5 -7.1,-240.7 26.2,-357.7 l 791,-2777.6 c 19.8,-69.8 6.1,-143.1 -37.6,-201 -43.7,-57.9 -110.4,-91.1 -182.9,-91.1 h -2736.4 c -33.4,0 -60.4,-27 -60.4,-60.5 0,-33.4 27,-60.4 60.4,-60.4"
         style="fill:#368f8e;fill-opacity:1;fill-rule:nonzero;stroke:none"
         id="path174" /><path
         d="m 18738.9,18145.1 h -7620.7 c -177.4,0 -309.9,163.1 -273.6,336.7 l 1270.4,6078.5 c 41.4,198.1 216,339.9 418.3,339.9 H 20154 c 177.3,0 309.8,-163.1 273.6,-336.6 L 19157.2,18485 c -41.4,-198 -216,-339.9 -418.3,-339.9"
         style="fill:#368f8e;fill-opacity:1;fill-rule:nonzero;stroke:none"
         id="path176" /><path
         d="M 18610.7,18239.8 H 10990 c -177.4,0 -309.9,163.1 -273.6,336.7 l 1270.4,6078.5 c 41.4,198 216,339.9 418.3,339.9 h 7620.7 c 177.3,0 309.8,-163.1 273.6,-336.7 L 19029,18579.7 c -41.4,-198 -216,-339.9 -418.3,-339.9"
         style="fill:#6dc6c1;fill-opacity:1;fill-rule:nonzero;stroke:none"
         id="path178" /><path
         d="m 20301.9,24672.3 c -0.7,-4.8 -1.6,-9.4 -2.5,-14.1 0,0 -914.1,-4373.6 -1191.6,-5701 H 10796 c 278.2,1331.3 1190.8,5697.8 1190.8,5697.8 1.2,5.8 2.5,11.5 4,17.3 h 8311.1"
         style="fill:#ffffff;fill-opacity:1;fill-rule:nonzero;stroke:none"
         id="path180" /><path
         d="m 43833.3,14334.3 -221.9,578.9 c -757.4,1976.9 -807.9,4154.9 -142.7,6164.6 l 323.6,978 h 4722.2 l -323.7,-978 c -665.1,-2009.7 -614.7,-4187.7 142.8,-6164.6 l 221.8,-578.9 c 328.1,-856.1 -304,-1775.2 -1220.8,-1775.2 h -4722.2 c 916.8,0 1548.9,919.1 1220.9,1775.2"
         style="fill:#6dc6c1;fill-opacity:1;fill-rule:nonzero;stroke:none"
         id="path182" /><path
         d="m 48780.6,5039.3 c -71.1,0 -134.2,51 -146.9,123.6 l -1262.2,7221.3 c -14.1,81.2 40.3,158.4 121.4,172.7 80.6,13.9 158.6,-40.2 172.7,-121.4 l 1262.2,-7221.3 c 14.1,-81.2 -40.3,-158.4 -121.4,-172.7 -8.6,-1.5 -17.3,-2.2 -25.8,-2.2"
         style="fill:#6dc6c1;fill-opacity:1;fill-rule:nonzero;stroke:none"
         id="path184" /><path
         d="m 41622.3,5039.3 c -8.4,0 -17.2,0.7 -25.8,2.2 -81.1,14.3 -135.5,91.5 -121.4,172.7 l 1262,7221.3 c 14.2,81.2 91.8,135.3 172.7,121.4 81.2,-14.3 135.6,-91.5 121.4,-172.7 l -1262,-7221.3 c -12.7,-72.6 -75.7,-123.6 -146.9,-123.6"
         style="fill:#6dc6c1;fill-opacity:1;fill-rule:nonzero;stroke:none"
         id="path186" /><path
         d="m 45255.9,5039.3 c -71.1,0 -134.2,51 -146.9,123.6 l -1262,7221.3 c -14.2,81.2 40.2,158.4 121.4,172.7 80.9,13.9 158.5,-40.2 172.7,-121.4 l 1262,-7221.3 c 14.1,-81.2 -40.3,-158.4 -121.4,-172.7 -8.6,-1.5 -17.4,-2.2 -25.8,-2.2"
         style="fill:#6dc6c1;fill-opacity:1;fill-rule:nonzero;stroke:none"
         id="path188" /><path
         d="m 38097.6,5188.5 c -8.4,0 -17.2,0.7 -25.8,2.2 -81.1,14.3 -135.5,91.5 -121.3,172.7 l 1261.9,7221.4 c 14.2,81.1 91.5,135.2 172.7,121.3 81.2,-14.2 135.5,-91.5 121.4,-172.7 l -1262,-7221.3 c -12.7,-72.6 -75.8,-123.6 -146.9,-123.6"
         style="fill:#6dc6c1;fill-opacity:1;fill-rule:nonzero;stroke:none"
         id="path190" /><path
         d="m 47657.1,12443.6 c 1.5,-8.4 2.2,-17 2.3,-25.8 -0.2,-82.5 -67.1,-149.1 -149.5,-149 l -7330.8,11.9 c -82.4,0.2 -147.9,66.9 -149,149.5 0.2,82.4 67.1,149 149.5,148.9 l 7330.8,-11.9 c 73.6,0 134.6,-53.4 146.7,-123.6"
         style="fill:#6dc6c1;fill-opacity:1;fill-rule:nonzero;stroke:none"
         id="path192" /><path
         d="m 39967.3,18845.2 c -423.1,405.4 -86,1002.1 690.6,1895.5 776.6,893.5 945.9,2188.4 2002.4,2824.4 1056.6,636.1 2367.1,-348.9 1551.7,-1407.1 -815.4,-1058.3 -2843.3,-3061.4 -3546.2,-3441.2 -702.9,-379.8 -698.5,128.4 -698.5,128.4"
         style="fill:#368f8e;fill-opacity:1;fill-rule:nonzero;stroke:none"
         id="path194" /><path
         d="m 35772.9,17843.5 c 1375.3,485.8 3388.8,1781.9 4223.3,1846.6 834.5,64.7 876.6,-561.1 636.8,-895.9 -239.9,-334.7 -2938.4,-1307.1 -4385.1,-1375 -1446.7,-67.9 -475,424.3 -475,424.3"
         style="fill:#f8ab78;fill-opacity:1;fill-rule:nonzero;stroke:none"
         id="path196" /><path
         d="m 36925.3,18443.2 c 1116.5,551.8 2483.1,1312.7 3067.5,1358 834.5,64.7 974.7,-687.8 734.9,-1022.5 -196.5,-274.3 -2010.3,-996 -3466.9,-1278.1 l -335.5,942.6"
         style="fill:#368f8e;fill-opacity:1;fill-rule:nonzero;stroke:none"
         id="path198" /><path
         d="m 46439.8,14005.1 c 43.3,2988.8 -7772.6,2377.8 -9041.8,2470.9 -1269.2,93.1 -2522.5,-705.1 -130.6,-1872.3 2391.9,-1167.2 6304.8,-2500.2 7684.1,-1738.3 1379.3,761.9 1488.3,1139.7 1488.3,1139.7"
         style="fill:#284c7c;fill-opacity:1;fill-rule:nonzero;stroke:none"
         id="path200" /><path
         d="m 45921.9,15618.2 c -2100.8,1101.4 -7641,-949 -8699.9,-1113.9 -1257.4,-195.8 -2298.2,-1256.3 295.4,-1853.4 2593.6,-597.1 6737.1,-543.9 8122.6,13.5 1200.5,482.9 1146.6,2147.7 925.1,2568.1 -182.9,347.3 -465.1,292.3 -643.2,385.7"
         style="fill:#1e3961;fill-opacity:1;fill-rule:nonzero;stroke:none"
         id="path202" /><path
         d="m 42581.5,23467.5 c -229.6,-374.3 -290.4,-2009 -290.4,-2584.6 l 785.7,-5166.2 c 0,0 672.4,-840.6 1673.9,-840.6 116.7,0 230.7,5 341.2,13.6 838.6,64.8 1473.2,342.8 1473.2,342.8 l 287.8,7042.9 c 826.8,1595.9 -3723.8,2084.6 -4271.4,1192.1"
         style="fill:#42abaa;fill-opacity:1;fill-rule:nonzero;stroke:none"
         id="path204" /><path
         d="m 42777.5,26834.1 1463,52.7 661.7,-2779.4 c 91.8,-385.6 -146.4,-772.5 -531.9,-864.4 -385.6,-91.8 -772.6,146.4 -864.4,532 l -728.4,3059.1"
         style="fill:#f8ab78;fill-opacity:1;fill-rule:nonzero;stroke:none"
         id="path206" /><path
         d="m 39429.9,17009.7 h -4051.1 l -1236.4,3750.6 c -33.6,101.8 42.3,206.7 149.5,206.7 h 3915.5 c 110.4,0 208.5,-70.6 243.6,-175.3 L 39627.2,17284 c 45.2,-134.9 -55.1,-274.3 -197.3,-274.3"
         style="fill:#368f8e;fill-opacity:1;fill-rule:nonzero;stroke:none"
         id="path208" /><path
         d="m 39411.9,17009.7 h -3982.8 c -82.6,0 -156,52.8 -182.2,131.1 L 34064,20669.3 c -35.2,105 42.9,213.6 153.7,213.6 h 3937.1 c 97.4,0 183.9,-62.2 214.8,-154.5 l 1181.7,-3524.9 c 32,-95.3 -38.9,-193.8 -139.4,-193.8"
         style="fill:#6dc6c1;fill-opacity:1;fill-rule:nonzero;stroke:none"
         id="path210" /><path
         d="m 42240.6,16789.6 h -5381.2 c -416.4,0 -829.4,75.4 -1219,222.4 h 7819.2 l -7.3,-2.7 c -387.5,-145.3 -797.9,-219.7 -1211.7,-219.7"
         style="fill:#368f8e;fill-opacity:1;fill-rule:nonzero;stroke:none"
         id="path212" /><path
         d="m 36702,18538 c -282.9,0 -571.2,219.5 -643.9,490.3 -72.6,270.7 97.9,490.2 380.8,490.2 283,0 571.2,-219.5 643.9,-490.2 72.7,-270.8 -97.8,-490.3 -380.8,-490.3"
         style="fill:#b7e6e1;fill-opacity:1;fill-rule:nonzero;stroke:none"
         id="path214" /><path
         d="m 35595.1,17687 v 0 c 0.5,-75.3 -60.8,-137.2 -136,-137.6 l -551.8,-3.3 c -75.3,-0.3 -137.3,61.1 -137.8,136.4 -0.5,75.4 60.7,137.3 136,137.6 l 551.7,3.3 c 75.3,0.3 137.4,-61.1 137.9,-136.4"
         style="fill:#f8ab78;fill-opacity:1;fill-rule:nonzero;stroke:none"
         id="path216" /><path
         d="m 35497.7,17959.6 v 0 c 0.5,-75.3 -60.7,-137.2 -136,-137.6 l -551.7,-3.3 c -75.3,-0.3 -137.4,61.1 -137.9,136.4 -0.5,75.4 60.7,137.3 136,137.6 l 551.8,3.3 c 75.3,0.3 137.3,-61.1 137.8,-136.4"
         style="fill:#f8ab78;fill-opacity:1;fill-rule:nonzero;stroke:none"
         id="path218" /><path
         d="m 35216.6,18222.5 v 0 c 0.5,-75.4 -60.7,-137.3 -136,-137.6 l -387.5,-3.3 c -75.2,-0.4 -137.3,61 -137.8,136.4 -0.5,75.3 60.7,137.2 136,137.5 l 387.4,3.4 c 75.3,0.3 137.3,-61.1 137.9,-136.4"
         style="fill:#f8ab78;fill-opacity:1;fill-rule:nonzero;stroke:none"
         id="path220" /><path
         d="m 35508.6,17424.1 v 0 c 0.5,-75.3 -60.7,-137.2 -136,-137.5 l -387.4,-3.3 c -75.3,-0.4 -137.3,61 -137.8,136.4 -0.5,75.3 60.7,137.2 136,137.5 l 387.4,3.4 c 75.3,0.3 137.3,-61.1 137.8,-136.5"
         style="fill:#f8ab78;fill-opacity:1;fill-rule:nonzero;stroke:none"
         id="path222" /><path
         d="m 37600.7,7155.3 415.4,-1476.2 607.3,95.3 -273.4,1922.7 -749.3,-541.8"
         style="fill:#54225d;fill-opacity:1;fill-rule:nonzero;stroke:none"
         id="path224" /><path
         d="m 37708.3,5960.3 c 503,-63.3 989.2,78.9 1038.2,-47.8 48.9,-126.7 121.3,-911.6 121.3,-911.6 l -3168,-47.4 -3.4,226.4 c 0,0 1015.7,206.9 1243.6,333.4 284.2,157.8 768.3,447 768.3,447"
         style="fill:#1e3961;fill-opacity:1;fill-rule:nonzero;stroke:none"
         id="path226" /><path
         d="m 36233.3,14063.2 c 1692.5,379.4 2210.5,-1622.4 2268.4,-2764.3 58,-1141.9 553.5,-5680.5 553.5,-5680.5 l -1576.7,241 c 0,0 -1477.7,6424.9 -1564.5,7201.2 -86.9,776.3 319.3,1002.6 319.3,1002.6"
         style="fill:#1e3961;fill-opacity:1;fill-rule:nonzero;stroke:none"
         id="path228" /><path
         d="m 33640.7,8237.2 c 493.8,114.2 901.2,415.4 990.8,313.4 89.7,-102 428.5,-813.7 428.5,-813.7 l -2957,-1137.7 -81.3,211.3 c 0,0 881.9,544.8 1052.1,742.1 212.3,246.2 566.9,684.6 566.9,684.6"
         style="fill:#284c7c;fill-opacity:1;fill-rule:nonzero;stroke:none"
         id="path230" /><path
         d="m 34306,9858.6 -658.1,-1822.1 700.2,104.1 882.5,1730 -924.6,-12"
         style="fill:#284c7c;fill-opacity:1;fill-rule:nonzero;stroke:none"
         id="path232" /><path
         d="m 36526,16365.1 c 1653.1,-526.3 1079.7,-2532.1 547.8,-3556.2 -531.8,-1024 -2031,-4644.7 -2031,-4644.7 l -1469.9,366.9 c 0,0 1846,6402.1 2166.7,7122.2 320.7,720.2 786.4,711.8 786.4,711.8"
         style="fill:#284c7c;fill-opacity:1;fill-rule:nonzero;stroke:none"
         id="path234" /><path
         d="m 43996.8,22999 -187.9,-250.6 -814.4,-7204.3 626.4,-877.1 626.6,689.1 -125.3,7455 -125.4,187.9"
         style="fill:#f9a60d;fill-opacity:1;fill-rule:nonzero;stroke:none"
         id="path236" /><path
         d="m 43683.6,23374.9 125.3,-626.5 313.3,-62.6 313.2,689.1 -393.6,26.5 -358.2,-26.5"
         style="fill:#f39f0f;fill-opacity:1;fill-rule:nonzero;stroke:none"
         id="path238" /><path
         d="m 43249,23744.9 c 143.2,191.7 223.9,163.4 223.9,163.4 0,0 265.3,-526.7 690.7,-431.7 425.3,95 748,593.6 748,593.6 0,0 254.7,-92.7 323.1,-580.3 68.4,-487.6 -583.1,-858 -583.1,-858 0,0 30,689.1 -563.8,689.1 -593.9,0 -877.1,-626.5 -877.1,-626.5 0,0 -298.4,599.7 38.3,1050.4"
         style="fill:#ffffff;fill-opacity:1;fill-rule:nonzero;stroke:none"
         id="path240" /><path
         d="m 48289.9,17547.8 c -545.1,-215 -946.3,340.6 -1433.4,1419.5 -487.2,1078.9 -1592.9,1773.9 -1729.2,2999.5 -136.3,1225.7 1306.2,2004.7 1926.8,821.7 620.7,-1183 1476.9,-3673 1528.2,-4470.2 51.3,-797.3 -292.4,-770.5 -292.4,-770.5"
         style="fill:#6dc6c1;fill-opacity:1;fill-rule:nonzero;stroke:none"
         id="path242" /><path
         d="m 43359.4,18406.9 c 1457.6,-53.6 3806.4,411.8 4606.4,165.3 799.9,-246.5 609,-844 262.9,-1067.2 -346,-223.2 -3213,-135.9 -4583.5,332.6 -1370.4,468.5 -285.8,569.3 -285.8,569.3"
         style="fill:#f8ab78;fill-opacity:1;fill-rule:nonzero;stroke:none"
         id="path244" /><path
         d="m 43659.1,18449.2 c 1867,84.2 3634.2,463.1 4302.2,257.2 800,-246.5 713.1,-972.4 367.1,-1195.6 -273.9,-176.6 -2752.4,-242.6 -4652.4,-9.3 l -16.9,947.7"
         style="fill:#6dc6c1;fill-opacity:1;fill-rule:nonzero;stroke:none"
         id="path246" /><path
         d="m 41971.5,17977.6 v 0 c 65.8,-16.8 105.8,-84.2 88.9,-149.8 l -184.8,-718.9 c -16.8,-65.6 -84.4,-105.5 -150.2,-88.7 -65.7,16.8 -105.7,84.2 -88.9,149.8 l 184.8,719 c 16.9,65.5 84.5,105.4 150.2,88.6"
         style="fill:#f8ab78;fill-opacity:1;fill-rule:nonzero;stroke:none"
         id="path248" /><path
         d="m 41909.8,17861.8 v 0 c 52.9,-42.3 61.5,-120.2 19,-173 l -465.9,-578.8 c -42.5,-52.8 -120.5,-61.3 -173.5,-19 -52.9,42.4 -61.4,120.3 -19,173.1 l 465.9,578.8 c 42.5,52.8 120.5,61.3 173.5,18.9"
         style="fill:#f8ab78;fill-opacity:1;fill-rule:nonzero;stroke:none"
         id="path250" /><path
         d="m 43280.7,18146.3 v 0 c 166.7,-63.9 234.2,-263.3 140.3,-414.8 l -16.7,-27 c -55.7,-90 -156.9,-141.7 -262.7,-134.2 l -309.4,-17.5 c -108.7,-6.2 -202.8,-59.9 -282.7,-133.7 l -106.6,-97.5 c -110.5,-102.8 -326.5,-123.4 -388.9,-32.3 -28.9,42.2 -18,99.8 24.3,128.6 l 929.9,690.9 c 78.4,58.3 181.2,72.4 272.5,37.5"
         style="fill:#d59470;fill-opacity:1;fill-rule:nonzero;stroke:none"
         id="path252" /><path
         d="m 43250.5,18402.2 -994.5,-181.7 c -35.2,-6.4 -69.1,-18.8 -100.2,-36.5 l -1155.2,-657.4 c -28.7,-16.4 -36.5,-54.1 -16.7,-80.5 61.6,-82.1 171.6,-111.6 266.2,-71.3 l 798.3,340.1 c 100,42.6 210.1,56.2 317.6,39.2 l 406.2,-64.3 c 0,0 539.8,-316.6 788.6,171 156.1,306.1 -8.4,453.1 -128.9,515.7 -55.7,28.9 -119.7,36.9 -181.4,25.7"
         style="fill:#f8ab78;fill-opacity:1;fill-rule:nonzero;stroke:none"
         id="path254" /><path
         d="M 18296.9,19691.4 H 11792 c -13.5,0 -22.2,10.6 -19.4,23.6 l 771.3,3614.7 c 2.8,13.1 16,23.7 29.5,23.7 13.6,0 22.3,-10.6 19.5,-23.7 l -766.3,-3591 H 18307 c 13.5,0 22.2,-10.6 19.4,-23.7 -2.8,-13 -16,-23.6 -29.5,-23.6"
         style="fill:#6dc6c1;fill-opacity:1;fill-rule:nonzero;stroke:none"
         id="path256" /><path
         d="m 13127.9,19806.2 h -978.1 l 564.1,2644.1 h 978.2 l -564.2,-2644.1"
         style="fill:#6dc6c1;fill-opacity:1;fill-rule:nonzero;stroke:none"
         id="path258" /><path
         d="m 14390.1,19806.2 h -978.2 l 434.3,2035.2 h 978.1 l -434.2,-2035.2"
         style="fill:#6dc6c1;fill-opacity:1;fill-rule:nonzero;stroke:none"
         id="path260" /><path
         d="M 15652.2,19806.2 H 14674 l 698.1,3271.7 h 978.2 l -698.1,-3271.7"
         style="fill:#6dc6c1;fill-opacity:1;fill-rule:nonzero;stroke:none"
         id="path262" /><path
         d="m 16914.4,19806.2 h -978.2 l 295.6,1385.3 h 978.2 l -295.6,-1385.3"
         style="fill:#6dc6c1;fill-opacity:1;fill-rule:nonzero;stroke:none"
         id="path264" /><path
         d="m 18176.5,19806.2 h -978.2 l 614.5,2879.9 h 978.2 l -614.5,-2879.9"
         style="fill:#6dc6c1;fill-opacity:1;fill-rule:nonzero;stroke:none"
         id="path266" /><path
         d="m 13539.7,21735.9 h -978.2 l 152.4,714.4 h 978.2 l -152.4,-714.4"
         style="fill:#42abaa;fill-opacity:1;fill-rule:nonzero;stroke:none"
         id="path268" /><path
         d="m 14622.7,20896.7 h -978.1 l 201.6,944.7 h 978.1 l -201.6,-944.7"
         style="fill:#42abaa;fill-opacity:1;fill-rule:nonzero;stroke:none"
         id="path270" /><path
         d="m 16311.5,22896 h -978.2 l 38.8,181.9 h 978.2 l -38.8,-181.9"
         style="fill:#5cbdb9;fill-opacity:1;fill-rule:nonzero;stroke:none"
         id="path272" /><path
         d="m 17095.4,20654.6 h -978.2 l 114.6,536.9 h 978.2 l -114.6,-536.9"
         style="fill:#42abaa;fill-opacity:1;fill-rule:nonzero;stroke:none"
         id="path274" /><path
         d="m 18542.7,21522.4 h -978.2 l 248.3,1163.7 h 978.2 l -248.3,-1163.7"
         style="fill:#42abaa;fill-opacity:1;fill-rule:nonzero;stroke:none"
         id="path276" /><path
         d="m 12552,21853 c -1089.2,-1029.7 -2671.79,-1667.4 -3124.67,-2407.5 -452.85,-740.1 93.31,-1092.7 509.4,-1038.5 416.07,54.2 2360.97,1911.2 3080.07,3230.8 284.7,522.4 -464.8,215.2 -464.8,215.2"
         style="fill:#f8ab78;fill-opacity:1;fill-rule:nonzero;stroke:none"
         id="path278" /><path
         d="m 13926.9,21604.8 v 0 c -58.4,25.4 -85.5,93.9 -60.1,152.2 l 278.6,639.1 c 25.4,58.3 94,85.2 152.5,59.8 58.5,-25.4 85.5,-93.8 60.1,-152.2 l -278.6,-639.1 c -25.4,-58.3 -94,-85.2 -152.5,-59.8"
         style="fill:#f8ab78;fill-opacity:1;fill-rule:nonzero;stroke:none"
         id="path280" /><path
         d="m 14001.5,21703 v 0 c -42.8,47.2 -39.1,120.7 8.1,163.3 l 518.3,467.2 c 47.3,42.7 121,38.9 163.8,-8.3 42.7,-47.2 39,-120.7 -8.2,-163.3 l -518.3,-467.2 c -47.3,-42.7 -121,-38.9 -163.7,8.3"
         style="fill:#f8ab78;fill-opacity:1;fill-rule:nonzero;stroke:none"
         id="path282" /><path
         d="m 12687.8,21643.7 v 0 c -145.1,84.1 -177.9,279 -68.3,405.5 l 19.5,22.6 c 65.2,75.1 166.7,108 263.7,85.3 l 289.5,-30 c 101.7,-10.5 197,25.4 282.1,81.8 l 113.4,74.6 c 117.7,78.8 321.1,65.7 365.4,-28.1 20.5,-43.4 1.8,-95.2 -41.7,-115.6 l -965.3,-502 c -81.4,-42.4 -178.9,-40.1 -258.3,5.9"
         style="fill:#f8ab78;fill-opacity:1;fill-rule:nonzero;stroke:none"
         id="path284" /><path
         d="m 12677.6,21401.9 949.3,20.1 c 33.7,0.7 66.9,7.1 98.4,18.9 l 1169.2,437.4 c 29,10.8 41.9,44.6 27.5,72.1 -44.8,85.4 -142.4,129.1 -236.2,105.8 l -791,-196.3 c -99.1,-24.6 -203.2,-20.7 -300.3,11 l -367.1,120.2 c 0,0 -453.4,374.2 -756.8,-40.9 -190.4,-260.6 -59.8,-421.5 42.6,-497.5 47.4,-35.1 105.5,-52.1 164.4,-50.8"
         style="fill:#f8ab78;fill-opacity:1;fill-rule:nonzero;stroke:none"
         id="path286" /><path
         d="m 10142.4,18484.3 c 402.3,361.1 108.9,900.6 -580.92,1710.6 -689.85,810 -807.67,1976 -1763.37,2556.8 -955.7,580.8 -1652.38,-336.2 -931.62,-1294.7 720.79,-958.5 1882.09,-2567.9 2519.17,-2915.3 637.04,-347.4 756.74,-57.4 756.74,-57.4"
         style="fill:#f8ab78;fill-opacity:1;fill-rule:nonzero;stroke:none"
         id="path288" /><path
         d="m 6866.49,21457 c -720.79,958.5 -24.08,1875.5 931.62,1294.7 634.48,-385.5 899.92,-1029 1208.33,-1655 L 7901.28,20091.1 c -374.55,477.1 -741.18,975.5 -1034.79,1365.9"
         style="fill:#ed9b11;fill-opacity:1;fill-rule:nonzero;stroke:none"
         id="path290" /><path
         d="M 8727.45,15354.5 H 4510.99 c -254.86,0 -461.47,-206.7 -461.47,-461.5 0,-254.9 206.61,-461.5 461.47,-461.5 h 4216.46 c 254.85,0 461.47,206.6 461.47,461.5 0,254.8 -206.62,461.5 -461.47,461.5"
         style="fill:#3b464b;fill-opacity:1;fill-rule:nonzero;stroke:none"
         id="path292" /><path
         d="M 7973.82,15354.5 H 3757.34 c -254.83,0 -461.44,-206.7 -461.44,-461.5 0,-254.9 206.61,-461.5 461.44,-461.5 h 4216.48 c 254.84,0 461.48,206.6 461.48,461.5 0,254.8 -206.64,461.5 -461.48,461.5"
         style="fill:#242828;fill-opacity:1;fill-rule:nonzero;stroke:none"
         id="path294" /><path
         d="m 5822.63,14334.3 221.84,578.9 c 757.46,1976.9 807.91,4154.9 142.77,6164.6 l -323.66,978 H 1141.44 l 323.69,-978 c 665.11,-2009.7 614.69,-4187.7 -142.81,-6164.6 l -221.83,-578.9 c -328.01,-856.1 508.39,-1980 1425.21,-1980 h 4722.14 c -916.82,0 -1753.25,1123.9 -1425.21,1980"
         style="fill:#6dc6c1;fill-opacity:1;fill-rule:nonzero;stroke:none"
         id="path296" /><path
         d="m 863.188,4943 c -8.618,0 -17.266,0.7 -26.098,2.2 -81.852,14.4 -136.621,92.3 -122.301,174.2 l 1272.941,7283.9 c 14.33,81.8 91.93,135.5 174.18,122.4 81.88,-14.4 136.62,-92.3 122.29,-174.1 L 1011.29,5067.6 C 998.559,4994.4 934.984,4943 863.188,4943"
         style="fill:#6dc6c1;fill-opacity:1;fill-rule:nonzero;stroke:none"
         id="path298" /><path
         d="m 9970.87,12529.1 c 1.45,-8.4 2.2,-17 2.25,-25.8 -0.21,-82.5 -67.08,-149.1 -149.45,-149 l -7330.81,11.9 c -82.41,0.1 -147.91,66.9 -149.06,149.4 0.24,82.5 67.08,149.1 149.49,149 l 7330.8,-11.9 c 73.65,0 134.66,-53.4 146.78,-123.6"
         style="fill:#6dc6c1;fill-opacity:1;fill-rule:nonzero;stroke:none"
         id="path300" /><path
         d="m 8033.66,5008.1 c -71.19,0 -134.21,51 -146.83,123.6 l -1262.07,7221.4 c -14.21,81.1 40.08,158.4 121.27,172.6 81.95,13 158.6,-40.2 172.69,-121.4 L 8180.76,5183 c 14.24,-81.2 -40.05,-158.4 -121.24,-172.7 -8.72,-1.5 -17.32,-2.2 -25.86,-2.2"
         style="fill:#6dc6c1;fill-opacity:1;fill-rule:nonzero;stroke:none"
         id="path302" /><path
         d="m 4314.93,5008.1 c -8.54,0 -17.13,0.7 -25.88,2.2 -81.16,14.3 -135.46,91.5 -121.24,172.7 l 1262.01,7221.3 c 14.12,81.2 91.51,134.4 172.69,121.4 81.17,-14.2 135.43,-91.5 121.22,-172.6 L 4461.74,5131.7 c -12.6,-72.6 -75.62,-123.6 -146.81,-123.6"
         style="fill:#6dc6c1;fill-opacity:1;fill-rule:nonzero;stroke:none"
         id="path304" /><path
         d="m 11473.2,5008.1 c -71.2,0 -134.2,51 -146.8,123.6 l -1262.1,7221.4 c -14.2,81.1 40.1,158.4 121.2,172.6 81.7,13 158.6,-40.2 172.7,-121.4 L 11620.3,5183 c 14.2,-81.2 -40.1,-158.4 -121.3,-172.7 -8.7,-1.5 -17.3,-2.2 -25.8,-2.2"
         style="fill:#6dc6c1;fill-opacity:1;fill-rule:nonzero;stroke:none"
         id="path306" /><path
         d="m 3587.25,13143 c -793.43,1588.5 652.31,2508.9 3591.44,3271.2 2939.11,762.4 3911.81,1270.3 4364.21,205 363.3,-855.5 -912,-1707.4 -3726.89,-2861.8 C 5001.13,12603 3989.44,12337.8 3587.25,13143"
         style="fill:#284c7c;fill-opacity:1;fill-rule:nonzero;stroke:none"
         id="path308" /><path
         d="m 6229.25,25975.9 1290.79,-535 -661.82,-3347.4 -1344.05,265.7 715.08,3616.7"
         style="fill:#f8ab78;fill-opacity:1;fill-rule:nonzero;stroke:none"
         id="path310" /><path
         d="m 5736.67,25812.4 c 2.89,1.4 6.04,1.8 8.99,3.1 -134.92,259.5 -231.73,342.8 -96.23,855 243.41,920.2 1369.01,741.5 1881.73,563.2 1313.2,-456.5 694.76,-3302.2 108.21,-3597.4 -586.55,-295.2 -1565.91,527.8 -1596.63,918 -17.48,222.1 -339.52,637.4 -412.83,785.2 -92.3,186.2 -44.5,397.9 106.76,472.9"
         style="fill:#f8ab78;fill-opacity:1;fill-rule:nonzero;stroke:none"
         id="path312" /><path
         d="m 6722.63,23167.1 c 373.37,-87.1 879.66,-120 1113.17,-759.4 217.7,-596.2 -263.82,-1629.5 -6.92,-2673.9 8.35,-170.3 -193.51,-688.5 -753.76,-768.9 -389.01,-55.8 -1461.23,-2569.9 -1461.23,-2569.9 0,0 -296.68,-900.6 -1354.81,-542.1 -1058.11,358.5 -912.58,566.6 -635.76,1573.3 276.85,1006.7 95.56,4634.2 451.34,5289.2 355.78,655 1960.55,612 2647.97,451.7"
         style="fill:#f9a60d;fill-opacity:1;fill-rule:nonzero;stroke:none"
         id="path314" /><path
         d="m 6324.89,22207.7 c 520.28,-260.2 1138.18,212.9 1027.26,776.3 -208.01,107.3 -521.7,233.9 -714.74,278.9 -314.06,73.3 -634.69,29.9 -1016.89,3 15.04,-3.5 28.81,-6.1 39.87,-6.1 276.87,-332.3 276.87,-886 664.5,-1052.1"
         style="fill:#f8ab78;fill-opacity:1;fill-rule:nonzero;stroke:none"
         id="path316" /><path
         d="m 3623.32,17426.2 c -884.59,-1263.7 -1830.69,-1658 -1796.55,-3173.5 20.6,-916.8 764.31,-1597.4 1545.28,-1603.3 676.99,-5.2 1131.68,111 1464.43,972.5 796.88,2063.3 950.72,3131.5 950.72,3131.5 l -2163.88,672.8"
         style="fill:#1e3961;fill-opacity:1;fill-rule:nonzero;stroke:none"
         id="path318" /><path
         d="m 1927.02,13845.1 c -509.29,1702.1 2047.28,1843 5376.23,1548.1 3328.95,-294.9 3982.55,-467.8 4708.25,-964.7 348.2,-238.5 135.4,-1123.8 -800.9,-1490.2 -1015.3,-397.4 -2678.33,-267.3 -4422.14,-327.7 -3351.99,-116.1 -4452.03,-133.8 -4861.44,1234.5"
         style="fill:#1e3961;fill-opacity:1;fill-rule:nonzero;stroke:none"
         id="path320" /><path
         d="M 8641.39,7751 8175.62,8061.6 7344.4,6648 l -62.21,-283.9 1593.08,-935.3 81.06,398.7 -780.71,867.7 465.77,1055.8"
         style="fill:#f8ab78;fill-opacity:1;fill-rule:nonzero;stroke:none"
         id="path322" /><path
         d="m 7345.17,6662.7 c 220.24,-397.4 876.35,-694 1297.08,-853.9 71.21,-27 254.74,87.7 314.08,18.7 311.06,-361.9 916.42,-372.7 1182.07,-514.9 108.4,-58 75.2,-315.1 75.2,-315.1 H 8719.97 c 0,0 -141.56,96.8 -586.42,498 -444.89,401.2 -639.97,298 -641.95,220.1 -1.98,-78 42.04,-718.2 42.04,-718.2 H 7394.1 c 0,0 67.39,208.7 -21.6,448.8 -82.21,221.9 -323.52,485 -274.64,689.8 101.76,426.4 247.31,526.7 247.31,526.7"
         style="fill:#284c7c;fill-opacity:1;fill-rule:nonzero;stroke:none"
         id="path324" /><path
         d="m 7631.89,7243.3 c 654.66,1156 1008.06,3497.6 1479.93,4693.8 697.6,1768.3 1994.58,3083.6 2575.28,2827.8 853.4,-375.9 500.5,-1220 -115.9,-2342.6 -465.4,-847.6 -2408.35,-3883.6 -3115.37,-5677.1 l -823.94,498.1"
         style="fill:#1e3961;fill-opacity:1;fill-rule:nonzero;stroke:none"
         id="path326" /><path
         d="m 13217,9811.2 -736.6,310.8 427.9,-1315.1 23.8,-391.2 1780.3,-473 -28.7,404.7 -1106.6,675.5 -360.1,788.3"
         style="fill:#f8ab78;fill-opacity:1;fill-rule:nonzero;stroke:none"
         id="path328" /><path
         d="m 12912.8,8719.4 c 317.8,-323 1027.3,-432.7 1474.2,-473.9 75.7,-6.9 221.3,152.3 296.7,101.9 395.6,-264.6 1013,-232 1306.2,-297.6 119.6,-26.7 140,-223.4 140,-223.4 l -1446,-359.3 c 0,0 -167.3,74.9 -701.9,341.5 -534.6,266.7 -694.4,115.4 -675.5,40 18.9,-75.4 229.7,-669.4 229.7,-669.4 l -136.2,-29.7 c 0,0 13.7,201.6 -136,408.5 -138.2,191.1 -440.3,379.5 -448,589.2 -16.2,436.9 96.8,572.2 96.8,572.2"
         style="fill:#284c7c;fill-opacity:1;fill-rule:nonzero;stroke:none"
         id="path330" /><path
         d="m 12713.5,8889 c -609.2,1184.1 -1739.5,3179 -2212.8,4374.6 -699.63,1767.6 -652.13,3614.1 -53.4,3824.4 879.8,309 1199.2,-548.3 1516.7,-1789.1 239.7,-936.7 813.6,-4337.8 1632.4,-6083.1 L 12713.5,8889"
         style="fill:#284c7c;fill-opacity:1;fill-rule:nonzero;stroke:none"
         id="path332" /><path
         d="m 1176.93,18961.4 c 415.85,-348.5 910.18,19.4 1617.1,819.6 706.92,800.2 1848.7,1082.6 2290.17,2114.5 441.48,1031.8 -568.33,1593.9 -1418.41,741.9 -850.06,-852 -2284.32,-2233.9 -2539.12,-2916.1 -254.756,-682.2 50.26,-759.9 50.26,-759.9"
         style="fill:#f8ab78;fill-opacity:1;fill-rule:nonzero;stroke:none"
         id="path334" /><path
         d="m 3647.32,22686.2 c 899.69,901.8 1968.43,306.8 1501.2,-785.3 -310.21,-725 -946.92,-1100.6 -1558.91,-1518.9 L 2366.4,21393.2 c 445.45,465.4 914.46,925.7 1280.92,1293"
         style="fill:#ed9b11;fill-opacity:1;fill-rule:nonzero;stroke:none"
         id="path336" /><path
         d="m 5099.93,16792.4 c 102.04,282.6 515.69,494 1010.5,494 494.76,0 908.44,-211.4 1010.44,-494 H 5099.93"
         style="fill:#6dc6c1;fill-opacity:1;fill-rule:nonzero;stroke:none"
         id="path338" /><path
         d="m 4788.1,17074.4 c -1231.75,863.3 -1991.95,2463.1 -2810.84,2759.1 -818.9,296.1 -1055.459,-311.9 -918.3,-710 137.14,-398.2 1811.08,-1867 3244.41,-2336.4 533.75,-174.8 517.14,-39.1 562.26,23.7 76.04,106 -77.53,263.6 -77.53,263.6"
         style="fill:#f8ab78;fill-opacity:1;fill-rule:nonzero;stroke:none"
         id="path340" /><path
         d="m 5495.55,17237.6 v 0 c -50.55,-39.2 -59.86,-112.5 -20.69,-162.9 l 429.46,-552.4 c 39.15,-50.4 112.56,-59.5 163.12,-20.3 50.55,39.2 59.88,112.5 20.71,162.9 l -429.46,552.4 c -39.17,50.4 -112.59,59.5 -163.14,20.3"
         style="fill:#f8ab78;fill-opacity:1;fill-rule:nonzero;stroke:none"
         id="path342" /><path
         d="m 5619.62,17268.6 v 0 c -29.89,-56.5 -8.09,-127 48.46,-156.7 L 6288,16786.1 c 56.55,-29.8 127.26,-7.8 157.18,48.7 29.86,56.5 8.03,127 -48.49,156.7 l -619.92,325.8 c -56.55,29.7 -127.26,7.8 -157.15,-48.7"
         style="fill:#f8ab78;fill-opacity:1;fill-rule:nonzero;stroke:none"
         id="path344" /><path
         d="m 4460.22,17277.5 928.15,216 c 32.89,7.6 66.82,9.7 100.36,6 l 1245.44,-135.2 c 30.95,-3.4 51.9,-33 44.69,-63.3 -22.46,-94.2 -106.52,-160.9 -203.46,-161.6 l -817.89,-5.3 c -102.48,-0.7 -202.73,-30.2 -289.28,-85.2 l -327.19,-208 c 0,0 -348.03,-476.3 -746.08,-147.9 -249.8,206.1 -162.65,395 -81.91,494.3 37.29,45.9 89.57,76.9 147.17,90.2"
         style="fill:#f8ab78;fill-opacity:1;fill-rule:nonzero;stroke:none"
         id="path346" /><path
         d="M 44921.9,16585.9 H 5024.39 v 230.5 H 44921.9 v -230.5"
         style="fill:#6dc6c1;fill-opacity:1;fill-rule:nonzero;stroke:none"
         id="path348" /><path
         d="m 6433.43,5008.1 c -8.52,0 -17.14,0.7 -25.87,2.2 -81.18,14.3 -135.45,91.5 -121.23,172.7 L 8271.7,16543.4 c 14.14,81.2 91.38,134.7 172.69,121.4 81.16,-14.3 135.46,-91.5 121.24,-172.7 L 6580.26,5131.7 c -12.6,-72.6 -75.65,-123.6 -146.83,-123.6"
         style="fill:#6dc6c1;fill-opacity:1;fill-rule:nonzero;stroke:none"
         id="path350" /><path
         d="m 43457.3,5008.1 c -71.1,0 -134.2,51 -146.9,123.6 L 41325,16492.1 c -14.1,81.2 40.3,158.4 121.4,172.7 80.8,13.6 158.6,-40.2 172.7,-121.4 L 43604.5,5183 c 14.1,-81.2 -40.2,-158.4 -121.4,-172.7 -8.6,-1.5 -17.3,-2.2 -25.8,-2.2"
         style="fill:#6dc6c1;fill-opacity:1;fill-rule:nonzero;stroke:none"
         id="path352" /><path
         d="m 30795.7,18344.1 c 107.7,-538.8 2059.4,-1144.1 2921.5,-1118 862.1,26.2 444.9,1133.7 80.3,1568.7 -364.7,435 -2079.9,330 -2498.9,179.2 -419.1,-150.9 -502.9,-629.9 -502.9,-629.9"
         style="fill:#f39f0f;fill-opacity:1;fill-rule:nonzero;stroke:none"
         id="path354" /><path
         d="m 31656.3,17044.5 h -6217.8 c -113.8,0 -216.2,80.2 -228.7,179.8 l -456.5,3620.1 c -16.3,129.8 76.7,235.8 208,235.8 h 7172.3 c 131.2,0 224.3,-106 207.9,-235.8 l -456.4,-3620.1 c -12.6,-99.6 -115,-179.8 -228.8,-179.8"
         style="fill:#ffffff;fill-opacity:1;fill-rule:nonzero;stroke:none"
         id="path356" /><path
         d="m 30867.9,16816.4 h -4649.4 c -449.2,0 -888.2,79.4 -1261.4,228.1 h 7180.6 l -126.4,-44 c -346.9,-120.6 -741.5,-184.1 -1143.4,-184.1"
         style="fill:#ffffff;fill-opacity:1;fill-rule:nonzero;stroke:none"
         id="path358" /><path
         d="m 28547.4,18387.1 c -316,0 -577,235.4 -583.1,531.4 -6.3,302.3 254.7,552.2 583.1,552.2 328.4,0 589.5,-249.9 583.2,-552.2 -6.1,-296 -267.2,-531.4 -583.2,-531.4"
         style="fill:#cdeeea;fill-opacity:1;fill-rule:nonzero;stroke:none"
         id="path360" /><path
         d="m 25479.4,18253 v 0 c 0.5,-75.3 -60.7,-137.2 -136,-137.5 l -551.8,-3.4 c -75.2,-0.3 -137.3,61.1 -137.8,136.5 -0.5,75.3 60.7,137.2 136,137.5 l 551.7,3.4 c 75.3,0.3 137.4,-61.1 137.9,-136.5"
         style="fill:#f8ab78;fill-opacity:1;fill-rule:nonzero;stroke:none"
         id="path362" /><path
         d="m 25414.8,18525.6 v 0 c 0.5,-75.3 -60.7,-137.2 -136,-137.5 l -551.7,-3.4 c -75.3,-0.3 -137.4,61.1 -137.9,136.5 -0.5,75.3 60.7,137.2 136,137.5 l 551.8,3.4 c 75.3,0.3 137.3,-61.1 137.8,-136.5"
         style="fill:#f8ab78;fill-opacity:1;fill-rule:nonzero;stroke:none"
         id="path364" /><path
         d="m 25250.5,18788.5 v 0 c 0.5,-75.3 -60.7,-137.3 -136,-137.5 l -387.4,-3.4 c -75.3,-0.3 -137.4,61.1 -137.9,136.4 -0.5,75.4 60.8,137.3 136,137.6 l 387.5,3.3 c 75.2,0.3 137.3,-61.1 137.8,-136.4"
         style="fill:#f8ab78;fill-opacity:1;fill-rule:nonzero;stroke:none"
         id="path366" /><path
         d="m 25397.2,17990.2 v 0 c 0.5,-75.4 -60.7,-137.3 -136,-137.6 l -387.4,-3.3 c -75.3,-0.4 -137.3,61.1 -137.8,136.4 -0.5,75.4 60.7,137.2 136,137.6 l 387.4,3.3 c 75.3,0.3 137.3,-61.1 137.8,-136.4"
         style="fill:#f8ab78;fill-opacity:1;fill-rule:nonzero;stroke:none"
         id="path368" /><path
         d="m 41810,27506.5 c -315.7,-921.4 757.2,-2005.3 757.2,-2005.3 l 163.8,2097.1 -921,-91.8"
         style="fill:#1e3961;fill-opacity:1;fill-rule:nonzero;stroke:none"
         id="path370" /><path
         d="m 43597.9,28092.9 c -1155.2,331.2 -1566.7,-212.3 -1608.7,-1119.7 -42,-907.5 257,-2506.9 854.8,-2578.4 597.8,-71.5 1488.6,451.1 1512.4,1370.9 23.8,919.6 -106.4,2140.2 -758.5,2327.2"
         style="fill:#f8ab78;fill-opacity:1;fill-rule:nonzero;stroke:none"
         id="path372" /><path
         d="m 41586.9,28296 c -446.1,-703.2 -216.3,-1068.1 342.3,-1021.1 558.6,47.1 1064.6,54.6 1709.3,386.8 -275.8,-682.7 661.6,-1796.3 302.7,-2056.3 -358.9,-260.1 -972,187.3 -1695.1,-98 -443.9,-175.1 -14.8,-1627.8 513.5,-1586.7 528.3,41 1680.1,495.9 1690.5,989.9 10.4,493.9 -584.5,1502.8 -406.9,1869.1 177.6,366.3 128.7,322 161.4,76.1 32.8,-246 264.2,-1336.1 264.2,-1336.1 0,0 181,1238.4 10.3,1944.3 -170.7,705.8 -563.7,1259.4 -1259.5,1027.6 -695.8,-231.8 -741.4,-480.4 -1186.3,-464.1 -445,16.3 -446.4,268.5 -446.4,268.5"
         style="fill:#1e3961;fill-opacity:1;fill-rule:nonzero;stroke:none"
         id="path374" /><path
         d="m 31021.2,26576.3 c 0,162 -88.6,302.1 -219,378.5 64.5,92.1 103,203.7 103,324.7 0,60.7 -12,118 -29.6,172.8 70,83.4 113.8,189.5 113.8,306.9 0,264.9 -214.8,479.7 -479.7,479.7 -264.9,0 -479.7,-214.8 -479.7,-479.7 0,-1.3 0.4,-2.4 0.4,-3.7 -156.2,-101 -260.2,-276 -260.2,-476 0,-255.7 170.2,-469.4 402.8,-540.3 -20.2,-50.5 -32,-105.3 -32,-162.9 0,-62.7 13.5,-122 37.1,-175.9 -163.9,-64.1 -280.5,-222.6 -280.5,-409.2 0,-243 197.1,-440.1 440.1,-440.1 243.1,0 440.1,197.1 440.1,440.1 0,62.7 -13.5,122 -37,175.9 163.8,64.1 280.4,222.6 280.4,409.2"
         style="fill:#1e3961;fill-opacity:1;fill-rule:nonzero;stroke:none"
         id="path376" /><path
         d="m 28702.3,28001.8 c 1063,545.2 1568.8,94.2 1784.3,-782.8 215.4,-877 231.2,-2494.4 -338,-2679 -569.3,-184.7 -1750.6,288 -1950.6,1180.4 -200,892.4 -95.8,1973.7 504.3,2281.4"
         style="fill:#f8ab78;fill-opacity:1;fill-rule:nonzero;stroke:none"
         id="path378" /><path
         d="m 30689.1,28176.1 c 2.5,21.4 6.5,42.4 6.5,64.4 0,310.7 -250.3,562.4 -560.3,565.8 -63.3,137.7 -201.6,233.8 -363.1,233.8 -106.9,0 -203.4,-42.4 -275.2,-110.6 -71.9,33 -151.3,52.7 -235.6,52.7 -122.9,0 -235.8,-40.1 -328.6,-106.6 -102.4,101.6 -243.2,164.5 -398.8,164.5 -298.4,0 -540.3,-231.6 -562.1,-524.4 -248.8,-59.7 -434.3,-282.2 -434.3,-549.3 0,-91.6 23.2,-177.2 61.9,-253.6 -124.2,-104.1 -204.9,-258.5 -204.9,-433.3 0,-123.3 40.4,-236.7 107.2,-329.8 -108.2,-103.3 -176.3,-248.2 -176.3,-409.6 0,-263.5 180.4,-483 423.8,-546.9 -40.2,-77.4 -64.9,-164 -64.9,-257.5 0,-271 189.9,-497.6 443.9,-554 39.8,-8.9 152.8,-10.8 223.9,21.3 -0.4,287.8 -36.5,655.4 -93.9,847.3 -37.4,165 -62.9,232.9 -55.5,384.2 7.1,143 94.1,321.4 299.2,244.4 -40.5,307.2 -70.1,731.3 282.1,826.9 459.4,124.7 1223.1,-389 1666.4,-339.7 388.6,43.1 473.1,823.7 238.6,1010"
         style="fill:#284c7c;fill-opacity:1;fill-rule:nonzero;stroke:none"
         id="path380" /><path
         d="m 7966.67,26254.5 c -269.93,547.4 -793.49,428.9 -709.28,1228.7 0,0 358.64,116.5 537.99,-121.4 396.62,-526.1 171.29,-1107.3 171.29,-1107.3"
         style="fill:#284c7c;fill-opacity:1;fill-rule:nonzero;stroke:none"
         id="path382" /><path
         d="m 6214.08,25408.4 c 222.26,1295.4 1062.68,1438.8 1322.68,1736.8 260.01,298 -87.6,884.6 -617.03,911.1 -529.45,26.5 -1723.06,-225.5 -1843.53,-1697 -80.92,-988.2 804.65,-1141.1 822.77,-2053.9 315.11,247.5 279.81,897.2 315.11,1103"
         style="fill:#284c7c;fill-opacity:1;fill-rule:nonzero;stroke:none"
         id="path384" /><path
         d="m 13465.3,25015.8 v 0 c 43.5,157.6 -66.8,315.7 -229.5,328.8 l -29.1,2.4 c -96.5,7.8 -189.6,-38.7 -241.6,-120.7 l -181.1,-218.6 c -63.6,-76.8 -154.3,-116.9 -252.1,-135.8 l -129.8,-25.6 c -135.8,-25.5 -268.4,-173.6 -235.2,-269 15.4,-44.2 63.8,-67.5 108.1,-51.9 l 1014.6,309.9 c 85.5,26.1 151.8,94.2 175.7,180.5"
         style="fill:#f8ab78;fill-opacity:1;fill-rule:nonzero;stroke:none"
         id="path386" /><path
         d="m 18220.3,28238.9 c -82.8,-1215.5 -169.1,-1599 -225.6,-1879.6 -54.6,-270.6 284.1,-787.1 996.3,-610.9 1449.6,358.5 -770.7,2490.5 -770.7,2490.5"
         style="fill:#1e3961;fill-opacity:1;fill-rule:nonzero;stroke:none"
         id="path388" /></g></g></svg>
